<svg xmlns="http://www.w3.org/2000/svg" width="498.772" height="349.232" viewBox="0 0 498.772 349.232">
  <g id="Grupo_1018059" data-name="Grupo 1018059" transform="translate(-839 -3553)">
    <path id="Trazado_706605" data-name="Trazado 706605" d="M40.693,210.354V315.316h152V204.7" transform="translate(855.656 3514.866)" fill="none" stroke="#b20d0d" stroke-linejoin="round" stroke-width="3"/>
    <path id="Trazado_706635" data-name="Trazado 706635" d="M40.693,210.354V315.316H226.957V204.7" transform="translate(1085.688 3513.832)" fill="none" stroke="#b20d0d" stroke-linejoin="round" stroke-width="3"/>
    <line id="Línea_662" data-name="Línea 662" x2="218.378" transform="translate(866.192 3829.281)" fill="none" stroke="#8a3d02" stroke-linejoin="round" stroke-width="3"/>
    <line id="Línea_671" data-name="Línea 671" x2="218.378" transform="translate(1113.178 3828.234)" fill="none" stroke="#8a3d02" stroke-linejoin="round" stroke-width="3"/>
    <path id="Trazado_718302" data-name="Trazado 718302" d="M15.512,0H9.24V-19.965l-6.16,1.8v-4.75l11.856-4.1h.575Zm26.9-11.04q0,5.474-2.458,8.442A8.5,8.5,0,0,1,33.027.371a8.541,8.541,0,0,1-6.977-2.987Q23.583-5.6,23.583-11.04v-4.936q0-5.474,2.458-8.442a8.517,8.517,0,0,1,6.949-2.969A8.52,8.52,0,0,1,39.948-24.4q2.468,2.987,2.468,8.442Zm-6.253-5.733a9.635,9.635,0,0,0-.761-4.351,2.543,2.543,0,0,0-2.412-1.438,2.483,2.483,0,0,0-2.347,1.336,9.077,9.077,0,0,0-.789,4.045v6.9a9.708,9.708,0,0,0,.761,4.425,2.553,2.553,0,0,0,2.412,1.4,2.518,2.518,0,0,0,2.356-1.364,9.268,9.268,0,0,0,.779-4.277Zm24.975-3.3.2,2.356a6.9,6.9,0,0,1,5.733-2.728q3.8,0,5.14,3.024a6.681,6.681,0,0,1,5.9-3.024q6.1,0,6.271,7.385V0H78.115V-12.673a3.827,3.827,0,0,0-.52-2.245,2.212,2.212,0,0,0-1.893-.705,2.963,2.963,0,0,0-2.765,1.651l.019.26V0H66.686V-12.636a4.023,4.023,0,0,0-.5-2.282,2.205,2.205,0,0,0-1.911-.705,3,3,0,0,0-2.746,1.651V0H55.274V-20.076Z" transform="translate(936.71 3744.431)" fill="#b20d0d"/>
    <path id="Trazado_718301" data-name="Trazado 718301" d="M15.512,0H9.24V-19.965l-6.16,1.8v-4.75l11.856-4.1h.575Zm27,0H23.657V-4.082l8.684-9.129q3.21-3.655,3.21-5.808a4.04,4.04,0,0,0-.761-2.653,2.716,2.716,0,0,0-2.208-.909,2.75,2.75,0,0,0-2.319,1.215,5,5,0,0,0-.891,3.034H23.1a8.872,8.872,0,0,1,1.243-4.592,8.718,8.718,0,0,1,3.451-3.293,10.252,10.252,0,0,1,4.936-1.187q4.379,0,6.745,2.022a7.22,7.22,0,0,1,2.366,5.808,8.433,8.433,0,0,1-.594,3.108A13.629,13.629,0,0,1,39.4-13.294a46.505,46.505,0,0,1-4.036,4.444L31.877-4.824H42.509ZM61.138-20.076l.2,2.356a6.9,6.9,0,0,1,5.733-2.728q3.8,0,5.14,3.024a6.681,6.681,0,0,1,5.9-3.024q6.1,0,6.271,7.385V0H78.115V-12.673a3.827,3.827,0,0,0-.52-2.245,2.212,2.212,0,0,0-1.893-.705,2.963,2.963,0,0,0-2.765,1.651l.019.26V0H66.686V-12.636a4.023,4.023,0,0,0-.5-2.282,2.205,2.205,0,0,0-1.911-.705,3,3,0,0,0-2.746,1.651V0H55.274V-20.076Z" transform="translate(1183.695 3743.387)" fill="#b20d0d"/>
    <path id="Trazado_718299" data-name="Trazado 718299" d="M9.945-3.789A4.025,4.025,0,0,1,8.59-.9,4.76,4.76,0,0,1,5.367.156,4.28,4.28,0,0,1,1.926-1.316,6.038,6.038,0,0,1,.672-5.359v-.7A6.819,6.819,0,0,1,1.25-8.945,4.332,4.332,0,0,1,2.9-10.863a4.629,4.629,0,0,1,2.5-.668A4.637,4.637,0,0,1,8.57-10.477,4.326,4.326,0,0,1,9.961-7.516H7.617A2.376,2.376,0,0,0,7-9.113a2.271,2.271,0,0,0-1.605-.5,1.991,1.991,0,0,0-1.754.84,4.707,4.707,0,0,0-.6,2.605V-5.3a5.038,5.038,0,0,0,.559,2.7,1.954,1.954,0,0,0,1.762.852,2.314,2.314,0,0,0,1.621-.5A2.241,2.241,0,0,0,7.6-3.789Zm3.883,1.906H18.8V0h-7.32V-11.375h2.344ZM22.641,0H20.3V-11.375h2.344Zm5.234-11.375L30.8-3.125l2.906-8.25h3.078V0H34.43V-3.109l.234-5.367L31.594,0H29.984L26.922-8.469l.234,5.359V0H24.813V-11.375ZM45.391-2.344H41.281L40.5,0H38.008l4.234-11.375h2.172L48.672,0H46.18Zm-3.477-1.9h2.844L43.328-8.5Zm20.734.453A4.025,4.025,0,0,1,61.293-.9,4.76,4.76,0,0,1,58.07.156a4.28,4.28,0,0,1-3.441-1.473,6.038,6.038,0,0,1-1.254-4.043v-.7a6.819,6.819,0,0,1,.578-2.891,4.332,4.332,0,0,1,1.652-1.918,4.629,4.629,0,0,1,2.5-.668,4.637,4.637,0,0,1,3.172,1.055,4.326,4.326,0,0,1,1.391,2.961H60.32a2.376,2.376,0,0,0-.613-1.6,2.271,2.271,0,0,0-1.605-.5,1.991,1.991,0,0,0-1.754.84,4.707,4.707,0,0,0-.6,2.605V-5.3a5.038,5.038,0,0,0,.559,2.7,1.954,1.954,0,0,0,1.762.852,2.314,2.314,0,0,0,1.621-.5A2.241,2.241,0,0,0,60.3-3.789Zm7.961,1.445H66.5L65.719,0H63.227l4.234-11.375h2.172L73.891,0H71.4Zm-3.477-1.9h2.844L68.547-8.5Zm1.9-10.18h2.461L69.328-12H67.492ZM77.3-1.883h4.977V0h-7.32V-11.375H77.3ZM86.109,0H83.766V-11.375h2.344Zm2.172,0V-11.375h3.5a5.315,5.315,0,0,1,2.684.676,4.712,4.712,0,0,1,1.848,1.922,5.928,5.928,0,0,1,.664,2.832v.523a5.945,5.945,0,0,1-.652,2.82,4.672,4.672,0,0,1-1.84,1.914A5.355,5.355,0,0,1,91.8,0Zm2.344-9.477v7.594h1.133a2.545,2.545,0,0,0,2.1-.9,4.06,4.06,0,0,0,.742-2.57v-.6a4.124,4.124,0,0,0-.719-2.629,2.537,2.537,0,0,0-2.1-.895Zm17.4,4.047a6.867,6.867,0,0,1-.594,2.945,4.472,4.472,0,0,1-1.7,1.953A4.7,4.7,0,0,1,103.2.156a4.732,4.732,0,0,1-2.523-.68,4.515,4.515,0,0,1-1.719-1.941,6.67,6.67,0,0,1-.617-2.9V-5.93a6.831,6.831,0,0,1,.605-2.957,4.508,4.508,0,0,1,1.711-1.961,4.706,4.706,0,0,1,2.527-.684,4.706,4.706,0,0,1,2.527.684,4.508,4.508,0,0,1,1.711,1.961,6.811,6.811,0,0,1,.605,2.949Zm-2.375-.516a4.787,4.787,0,0,0-.641-2.719,2.088,2.088,0,0,0-1.828-.93,2.088,2.088,0,0,0-1.82.918,4.732,4.732,0,0,0-.648,2.691v.555a4.847,4.847,0,0,0,.641,2.7,2.082,2.082,0,0,0,1.844.961,2.064,2.064,0,0,0,1.813-.926,4.819,4.819,0,0,0,.641-2.7Z" transform="translate(926.752 3639.621)" fill="#12263f"/>
    <path id="Trazado_718300" data-name="Trazado 718300" d="M9.945-3.789A4.025,4.025,0,0,1,8.59-.9,4.76,4.76,0,0,1,5.367.156,4.28,4.28,0,0,1,1.926-1.316,6.038,6.038,0,0,1,.672-5.359v-.7A6.819,6.819,0,0,1,1.25-8.945,4.332,4.332,0,0,1,2.9-10.863a4.629,4.629,0,0,1,2.5-.668A4.637,4.637,0,0,1,8.57-10.477,4.326,4.326,0,0,1,9.961-7.516H7.617A2.376,2.376,0,0,0,7-9.113a2.271,2.271,0,0,0-1.605-.5,1.991,1.991,0,0,0-1.754.84,4.707,4.707,0,0,0-.6,2.605V-5.3a5.038,5.038,0,0,0,.559,2.7,1.954,1.954,0,0,0,1.762.852,2.314,2.314,0,0,0,1.621-.5A2.241,2.241,0,0,0,7.6-3.789Zm3.883,1.906H18.8V0h-7.32V-11.375h2.344ZM22.641,0H20.3V-11.375h2.344Zm5.234-11.375L30.8-3.125l2.906-8.25h3.078V0H34.43V-3.109l.234-5.367L31.594,0H29.984L26.922-8.469l.234,5.359V0H24.813V-11.375ZM45.391-2.344H41.281L40.5,0H38.008l4.234-11.375h2.172L48.672,0H46.18Zm-3.477-1.9h2.844L43.328-8.5Zm18.648-.406h-4.5V0H53.719V-11.375h7.406v1.9H56.063v2.938h4.5Zm6.133.484H64.828V0H62.484V-11.375h4.227a4.778,4.778,0,0,1,3.109.9,3.1,3.1,0,0,1,1.094,2.539A3.5,3.5,0,0,1,70.41-6a3.437,3.437,0,0,1-1.527,1.238L71.344-.109V0H68.828Zm-1.867-1.9h1.891a1.936,1.936,0,0,0,1.367-.449A1.606,1.606,0,0,0,68.57-7.75a1.719,1.719,0,0,0-.457-1.266,1.9,1.9,0,0,0-1.4-.461H64.828ZM75.188,0H72.844V-11.375h2.344Zm-.727-14.445h2.461l-2.164,2.422H72.922ZM86.7-5.43a6.867,6.867,0,0,1-.594,2.945,4.472,4.472,0,0,1-1.7,1.953,4.7,4.7,0,0,1-2.535.688,4.732,4.732,0,0,1-2.523-.68,4.515,4.515,0,0,1-1.719-1.941,6.67,6.67,0,0,1-.617-2.9V-5.93a6.831,6.831,0,0,1,.605-2.957,4.508,4.508,0,0,1,1.711-1.961,4.706,4.706,0,0,1,2.527-.684,4.706,4.706,0,0,1,2.527.684A4.508,4.508,0,0,1,86.1-8.887,6.811,6.811,0,0,1,86.7-5.937Zm-2.375-.516a4.787,4.787,0,0,0-.641-2.719,2.088,2.088,0,0,0-1.828-.93,2.088,2.088,0,0,0-1.82.918,4.732,4.732,0,0,0-.648,2.691v.555a4.847,4.847,0,0,0,.641,2.7,2.082,2.082,0,0,0,1.844.961,2.064,2.064,0,0,0,1.813-.926,4.819,4.819,0,0,0,.641-2.7Z" transform="translate(1178.012 3642.621)" fill="#12263f"/>
    <path id="Trazado_718303" data-name="Trazado 718303" d="M5.422-6.367h2.82v2.039H5.422v3.188H3.273V-4.328H.445V-6.367H3.273V-9.422H5.422ZM20.578-4.648h-4.5V0H13.734V-11.375h7.406v1.9H16.078v2.938h4.5ZM26.984,0a2.507,2.507,0,0,1-.227-.758,2.732,2.732,0,0,1-2.133.914,3,3,0,0,1-2.059-.719,2.312,2.312,0,0,1-.816-1.812,2.389,2.389,0,0,1,1-2.062,4.915,4.915,0,0,1,2.879-.727h1.039v-.484a1.393,1.393,0,0,0-.3-.937,1.183,1.183,0,0,0-.949-.352,1.345,1.345,0,0,0-.895.273.929.929,0,0,0-.324.75H21.938a2.268,2.268,0,0,1,.453-1.359,3,3,0,0,1,1.281-.98,4.669,4.669,0,0,1,1.859-.355,3.689,3.689,0,0,1,2.48.785,2.747,2.747,0,0,1,.918,2.207v3.664a4.041,4.041,0,0,0,.336,1.82V0ZM25.117-1.57a1.945,1.945,0,0,0,.922-.223,1.462,1.462,0,0,0,.625-.6V-3.844H25.82q-1.7,0-1.8,1.172l-.008.133a.9.9,0,0,0,.3.7A1.153,1.153,0,0,0,25.117-1.57ZM25.977-12h2.461L26.273-9.578H24.438Zm8.2,10.336A1.481,1.481,0,0,0,35.2-2.008a1.2,1.2,0,0,0,.406-.914h2.117a2.9,2.9,0,0,1-.469,1.574A3.093,3.093,0,0,1,35.988-.238a3.949,3.949,0,0,1-1.77.395A3.67,3.67,0,0,1,31.359-1,4.56,4.56,0,0,1,30.313-4.18v-.148a4.508,4.508,0,0,1,1.039-3.117A3.627,3.627,0,0,1,34.2-8.609a3.555,3.555,0,0,1,2.543.9,3.2,3.2,0,0,1,.973,2.4H35.6A1.551,1.551,0,0,0,35.2-6.377a1.354,1.354,0,0,0-1.031-.412,1.36,1.36,0,0,0-1.191.575,3.333,3.333,0,0,0-.4,1.866v.235a3.375,3.375,0,0,0,.4,1.878A1.377,1.377,0,0,0,34.18-1.664ZM41.391,0H39.125V-8.453h2.266Zm-2.4-10.641a1.112,1.112,0,0,1,.34-.836,1.277,1.277,0,0,1,.926-.328,1.28,1.28,0,0,1,.922.328,1.105,1.105,0,0,1,.344.836,1.108,1.108,0,0,1-.348.844,1.283,1.283,0,0,1-.918.328A1.283,1.283,0,0,1,39.34-9.8,1.108,1.108,0,0,1,38.992-10.641ZM45.633,0H43.367V-12h2.266Zm5.492-4.289a5.094,5.094,0,0,1,.887-3.148,2.877,2.877,0,0,1,2.426-1.172,2.589,2.589,0,0,1,2.039.922V-12h2.266V0H56.7l-.109-.9A2.657,2.657,0,0,1,54.422.156,2.869,2.869,0,0,1,52.027-1.02,5.258,5.258,0,0,1,51.125-4.289Zm2.258.168A3.337,3.337,0,0,0,53.8-2.3a1.349,1.349,0,0,0,1.2.634,1.511,1.511,0,0,0,1.477-.884V-5.889a1.489,1.489,0,0,0-1.461-.884Q53.383-6.773,53.383-4.121Zm11,4.277A4.15,4.15,0,0,1,61.355-.984a4.054,4.054,0,0,1-1.168-3.039v-.219A5.106,5.106,0,0,1,60.68-6.52a3.612,3.612,0,0,1,1.395-1.547,3.914,3.914,0,0,1,2.059-.543,3.508,3.508,0,0,1,2.73,1.094,4.444,4.444,0,0,1,1,3.1v.922H62.477a2.1,2.1,0,0,0,.66,1.328,2,2,0,0,0,1.395.5,2.437,2.437,0,0,0,2.039-.945L67.68-1.367A3.389,3.389,0,0,1,66.3-.246,4.511,4.511,0,0,1,64.383.156Zm-.258-6.945a1.411,1.411,0,0,0-1.09.455,2.357,2.357,0,0,0-.535,1.3h3.141v-.181a1.681,1.681,0,0,0-.406-1.165A1.456,1.456,0,0,0,64.125-6.789ZM76.289-2.758l1.57-5.7h2.359L77.367,0H75.211L72.359-8.453h2.359ZM85,.156A4.15,4.15,0,0,1,81.973-.984,4.054,4.054,0,0,1,80.8-4.023v-.219A5.106,5.106,0,0,1,81.3-6.52a3.612,3.612,0,0,1,1.395-1.547,3.914,3.914,0,0,1,2.059-.543,3.508,3.508,0,0,1,2.73,1.094,4.444,4.444,0,0,1,1,3.1v.922H83.094a2.1,2.1,0,0,0,.66,1.328,2,2,0,0,0,1.395.5,2.437,2.437,0,0,0,2.039-.945L88.3-1.367A3.389,3.389,0,0,1,86.922-.246,4.511,4.511,0,0,1,85,.156Zm-.258-6.945a1.411,1.411,0,0,0-1.09.455,2.357,2.357,0,0,0-.535,1.3h3.141v-.181a1.681,1.681,0,0,0-.406-1.165A1.456,1.456,0,0,0,84.742-6.789Zm7.094-1.664.07.977a2.951,2.951,0,0,1,2.43-1.133,2.453,2.453,0,0,1,2,.789,3.682,3.682,0,0,1,.672,2.359V0H94.75V-5.406a1.465,1.465,0,0,0-.312-1.043A1.4,1.4,0,0,0,93.4-6.773a1.553,1.553,0,0,0-1.43.813V0H89.711V-8.453Zm9.586-2.078v2.078h1.445V-6.8h-1.445v4.219a1.007,1.007,0,0,0,.18.672.9.9,0,0,0,.688.2,3.6,3.6,0,0,0,.664-.055V-.047a4.648,4.648,0,0,1-1.367.2,2.156,2.156,0,0,1-2.422-2.4V-6.8H97.93V-8.453h1.234v-2.078ZM106.508,0h-2.266V-8.453h2.266Zm-2.4-10.641a1.112,1.112,0,0,1,.34-.836,1.277,1.277,0,0,1,.926-.328,1.28,1.28,0,0,1,.922.328,1.105,1.105,0,0,1,.344.836,1.108,1.108,0,0,1-.348.844,1.283,1.283,0,0,1-.918.328,1.283,1.283,0,0,1-.918-.328A1.108,1.108,0,0,1,104.109-10.641ZM110.75,0h-2.266V-12h2.266Zm6.758,0a2.507,2.507,0,0,1-.227-.758,2.732,2.732,0,0,1-2.133.914,3,3,0,0,1-2.059-.719,2.312,2.312,0,0,1-.816-1.812,2.389,2.389,0,0,1,1-2.062,4.915,4.915,0,0,1,2.879-.727h1.039v-.484a1.393,1.393,0,0,0-.3-.937,1.183,1.183,0,0,0-.949-.352,1.345,1.345,0,0,0-.895.273.929.929,0,0,0-.324.75h-2.258a2.268,2.268,0,0,1,.453-1.359,3,3,0,0,1,1.281-.98,4.669,4.669,0,0,1,1.859-.355,3.689,3.689,0,0,1,2.48.785,2.747,2.747,0,0,1,.918,2.207v3.664a4.041,4.041,0,0,0,.336,1.82V0Zm-1.867-1.57a1.945,1.945,0,0,0,.922-.223,1.462,1.462,0,0,0,.625-.6V-3.844h-.844q-1.7,0-1.8,1.172l-.008.133a.9.9,0,0,0,.3.7A1.153,1.153,0,0,0,115.641-1.57Zm10.3-4.766a6.134,6.134,0,0,0-.812-.062,1.654,1.654,0,0,0-1.68.867V0h-2.258V-8.453h2.133l.063,1.008a2.092,2.092,0,0,1,1.883-1.164,2.366,2.366,0,0,1,.7.1Z" transform="translate(917.711 3902.076)" fill="#12263f"/>
    <path id="Trazado_718304" data-name="Trazado 718304" d="M5.422-6.367h2.82v2.039H5.422v3.188H3.273V-4.328H.445V-6.367H3.273V-9.422H5.422Zm12.523,2.2H16.078V0H13.734V-11.375h4.227a4.778,4.778,0,0,1,3.109.9,3.1,3.1,0,0,1,1.094,2.539A3.5,3.5,0,0,1,21.66-6a3.437,3.437,0,0,1-1.527,1.238L22.594-.109V0H20.078Zm-1.867-1.9h1.891a1.936,1.936,0,0,0,1.367-.449A1.606,1.606,0,0,0,19.82-7.75a1.719,1.719,0,0,0-.457-1.266,1.9,1.9,0,0,0-1.4-.461H16.078ZM27.688.156A4.15,4.15,0,0,1,24.66-.984a4.054,4.054,0,0,1-1.168-3.039v-.219a5.106,5.106,0,0,1,.492-2.277,3.612,3.612,0,0,1,1.395-1.547,3.914,3.914,0,0,1,2.059-.543,3.508,3.508,0,0,1,2.73,1.094,4.444,4.444,0,0,1,1,3.1v.922H25.781a2.1,2.1,0,0,0,.66,1.328,2,2,0,0,0,1.395.5,2.437,2.437,0,0,0,2.039-.945l1.109,1.242A3.389,3.389,0,0,1,29.609-.246,4.511,4.511,0,0,1,27.688.156ZM27.43-6.789a1.411,1.411,0,0,0-1.09.455,2.357,2.357,0,0,0-.535,1.3h3.141v-.181a1.681,1.681,0,0,0-.406-1.165A1.456,1.456,0,0,0,27.43-6.789Zm7.719-3.742v2.078h1.445V-6.8H35.148v4.219a1.007,1.007,0,0,0,.18.672.9.9,0,0,0,.688.2,3.6,3.6,0,0,0,.664-.055V-.047a4.648,4.648,0,0,1-1.367.2,2.156,2.156,0,0,1-2.422-2.4V-6.8H31.656V-8.453h1.234v-2.078ZM40.234,0H37.969V-8.453h2.266Zm-2.4-10.641a1.112,1.112,0,0,1,.34-.836A1.277,1.277,0,0,1,39.1-11.8a1.28,1.28,0,0,1,.922.328,1.105,1.105,0,0,1,.344.836,1.108,1.108,0,0,1-.348.844,1.283,1.283,0,0,1-.918.328,1.283,1.283,0,0,1-.918-.328A1.108,1.108,0,0,1,37.836-10.641ZM45.984.156A4.15,4.15,0,0,1,42.957-.984a4.054,4.054,0,0,1-1.168-3.039v-.219a5.106,5.106,0,0,1,.492-2.277,3.612,3.612,0,0,1,1.395-1.547,3.914,3.914,0,0,1,2.059-.543,3.508,3.508,0,0,1,2.73,1.094,4.444,4.444,0,0,1,1,3.1v.922H44.078a2.1,2.1,0,0,0,.66,1.328,2,2,0,0,0,1.395.5,2.437,2.437,0,0,0,2.039-.945l1.109,1.242A3.389,3.389,0,0,1,47.906-.246,4.511,4.511,0,0,1,45.984.156Zm-.258-6.945a1.411,1.411,0,0,0-1.09.455,2.357,2.357,0,0,0-.535,1.3h3.141v-.181a1.681,1.681,0,0,0-.406-1.165A1.456,1.456,0,0,0,45.727-6.789ZM52.82-8.453l.07.977a2.951,2.951,0,0,1,2.43-1.133,2.453,2.453,0,0,1,2,.789,3.682,3.682,0,0,1,.672,2.359V0H55.734V-5.406a1.465,1.465,0,0,0-.312-1.043,1.4,1.4,0,0,0-1.039-.324,1.553,1.553,0,0,0-1.43.813V0H50.7V-8.453ZM63.594.156A4.15,4.15,0,0,1,60.566-.984,4.054,4.054,0,0,1,59.4-4.023v-.219a5.106,5.106,0,0,1,.492-2.277,3.612,3.612,0,0,1,1.395-1.547,3.914,3.914,0,0,1,2.059-.543,3.508,3.508,0,0,1,2.73,1.094,4.444,4.444,0,0,1,1,3.1v.922H61.688a2.1,2.1,0,0,0,.66,1.328,2,2,0,0,0,1.395.5,2.437,2.437,0,0,0,2.039-.945l1.109,1.242A3.389,3.389,0,0,1,65.516-.246,4.511,4.511,0,0,1,63.594.156Zm-.258-6.945a1.411,1.411,0,0,0-1.09.455,2.357,2.357,0,0,0-.535,1.3h3.141v-.181a1.681,1.681,0,0,0-.406-1.165A1.456,1.456,0,0,0,63.336-6.789Zm18.078,3A4.025,4.025,0,0,1,80.059-.9,4.76,4.76,0,0,1,76.836.156a4.28,4.28,0,0,1-3.441-1.473,6.038,6.038,0,0,1-1.254-4.043v-.7a6.819,6.819,0,0,1,.578-2.891,4.332,4.332,0,0,1,1.652-1.918,4.629,4.629,0,0,1,2.5-.668,4.637,4.637,0,0,1,3.172,1.055A4.326,4.326,0,0,1,81.43-7.516H79.086a2.376,2.376,0,0,0-.613-1.6,2.271,2.271,0,0,0-1.605-.5,1.991,1.991,0,0,0-1.754.84,4.707,4.707,0,0,0-.6,2.605V-5.3a5.038,5.038,0,0,0,.559,2.7,1.954,1.954,0,0,0,1.762.852,2.314,2.314,0,0,0,1.621-.5,2.241,2.241,0,0,0,.613-1.535ZM87.7,0a2.507,2.507,0,0,1-.227-.758,2.732,2.732,0,0,1-2.133.914,3,3,0,0,1-2.059-.719,2.312,2.312,0,0,1-.816-1.812,2.389,2.389,0,0,1,1-2.062,4.915,4.915,0,0,1,2.879-.727h1.039v-.484a1.393,1.393,0,0,0-.3-.937,1.183,1.183,0,0,0-.949-.352,1.345,1.345,0,0,0-.895.273.929.929,0,0,0-.324.75H82.656a2.268,2.268,0,0,1,.453-1.359,3,3,0,0,1,1.281-.98,4.669,4.669,0,0,1,1.859-.355,3.689,3.689,0,0,1,2.48.785,2.747,2.747,0,0,1,.918,2.207v3.664a4.041,4.041,0,0,0,.336,1.82V0ZM85.836-1.57a1.945,1.945,0,0,0,.922-.223,1.462,1.462,0,0,0,.625-.6V-3.844h-.844q-1.7,0-1.8,1.172l-.008.133a.9.9,0,0,0,.3.7A1.153,1.153,0,0,0,85.836-1.57ZM93.766,0H91.5V-12h2.266Zm1.508-4.3a5.013,5.013,0,0,1,.484-2.242A3.546,3.546,0,0,1,97.152-8.07a4.069,4.069,0,0,1,2.113-.539,3.849,3.849,0,0,1,2.793,1.047,4.2,4.2,0,0,1,1.207,2.844l.016.578A4.418,4.418,0,0,1,102.2-1.02,3.775,3.775,0,0,1,99.281.156a3.793,3.793,0,0,1-2.918-1.172A4.5,4.5,0,0,1,95.273-4.2Zm2.258.16A3.16,3.16,0,0,0,97.984-2.3a1.5,1.5,0,0,0,1.3.638,1.5,1.5,0,0,0,1.281-.63,3.457,3.457,0,0,0,.461-2.015,3.128,3.128,0,0,0-.461-1.831,1.5,1.5,0,0,0-1.3-.649,1.474,1.474,0,0,0-1.281.646A3.516,3.516,0,0,0,97.531-4.144Zm11.891-2.192a6.134,6.134,0,0,0-.812-.062,1.654,1.654,0,0,0-1.68.867V0h-2.258V-8.453H106.8l.063,1.008a2.092,2.092,0,0,1,1.883-1.164,2.366,2.366,0,0,1,.7.1Z" transform="translate(1164.706 3901.693)" fill="#12263f"/>
    <path id="Trazado_706612" data-name="Trazado 706612" d="M6.879,0h15.5V25.732h6.782L15.09,39.042,0,26.158H7.267Z" transform="translate(995.796 3688.538) rotate(180)" fill="#06d1d1" stroke="#03a4a4" stroke-miterlimit="10" stroke-width="1"/>
    <path id="Trazado_706636" data-name="Trazado 706636" d="M6.879,0h15.5V25.732h6.782L15.09,39.042,0,26.158H7.267Z" transform="translate(1245.473 3688.538) rotate(180)" fill="#06d1d1" stroke="#03a4a4" stroke-miterlimit="10" stroke-width="1"/>
    <path id="Trazado_706634" data-name="Trazado 706634" d="M401.054.5h15.5V26.233h6.782l-14.073,13.31-15.09-12.883h7.267Z" transform="translate(570.347 3836.728)" fill="#06d1d1" stroke="#03a4a4" stroke-miterlimit="10" stroke-width="1"/>
    <path id="Trazado_706637" data-name="Trazado 706637" d="M401.054.5h15.5V26.233h6.782l-14.073,13.31-15.09-12.883h7.267Z" transform="translate(820.023 3836.728)" fill="#06d1d1" stroke="#03a4a4" stroke-miterlimit="10" stroke-width="1"/>
    <line id="Línea_665" data-name="Línea 665" y1="44.96" x2="116.682" transform="translate(866.192 3691.758)" fill="none" stroke="#8d0a0a" stroke-width="2"/>
    <line id="Línea_668" data-name="Línea 668" y1="46.031" x2="140.768" transform="translate(1091.068 3690.708)" fill="none" stroke="#8d0a0a" stroke-width="2"/>
    <line id="Línea_666" data-name="Línea 666" x1="101.696" y1="44.96" transform="translate(980.955 3691.758)" fill="none" stroke="#8d0a0a" stroke-width="2"/>
    <line id="Línea_670" data-name="Línea 670" x1="107.583" y1="37.467" transform="translate(1229.86 3690.764)" fill="none" stroke="#8d0a0a" stroke-width="2"/>
    <line id="Línea_667" data-name="Línea 667" x2="152.008" transform="translate(896.166 3746.503)" fill="none" stroke="#707070" stroke-width="1"/>
    <line id="Línea_669" data-name="Línea 669" x2="186.264" transform="translate(1126.559 3745.455)" fill="none" stroke="#707070" stroke-width="1"/>
    <g id="Rectángulo_340932" data-name="Rectángulo 340932" transform="translate(947.106 3763.914)" fill="none" stroke="#707070" stroke-width="1">
      <rect width="52.556" height="65.694" stroke="none"/>
      <rect x="0.5" y="0.5" width="51.556" height="64.694" fill="none"/>
    </g>
    <g id="Rectángulo_340933" data-name="Rectángulo 340933" transform="translate(1189.912 3762.923)" fill="none" stroke="#707070" stroke-width="1">
      <rect width="64.229" height="65.299" stroke="none"/>
      <rect x="0.5" y="0.5" width="63.229" height="64.299" fill="none"/>
    </g>
    <path id="Trazado_718298" data-name="Trazado 718298" d="M7.859,12.352h-4.5V17H1.016V5.625H8.422v1.9H3.359v2.938h4.5ZM12.016,17H9.75V8.547h2.266ZM9.617,6.359a1.112,1.112,0,0,1,.34-.836,1.277,1.277,0,0,1,.926-.328,1.28,1.28,0,0,1,.922.328,1.105,1.105,0,0,1,.344.836A1.108,1.108,0,0,1,11.8,7.2a1.283,1.283,0,0,1-.918.328A1.283,1.283,0,0,1,9.965,7.2,1.108,1.108,0,0,1,9.617,6.359Zm3.93,6.352a4.954,4.954,0,0,1,.926-3.133,3,3,0,0,1,2.5-1.187,2.631,2.631,0,0,1,2.164.953l.094-.8h2.047v8.172a3.613,3.613,0,0,1-.5,1.93,3.236,3.236,0,0,1-1.418,1.25,4.985,4.985,0,0,1-2.141.43,4.635,4.635,0,0,1-1.812-.371A3.217,3.217,0,0,1,14.063,19l1-1.375a2.645,2.645,0,0,0,2.047.945,1.936,1.936,0,0,0,1.4-.48,1.8,1.8,0,0,0,.5-1.363v-.453a2.612,2.612,0,0,1-2.055.883,2.992,2.992,0,0,1-2.465-1.191,4.953,4.953,0,0,1-.941-3.16Zm2.258.168a3.085,3.085,0,0,0,.461,1.8,1.466,1.466,0,0,0,1.266.653,1.568,1.568,0,0,0,1.477-.775V11a1.564,1.564,0,0,0-1.461-.775,1.476,1.476,0,0,0-1.277.665A3.477,3.477,0,0,0,15.8,12.879ZM28.07,16.141a2.831,2.831,0,0,1-2.312,1.016,2.67,2.67,0,0,1-2.074-.781,3.335,3.335,0,0,1-.73-2.289V8.547h2.258v5.467q0,1.322,1.2,1.322a1.63,1.63,0,0,0,1.578-.8V8.547h2.266V17H28.133Zm8.641-5.477A6.134,6.134,0,0,0,35.9,10.6a1.654,1.654,0,0,0-1.68.867V17H31.961V8.547h2.133l.063,1.008a2.092,2.092,0,0,1,1.883-1.164,2.366,2.366,0,0,1,.7.1ZM42.461,17a2.507,2.507,0,0,1-.227-.758,2.732,2.732,0,0,1-2.133.914,3,3,0,0,1-2.059-.719,2.312,2.312,0,0,1-.816-1.812,2.389,2.389,0,0,1,1-2.062,4.915,4.915,0,0,1,2.879-.727h1.039v-.484a1.393,1.393,0,0,0-.3-.937,1.183,1.183,0,0,0-.949-.352,1.345,1.345,0,0,0-.895.273.929.929,0,0,0-.324.75H37.414a2.268,2.268,0,0,1,.453-1.359,3,3,0,0,1,1.281-.98,4.669,4.669,0,0,1,1.859-.355,3.689,3.689,0,0,1,2.48.785,2.747,2.747,0,0,1,.918,2.207v3.664a4.041,4.041,0,0,0,.336,1.82V17Zm-1.867-1.57a1.945,1.945,0,0,0,.922-.223,1.462,1.462,0,0,0,.625-.6V13.156H41.3q-1.7,0-1.8,1.172l-.008.133a.9.9,0,0,0,.3.7A1.153,1.153,0,0,0,40.594,15.43ZM55.516,17H53.258V8.3l-2.7.836V7.3l4.711-1.687h.242Zm11.492,0h-7.8V15.453l3.68-3.922a9.078,9.078,0,0,0,1.121-1.445,2.322,2.322,0,0,0,.363-1.172,1.738,1.738,0,0,0-.383-1.191A1.382,1.382,0,0,0,62.9,7.289a1.49,1.49,0,0,0-1.207.527A2.089,2.089,0,0,0,61.25,9.2H58.984a3.729,3.729,0,0,1,.5-1.9,3.5,3.5,0,0,1,1.4-1.348,4.262,4.262,0,0,1,2.055-.488,4.036,4.036,0,0,1,2.73.844A2.985,2.985,0,0,1,66.641,8.7a3.825,3.825,0,0,1-.437,1.719,9.551,9.551,0,0,1-1.5,2.039L62.117,15.18h4.891ZM68.6,15.891a1.137,1.137,0,0,1,.363-.875,1.412,1.412,0,0,1,1.828,0,1.137,1.137,0,0,1,.363.875,1.121,1.121,0,0,1-.359.863,1.435,1.435,0,0,1-1.836,0A1.121,1.121,0,0,1,68.6,15.891ZM80.539,5.625l1.992,9.266L87.75,5.625h1.93L87.7,17H86.242l.781-4.5.93-4.578L82.8,17H81.672L79.641,7.742l-.7,4.906L78.18,17H76.711L78.688,5.625ZM93.773,17.156A3.048,3.048,0,0,1,91.3,15.992a4.006,4.006,0,0,1-.75-2.9l.039-.336a5.624,5.624,0,0,1,.746-2.3,4.339,4.339,0,0,1,1.5-1.566,3.491,3.491,0,0,1,1.906-.5,2.688,2.688,0,0,1,2.047.867,3.566,3.566,0,0,1,.813,2.266,6.62,6.62,0,0,1-.031,1.016l-.086.648H91.961a2.856,2.856,0,0,0,.379,1.953,1.8,1.8,0,0,0,1.551.836A3.007,3.007,0,0,0,96.2,14.852l.813.688a3.718,3.718,0,0,1-1.371,1.2A3.886,3.886,0,0,1,93.773,17.156Zm.9-7.586a2.066,2.066,0,0,0-1.527.594A4.22,4.22,0,0,0,92.109,12l4.109.008.031-.125a2.313,2.313,0,0,0-.316-1.637A1.488,1.488,0,0,0,94.672,9.57Zm4.148,3.188a6.578,6.578,0,0,1,.711-2.328A4.03,4.03,0,0,1,100.9,8.875a3.127,3.127,0,0,1,1.789-.492,2.64,2.64,0,0,1,2.172,1.031L105.672,5h1.414l-2.078,12h-1.289l.148-.906a3.116,3.116,0,0,1-2.469,1.063,2.335,2.335,0,0,1-1.867-.918,4,4,0,0,1-.75-2.379A7.6,7.6,0,0,1,98.82,12.758Zm1.359.808a2.929,2.929,0,0,0,.4,1.732,1.437,1.437,0,0,0,1.234.632,2.554,2.554,0,0,0,2.18-1.233l.672-3.9a1.754,1.754,0,0,0-1.7-1.186,2.143,2.143,0,0,0-1.473.5,3.256,3.256,0,0,0-.969,1.475A6.082,6.082,0,0,0,100.18,13.565ZM108.773,17h-1.406l1.469-8.453h1.406Zm1.164-11.539a.774.774,0,0,1,.6.215.8.8,0,0,1,.238.605.834.834,0,0,1-.836.852.779.779,0,0,1-.6-.211.764.764,0,0,1-.227-.594.886.886,0,0,1,.234-.609A.826.826,0,0,1,109.938,5.461Zm1.555,7.3a6.578,6.578,0,0,1,.711-2.328,4.03,4.03,0,0,1,1.367-1.555,3.127,3.127,0,0,1,1.789-.492,2.64,2.64,0,0,1,2.172,1.031L118.344,5h1.414L117.68,17h-1.289l.148-.906a3.116,3.116,0,0,1-2.469,1.063,2.335,2.335,0,0,1-1.867-.918,4,4,0,0,1-.75-2.379A7.6,7.6,0,0,1,111.492,12.758Zm1.359.808a2.929,2.929,0,0,0,.4,1.732,1.437,1.437,0,0,0,1.234.632,2.554,2.554,0,0,0,2.18-1.233l.672-3.9a1.754,1.754,0,0,0-1.7-1.186,2.143,2.143,0,0,0-1.473.5,3.256,3.256,0,0,0-.969,1.475A6.082,6.082,0,0,0,112.852,13.565ZM125.086,17a1.893,1.893,0,0,1-.055-.445l.023-.445a3.465,3.465,0,0,1-2.469,1.047,2.526,2.526,0,0,1-1.816-.707,2.14,2.14,0,0,1-.637-1.73,2.6,2.6,0,0,1,1.176-2.1,5.005,5.005,0,0,1,2.887-.754l1.477.008.094-.672a1.545,1.545,0,0,0-.293-1.2,1.414,1.414,0,0,0-1.113-.457,2.181,2.181,0,0,0-1.285.355,1.513,1.513,0,0,0-.684.98l-1.422.008a2.266,2.266,0,0,1,.578-1.316,3.363,3.363,0,0,1,1.3-.891,4.215,4.215,0,0,1,1.648-.3,2.8,2.8,0,0,1,2.055.8,2.484,2.484,0,0,1,.617,2.043l-.687,4.188-.039.6a2.949,2.949,0,0,0,.094.852l-.016.133Zm-2.219-1.094a2.466,2.466,0,0,0,1.285-.324,3.254,3.254,0,0,0,1.043-.941l.3-1.742-1.07-.008a4.054,4.054,0,0,0-2.047.422,1.554,1.554,0,0,0-.8,1.2,1.21,1.21,0,0,0,.277.988A1.321,1.321,0,0,0,122.867,15.906Zm10.8-1.2q.117-.875-.961-1.234l-1.469-.43q-1.859-.641-1.8-2.125a2.341,2.341,0,0,1,1.02-1.832,3.631,3.631,0,0,1,2.27-.7,3.027,3.027,0,0,1,2.082.746,2.363,2.363,0,0,1,.77,1.9l-1.406-.008a1.319,1.319,0,0,0-.4-1.031,1.576,1.576,0,0,0-1.1-.414,2.059,2.059,0,0,0-1.266.359,1.316,1.316,0,0,0-.57.922q-.1.734.9,1.07l.711.2a4.577,4.577,0,0,1,2.063.977,1.865,1.865,0,0,1,.563,1.492,2.37,2.37,0,0,1-.516,1.375,2.948,2.948,0,0,1-1.25.895,4.18,4.18,0,0,1-1.664.285,3.3,3.3,0,0,1-2.219-.785,2.427,2.427,0,0,1-.844-1.98L130,14.4a1.5,1.5,0,0,0,.453,1.141,1.732,1.732,0,0,0,1.242.43,2.436,2.436,0,0,0,1.336-.324A1.247,1.247,0,0,0,133.672,14.711Zm7.172-1.953a6.578,6.578,0,0,1,.711-2.328,4.03,4.03,0,0,1,1.367-1.555,3.127,3.127,0,0,1,1.789-.492,2.64,2.64,0,0,1,2.172,1.031L147.7,5h1.414l-2.078,12h-1.289l.148-.906a3.116,3.116,0,0,1-2.469,1.063,2.335,2.335,0,0,1-1.867-.918,4,4,0,0,1-.75-2.379A7.6,7.6,0,0,1,140.844,12.758Zm1.359.808a2.929,2.929,0,0,0,.4,1.732,1.437,1.437,0,0,0,1.234.632,2.554,2.554,0,0,0,2.18-1.233l.672-3.9a1.754,1.754,0,0,0-1.7-1.186,2.143,2.143,0,0,0-1.473.5,3.256,3.256,0,0,0-.969,1.475A6.082,6.082,0,0,0,142.2,13.565Zm10.719,3.591a3.048,3.048,0,0,1-2.469-1.164,4.006,4.006,0,0,1-.75-2.9l.039-.336a5.624,5.624,0,0,1,.746-2.3,4.339,4.339,0,0,1,1.5-1.566,3.491,3.491,0,0,1,1.906-.5,2.688,2.688,0,0,1,2.047.867,3.566,3.566,0,0,1,.813,2.266,6.621,6.621,0,0,1-.031,1.016l-.086.648h-5.523a2.855,2.855,0,0,0,.379,1.953,1.8,1.8,0,0,0,1.551.836,3.007,3.007,0,0,0,2.313-1.125l.813.688a3.718,3.718,0,0,1-1.371,1.2A3.886,3.886,0,0,1,152.922,17.156Zm.9-7.586a2.066,2.066,0,0,0-1.527.594A4.22,4.22,0,0,0,151.258,12l4.109.008.031-.125a2.313,2.313,0,0,0-.316-1.637A1.488,1.488,0,0,0,153.82,9.57ZM159.094,17h-1.406l2.078-12h1.414Zm6.648-4.242a6.889,6.889,0,0,1,.746-2.4,3.9,3.9,0,0,1,1.359-1.508,3.151,3.151,0,0,1,1.754-.465,2.6,2.6,0,0,1,2.219,1.109l.281-.945h1.3l-1.406,8.273a4.113,4.113,0,0,1-1.312,2.59,3.7,3.7,0,0,1-2.68.926,3.8,3.8,0,0,1-1.645-.406,3.127,3.127,0,0,1-1.238-1.07l.8-.867a2.536,2.536,0,0,0,3.73.6,2.9,2.9,0,0,0,.926-1.687l.156-.75a3.2,3.2,0,0,1-2.414,1,2.486,2.486,0,0,1-1.371-.426,2.589,2.589,0,0,1-.9-1.164,4.759,4.759,0,0,1-.352-1.7A8.731,8.731,0,0,1,165.742,12.758Zm1.367.8a2.974,2.974,0,0,0,.387,1.728,1.461,1.461,0,0,0,1.238.644,2.561,2.561,0,0,0,2.18-1.241l.664-3.878a1.776,1.776,0,0,0-1.7-1.2,2.194,2.194,0,0,0-1.887.936,4.878,4.878,0,0,0-.871,2.614ZM179.289,17a1.894,1.894,0,0,1-.055-.445l.023-.445a3.465,3.465,0,0,1-2.469,1.047,2.526,2.526,0,0,1-1.816-.707,2.14,2.14,0,0,1-.637-1.73,2.6,2.6,0,0,1,1.176-2.1,5.005,5.005,0,0,1,2.887-.754l1.477.008.094-.672a1.545,1.545,0,0,0-.293-1.2,1.414,1.414,0,0,0-1.113-.457,2.181,2.181,0,0,0-1.285.355,1.513,1.513,0,0,0-.684.98l-1.422.008a2.266,2.266,0,0,1,.578-1.316,3.363,3.363,0,0,1,1.3-.891,4.215,4.215,0,0,1,1.648-.3,2.8,2.8,0,0,1,2.055.8,2.484,2.484,0,0,1,.617,2.043l-.687,4.188-.039.6a2.949,2.949,0,0,0,.094.852l-.016.133Zm-2.219-1.094a2.466,2.466,0,0,0,1.285-.324,3.254,3.254,0,0,0,1.043-.941l.3-1.742-1.07-.008a4.054,4.054,0,0,0-2.047.422,1.554,1.554,0,0,0-.8,1.2,1.21,1.21,0,0,0,.277.988A1.321,1.321,0,0,0,177.07,15.906Zm7.1,1.094h-1.406l2.078-12h1.414Zm9.969-4.187a6.707,6.707,0,0,1-.7,2.32,3.949,3.949,0,0,1-1.336,1.543,3.058,3.058,0,0,1-1.766.488,2.815,2.815,0,0,1-2.25-.992l-.758,4.078h-1.414l2.031-11.7,1.281-.008-.156.945a3.207,3.207,0,0,1,2.508-1.094,2.358,2.358,0,0,1,1.9.9,3.954,3.954,0,0,1,.719,2.391,8.414,8.414,0,0,1-.039.969Zm-1.391-.16.039-.655a2.969,2.969,0,0,0-.434-1.744,1.525,1.525,0,0,0-1.254-.636,2.508,2.508,0,0,0-2.117,1.163l-.711,4.05a1.769,1.769,0,0,0,1.711,1.155,2.224,2.224,0,0,0,1.793-.823A4.777,4.777,0,0,0,192.75,12.652Zm7.219-4.262a3.047,3.047,0,0,1,1.82.578,3.285,3.285,0,0,1,1.121,1.551,4.8,4.8,0,0,1,.246,2.16l-.016.172a5.685,5.685,0,0,1-.734,2.23,4.309,4.309,0,0,1-1.516,1.551,3.7,3.7,0,0,1-2.039.523,3.052,3.052,0,0,1-1.816-.578,3.21,3.21,0,0,1-1.113-1.531,4.931,4.931,0,0,1-.25-2.133,5.76,5.76,0,0,1,.711-2.359,4.409,4.409,0,0,1,1.527-1.621A3.652,3.652,0,0,1,199.969,8.391Zm-2.875,4.531a4.8,4.8,0,0,0,0,1.023,2.507,2.507,0,0,0,.551,1.469,1.653,1.653,0,0,0,1.262.57,2.253,2.253,0,0,0,1.3-.348,2.919,2.919,0,0,0,1-1.121,4.721,4.721,0,0,0,.523-1.664,7.493,7.493,0,0,0,.023-1.211,2.6,2.6,0,0,0-.57-1.492,1.69,1.69,0,0,0-1.266-.578,2.3,2.3,0,0,0-1.859.859,4.245,4.245,0,0,0-.945,2.313ZM201.172,5h1.8l-2.391,2.3-1.242,0Zm5.836,3.539-.2,1.07A3.333,3.333,0,0,1,209.4,8.391a2.1,2.1,0,0,1,1.766.828,3.217,3.217,0,0,1,.422,2.242L210.664,17H209.25l.93-5.557a2.962,2.962,0,0,0,.008-.71A1.168,1.168,0,0,0,208.9,9.617a2.661,2.661,0,0,0-2.234,1.358L205.617,17H204.2l1.469-8.453ZM222,14.711q.117-.875-.961-1.234l-1.469-.43q-1.859-.641-1.8-2.125a2.341,2.341,0,0,1,1.02-1.832,3.631,3.631,0,0,1,2.27-.7,3.027,3.027,0,0,1,2.082.746,2.363,2.363,0,0,1,.77,1.9l-1.406-.008a1.319,1.319,0,0,0-.4-1.031,1.576,1.576,0,0,0-1.1-.414,2.059,2.059,0,0,0-1.266.359,1.316,1.316,0,0,0-.57.922q-.1.734.9,1.07l.711.2a4.577,4.577,0,0,1,2.063.977,1.865,1.865,0,0,1,.563,1.492,2.37,2.37,0,0,1-.516,1.375,2.948,2.948,0,0,1-1.25.895,4.18,4.18,0,0,1-1.664.285,3.3,3.3,0,0,1-2.219-.785,2.427,2.427,0,0,1-.844-1.98l1.414.008a1.5,1.5,0,0,0,.453,1.141,1.732,1.732,0,0,0,1.242.43,2.436,2.436,0,0,0,1.336-.324A1.247,1.247,0,0,0,222,14.711Zm6.5,2.445a3.048,3.048,0,0,1-2.469-1.164,4.006,4.006,0,0,1-.75-2.9l.039-.336a5.624,5.624,0,0,1,.746-2.3,4.339,4.339,0,0,1,1.5-1.566,3.491,3.491,0,0,1,1.906-.5,2.688,2.688,0,0,1,2.047.867,3.566,3.566,0,0,1,.813,2.266,6.621,6.621,0,0,1-.031,1.016l-.086.648h-5.523a2.855,2.855,0,0,0,.379,1.953,1.8,1.8,0,0,0,1.551.836,3.007,3.007,0,0,0,2.313-1.125l.813.688a3.718,3.718,0,0,1-1.371,1.2A3.886,3.886,0,0,1,228.5,17.156Zm.9-7.586a2.066,2.066,0,0,0-1.527.594A4.22,4.22,0,0,0,226.836,12l4.109.008.031-.125a2.313,2.313,0,0,0-.316-1.637A1.488,1.488,0,0,0,229.4,9.57Zm4.156,3.188a6.889,6.889,0,0,1,.746-2.4,3.9,3.9,0,0,1,1.359-1.508,3.151,3.151,0,0,1,1.754-.465,2.6,2.6,0,0,1,2.219,1.109l.281-.945h1.3L239.8,16.82a4.113,4.113,0,0,1-1.312,2.59,3.7,3.7,0,0,1-2.68.926,3.8,3.8,0,0,1-1.645-.406,3.127,3.127,0,0,1-1.238-1.07l.8-.867a2.536,2.536,0,0,0,3.73.6,2.9,2.9,0,0,0,.926-1.687l.156-.75a3.2,3.2,0,0,1-2.414,1,2.486,2.486,0,0,1-1.371-.426,2.589,2.589,0,0,1-.9-1.164,4.759,4.759,0,0,1-.352-1.7A8.731,8.731,0,0,1,233.555,12.758Zm1.367.8a2.974,2.974,0,0,0,.387,1.728,1.461,1.461,0,0,0,1.238.644,2.561,2.561,0,0,0,2.18-1.241l.664-3.878a1.776,1.776,0,0,0-1.7-1.2,2.194,2.194,0,0,0-1.887.936,4.878,4.878,0,0,0-.871,2.614ZM247.3,16.164a3.265,3.265,0,0,1-2.523.992,2.107,2.107,0,0,1-1.793-.867,3.317,3.317,0,0,1-.434-2.281l.906-5.461h1.414l-.914,5.484a3.642,3.642,0,0,0-.016.672,1.4,1.4,0,0,0,.336.883,1.146,1.146,0,0,0,.828.344,2.536,2.536,0,0,0,2.344-1.227l1.063-6.156h1.414L248.453,17h-1.336ZM247.859,5h1.8l-2.391,2.3-1.242,0Zm5.508,3.539-.2,1.07a3.333,3.333,0,0,1,2.594-1.219,2.1,2.1,0,0,1,1.766.828,3.217,3.217,0,0,1,.422,2.242L257.023,17h-1.414l.93-5.557a2.963,2.963,0,0,0,.008-.71,1.168,1.168,0,0,0-1.289-1.116,2.661,2.661,0,0,0-2.234,1.358L251.977,17h-1.414l1.469-8.453Zm13.414,8.617a3.048,3.048,0,0,1-2.469-1.164,4.006,4.006,0,0,1-.75-2.9l.039-.336a5.624,5.624,0,0,1,.746-2.3,4.339,4.339,0,0,1,1.5-1.566,3.491,3.491,0,0,1,1.906-.5,2.688,2.688,0,0,1,2.047.867,3.566,3.566,0,0,1,.813,2.266,6.619,6.619,0,0,1-.031,1.016l-.086.648h-5.523a2.856,2.856,0,0,0,.379,1.953,1.8,1.8,0,0,0,1.551.836,3.007,3.007,0,0,0,2.313-1.125l.813.688a3.718,3.718,0,0,1-1.371,1.2A3.886,3.886,0,0,1,266.781,17.156Zm.9-7.586a2.066,2.066,0,0,0-1.527.594A4.22,4.22,0,0,0,265.117,12l4.109.008.031-.125a2.313,2.313,0,0,0-.316-1.637A1.488,1.488,0,0,0,267.68,9.57ZM272.953,17h-1.406l2.078-12h1.414Zm9.8-1.016a2.145,2.145,0,0,0,1.367-.441,2.1,2.1,0,0,0,.8-1.2l1.336-.008a3.014,3.014,0,0,1-.637,1.453,3.68,3.68,0,0,1-2.926,1.367,3.017,3.017,0,0,1-1.785-.551,3.084,3.084,0,0,1-1.074-1.492,4.972,4.972,0,0,1-.234-2.152l.039-.391a5.605,5.605,0,0,1,.711-2.18,4.11,4.11,0,0,1,1.469-1.5,3.648,3.648,0,0,1,2-.5,2.857,2.857,0,0,1,2.125.891,3.08,3.08,0,0,1,.8,2.18l-1.32-.008a2.029,2.029,0,0,0-.461-1.34,1.607,1.607,0,0,0-1.2-.543,2.254,2.254,0,0,0-1.832.82,4.3,4.3,0,0,0-.91,2.359l-.023.2a6.775,6.775,0,0,0-.016,1.031,2.355,2.355,0,0,0,.516,1.445A1.656,1.656,0,0,0,282.758,15.984ZM288.922,17h-1.406l2.078-12h1.414Zm3.844,0h-1.406l1.469-8.453h1.406ZM293.93,5.461a.774.774,0,0,1,.6.215.8.8,0,0,1,.238.605.834.834,0,0,1-.836.852.779.779,0,0,1-.6-.211.764.764,0,0,1-.227-.594.886.886,0,0,1,.234-.609A.826.826,0,0,1,293.93,5.461Zm3.938,3.078-.18.945a3.305,3.305,0,0,1,2.57-1.094,2.608,2.608,0,0,1,1.363.367,1.8,1.8,0,0,1,.77.992,3.49,3.49,0,0,1,2.8-1.359,2.235,2.235,0,0,1,1.867.852,3.042,3.042,0,0,1,.445,2.2L306.578,17h-1.406l.922-5.57a2.943,2.943,0,0,0,0-.742Q305.945,9.625,304.7,9.6a2.136,2.136,0,0,0-1.4.48,2.222,2.222,0,0,0-.809,1.3L301.531,17h-1.422l.938-5.562a1.786,1.786,0,0,0-.262-1.336,1.377,1.377,0,0,0-1.129-.484,2.315,2.315,0,0,0-2.1,1.2L296.484,17H295.07l1.469-8.453ZM313.93,17a1.893,1.893,0,0,1-.055-.445l.023-.445a3.465,3.465,0,0,1-2.469,1.047,2.526,2.526,0,0,1-1.816-.707,2.14,2.14,0,0,1-.637-1.73,2.6,2.6,0,0,1,1.176-2.1,5.005,5.005,0,0,1,2.887-.754l1.477.008.094-.672a1.545,1.545,0,0,0-.293-1.2,1.414,1.414,0,0,0-1.113-.457,2.181,2.181,0,0,0-1.285.355,1.513,1.513,0,0,0-.684.98l-1.422.008a2.266,2.266,0,0,1,.578-1.316,3.363,3.363,0,0,1,1.3-.891,4.215,4.215,0,0,1,1.648-.3,2.8,2.8,0,0,1,2.055.8,2.484,2.484,0,0,1,.617,2.043l-.687,4.188-.039.6a2.95,2.95,0,0,0,.094.852l-.016.133Zm-2.219-1.094A2.466,2.466,0,0,0,313,15.582a3.254,3.254,0,0,0,1.043-.941l.3-1.742-1.07-.008a4.054,4.054,0,0,0-2.047.422,1.554,1.554,0,0,0-.8,1.2,1.21,1.21,0,0,0,.277.988A1.321,1.321,0,0,0,311.711,15.906Z" transform="translate(859 3561)"/>
    <rect id="Rectángulo_341276" data-name="Rectángulo 341276" width="5.188" height="39.052" transform="translate(839 3553)" fill="#8d0a0a"/>
  </g>
</svg>
