<svg xmlns="http://www.w3.org/2000/svg" width="740" height="290" viewBox="0 0 740 290">
  <g id="Grupo_976880" data-name="Grupo 976880" transform="translate(-681 -1501)">
    <rect id="Rectángulo_340930" data-name="Rectángulo 340930" width="740" height="290" rx="25" transform="translate(681 1501)" fill="#ffe8ce" opacity="0.31"/>
    <path id="Trazado_706613" data-name="Trazado 706613" d="M56.022,59.9,118,25.7l61.447,34.2Z" transform="translate(685.569 1541.339)" fill="none" stroke="#03a4a4" stroke-linejoin="bevel" stroke-width="1"/>
    <path id="Trazado_706614" data-name="Trazado 706614" d="M56.022,59.9,118,25.7l61.447,34.2Z" transform="translate(685.569 1541.339)" fill="none" stroke="#03a4a4" stroke-linejoin="bevel" stroke-width="1"/>
    <rect id="Rectángulo_340923" data-name="Rectángulo 340923" width="123.429" height="25.647" transform="translate(741.591 1601.239)" fill="none" stroke="#03a4a4" stroke-linejoin="bevel" stroke-width="1"/>
    <rect id="Rectángulo_340924" data-name="Rectángulo 340924" width="123.429" height="25.647" transform="translate(741.591 1601.239)" fill="none" stroke="#03a4a4" stroke-linejoin="bevel" stroke-miterlimit="10" stroke-width="1"/>
    <path id="Trazado_706615" data-name="Trazado 706615" d="M113.874,30.064l.067-9.15,10.152-5.878,8.683,6.145-.067,8.483-9.685-5.01Z" transform="translate(679.881 1542.388)" fill="none" stroke="#03a4a4" stroke-linejoin="bevel" stroke-width="1"/>
    <path id="Trazado_706616" data-name="Trazado 706616" d="M113.874,30.064l.067-9.15,10.152-5.878,8.683,6.145-.067,8.483-9.685-5.01Z" transform="translate(679.881 1542.388)" fill="none" stroke="#03a4a4" stroke-linejoin="bevel" stroke-width="1"/>
    <path id="Trazado_706617" data-name="Trazado 706617" d="M19.747,0,18.7,1.469,51.048,24.5,49.259,26.86l3.994.5,4,.5-1.561-3.712-1.561-3.712-1.989,2.621Z" transform="translate(689.239 1543.866)" fill="#ffc403"/>
    <path id="Trazado_706618" data-name="Trazado 706618" d="M44.69,62.389l-1.561-3.712L41.14,61.3,8.749,38.231,7.7,39.7,40.05,62.735l-1.789,2.356,3.994.5,4,.5Z" transform="translate(690.32 1540.107)" fill="#ffc403"/>
    <path id="Trazado_706619" data-name="Trazado 706619" d="M0,80.293l32.347,23.035-1.79,2.356,4,.5,3.994.5-1.56-3.712-1.56-3.711-1.989,2.62L1.046,78.824Z" transform="translate(691.078 1536.116)" fill="#ffc403"/>
    <path id="Trazado_706620" data-name="Trazado 706620" d="M344,234.986c-25.407,0-50.624-1.815-66.06-4.249-14.723-2.32-15.608-4.384-15.941-5.162-2.044-4.768,1.618-8.43,4.849-11.661,3.5-3.5,5.543-5.783,3.645-8.63-1.839-2.76-8.9-3.412-16.379-4.1-10.744-.991-22.922-2.114-27.71-9.536-4.84-7.5-4.591-19.887-4.373-30.815.142-7.068.276-13.744-1.268-16.524-1.864-3.355-11.421-5.6-19.855-7.589-10.527-2.478-17.024-4.164-17.9-7.443-.767-2.878.384-5.131,1.5-7.312,1.456-2.85,2.715-5.312.214-9.271-1.412-2.236-18.569-4.566-62.5-4.338-31.559.152-63.645,1.574-71.25,2.744-6.952,1.069-7.754,2.664-7.835,3.126-.195,1.123,1.881,2.644,2.917,3.2l-.857,1.588c-.441-.239-4.3-2.4-3.838-5.1.382-2.219,3.35-3.683,9.338-4.6,7.667-1.179,39.88-2.612,71.515-2.765,40.193-.193,61.741,1.548,64.034,5.178,3.049,4.828,1.359,8.136-.133,11.055-1.047,2.049-1.95,3.818-1.362,6.026.641,2.4,9.1,4.4,16.57,6.153,9.226,2.172,18.766,4.417,21.017,8.469,1.78,3.2,1.648,9.8,1.495,17.437-.2,10.14-.456,22.761,4.085,29.8,4.313,6.684,16.026,7.764,26.361,8.718,8.261.761,15.4,1.42,17.713,4.9,2.814,4.222-.737,7.772-3.87,10.906-3.1,3.1-6.029,6.03-4.467,9.677.084.2,1.21,1.986,14.564,4.091,35.986,5.672,130.931,7.991,146.229-9.538,10.8-12.379,12.521-17.3,13.657-20.56.908-2.606,1.508-4.327,5.7-7.609,5.36-4.2,15.857-2.623,26.007-1.1,7.677,1.15,14.929,2.238,17.711.273,1.056-.745,1.628-1.393,1.7-1.926.088-.634-.555-1.426-1.3-2.344-1.7-2.091-4.261-5.252-1.5-11.012,2.536-5.282,27.494-4.906,68.006-3.859,32.759.848,66.635,1.725,74.2-2.93,7.38-4.542,7.7-8.532,8.033-12.755.351-4.408.748-9.4,9.18-14.886a116.4,116.4,0,0,1,14.558-7.634c11.944-5.557,23.226-10.8,27.954-25.546a16.775,16.775,0,0,1,8.669-10.136c13.494-6.87,36,.423,36.955.738l-.565,1.712c-.226-.075-22.754-7.372-35.575-.841a15.025,15.025,0,0,0-7.768,9.077c-4.969,15.493-16.6,20.9-28.911,26.63a114.941,114.941,0,0,0-14.335,7.513c-7.688,5-8.017,9.135-8.365,13.515-.356,4.487-.726,9.126-8.886,14.148-8.019,4.935-42.166,4.051-75.19,3.2-30.081-.778-64.174-1.66-66.333,2.837-2.27,4.73-.39,7.05,1.27,9.1.967,1.192,1.881,2.318,1.686,3.728-.149,1.077-.926,2.078-2.448,3.153-3.372,2.378-10.624,1.293-19.017.036-9.319-1.4-19.88-2.978-24.628.738-3.777,2.957-4.251,4.315-5.112,6.783-1.181,3.389-2.967,8.51-14,21.152-9.362,10.727-45.772,14.382-81.808,14.382" transform="translate(687.015 1534.579)" fill="#b20d0d"/>
    <path id="Trazado_706621" data-name="Trazado 706621" d="M314.564,128.394l-3.575-4.058-1.454,4.316c-23.805-10.11-26.777-24.7-29.395-37.611-1.54-7.6-3-14.775-8.322-20.4-14.572-15.382-30.933-13.585-31.622-13.5l.217,1.79c.159-.023,16.174-1.746,30.1,12.949,4.971,5.248,6.376,12.179,7.863,19.517,2.712,13.374,5.793,28.492,30.585,38.966l-1.422,4.22,5.3-1.067,5.3-1.067Z" transform="translate(667.46 1538.258)" fill="#ffc403"/>
    <path id="Trazado_706622" data-name="Trazado 706622" d="M296.564,152.616l-3.575-4.058-1.454,4.316c-23.805-10.11-26.777-24.7-29.395-37.611-1.54-7.6-3-14.775-8.322-20.4-14.572-15.382-30.933-13.585-31.622-13.5l.217,1.79c.159-.023,16.174-1.746,30.1,12.949,4.971,5.248,6.376,12.179,7.863,19.517,2.712,13.374,5.793,28.492,30.585,38.966l-1.422,4.22,5.3-1.067,5.3-1.067Z" transform="translate(669.229 1535.876)" fill="#ffc403"/>
    <path id="Trazado_706623" data-name="Trazado 706623" d="M283.749,167.283l-3.575-4.058-1.454,4.316c-23.805-10.11-26.777-24.7-29.395-37.611-1.54-7.6-3-14.775-8.322-20.4-14.572-15.382-30.934-13.585-31.622-13.5l.217,1.79c.159-.023,16.174-1.746,30.094,12.949,4.972,5.248,6.377,12.179,7.864,19.517,2.712,13.374,5.793,28.492,30.585,38.966l-1.422,4.22,5.3-1.067,5.3-1.067Z" transform="translate(670.49 1534.434)" fill="#ffc403"/>
    <path id="Trazado_706624" data-name="Trazado 706624" d="M310.689,198.7l61.378-33.864L432.916,198.7Z" transform="translate(660.529 1527.658)" fill="none" stroke="#03a4a4" stroke-width="1"/>
    <path id="Trazado_706625" data-name="Trazado 706625" d="M310.689,198.7l61.378-33.864L432.916,198.7Z" transform="translate(660.529 1527.658)" fill="none" stroke="#03a4a4" stroke-linejoin="bevel" stroke-width="1"/>
    <rect id="Rectángulo_340925" data-name="Rectángulo 340925" width="122.227" height="25.397" transform="translate(971.217 1726.356)" fill="none" stroke="#03a4a4" stroke-width="1"/>
    <rect id="Rectángulo_340926" data-name="Rectángulo 340926" width="122.227" height="25.397" transform="translate(971.217 1726.356)" fill="none" stroke="#03a4a4" stroke-miterlimit="10" stroke-width="1"/>
    <path id="Trazado_706626" data-name="Trazado 706626" d="M367.977,169.153l.066-9.061,10.054-5.82,8.6,6.084-.067,8.4-9.59-4.961Z" transform="translate(654.896 1528.697)" fill="none" stroke="#03a4a4" stroke-width="1"/>
    <path id="Trazado_706627" data-name="Trazado 706627" d="M367.977,169.153l.066-9.061,10.054-5.82,8.6,6.084-.067,8.4-9.59-4.961Z" transform="translate(654.896 1528.697)" fill="none" stroke="#03a4a4" stroke-linejoin="bevel" stroke-width="1"/>
    <path id="Trazado_706628" data-name="Trazado 706628" d="M546.837,140.031l61.244-33.864L668.8,140.031Z" transform="translate(637.309 1533.427)" fill="none" stroke="#03a4a4" stroke-width="1"/>
    <path id="Trazado_706629" data-name="Trazado 706629" d="M546.837,140.031l61.244-33.864L668.8,140.031Z" transform="translate(637.309 1533.427)" fill="none" stroke="#03a4a4" stroke-linejoin="bevel" stroke-width="1"/>
    <rect id="Rectángulo_340927" data-name="Rectángulo 340927" width="121.959" height="25.397" transform="translate(1184.146 1673.459)" fill="none" stroke="#03a4a4" stroke-width="1"/>
    <rect id="Rectángulo_340928" data-name="Rectángulo 340928" width="121.959" height="25.397" transform="translate(1184.146 1673.459)" fill="none" stroke="#03a4a4" stroke-miterlimit="10" stroke-width="1"/>
    <path id="Trazado_706630" data-name="Trazado 706630" d="M604,110.486l.066-9.061,10.031-5.82,8.579,6.085-.066,8.4-9.569-4.961Z" transform="translate(631.688 1534.466)" fill="none" stroke="#03a4a4" stroke-width="1"/>
    <path id="Trazado_706631" data-name="Trazado 706631" d="M604,110.486l.066-9.061,10.031-5.82,8.579,6.085-.066,8.4-9.569-4.961Z" transform="translate(631.688 1534.466)" fill="none" stroke="#03a4a4" stroke-linejoin="bevel" stroke-width="1"/>
    <path id="Trazado_706632" data-name="Trazado 706632" d="M757.85,247.544c-3.293-25.525-24.125-37.46-44.069-45.77-22.005-9.169-160.926-5.048-162.327-5.006l-.054-1.8c5.734-.174,140.711-4.172,163.076,5.146,20.419,8.507,41.753,20.768,45.163,47.2Z" transform="translate(636.86 1524.794)" fill="#8d0a0a"/>
    <path id="Trazado_706633" data-name="Trazado 706633" d="M750.578,255.622c-3.181-22.032-23.306-32.336-42.573-39.509-21.26-7.915-155.466-4.359-156.82-4.322l-.052-1.557c5.54-.15,135.937-3.6,157.542,4.442,19.726,7.344,40.336,17.928,43.631,40.747Z" transform="translate(636.886 1523.279)" fill="#8d0a0a"/>
    <path id="Trazado_707179" data-name="Trazado 707179" d="M36.3,19H32.881V4.781H36.3ZM41.553,8.434l.107,1.24a3.583,3.583,0,0,1,3.018-1.436,3.015,3.015,0,0,1,2.466.986,4.7,4.7,0,0,1,.845,2.969V19h-3.3V12.33a1.783,1.783,0,0,0-.322-1.177,1.491,1.491,0,0,0-1.172-.376,1.569,1.569,0,0,0-1.436.762V19H38.467V8.434Zm12.725,8.223a1.464,1.464,0,0,0,1.074-.376,1.379,1.379,0,0,0,.371-1.05h3.086a3.653,3.653,0,0,1-1.245,2.852A4.631,4.631,0,0,1,54.356,19.2a4.689,4.689,0,0,1-3.633-1.445,5.7,5.7,0,0,1-1.328-4v-.137a6.436,6.436,0,0,1,.591-2.827A4.3,4.3,0,0,1,51.69,8.9a5.081,5.081,0,0,1,2.637-.659A4.573,4.573,0,0,1,57.6,9.381a4.053,4.053,0,0,1,1.211,3.1H55.723a1.807,1.807,0,0,0-.4-1.26,1.382,1.382,0,0,0-1.074-.439q-1.279,0-1.494,1.631a11.507,11.507,0,0,0-.068,1.426,4.52,4.52,0,0,0,.381,2.207A1.319,1.319,0,0,0,54.278,16.656Zm5.508-3.037A6.236,6.236,0,0,1,60.4,10.8a4.4,4.4,0,0,1,1.768-1.9,5.323,5.323,0,0,1,2.705-.664,4.858,4.858,0,0,1,3.74,1.47,5.64,5.64,0,0,1,1.367,4v.117a5.472,5.472,0,0,1-1.372,3.921,4.871,4.871,0,0,1-3.716,1.45,4.927,4.927,0,0,1-3.623-1.353A5.29,5.29,0,0,1,59.8,14.176Zm3.291.205a3.932,3.932,0,0,0,.459,2.148,1.529,1.529,0,0,0,1.357.684q1.758,0,1.8-2.705v-.332q0-2.842-1.816-2.842-1.65,0-1.787,2.451Zm14.746-2.412-1.084-.078a1.947,1.947,0,0,0-1.992.977V19H71.455V8.434h3.086l.107,1.357a2.548,2.548,0,0,1,2.314-1.553,3.209,3.209,0,0,1,.918.117Zm7.578,0-1.084-.078a1.947,1.947,0,0,0-1.992.977V19H79.033V8.434h3.086l.107,1.357a2.548,2.548,0,0,1,2.314-1.553,3.209,3.209,0,0,1,.918.117ZM91.514,19.2a5.432,5.432,0,0,1-3.936-1.45,5.008,5.008,0,0,1-1.5-3.774V13.7a6.489,6.489,0,0,1,.6-2.861,4.395,4.395,0,0,1,1.753-1.919,5.292,5.292,0,0,1,2.734-.679A4.574,4.574,0,0,1,94.678,9.62a5.43,5.43,0,0,1,1.289,3.853v1.279H89.424a2.372,2.372,0,0,0,.771,1.4,2.3,2.3,0,0,0,1.543.508,2.958,2.958,0,0,0,2.441-1.094l1.5,1.777a4.2,4.2,0,0,1-1.743,1.353A5.891,5.891,0,0,1,91.514,19.2Zm-.371-8.418q-1.445,0-1.719,1.914h3.32v-.254a1.63,1.63,0,0,0-.4-1.226A1.593,1.593,0,0,0,91.143,10.777Zm10.615,5.879a1.464,1.464,0,0,0,1.074-.376,1.379,1.379,0,0,0,.371-1.05h3.086a3.653,3.653,0,0,1-1.245,2.852,4.631,4.631,0,0,1-3.208,1.113A4.689,4.689,0,0,1,98.2,17.75a5.7,5.7,0,0,1-1.328-4v-.137a6.436,6.436,0,0,1,.591-2.827A4.3,4.3,0,0,1,99.17,8.9a5.081,5.081,0,0,1,2.637-.659,4.573,4.573,0,0,1,3.271,1.143,4.053,4.053,0,0,1,1.211,3.1H103.2a1.806,1.806,0,0,0-.4-1.26,1.382,1.382,0,0,0-1.074-.439q-1.279,0-1.494,1.631a11.508,11.508,0,0,0-.068,1.426,4.52,4.52,0,0,0,.381,2.207A1.319,1.319,0,0,0,101.758,16.656Zm9.756-10.85V8.434h1.738v2.285h-1.738v4.834a1.234,1.234,0,0,0,.215.83,1.152,1.152,0,0,0,.85.234,4.828,4.828,0,0,0,.82-.059v2.354a6.074,6.074,0,0,1-1.855.283,3.448,3.448,0,0,1-2.51-.8,3.282,3.282,0,0,1-.811-2.432V10.719h-1.348V8.434h1.348V5.807Zm2.324,7.813a6.236,6.236,0,0,1,.615-2.817,4.4,4.4,0,0,1,1.768-1.9,5.323,5.323,0,0,1,2.705-.664,4.858,4.858,0,0,1,3.74,1.47,5.64,5.64,0,0,1,1.367,4v.117a5.472,5.472,0,0,1-1.372,3.921,4.871,4.871,0,0,1-3.716,1.45,4.927,4.927,0,0,1-3.623-1.353,5.29,5.29,0,0,1-1.475-3.667Zm3.291.205a3.932,3.932,0,0,0,.459,2.148,1.529,1.529,0,0,0,1.357.684q1.758,0,1.8-2.705v-.332q0-2.842-1.816-2.842-1.65,0-1.787,2.451Z" transform="translate(729.624 1526)" fill="#12263f"/>
    <path id="Trazado_707180" data-name="Trazado 707180" d="M36.3,19H32.881V4.781H36.3ZM41.553,8.434l.107,1.24a3.583,3.583,0,0,1,3.018-1.436,3.015,3.015,0,0,1,2.466.986,4.7,4.7,0,0,1,.845,2.969V19h-3.3V12.33a1.783,1.783,0,0,0-.322-1.177,1.491,1.491,0,0,0-1.172-.376,1.569,1.569,0,0,0-1.436.762V19H38.467V8.434Zm12.725,8.223a1.464,1.464,0,0,0,1.074-.376,1.379,1.379,0,0,0,.371-1.05h3.086a3.653,3.653,0,0,1-1.245,2.852A4.631,4.631,0,0,1,54.356,19.2a4.689,4.689,0,0,1-3.633-1.445,5.7,5.7,0,0,1-1.328-4v-.137a6.436,6.436,0,0,1,.591-2.827A4.3,4.3,0,0,1,51.69,8.9a5.081,5.081,0,0,1,2.637-.659A4.573,4.573,0,0,1,57.6,9.381a4.053,4.053,0,0,1,1.211,3.1H55.723a1.807,1.807,0,0,0-.4-1.26,1.382,1.382,0,0,0-1.074-.439q-1.279,0-1.494,1.631a11.507,11.507,0,0,0-.068,1.426,4.52,4.52,0,0,0,.381,2.207A1.319,1.319,0,0,0,54.278,16.656Zm5.508-3.037A6.236,6.236,0,0,1,60.4,10.8a4.4,4.4,0,0,1,1.768-1.9,5.323,5.323,0,0,1,2.705-.664,4.858,4.858,0,0,1,3.74,1.47,5.64,5.64,0,0,1,1.367,4v.117a5.472,5.472,0,0,1-1.372,3.921,4.871,4.871,0,0,1-3.716,1.45,4.927,4.927,0,0,1-3.623-1.353A5.29,5.29,0,0,1,59.8,14.176Zm3.291.205a3.932,3.932,0,0,0,.459,2.148,1.529,1.529,0,0,0,1.357.684q1.758,0,1.8-2.705v-.332q0-2.842-1.816-2.842-1.65,0-1.787,2.451Zm14.746-2.412-1.084-.078a1.947,1.947,0,0,0-1.992.977V19H71.455V8.434h3.086l.107,1.357a2.548,2.548,0,0,1,2.314-1.553,3.209,3.209,0,0,1,.918.117Zm7.578,0-1.084-.078a1.947,1.947,0,0,0-1.992.977V19H79.033V8.434h3.086l.107,1.357a2.548,2.548,0,0,1,2.314-1.553,3.209,3.209,0,0,1,.918.117ZM91.514,19.2a5.432,5.432,0,0,1-3.936-1.45,5.008,5.008,0,0,1-1.5-3.774V13.7a6.489,6.489,0,0,1,.6-2.861,4.395,4.395,0,0,1,1.753-1.919,5.292,5.292,0,0,1,2.734-.679A4.574,4.574,0,0,1,94.678,9.62a5.43,5.43,0,0,1,1.289,3.853v1.279H89.424a2.372,2.372,0,0,0,.771,1.4,2.3,2.3,0,0,0,1.543.508,2.958,2.958,0,0,0,2.441-1.094l1.5,1.777a4.2,4.2,0,0,1-1.743,1.353A5.891,5.891,0,0,1,91.514,19.2Zm-.371-8.418q-1.445,0-1.719,1.914h3.32v-.254a1.63,1.63,0,0,0-.4-1.226A1.593,1.593,0,0,0,91.143,10.777Zm10.615,5.879a1.464,1.464,0,0,0,1.074-.376,1.379,1.379,0,0,0,.371-1.05h3.086a3.653,3.653,0,0,1-1.245,2.852,4.631,4.631,0,0,1-3.208,1.113A4.689,4.689,0,0,1,98.2,17.75a5.7,5.7,0,0,1-1.328-4v-.137a6.436,6.436,0,0,1,.591-2.827A4.3,4.3,0,0,1,99.17,8.9a5.081,5.081,0,0,1,2.637-.659,4.573,4.573,0,0,1,3.271,1.143,4.053,4.053,0,0,1,1.211,3.1H103.2a1.806,1.806,0,0,0-.4-1.26,1.382,1.382,0,0,0-1.074-.439q-1.279,0-1.494,1.631a11.508,11.508,0,0,0-.068,1.426,4.52,4.52,0,0,0,.381,2.207A1.319,1.319,0,0,0,101.758,16.656Zm9.756-10.85V8.434h1.738v2.285h-1.738v4.834a1.234,1.234,0,0,0,.215.83,1.152,1.152,0,0,0,.85.234,4.828,4.828,0,0,0,.82-.059v2.354a6.074,6.074,0,0,1-1.855.283,3.448,3.448,0,0,1-2.51-.8,3.282,3.282,0,0,1-.811-2.432V10.719h-1.348V8.434h1.348V5.807Zm2.324,7.813a6.236,6.236,0,0,1,.615-2.817,4.4,4.4,0,0,1,1.768-1.9,5.323,5.323,0,0,1,2.705-.664,4.858,4.858,0,0,1,3.74,1.47,5.64,5.64,0,0,1,1.367,4v.117a5.472,5.472,0,0,1-1.372,3.921,4.871,4.871,0,0,1-3.716,1.45,4.927,4.927,0,0,1-3.623-1.353,5.29,5.29,0,0,1-1.475-3.667Zm3.291.205a3.932,3.932,0,0,0,.459,2.148,1.529,1.529,0,0,0,1.357.684q1.758,0,1.8-2.705v-.332q0-2.842-1.816-2.842-1.65,0-1.787,2.451Z" transform="translate(957.813 1644.952)" fill="#12263f"/>
    <path id="Trazado_707181" data-name="Trazado 707181" d="M51.441,14.186a5.193,5.193,0,0,1-.8,2.622,4.833,4.833,0,0,1-2.056,1.763,7,7,0,0,1-3.022.625,5.584,5.584,0,0,1-4.414-1.826,7.54,7.54,0,0,1-1.611-5.156v-.7a8.607,8.607,0,0,1,.728-3.657,5.513,5.513,0,0,1,2.095-2.422,5.844,5.844,0,0,1,3.164-.854,6.129,6.129,0,0,1,4.16,1.362A5.383,5.383,0,0,1,51.47,9.693H48.052A2.547,2.547,0,0,0,47.4,7.828a2.691,2.691,0,0,0-1.875-.566,2.048,2.048,0,0,0-1.875.957,6.151,6.151,0,0,0-.625,3.057v1.006a6.806,6.806,0,0,0,.571,3.252,2.091,2.091,0,0,0,1.968.977,2.632,2.632,0,0,0,1.807-.557,2.363,2.363,0,0,0,.664-1.768Zm1.055-.566a6.236,6.236,0,0,1,.615-2.817,4.4,4.4,0,0,1,1.768-1.9,5.323,5.323,0,0,1,2.705-.664,4.858,4.858,0,0,1,3.74,1.47,5.64,5.64,0,0,1,1.367,4v.117a5.472,5.472,0,0,1-1.372,3.921A4.871,4.871,0,0,1,57.6,19.2a4.927,4.927,0,0,1-3.623-1.353,5.29,5.29,0,0,1-1.475-3.667Zm3.291.205a3.932,3.932,0,0,0,.459,2.148,1.529,1.529,0,0,0,1.357.684q1.758,0,1.8-2.705v-.332q0-2.842-1.816-2.842-1.65,0-1.787,2.451Zm14.746-2.412-1.084-.078a1.947,1.947,0,0,0-1.992.977V19H64.165V8.434h3.086l.107,1.357a2.548,2.548,0,0,1,2.314-1.553,3.209,3.209,0,0,1,.918.117Zm7.578,0-1.084-.078a1.947,1.947,0,0,0-1.992.977V19H71.743V8.434h3.086l.107,1.357a2.548,2.548,0,0,1,2.314-1.553,3.209,3.209,0,0,1,.918.117ZM84.224,19.2a5.432,5.432,0,0,1-3.936-1.45,5.008,5.008,0,0,1-1.5-3.774V13.7a6.489,6.489,0,0,1,.6-2.861,4.395,4.395,0,0,1,1.753-1.919,5.292,5.292,0,0,1,2.734-.679A4.574,4.574,0,0,1,87.388,9.62a5.43,5.43,0,0,1,1.289,3.853v1.279H82.134a2.372,2.372,0,0,0,.771,1.4,2.3,2.3,0,0,0,1.543.508,2.958,2.958,0,0,0,2.441-1.094l1.5,1.777a4.2,4.2,0,0,1-1.743,1.353A5.891,5.891,0,0,1,84.224,19.2Zm-.371-8.418q-1.445,0-1.719,1.914h3.32v-.254a1.63,1.63,0,0,0-.4-1.226A1.593,1.593,0,0,0,83.853,10.777Zm10.615,5.879a1.464,1.464,0,0,0,1.074-.376,1.379,1.379,0,0,0,.371-1.05H99a3.653,3.653,0,0,1-1.245,2.852A4.631,4.631,0,0,1,94.546,19.2a4.689,4.689,0,0,1-3.633-1.445,5.7,5.7,0,0,1-1.328-4v-.137a6.436,6.436,0,0,1,.591-2.827A4.3,4.3,0,0,1,91.88,8.9a5.081,5.081,0,0,1,2.637-.659,4.573,4.573,0,0,1,3.271,1.143A4.053,4.053,0,0,1,99,12.477H95.913a1.806,1.806,0,0,0-.4-1.26,1.382,1.382,0,0,0-1.074-.439q-1.279,0-1.494,1.631a11.508,11.508,0,0,0-.068,1.426,4.52,4.52,0,0,0,.381,2.207A1.319,1.319,0,0,0,94.468,16.656Zm9.756-10.85V8.434h1.738v2.285h-1.738v4.834a1.234,1.234,0,0,0,.215.83,1.152,1.152,0,0,0,.85.234,4.828,4.828,0,0,0,.82-.059v2.354a6.074,6.074,0,0,1-1.855.283,3.448,3.448,0,0,1-2.51-.8,3.282,3.282,0,0,1-.811-2.432V10.719H99.585V8.434h1.348V5.807Zm2.324,7.813a6.236,6.236,0,0,1,.615-2.817,4.4,4.4,0,0,1,1.768-1.9,5.323,5.323,0,0,1,2.705-.664,4.858,4.858,0,0,1,3.74,1.47,5.64,5.64,0,0,1,1.367,4v.117a5.472,5.472,0,0,1-1.372,3.921,4.871,4.871,0,0,1-3.716,1.45,4.927,4.927,0,0,1-3.623-1.353,5.29,5.29,0,0,1-1.475-3.667Zm3.291.205a3.932,3.932,0,0,0,.459,2.148,1.529,1.529,0,0,0,1.357.684q1.758,0,1.8-2.705v-.332q0-2.842-1.816-2.842-1.65,0-1.787,2.451Z" transform="translate(1098.231 1602.499)" fill="#12263f"/>
  </g>
</svg>
