<svg xmlns="http://www.w3.org/2000/svg" width="548.528" height="318.048" viewBox="0 0 548.528 318.048">
  <g id="Grupo_976882" data-name="Grupo 976882" transform="translate(-827.538 -3231.749)">
    <path id="Trazado_706605" data-name="Trazado 706605" d="M40.693,211.273v122.02H217.4V204.7" transform="translate(822.263 3132.025)" fill="none" stroke="#b20d0d" stroke-linejoin="round" stroke-width="3"/>
    <path id="Trazado_706635" data-name="Trazado 706635" d="M40.693,211.273v122.02H257.229V204.7" transform="translate(1089.679 3130.824)" fill="none" stroke="#b20d0d" stroke-linejoin="round" stroke-width="3"/>
    <line id="Línea_662" data-name="Línea 662" x2="253.869" transform="translate(827.898 3464.271)" fill="none" stroke="#8a3d02" stroke-linejoin="round" stroke-width="3"/>
    <line id="Línea_671" data-name="Línea 671" x2="253.869" transform="translate(1115.024 3463.054)" fill="none" stroke="#8a3d02" stroke-linejoin="round" stroke-width="3"/>
    <path id="Trazado_707185" data-name="Trazado 707185" d="M18.369,0H10.942V-23.643L3.647-21.511v-5.625l14.041-4.856h.681Zm31.86-13.074q0,6.482-2.911,10A10.061,10.061,0,0,1,39.111.439,10.115,10.115,0,0,1,30.85-3.1q-2.922-3.538-2.922-9.976v-5.845q0-6.482,2.911-10a10.086,10.086,0,0,1,8.229-3.516,10.09,10.09,0,0,1,8.24,3.538q2.922,3.538,2.922,10Zm-7.4-6.79a11.41,11.41,0,0,0-.9-5.153,3.011,3.011,0,0,0-2.856-1.7,2.94,2.94,0,0,0-2.78,1.582,10.749,10.749,0,0,0-.934,4.79v8.174a11.5,11.5,0,0,0,.9,5.24,3.023,3.023,0,0,0,2.856,1.659A2.982,2.982,0,0,0,41.9-6.888a10.975,10.975,0,0,0,.923-5.065ZM72.4-23.774l.242,2.791a8.174,8.174,0,0,1,6.79-3.23q4.5,0,6.086,3.582A7.912,7.912,0,0,1,92.5-24.214q7.229,0,7.427,8.745V0H92.5V-15.007a4.532,4.532,0,0,0-.615-2.659,2.619,2.619,0,0,0-2.241-.835,3.508,3.508,0,0,0-3.274,1.956l.022.308V0H78.97V-14.963a4.764,4.764,0,0,0-.593-2.7,2.611,2.611,0,0,0-2.263-.835,3.551,3.551,0,0,0-3.252,1.956V0h-7.4V-23.774Z" transform="translate(909.876 3366.779)" fill="#b20d0d"/>
    <path id="Trazado_707186" data-name="Trazado 707186" d="M18.369,0H10.942V-23.643L3.647-21.511v-5.625l14.041-4.856h.681Zm31.97,0H28.015V-4.834L38.3-15.645q3.8-4.329,3.8-6.877a4.784,4.784,0,0,0-.9-3.142,3.216,3.216,0,0,0-2.615-1.077A3.257,3.257,0,0,0,35.837-25.3a5.915,5.915,0,0,0-1.055,3.593H27.356a10.506,10.506,0,0,1,1.472-5.438,10.324,10.324,0,0,1,4.087-3.9,12.14,12.14,0,0,1,5.845-1.406q5.186,0,7.987,2.4a8.55,8.55,0,0,1,2.8,6.877,9.987,9.987,0,0,1-.7,3.68,16.14,16.14,0,0,1-2.186,3.757,55.072,55.072,0,0,1-4.779,5.262L37.749-5.713h12.59ZM72.4-23.774l.242,2.791a8.174,8.174,0,0,1,6.79-3.23q4.5,0,6.086,3.582A7.912,7.912,0,0,1,92.5-24.214q7.229,0,7.427,8.745V0H92.5V-15.007a4.532,4.532,0,0,0-.615-2.659,2.619,2.619,0,0,0-2.241-.835,3.508,3.508,0,0,0-3.274,1.956l.022.308V0H78.97V-14.963a4.764,4.764,0,0,0-.593-2.7,2.611,2.611,0,0,0-2.263-.835,3.551,3.551,0,0,0-3.252,1.956V0h-7.4V-23.774Z" transform="translate(1197.002 3365.566)" fill="#b20d0d"/>
    <path id="Trazado_707183" data-name="Trazado 707183" d="M11.188-4.263A4.528,4.528,0,0,1,9.664-1.011,5.355,5.355,0,0,1,6.038.176,4.816,4.816,0,0,1,2.167-1.481,6.793,6.793,0,0,1,.756-6.029v-.782a7.671,7.671,0,0,1,.65-3.252,4.874,4.874,0,0,1,1.859-2.158,5.207,5.207,0,0,1,2.808-.751,5.217,5.217,0,0,1,3.568,1.187,4.866,4.866,0,0,1,1.564,3.331H8.569a2.673,2.673,0,0,0-.69-1.8,2.555,2.555,0,0,0-1.806-.558A2.24,2.24,0,0,0,4.1-9.866a5.3,5.3,0,0,0-.672,2.931v.967a5.667,5.667,0,0,0,.628,3.032,2.2,2.2,0,0,0,1.982.958,2.6,2.6,0,0,0,1.824-.558,2.521,2.521,0,0,0,.69-1.727Zm4.368,2.145h5.6V0H12.92V-12.8h2.637ZM25.471,0H22.834V-12.8h2.637Zm5.889-12.8,3.287,9.281,3.27-9.281h3.463V0H38.733V-3.5L39-9.536,35.543,0H33.732L30.287-9.527,30.551-3.5V0H27.914V-12.8ZM51.064-2.637H46.441L45.563,0h-2.8l4.764-12.8h2.443L54.756,0h-2.8ZM47.153-4.772h3.2l-1.608-4.79Zm23.326.51a4.528,4.528,0,0,1-1.525,3.252A5.355,5.355,0,0,1,65.329.176a4.816,4.816,0,0,1-3.872-1.657,6.793,6.793,0,0,1-1.411-4.548v-.782a7.671,7.671,0,0,1,.65-3.252,4.874,4.874,0,0,1,1.859-2.158,5.207,5.207,0,0,1,2.808-.751,5.217,5.217,0,0,1,3.568,1.187A4.866,4.866,0,0,1,70.5-8.455H67.86a2.673,2.673,0,0,0-.69-1.8,2.555,2.555,0,0,0-1.806-.558,2.24,2.24,0,0,0-1.973.945,5.3,5.3,0,0,0-.672,2.931v.967a5.667,5.667,0,0,0,.628,3.032,2.2,2.2,0,0,0,1.982.958,2.6,2.6,0,0,0,1.824-.558,2.521,2.521,0,0,0,.69-1.727Zm8.956,1.626H74.813L73.934,0h-2.8l4.764-12.8h2.443L83.127,0h-2.8ZM75.524-4.772h3.2l-1.608-4.79ZM77.66-16.225h2.769L77.994-13.5H75.929Zm9.3,14.106h5.6V0H84.322V-12.8h2.637ZM96.873,0H94.236V-12.8h2.637Zm2.443,0V-12.8h3.938a5.98,5.98,0,0,1,3.019.76,5.3,5.3,0,0,1,2.079,2.162,6.669,6.669,0,0,1,.747,3.186V-6.1a6.688,6.688,0,0,1-.734,3.173,5.256,5.256,0,0,1-2.07,2.153A6.025,6.025,0,0,1,103.28,0Zm2.637-10.661v8.543h1.274a2.863,2.863,0,0,0,2.364-1.011,4.567,4.567,0,0,0,.835-2.892V-6.7a4.64,4.64,0,0,0-.809-2.958,2.854,2.854,0,0,0-2.364-1.006Zm19.573,4.553a7.725,7.725,0,0,1-.668,3.313,5.03,5.03,0,0,1-1.912,2.2,5.288,5.288,0,0,1-2.852.773,5.324,5.324,0,0,1-2.839-.765,5.08,5.08,0,0,1-1.934-2.184,7.5,7.5,0,0,1-.694-3.265v-.633A7.685,7.685,0,0,1,111.309-10a5.072,5.072,0,0,1,1.925-2.206,5.3,5.3,0,0,1,2.843-.769,5.3,5.3,0,0,1,2.843.769A5.072,5.072,0,0,1,120.845-10a7.663,7.663,0,0,1,.681,3.318Zm-2.672-.58a5.385,5.385,0,0,0-.721-3.059,2.349,2.349,0,0,0-2.057-1.046,2.349,2.349,0,0,0-2.048,1.033,5.324,5.324,0,0,0-.729,3.028v.624a5.453,5.453,0,0,0,.721,3.041,2.342,2.342,0,0,0,2.074,1.081,2.321,2.321,0,0,0,2.039-1.042,5.421,5.421,0,0,0,.721-3.037Z" transform="translate(901.788 3248)" fill="#12263f"/>
    <path id="Trazado_707184" data-name="Trazado 707184" d="M11.188-4.263A4.528,4.528,0,0,1,9.664-1.011,5.355,5.355,0,0,1,6.038.176,4.816,4.816,0,0,1,2.167-1.481,6.793,6.793,0,0,1,.756-6.029v-.782a7.671,7.671,0,0,1,.65-3.252,4.874,4.874,0,0,1,1.859-2.158,5.207,5.207,0,0,1,2.808-.751,5.217,5.217,0,0,1,3.568,1.187,4.866,4.866,0,0,1,1.564,3.331H8.569a2.673,2.673,0,0,0-.69-1.8,2.555,2.555,0,0,0-1.806-.558A2.24,2.24,0,0,0,4.1-9.866a5.3,5.3,0,0,0-.672,2.931v.967a5.667,5.667,0,0,0,.628,3.032,2.2,2.2,0,0,0,1.982.958,2.6,2.6,0,0,0,1.824-.558,2.521,2.521,0,0,0,.69-1.727Zm4.368,2.145h5.6V0H12.92V-12.8h2.637ZM25.471,0H22.834V-12.8h2.637Zm5.889-12.8,3.287,9.281,3.27-9.281h3.463V0H38.733V-3.5L39-9.536,35.543,0H33.732L30.287-9.527,30.551-3.5V0H27.914V-12.8ZM51.064-2.637H46.441L45.563,0h-2.8l4.764-12.8h2.443L54.756,0h-2.8ZM47.153-4.772h3.2l-1.608-4.79Zm20.979-.457H63.07V0H60.434V-12.8h8.332v2.136h-5.7v3.3h5.063Zm6.9.545h-2.1V0H70.295V-12.8H75.05a5.375,5.375,0,0,1,3.5,1.011,3.488,3.488,0,0,1,1.23,2.856,3.937,3.937,0,0,1-.567,2.184,3.866,3.866,0,0,1-1.718,1.393L80.262-.123V0h-2.83Zm-2.1-2.136h2.127A2.178,2.178,0,0,0,76.6-7.326a1.806,1.806,0,0,0,.545-1.393,1.933,1.933,0,0,0-.514-1.424,2.137,2.137,0,0,0-1.578-.519H72.932ZM84.586,0H81.949V-12.8h2.637Zm-.817-16.251h2.769L84.1-13.526H82.037ZM97.541-6.108a7.725,7.725,0,0,1-.668,3.313A5.03,5.03,0,0,1,94.961-.6a5.288,5.288,0,0,1-2.852.773,5.324,5.324,0,0,1-2.839-.765,5.08,5.08,0,0,1-1.934-2.184,7.5,7.5,0,0,1-.694-3.265v-.633A7.685,7.685,0,0,1,87.324-10,5.072,5.072,0,0,1,89.249-12.2a5.3,5.3,0,0,1,2.843-.769,5.3,5.3,0,0,1,2.843.769A5.072,5.072,0,0,1,96.86-10a7.663,7.663,0,0,1,.681,3.318Zm-2.672-.58a5.385,5.385,0,0,0-.721-3.059,2.349,2.349,0,0,0-2.057-1.046A2.349,2.349,0,0,0,90.044-9.76a5.324,5.324,0,0,0-.729,3.028v.624a5.453,5.453,0,0,0,.721,3.041,2.342,2.342,0,0,0,2.074,1.081,2.321,2.321,0,0,0,2.039-1.042,5.421,5.421,0,0,0,.721-3.037Z" transform="translate(1190.396 3248)" fill="#12263f"/>
    <path id="Trazado_707187" data-name="Trazado 707187" d="M6.1-7.163H9.272v2.294H6.1v3.586H3.683V-4.869H.5V-7.163H3.683V-10.6H6.1ZM23.15-5.229H18.088V0H15.451V-12.8h8.332v2.136h-5.7v3.3H23.15ZM30.357,0A2.821,2.821,0,0,1,30.1-.853,3.073,3.073,0,0,1,27.7.176a3.376,3.376,0,0,1-2.316-.809,2.6,2.6,0,0,1-.918-2.039,2.687,2.687,0,0,1,1.121-2.32,5.529,5.529,0,0,1,3.239-.817H30v-.545a1.567,1.567,0,0,0-.338-1.055,1.331,1.331,0,0,0-1.068-.4,1.513,1.513,0,0,0-1.006.308,1.045,1.045,0,0,0-.365.844H24.68a2.551,2.551,0,0,1,.51-1.529,3.37,3.37,0,0,1,1.441-1.1,5.253,5.253,0,0,1,2.092-.4,4.15,4.15,0,0,1,2.791.883,3.09,3.09,0,0,1,1.033,2.483V-2.2a4.546,4.546,0,0,0,.378,2.048V0Zm-2.1-1.767a2.188,2.188,0,0,0,1.037-.25,1.645,1.645,0,0,0,.7-.672V-4.324h-.949q-1.907,0-2.03,1.318l-.009.149a1.017,1.017,0,0,0,.334.782A1.3,1.3,0,0,0,28.257-1.767ZM29.224-13.5h2.769l-2.435,2.725H27.492ZM38.452-1.872a1.666,1.666,0,0,0,1.143-.387,1.355,1.355,0,0,0,.457-1.028h2.382a3.258,3.258,0,0,1-.527,1.771A3.48,3.48,0,0,1,40.487-.268,4.442,4.442,0,0,1,38.5.176a4.129,4.129,0,0,1-3.217-1.3A5.13,5.13,0,0,1,34.1-4.7v-.167a5.071,5.071,0,0,1,1.169-3.507,4.08,4.08,0,0,1,3.208-1.31A4,4,0,0,1,41.339-8.67a3.594,3.594,0,0,1,1.094,2.7H40.052a1.745,1.745,0,0,0-.457-1.206,1.524,1.524,0,0,0-1.16-.464,1.53,1.53,0,0,0-1.34.647,3.749,3.749,0,0,0-.453,2.1v.264a3.8,3.8,0,0,0,.448,2.113A1.549,1.549,0,0,0,38.452-1.872ZM46.564,0H44.016V-9.51h2.549Zm-2.7-11.971a1.251,1.251,0,0,1,.382-.94,1.436,1.436,0,0,1,1.042-.369,1.44,1.44,0,0,1,1.037.369,1.244,1.244,0,0,1,.387.94,1.247,1.247,0,0,1-.391.949,1.443,1.443,0,0,1-1.033.369,1.443,1.443,0,0,1-1.033-.369A1.247,1.247,0,0,1,43.866-11.971ZM51.337,0H48.788V-13.5h2.549Zm6.179-4.825a5.731,5.731,0,0,1,1-3.542,3.237,3.237,0,0,1,2.729-1.318,2.913,2.913,0,0,1,2.294,1.037V-13.5h2.549V0H63.791l-.123-1.011A2.989,2.989,0,0,1,61.225.176a3.228,3.228,0,0,1-2.694-1.323A5.916,5.916,0,0,1,57.516-4.825Zm2.54.189a3.754,3.754,0,0,0,.466,2.051,1.517,1.517,0,0,0,1.354.713,1.7,1.7,0,0,0,1.661-.995V-6.625a1.675,1.675,0,0,0-1.644-.995Q60.056-7.62,60.056-4.636ZM72.431.176a4.668,4.668,0,0,1-3.406-1.283,4.561,4.561,0,0,1-1.314-3.419v-.246a5.745,5.745,0,0,1,.554-2.562,4.064,4.064,0,0,1,1.569-1.74,4.4,4.4,0,0,1,2.316-.611,3.947,3.947,0,0,1,3.072,1.23,5,5,0,0,1,1.121,3.489v1.037H70.286a2.36,2.36,0,0,0,.743,1.494,2.245,2.245,0,0,0,1.569.563,2.742,2.742,0,0,0,2.294-1.063l1.248,1.4A3.813,3.813,0,0,1,74.593-.277,5.075,5.075,0,0,1,72.431.176Zm-.29-7.813a1.587,1.587,0,0,0-1.226.512,2.651,2.651,0,0,0-.6,1.466h3.533v-.2a1.891,1.891,0,0,0-.457-1.311A1.638,1.638,0,0,0,72.141-7.638ZM85.825-3.1,87.592-9.51h2.654L87.038,0H84.612L81.4-9.51h2.654Zm9.8,3.278a4.668,4.668,0,0,1-3.406-1.283,4.561,4.561,0,0,1-1.314-3.419v-.246a5.745,5.745,0,0,1,.554-2.562,4.064,4.064,0,0,1,1.569-1.74,4.4,4.4,0,0,1,2.316-.611,3.947,3.947,0,0,1,3.072,1.23,5,5,0,0,1,1.121,3.489v1.037H93.48a2.36,2.36,0,0,0,.743,1.494,2.245,2.245,0,0,0,1.569.563,2.742,2.742,0,0,0,2.294-1.063l1.248,1.4A3.813,3.813,0,0,1,97.787-.277,5.075,5.075,0,0,1,95.625.176Zm-.29-7.813a1.587,1.587,0,0,0-1.226.512,2.651,2.651,0,0,0-.6,1.466H97.04v-.2a1.891,1.891,0,0,0-.457-1.311A1.638,1.638,0,0,0,95.335-7.638Zm7.98-1.872.079,1.1a3.32,3.32,0,0,1,2.733-1.274,2.759,2.759,0,0,1,2.25.888,4.142,4.142,0,0,1,.756,2.654V0h-2.54V-6.082a1.648,1.648,0,0,0-.352-1.173,1.574,1.574,0,0,0-1.169-.365,1.747,1.747,0,0,0-1.608.914V0h-2.54V-9.51ZM114.1-11.848V-9.51h1.626v1.863H114.1V-2.9a1.133,1.133,0,0,0,.2.756,1.015,1.015,0,0,0,.773.229,4.051,4.051,0,0,0,.747-.062V-.053a5.229,5.229,0,0,1-1.538.229,2.425,2.425,0,0,1-2.725-2.7V-7.646h-1.389V-9.51h1.389v-2.338ZM119.821,0h-2.549V-9.51h2.549Zm-2.7-11.971a1.251,1.251,0,0,1,.382-.94,1.436,1.436,0,0,1,1.042-.369,1.44,1.44,0,0,1,1.037.369,1.244,1.244,0,0,1,.387.94,1.247,1.247,0,0,1-.391.949,1.443,1.443,0,0,1-1.033.369,1.443,1.443,0,0,1-1.033-.369A1.247,1.247,0,0,1,117.123-11.971ZM124.594,0h-2.549V-13.5h2.549Zm7.6,0a2.821,2.821,0,0,1-.255-.853,3.073,3.073,0,0,1-2.4,1.028,3.376,3.376,0,0,1-2.316-.809,2.6,2.6,0,0,1-.918-2.039,2.687,2.687,0,0,1,1.121-2.32,5.529,5.529,0,0,1,3.239-.817h1.169v-.545a1.567,1.567,0,0,0-.338-1.055,1.331,1.331,0,0,0-1.068-.4,1.513,1.513,0,0,0-1.006.308,1.045,1.045,0,0,0-.365.844h-2.54a2.551,2.551,0,0,1,.51-1.529,3.37,3.37,0,0,1,1.441-1.1,5.253,5.253,0,0,1,2.092-.4,4.15,4.15,0,0,1,2.791.883,3.09,3.09,0,0,1,1.033,2.483V-2.2a4.546,4.546,0,0,0,.378,2.048V0Zm-2.1-1.767a2.188,2.188,0,0,0,1.037-.25,1.645,1.645,0,0,0,.7-.672V-4.324h-.949q-1.907,0-2.03,1.318l-.009.149a1.017,1.017,0,0,0,.334.782A1.3,1.3,0,0,0,130.1-1.767ZM141.68-7.128a6.9,6.9,0,0,0-.914-.07,1.86,1.86,0,0,0-1.89.976V0h-2.54V-9.51h2.4l.07,1.134a2.354,2.354,0,0,1,2.118-1.31,2.662,2.662,0,0,1,.791.114Z" transform="translate(887.79 3549.621)" fill="#12263f"/>
    <path id="Trazado_707188" data-name="Trazado 707188" d="M6.1-7.163H9.272v2.294H6.1v3.586H3.683V-4.869H.5V-7.163H3.683V-10.6H6.1ZM20.188-4.685h-2.1V0H15.451V-12.8h4.755a5.375,5.375,0,0,1,3.5,1.011,3.488,3.488,0,0,1,1.23,2.856,3.937,3.937,0,0,1-.567,2.184,3.866,3.866,0,0,1-1.718,1.393L25.418-.123V0h-2.83Zm-2.1-2.136h2.127a2.178,2.178,0,0,0,1.538-.505A1.806,1.806,0,0,0,22.3-8.719a1.933,1.933,0,0,0-.514-1.424,2.137,2.137,0,0,0-1.578-.519H18.088Zm13.061,7a4.668,4.668,0,0,1-3.406-1.283,4.561,4.561,0,0,1-1.314-3.419v-.246a5.745,5.745,0,0,1,.554-2.562,4.064,4.064,0,0,1,1.569-1.74,4.4,4.4,0,0,1,2.316-.611,3.947,3.947,0,0,1,3.072,1.23A5,5,0,0,1,35.06-4.966v1.037H29a2.36,2.36,0,0,0,.743,1.494,2.245,2.245,0,0,0,1.569.563,2.742,2.742,0,0,0,2.294-1.063l1.248,1.4A3.813,3.813,0,0,1,33.311-.277,5.075,5.075,0,0,1,31.148.176Zm-.29-7.813a1.587,1.587,0,0,0-1.226.512,2.651,2.651,0,0,0-.6,1.466h3.533v-.2a1.891,1.891,0,0,0-.457-1.311A1.638,1.638,0,0,0,30.858-7.638Zm8.684-4.21V-9.51h1.626v1.863H39.542V-2.9a1.133,1.133,0,0,0,.2.756,1.015,1.015,0,0,0,.773.229,4.051,4.051,0,0,0,.747-.062V-.053a5.229,5.229,0,0,1-1.538.229A2.425,2.425,0,0,1,37-2.522V-7.646H35.613V-9.51H37v-2.338ZM45.264,0H42.715V-9.51h2.549Zm-2.7-11.971a1.251,1.251,0,0,1,.382-.94,1.436,1.436,0,0,1,1.042-.369,1.44,1.44,0,0,1,1.037.369,1.244,1.244,0,0,1,.387.94,1.247,1.247,0,0,1-.391.949,1.443,1.443,0,0,1-1.033.369,1.443,1.443,0,0,1-1.033-.369A1.247,1.247,0,0,1,42.565-11.971ZM51.732.176a4.668,4.668,0,0,1-3.406-1.283,4.561,4.561,0,0,1-1.314-3.419v-.246a5.745,5.745,0,0,1,.554-2.562,4.064,4.064,0,0,1,1.569-1.74,4.4,4.4,0,0,1,2.316-.611,3.947,3.947,0,0,1,3.072,1.23,5,5,0,0,1,1.121,3.489v1.037H49.588a2.36,2.36,0,0,0,.743,1.494,2.245,2.245,0,0,0,1.569.563,2.742,2.742,0,0,0,2.294-1.063l1.248,1.4A3.813,3.813,0,0,1,53.895-.277,5.075,5.075,0,0,1,51.732.176Zm-.29-7.813a1.587,1.587,0,0,0-1.226.512,2.651,2.651,0,0,0-.6,1.466h3.533v-.2a1.891,1.891,0,0,0-.457-1.311A1.638,1.638,0,0,0,51.442-7.638Zm7.98-1.872.079,1.1a3.32,3.32,0,0,1,2.733-1.274,2.759,2.759,0,0,1,2.25.888,4.142,4.142,0,0,1,.756,2.654V0H62.7V-6.082a1.648,1.648,0,0,0-.352-1.173,1.574,1.574,0,0,0-1.169-.365,1.747,1.747,0,0,0-1.608.914V0h-2.54V-9.51ZM71.543.176a4.668,4.668,0,0,1-3.406-1.283,4.561,4.561,0,0,1-1.314-3.419v-.246a5.745,5.745,0,0,1,.554-2.562,4.064,4.064,0,0,1,1.569-1.74,4.4,4.4,0,0,1,2.316-.611,3.947,3.947,0,0,1,3.072,1.23,5,5,0,0,1,1.121,3.489v1.037H69.4a2.36,2.36,0,0,0,.743,1.494,2.245,2.245,0,0,0,1.569.563A2.742,2.742,0,0,0,74-2.936l1.248,1.4A3.813,3.813,0,0,1,73.705-.277,5.075,5.075,0,0,1,71.543.176Zm-.29-7.813a1.587,1.587,0,0,0-1.226.512,2.651,2.651,0,0,0-.6,1.466h3.533v-.2A1.891,1.891,0,0,0,72.5-7.174,1.638,1.638,0,0,0,71.253-7.638ZM91.591-4.263a4.528,4.528,0,0,1-1.525,3.252A5.355,5.355,0,0,1,86.44.176a4.816,4.816,0,0,1-3.872-1.657,6.793,6.793,0,0,1-1.411-4.548v-.782a7.671,7.671,0,0,1,.65-3.252,4.874,4.874,0,0,1,1.859-2.158,5.207,5.207,0,0,1,2.808-.751,5.217,5.217,0,0,1,3.568,1.187,4.866,4.866,0,0,1,1.564,3.331H88.972a2.673,2.673,0,0,0-.69-1.8,2.555,2.555,0,0,0-1.806-.558,2.24,2.24,0,0,0-1.973.945,5.3,5.3,0,0,0-.672,2.931v.967a5.667,5.667,0,0,0,.628,3.032,2.2,2.2,0,0,0,1.982.958,2.6,2.6,0,0,0,1.824-.558,2.521,2.521,0,0,0,.69-1.727ZM98.666,0a2.821,2.821,0,0,1-.255-.853,3.073,3.073,0,0,1-2.4,1.028A3.376,3.376,0,0,1,93.7-.633a2.6,2.6,0,0,1-.918-2.039A2.687,2.687,0,0,1,93.9-4.992a5.529,5.529,0,0,1,3.239-.817h1.169v-.545a1.567,1.567,0,0,0-.338-1.055A1.331,1.331,0,0,0,96.9-7.8a1.513,1.513,0,0,0-1.006.308,1.045,1.045,0,0,0-.365.844h-2.54a2.551,2.551,0,0,1,.51-1.529,3.37,3.37,0,0,1,1.441-1.1,5.253,5.253,0,0,1,2.092-.4,4.15,4.15,0,0,1,2.791.883,3.09,3.09,0,0,1,1.033,2.483V-2.2a4.546,4.546,0,0,0,.378,2.048V0Zm-2.1-1.767a2.188,2.188,0,0,0,1.037-.25,1.645,1.645,0,0,0,.7-.672V-4.324h-.949q-1.907,0-2.03,1.318l-.009.149a1.017,1.017,0,0,0,.334.782A1.3,1.3,0,0,0,96.565-1.767ZM105.486,0h-2.549V-13.5h2.549Zm1.7-4.843a5.64,5.64,0,0,1,.545-2.522A3.989,3.989,0,0,1,109.3-9.079a4.577,4.577,0,0,1,2.377-.606,4.33,4.33,0,0,1,3.142,1.178,4.727,4.727,0,0,1,1.358,3.2l.018.65a4.97,4.97,0,0,1-1.222,3.511A4.247,4.247,0,0,1,111.691.176a4.268,4.268,0,0,1-3.283-1.318,5.058,5.058,0,0,1-1.226-3.586Zm2.54.18a3.555,3.555,0,0,0,.51,2.073,1.682,1.682,0,0,0,1.459.717,1.686,1.686,0,0,0,1.441-.709,3.89,3.89,0,0,0,.519-2.267,3.519,3.519,0,0,0-.519-2.06,1.686,1.686,0,0,0-1.459-.731,1.658,1.658,0,0,0-1.441.726A3.955,3.955,0,0,0,109.723-4.662ZM123.1-7.128a6.9,6.9,0,0,0-.914-.07,1.86,1.86,0,0,0-1.89.976V0h-2.54V-9.51h2.4l.07,1.134a2.354,2.354,0,0,1,2.118-1.31,2.662,2.662,0,0,1,.791.114Z" transform="translate(1174.926 3549.176)" fill="#12263f"/>
    <path id="Trazado_706612" data-name="Trazado 706612" d="M8,0H26.018V29.914H33.9L17.542,45.387,0,30.41H8.447Z" transform="translate(978.565 3300.654) rotate(180)" fill="#06d1d1" stroke="#03a4a4" stroke-miterlimit="10" stroke-width="1"/>
    <path id="Trazado_706636" data-name="Trazado 706636" d="M8,0H26.018V29.914H33.9L17.542,45.387,0,30.41H8.447Z" transform="translate(1268.819 3300.654) rotate(180)" fill="#06d1d1" stroke="#03a4a4" stroke-miterlimit="10" stroke-width="1"/>
    <path id="Trazado_706634" data-name="Trazado 706634" d="M402.172.5h18.021V30.415h7.884l-16.36,15.473L394.175,30.91h8.447Z" transform="translate(548.033 3473.01)" fill="#06d1d1" stroke="#03a4a4" stroke-miterlimit="10" stroke-width="1"/>
    <path id="Trazado_706637" data-name="Trazado 706637" d="M402.172.5h18.021V30.415h7.884l-16.36,15.473L394.175,30.91h8.447Z" transform="translate(838.287 3473.01)" fill="#06d1d1" stroke="#03a4a4" stroke-miterlimit="10" stroke-width="1"/>
    <line id="Línea_665" data-name="Línea 665" y1="52.267" x2="135.646" transform="translate(827.898 3304.398)" fill="none" stroke="#8d0a0a" stroke-width="2"/>
    <line id="Línea_668" data-name="Línea 668" y1="53.512" x2="163.646" transform="translate(1089.321 3303.177)" fill="none" stroke="#8d0a0a" stroke-width="2"/>
    <line id="Línea_666" data-name="Línea 666" x1="118.223" y1="52.267" transform="translate(961.312 3304.398)" fill="none" stroke="#8d0a0a" stroke-width="2"/>
    <line id="Línea_670" data-name="Línea 670" x1="125.068" y1="43.556" transform="translate(1250.67 3303.241)" fill="none" stroke="#8d0a0a" stroke-width="2"/>
    <line id="Línea_667" data-name="Línea 667" x2="176.713" transform="translate(862.743 3368.04)" fill="none" stroke="#707070" stroke-width="1"/>
    <line id="Línea_669" data-name="Línea 669" x2="216.535" transform="translate(1130.58 3366.821)" fill="none" stroke="#707070" stroke-width="1"/>
    <g id="Rectángulo_340932" data-name="Rectángulo 340932" transform="translate(921.962 3388.28)" fill="none" stroke="#707070" stroke-width="1">
      <rect width="61.097" height="76.371" stroke="none"/>
      <rect x="0.5" y="0.5" width="60.097" height="75.371" fill="none"/>
    </g>
    <g id="Rectángulo_340933" data-name="Rectángulo 340933" transform="translate(1204.229 3387.129)" fill="none" stroke="#707070" stroke-width="1">
      <rect width="74.667" height="75.912" stroke="none"/>
      <rect x="0.5" y="0.5" width="73.667" height="74.912" fill="none"/>
    </g>
  </g>
</svg>
