<svg xmlns="http://www.w3.org/2000/svg" width="959" height="330" viewBox="0 0 959 330">
  <g id="Grupo_976879" data-name="Grupo 976879" transform="translate(-321 -1025)">
    <rect id="Rectángulo_340929" data-name="Rectángulo 340929" width="959" height="330" rx="25" transform="translate(321 1025)" fill="#abffff" opacity="0.31"/>
    <path id="Trazado_706602" data-name="Trazado 706602" d="M92.249,135.485l52.283-44.614,50.191,45.312" transform="translate(437.855 1047.001)" fill="none" stroke="#b20d0d" stroke-linejoin="round" stroke-width="3"/>
    <path id="Trazado_706603" data-name="Trazado 706603" d="M1.582,216.212l95.5-78.075V119.315" transform="translate(457.418 1040.863)" fill="none" stroke="#b20d0d" stroke-linejoin="round" stroke-width="3"/>
    <path id="Trazado_706604" data-name="Trazado 706604" d="M288.2,218.878l-95.5-78.075V121.981" transform="translate(416.183 1040.288)" fill="none" stroke="#b20d0d" stroke-linejoin="round" stroke-width="3"/>
    <path id="Trazado_706605" data-name="Trazado 706605" d="M40.693,209.982v63.436H226.819V214.861" transform="translate(448.979 1021.301)" fill="none" stroke="#b20d0d" stroke-linejoin="round" stroke-width="3"/>
    <line id="Línea_662" data-name="Línea 662" x2="247.471" transform="translate(461.091 1294.545)" fill="none" stroke="#8a3d02" stroke-linejoin="round" stroke-width="3"/>
    <path id="Trazado_707176" data-name="Trazado 707176" d="M11.43,0H6.809V-14.711L2.27-13.385v-3.5l8.736-3.021h.424ZM31.254-8.135a9.5,9.5,0,0,1-1.812,6.221A6.26,6.26,0,0,1,24.336.273a6.294,6.294,0,0,1-5.141-2.2,9.49,9.49,0,0,1-1.818-6.207v-3.637a9.5,9.5,0,0,1,1.812-6.221,6.276,6.276,0,0,1,5.12-2.187,6.278,6.278,0,0,1,5.127,2.2,9.514,9.514,0,0,1,1.818,6.221Zm-4.607-4.225a7.1,7.1,0,0,0-.561-3.206,1.874,1.874,0,0,0-1.777-1.06,1.829,1.829,0,0,0-1.729.984A6.688,6.688,0,0,0,22-12.66v5.086a7.153,7.153,0,0,0,.561,3.261,1.881,1.881,0,0,0,1.777,1.032,1.856,1.856,0,0,0,1.736-1,6.829,6.829,0,0,0,.574-3.151Zm18.4-2.434.15,1.736a5.086,5.086,0,0,1,4.225-2.01,3.745,3.745,0,0,1,3.787,2.229,4.923,4.923,0,0,1,4.348-2.229q4.5,0,4.621,5.441V0H57.559V-9.338a2.82,2.82,0,0,0-.383-1.654,1.63,1.63,0,0,0-1.395-.52,2.183,2.183,0,0,0-2.037,1.217l.014.191V0H49.137V-9.311a2.964,2.964,0,0,0-.369-1.682,1.625,1.625,0,0,0-1.408-.52,2.21,2.21,0,0,0-2.023,1.217V0H40.729V-14.793Zm25.129-3.678v3.678h2.434v3.2H70.178v6.768a1.728,1.728,0,0,0,.3,1.162,1.613,1.613,0,0,0,1.189.328,6.759,6.759,0,0,0,1.148-.082V-.123a8.5,8.5,0,0,1-2.6.4A4.827,4.827,0,0,1,66.705-.848a4.6,4.6,0,0,1-1.135-3.4v-7.342H63.684v-3.2H65.57v-3.678ZM82.168-4.156a1.064,1.064,0,0,0-.615-.943,9.358,9.358,0,0,0-2.338-.738,10.661,10.661,0,0,1-2.844-1,4.763,4.763,0,0,1-1.709-1.511,3.608,3.608,0,0,1-.588-2.037,4.089,4.089,0,0,1,1.682-3.356,6.927,6.927,0,0,1,4.4-1.319,7.675,7.675,0,0,1,4.7,1.326,4.147,4.147,0,0,1,1.777,3.486H82.018q0-1.777-1.873-1.777a1.857,1.857,0,0,0-1.217.4,1.249,1.249,0,0,0-.492,1,1.146,1.146,0,0,0,.6,1A5.684,5.684,0,0,0,80.958-9a16.6,16.6,0,0,1,2.317.588q3.336,1.148,3.336,4.115A3.874,3.874,0,0,1,84.813-1,7.884,7.884,0,0,1,80.158.273,8.046,8.046,0,0,1,76.768-.41,5.67,5.67,0,0,1,74.443-2.27a4.21,4.21,0,0,1-.834-2.475h4.307a1.781,1.781,0,0,0,.684,1.5,2.812,2.812,0,0,0,1.682.472A2.212,2.212,0,0,0,81.7-3.158,1.225,1.225,0,0,0,82.168-4.156Z" transform="translate(538.257 1271.833)" fill="#161615"/>
    <path id="Trazado_706606" data-name="Trazado 706606" d="M644.545,135.485l52.283-44.614,50.191,45.312" transform="translate(318.689 1047.001)" fill="none" stroke="#b20d0d" stroke-linejoin="round" stroke-width="3"/>
    <path id="Trazado_706607" data-name="Trazado 706607" d="M553.879,216.212l95.5-78.075V119.315" transform="translate(338.252 1040.863)" fill="none" stroke="#b20d0d" stroke-linejoin="round" stroke-width="3"/>
    <path id="Trazado_706608" data-name="Trazado 706608" d="M840.492,218.878l-95.5-78.075V121.981" transform="translate(297.018 1040.288)" fill="none" stroke="#b20d0d" stroke-linejoin="round" stroke-width="3"/>
    <path id="Trazado_706609" data-name="Trazado 706609" d="M592.99,209.982v63.436H779.115V214.861" transform="translate(329.813 1021.301)" fill="none" stroke="#b20d0d" stroke-linejoin="round" stroke-width="3"/>
    <line id="Línea_663" data-name="Línea 663" x2="247.471" transform="translate(894.223 1294.545)" fill="none" stroke="#8a3d02" stroke-linejoin="round" stroke-width="3"/>
    <path id="Trazado_707178" data-name="Trazado 707178" d="M11.43,0H6.809V-14.711L2.27-13.385v-3.5l8.736-3.021h.424ZM31.254-8.135a9.5,9.5,0,0,1-1.812,6.221A6.26,6.26,0,0,1,24.336.273a6.294,6.294,0,0,1-5.141-2.2,9.49,9.49,0,0,1-1.818-6.207v-3.637a9.5,9.5,0,0,1,1.812-6.221,6.276,6.276,0,0,1,5.12-2.187,6.278,6.278,0,0,1,5.127,2.2,9.514,9.514,0,0,1,1.818,6.221Zm-4.607-4.225a7.1,7.1,0,0,0-.561-3.206,1.874,1.874,0,0,0-1.777-1.06,1.829,1.829,0,0,0-1.729.984A6.688,6.688,0,0,0,22-12.66v5.086a7.153,7.153,0,0,0,.561,3.261,1.881,1.881,0,0,0,1.777,1.032,1.856,1.856,0,0,0,1.736-1,6.829,6.829,0,0,0,.574-3.151Zm18.4-2.434.15,1.736a5.086,5.086,0,0,1,4.225-2.01,3.745,3.745,0,0,1,3.787,2.229,4.923,4.923,0,0,1,4.348-2.229q4.5,0,4.621,5.441V0H57.559V-9.338a2.82,2.82,0,0,0-.383-1.654,1.63,1.63,0,0,0-1.395-.52,2.183,2.183,0,0,0-2.037,1.217l.014.191V0H49.137V-9.311a2.964,2.964,0,0,0-.369-1.682,1.625,1.625,0,0,0-1.408-.52,2.21,2.21,0,0,0-2.023,1.217V0H40.729V-14.793Zm25.129-3.678v3.678h2.434v3.2H70.178v6.768a1.728,1.728,0,0,0,.3,1.162,1.613,1.613,0,0,0,1.189.328,6.759,6.759,0,0,0,1.148-.082V-.123a8.5,8.5,0,0,1-2.6.4A4.827,4.827,0,0,1,66.705-.848a4.6,4.6,0,0,1-1.135-3.4v-7.342H63.684v-3.2H65.57v-3.678ZM82.168-4.156a1.064,1.064,0,0,0-.615-.943,9.358,9.358,0,0,0-2.338-.738,10.661,10.661,0,0,1-2.844-1,4.763,4.763,0,0,1-1.709-1.511,3.608,3.608,0,0,1-.588-2.037,4.089,4.089,0,0,1,1.682-3.356,6.927,6.927,0,0,1,4.4-1.319,7.675,7.675,0,0,1,4.7,1.326,4.147,4.147,0,0,1,1.777,3.486H82.018q0-1.777-1.873-1.777a1.857,1.857,0,0,0-1.217.4,1.249,1.249,0,0,0-.492,1,1.146,1.146,0,0,0,.6,1A5.684,5.684,0,0,0,80.958-9a16.6,16.6,0,0,1,2.317.588q3.336,1.148,3.336,4.115A3.874,3.874,0,0,1,84.813-1,7.884,7.884,0,0,1,80.158.273,8.046,8.046,0,0,1,76.768-.41,5.67,5.67,0,0,1,74.443-2.27a4.21,4.21,0,0,1-.834-2.475h4.307a1.781,1.781,0,0,0,.684,1.5,2.812,2.812,0,0,0,1.682.472A2.212,2.212,0,0,0,81.7-3.158,1.225,1.225,0,0,0,82.168-4.156Z" transform="translate(971.388 1271.833)" fill="#161615"/>
    <path id="Trazado_707177" data-name="Trazado 707177" d="M15.107,0H1.217V-3.008l6.4-6.727Q9.98-12.428,9.98-14.014a2.977,2.977,0,0,0-.561-1.955,2,2,0,0,0-1.627-.67,2.026,2.026,0,0,0-1.709.9,3.68,3.68,0,0,0-.656,2.235H.807a6.537,6.537,0,0,1,.916-3.384,6.424,6.424,0,0,1,2.543-2.427A7.554,7.554,0,0,1,7.9-20.193a7.431,7.431,0,0,1,4.97,1.49,5.32,5.32,0,0,1,1.743,4.279,6.214,6.214,0,0,1-.437,2.29A10.043,10.043,0,0,1,12.817-9.8,34.267,34.267,0,0,1,9.844-6.521L7.273-3.555h7.834ZM31.254-8.135a9.5,9.5,0,0,1-1.812,6.221A6.26,6.26,0,0,1,24.336.273a6.294,6.294,0,0,1-5.141-2.2,9.49,9.49,0,0,1-1.818-6.207v-3.637a9.5,9.5,0,0,1,1.812-6.221,6.276,6.276,0,0,1,5.12-2.187,6.278,6.278,0,0,1,5.127,2.2,9.514,9.514,0,0,1,1.818,6.221Zm-4.607-4.225a7.1,7.1,0,0,0-.561-3.206,1.874,1.874,0,0,0-1.777-1.06,1.829,1.829,0,0,0-1.729.984A6.688,6.688,0,0,0,22-12.66v5.086a7.153,7.153,0,0,0,.561,3.261,1.881,1.881,0,0,0,1.777,1.032,1.856,1.856,0,0,0,1.736-1,6.829,6.829,0,0,0,.574-3.151Zm18.4-2.434.15,1.736a5.086,5.086,0,0,1,4.225-2.01,3.745,3.745,0,0,1,3.787,2.229,4.923,4.923,0,0,1,4.348-2.229q4.5,0,4.621,5.441V0H57.559V-9.338a2.82,2.82,0,0,0-.383-1.654,1.63,1.63,0,0,0-1.395-.52,2.183,2.183,0,0,0-2.037,1.217l.014.191V0H49.137V-9.311a2.964,2.964,0,0,0-.369-1.682,1.625,1.625,0,0,0-1.408-.52,2.21,2.21,0,0,0-2.023,1.217V0H40.729V-14.793Zm25.129-3.678v3.678h2.434v3.2H70.178v6.768a1.728,1.728,0,0,0,.3,1.162,1.613,1.613,0,0,0,1.189.328,6.759,6.759,0,0,0,1.148-.082V-.123a8.5,8.5,0,0,1-2.6.4A4.827,4.827,0,0,1,66.705-.848a4.6,4.6,0,0,1-1.135-3.4v-7.342H63.684v-3.2H65.57v-3.678ZM82.168-4.156a1.064,1.064,0,0,0-.615-.943,9.358,9.358,0,0,0-2.338-.738,10.661,10.661,0,0,1-2.844-1,4.763,4.763,0,0,1-1.709-1.511,3.608,3.608,0,0,1-.588-2.037,4.089,4.089,0,0,1,1.682-3.356,6.927,6.927,0,0,1,4.4-1.319,7.675,7.675,0,0,1,4.7,1.326,4.147,4.147,0,0,1,1.777,3.486H82.018q0-1.777-1.873-1.777a1.857,1.857,0,0,0-1.217.4,1.249,1.249,0,0,0-.492,1,1.146,1.146,0,0,0,.6,1A5.684,5.684,0,0,0,80.958-9a16.6,16.6,0,0,1,2.317.588q3.336,1.148,3.336,4.115A3.874,3.874,0,0,1,84.813-1,7.884,7.884,0,0,1,80.158.273,8.046,8.046,0,0,1,76.768-.41,5.67,5.67,0,0,1,74.443-2.27a4.21,4.21,0,0,1-.834-2.475h4.307a1.781,1.781,0,0,0,.684,1.5,2.812,2.812,0,0,0,1.682.472A2.212,2.212,0,0,0,81.7-3.158,1.225,1.225,0,0,0,82.168-4.156Z" transform="translate(748.64 1287.674)" fill="#06d1d1"/>
    <line id="Línea_664" data-name="Línea 664" x2="240.499" transform="translate(681.375 1307.964)" fill="none" stroke="#a03d3d" stroke-miterlimit="10" stroke-width="2"/>
    <path id="Trazado_706610" data-name="Trazado 706610" d="M292.51,300.056l-7.668,6.042,7.61,5.257" transform="translate(396.301 1001.866)" fill="none" stroke="#a03d3d" stroke-miterlimit="10" stroke-width="2"/>
    <path id="Trazado_706611" data-name="Trazado 706611" d="M584.027,311.355l7.668-6.042-7.61-5.257" transform="translate(331.747 1001.866)" fill="none" stroke="#a03d3d" stroke-miterlimit="10" stroke-width="2"/>
    <path id="Trazado_706612" data-name="Trazado 706612" d="M410.673.5h37.178V70.675h16.266l-33.751,36.3L394.175,71.837H411.6Z" transform="translate(372.711 1066.5)" fill="#06d1d1" stroke="#03a4a4" stroke-miterlimit="10" stroke-width="1"/>
  </g>
</svg>
