<svg xmlns="http://www.w3.org/2000/svg" width="970" height="31" viewBox="0 0 970 31">
  <g id="Grupo_976885" data-name="Grupo 976885" transform="translate(-315 -1751)">
    <g id="Grupo_976700" data-name="Grupo 976700" transform="translate(367 1755)">
      <text id="Su_peso_corporal_o_aspecto." data-name="Su peso corporal o aspecto." fill="#12263f" font-size="16" font-family="Roboto-Regular, Roboto"><tspan x="0" y="15">Su peso corporal o aspecto.</tspan></text>
    </g>
    <g id="Grupo_976701" data-name="Grupo 976701" transform="translate(1102 1755)">
      <text id="Su_origen" data-name="Su origen" fill="#12263f" font-size="16" font-family="Roboto-Regular, Roboto"><tspan x="0" y="15">Su origen</tspan></text>
    </g>
    <g id="Grupo_976702" data-name="Grupo 976702" transform="translate(787 1757)">
      <text id="Su_uso." data-name="Su uso." fill="#12263f" font-size="16" font-family="Roboto-Regular, Roboto"><tspan x="0" y="15">Su uso.</tspan></text>
    </g>
    <circle id="Elipse_5663" data-name="Elipse 5663" cx="15.5" cy="15.5" r="15.5" transform="translate(315 1751)" fill="#ffc403"/>
    <circle id="Elipse_5664" data-name="Elipse 5664" cx="15.5" cy="15.5" r="15.5" transform="translate(1050 1751)" fill="#ffc403"/>
    <circle id="Elipse_5665" data-name="Elipse 5665" cx="15.5" cy="15.5" r="15.5" transform="translate(735 1751)" fill="#ffc403"/>
    <path id="Trazado_707205" data-name="Trazado 707205" d="M6.875,19a3.716,3.716,0,0,1-.312-.947A3.06,3.06,0,0,1,4.023,19.2a3.749,3.749,0,0,1-2.539-.9A2.875,2.875,0,0,1,.439,16.021a2.955,2.955,0,0,1,1.27-2.6A6.468,6.468,0,0,1,5.4,12.545H6.416v-.559q0-1.462-1.26-1.462a1.03,1.03,0,0,0-1.172,1.158H.693A2.95,2.95,0,0,1,2,9.194a5.479,5.479,0,0,1,3.325-.956,4.8,4.8,0,0,1,3.193.986,3.429,3.429,0,0,1,1.2,2.705v4.678a4.79,4.79,0,0,0,.449,2.227V19ZM4.814,16.852a1.836,1.836,0,0,0,1.021-.264,1.653,1.653,0,0,0,.581-.6V14.3H5.459q-1.719,0-1.719,1.543a.942.942,0,0,0,.3.728A1.1,1.1,0,0,0,4.814,16.852Z" transform="translate(325 1752)" fill="#12263f"/>
    <path id="Trazado_707207" data-name="Trazado 707207" d="M5.391,16.656a1.464,1.464,0,0,0,1.074-.376,1.379,1.379,0,0,0,.371-1.05H9.922a3.653,3.653,0,0,1-1.245,2.852A4.631,4.631,0,0,1,5.469,19.2,4.689,4.689,0,0,1,1.836,17.75a5.7,5.7,0,0,1-1.328-4v-.137A6.436,6.436,0,0,1,1.1,10.782,4.3,4.3,0,0,1,2.8,8.9a5.081,5.081,0,0,1,2.637-.659A4.573,4.573,0,0,1,8.711,9.381a4.053,4.053,0,0,1,1.211,3.1H6.836a1.807,1.807,0,0,0-.4-1.26,1.382,1.382,0,0,0-1.074-.439q-1.279,0-1.494,1.631A11.508,11.508,0,0,0,3.8,13.834a4.52,4.52,0,0,0,.381,2.207A1.319,1.319,0,0,0,5.391,16.656Z" transform="translate(1060 1752)" fill="#12263f"/>
    <path id="Trazado_707206" data-name="Trazado 707206" d="M10.732,13.8A6.44,6.44,0,0,1,9.658,17.8a3.6,3.6,0,0,1-3.027,1.4,3.122,3.122,0,0,1-2.6-1.279L3.9,19H.947V4H4.238V9.283A3.013,3.013,0,0,1,6.611,8.238,3.6,3.6,0,0,1,9.658,9.654a6.473,6.473,0,0,1,1.074,3.984Zm-3.3-.21a4.3,4.3,0,0,0-.405-2.169,1.366,1.366,0,0,0-1.245-.648,1.576,1.576,0,0,0-1.543.848v4.192a1.585,1.585,0,0,0,1.563.838,1.4,1.4,0,0,0,1.475-1.131A8.121,8.121,0,0,0,7.432,13.595Z" transform="translate(745 1755)" fill="#12263f"/>
  </g>
</svg>
