<svg xmlns="http://www.w3.org/2000/svg" width="715" height="89" viewBox="0 0 715 89">
  <g id="Grupo_1018051" data-name="Grupo 1018051" transform="translate(-443 -8397)">
    <g id="Rect치ngulo_340896" data-name="Rect치ngulo 340896" transform="translate(665 8397)" fill="#f5e4d0" stroke="#8d0a0a" stroke-width="1">
      <path d="M0,0H483a10,10,0,0,1,10,10V79a10,10,0,0,1-10,10H0a0,0,0,0,1,0,0V0A0,0,0,0,1,0,0Z" stroke="none"/>
      <path d="M.5.5H483a9.5,9.5,0,0,1,9.5,9.5V79a9.5,9.5,0,0,1-9.5,9.5H.5a0,0,0,0,1,0,0V.5A0,0,0,0,1,.5.5Z" fill="none"/>
    </g>
    <path id="Rect치ngulo_340895" data-name="Rect치ngulo 340895" d="M13,0H222a0,0,0,0,1,0,0V89a0,0,0,0,1,0,0H13A13,13,0,0,1,0,76V13A13,13,0,0,1,13,0Z" transform="translate(443 8397)" fill="#b20d0d"/>
    <path id="Trazado_718273" data-name="Trazado 718273" d="M13.333,12.658V17H10.248V4.2h5.106a5.948,5.948,0,0,1,2.6.541A4.074,4.074,0,0,1,19.7,6.282a4.2,4.2,0,0,1,.62,2.263,3.7,3.7,0,0,1-1.34,2.993A5.561,5.561,0,0,1,15.3,12.658Zm0-2.382h2.021a1.906,1.906,0,0,0,1.367-.448,1.665,1.665,0,0,0,.47-1.266,2.059,2.059,0,0,0-.483-1.433,1.712,1.712,0,0,0-1.318-.545H13.333Zm12.981,6.9a4.889,4.889,0,0,1-3.542-1.305,4.507,4.507,0,0,1-1.354-3.4v-.246a5.84,5.84,0,0,1,.541-2.575,3.955,3.955,0,0,1,1.578-1.727A4.763,4.763,0,0,1,26,7.314a4.117,4.117,0,0,1,3.164,1.244,4.887,4.887,0,0,1,1.16,3.467v1.151H24.434a2.135,2.135,0,0,0,.694,1.257,2.066,2.066,0,0,0,1.389.457,2.662,2.662,0,0,0,2.2-.984l1.354,1.6A3.784,3.784,0,0,1,28.5,16.723,5.3,5.3,0,0,1,26.314,17.176ZM25.98,9.6q-1.3,0-1.547,1.723h2.988v-.229a1.467,1.467,0,0,0-.36-1.1A1.434,1.434,0,0,0,25.98,9.6Zm10.512,4.729a.684.684,0,0,0-.4-.606,6.016,6.016,0,0,0-1.5-.475,6.853,6.853,0,0,1-1.828-.646,3.062,3.062,0,0,1-1.1-.971,2.319,2.319,0,0,1-.378-1.31A2.628,2.628,0,0,1,32.37,8.163a4.453,4.453,0,0,1,2.83-.848,4.934,4.934,0,0,1,3.023.853,2.666,2.666,0,0,1,1.143,2.241H36.4q0-1.143-1.2-1.143a1.194,1.194,0,0,0-.782.259.8.8,0,0,0-.316.646.737.737,0,0,0,.387.642,3.654,3.654,0,0,0,1.235.4,10.671,10.671,0,0,1,1.49.378,2.706,2.706,0,0,1,2.145,2.646,2.491,2.491,0,0,1-1.156,2.118,5.068,5.068,0,0,1-2.993.817,5.172,5.172,0,0,1-2.18-.439,3.645,3.645,0,0,1-1.494-1.2,2.707,2.707,0,0,1-.536-1.591h2.769a1.145,1.145,0,0,0,.439.962,1.808,1.808,0,0,0,1.081.3,1.422,1.422,0,0,0,.91-.246A.787.787,0,0,0,36.492,14.328Zm3.867-2.171a5.613,5.613,0,0,1,.554-2.536A3.96,3.96,0,0,1,42.5,7.912a4.791,4.791,0,0,1,2.435-.6A4.373,4.373,0,0,1,48.3,8.637a5.076,5.076,0,0,1,1.23,3.6v.105A4.925,4.925,0,0,1,48.3,15.871a4.384,4.384,0,0,1-3.344,1.305A4.434,4.434,0,0,1,41.7,15.958a4.761,4.761,0,0,1-1.327-3.3Zm2.962.185a3.538,3.538,0,0,0,.413,1.934,1.376,1.376,0,0,0,1.222.615q1.582,0,1.617-2.435v-.3q0-2.558-1.635-2.558-1.485,0-1.608,2.206Zm11.628-.167a5.809,5.809,0,0,1,.976-3.56,3.211,3.211,0,0,1,2.725-1.3,2.731,2.731,0,0,1,2.145,1V3.5h2.971V17H61.1l-.149-1.02a2.8,2.8,0,0,1-2.32,1.2,3.205,3.205,0,0,1-2.689-1.3A5.993,5.993,0,0,1,54.949,12.175Zm2.962.185q0,2.531,1.477,2.531a1.458,1.458,0,0,0,1.406-.826V10.443A1.419,1.419,0,0,0,59.405,9.6q-1.371,0-1.485,2.215Zm12.138,4.816a4.889,4.889,0,0,1-3.542-1.305,4.507,4.507,0,0,1-1.354-3.4v-.246a5.84,5.84,0,0,1,.541-2.575,3.955,3.955,0,0,1,1.578-1.727,4.763,4.763,0,0,1,2.461-.611A4.117,4.117,0,0,1,72.9,8.558a4.887,4.887,0,0,1,1.16,3.467v1.151H68.168a2.135,2.135,0,0,0,.694,1.257,2.066,2.066,0,0,0,1.389.457,2.662,2.662,0,0,0,2.2-.984l1.354,1.6a3.784,3.784,0,0,1-1.569,1.217A5.3,5.3,0,0,1,70.049,17.176ZM69.715,9.6q-1.3,0-1.547,1.723h2.988v-.229a1.467,1.467,0,0,0-.36-1.1A1.434,1.434,0,0,0,69.715,9.6ZM82.626,8.51a3.251,3.251,0,0,1,4.8-.264A4.186,4.186,0,0,1,88.242,11v6H85.271V11.067a1.674,1.674,0,0,0-.308-1.112A1.322,1.322,0,0,0,83.918,9.6a1.424,1.424,0,0,0-1.292.58V17H79.664V3.5h2.962Zm12.929,7.462a3.054,3.054,0,0,1-2.54,1.2,3,3,0,0,1-2.369-.91,3.826,3.826,0,0,1-.8-2.615V7.49H92.8v6.179a1.065,1.065,0,0,0,1.187,1.222,1.548,1.548,0,0,0,1.45-.729V7.49H98.42V17H95.643Zm9.088,1.2a4.889,4.889,0,0,1-3.542-1.305,4.507,4.507,0,0,1-1.354-3.4v-.246a5.84,5.84,0,0,1,.541-2.575,3.955,3.955,0,0,1,1.578-1.727,4.763,4.763,0,0,1,2.461-.611,4.117,4.117,0,0,1,3.164,1.244,4.887,4.887,0,0,1,1.16,3.467v1.151h-5.889a2.135,2.135,0,0,0,.694,1.257,2.066,2.066,0,0,0,1.389.457,2.662,2.662,0,0,0,2.2-.984l1.354,1.6a3.784,3.784,0,0,1-1.569,1.217A5.3,5.3,0,0,1,104.643,17.176ZM104.309,9.6q-1.3,0-1.547,1.723h2.988v-.229a1.467,1.467,0,0,0-.36-1.1A1.434,1.434,0,0,0,104.309,9.6Zm9.211,3.876,1.5-5.985h3.12L115.04,17h-3.023l-3.1-9.51h3.129Zm5-1.318a5.613,5.613,0,0,1,.554-2.536,3.96,3.96,0,0,1,1.591-1.709,4.791,4.791,0,0,1,2.435-.6,4.373,4.373,0,0,1,3.366,1.323,5.076,5.076,0,0,1,1.23,3.6v.105a4.925,4.925,0,0,1-1.235,3.529,4.384,4.384,0,0,1-3.344,1.305,4.434,4.434,0,0,1-3.261-1.217,4.761,4.761,0,0,1-1.327-3.3Zm2.962.185a3.538,3.538,0,0,0,.413,1.934,1.376,1.376,0,0,0,1.222.615q1.582,0,1.617-2.435v-.3q0-2.558-1.635-2.558-1.485,0-1.608,2.206Zm12.226-.545a13.431,13.431,0,0,1,.571-3.99,9.629,9.629,0,0,1,1.578-3.129,5.6,5.6,0,0,1,2.237-1.793l.563,1.459a5.73,5.73,0,0,0-1.9,2.826,13.782,13.782,0,0,0-.681,4.5v.387a14.051,14.051,0,0,0,.672,4.588,5.706,5.706,0,0,0,1.912,2.848l-.562,1.459a5.547,5.547,0,0,1-2.237-1.8,9.484,9.484,0,0,1-1.578-3.116,13.5,13.5,0,0,1-.571-3.85Zm5.783.378a6.421,6.421,0,0,1,.475-2.549,3.821,3.821,0,0,1,1.362-1.709,3.591,3.591,0,0,1,2.065-.6,2.855,2.855,0,0,1,2.32,1l.105-.826h2.689V16.64a4.009,4.009,0,0,1-.584,2.184,3.75,3.75,0,0,1-1.692,1.424,6.219,6.219,0,0,1-2.566.5,5.365,5.365,0,0,1-2.026-.4,3.657,3.657,0,0,1-1.5-1.028l1.239-1.74a2.716,2.716,0,0,0,2.18.976,1.764,1.764,0,0,0,1.969-2.021v-.3a2.781,2.781,0,0,1-2.153.94,3.437,3.437,0,0,1-2.812-1.332,5.517,5.517,0,0,1-1.072-3.564Zm2.971.185a3.383,3.383,0,0,0,.439,1.85,1.387,1.387,0,0,0,1.23.681,1.573,1.573,0,0,0,1.4-.642v-4a1.534,1.534,0,0,0-1.38-.65,1.4,1.4,0,0,0-1.239.708A3.858,3.858,0,0,0,142.462,12.359Zm12.4-.316a12.532,12.532,0,0,1-.606,3.92,10.008,10.008,0,0,1-1.674,3.186,5.574,5.574,0,0,1-2.307,1.806l-.562-1.459a5.787,5.787,0,0,0,1.89-2.812,13.577,13.577,0,0,0,.694-4.368v-.536a14.051,14.051,0,0,0-.672-4.588,5.706,5.706,0,0,0-1.912-2.848l.563-1.459a5.676,5.676,0,0,1,2.29,1.789,9.885,9.885,0,0,1,1.67,3.138,12.426,12.426,0,0,1,.628,3.845Zm14.581-1.389h-8.139V8.369h8.139Zm0,3.858h-8.139V12.228h8.139Z" transform="translate(480 8430)" fill="#fff"/>
    <path id="Trazado_718274" data-name="Trazado 718274" d="M.969-4.625a11.99,11.99,0,0,1,.477-3.406,8.989,8.989,0,0,1,1.406-2.863,5.251,5.251,0,0,1,2.016-1.73L5.3-11.406A5.438,5.438,0,0,0,3.523-8.8a12.082,12.082,0,0,0-.641,4.125v.242A12.313,12.313,0,0,0,3.516-.289,5.544,5.544,0,0,0,5.3,2.359l-.437,1.2a5.253,5.253,0,0,1-1.98-1.684,8.838,8.838,0,0,1-1.4-2.785,11.918,11.918,0,0,1-.516-3.3ZM15.2-9.477H11.711V0H9.367V-9.477H5.93v-1.9H15.2ZM14.406-4.3a5.013,5.013,0,0,1,.484-2.242A3.546,3.546,0,0,1,16.285-8.07,4.069,4.069,0,0,1,18.4-8.609a3.849,3.849,0,0,1,2.793,1.047A4.2,4.2,0,0,1,22.4-4.719l.016.578A4.418,4.418,0,0,1,21.328-1.02,3.775,3.775,0,0,1,18.414.156,3.793,3.793,0,0,1,15.5-1.016,4.5,4.5,0,0,1,14.406-4.2Zm2.258.16A3.16,3.16,0,0,0,17.117-2.3a1.5,1.5,0,0,0,1.3.638,1.5,1.5,0,0,0,1.281-.63,3.457,3.457,0,0,0,.461-2.015A3.128,3.128,0,0,0,19.7-6.14a1.5,1.5,0,0,0-1.3-.649,1.474,1.474,0,0,0-1.281.646A3.516,3.516,0,0,0,16.664-4.144Zm9.844-6.387v2.078h1.445V-6.8H26.508v4.219a1.007,1.007,0,0,0,.18.672.9.9,0,0,0,.688.2,3.6,3.6,0,0,0,.664-.055V-.047a4.648,4.648,0,0,1-1.367.2,2.156,2.156,0,0,1-2.422-2.4V-6.8H23.016V-8.453H24.25v-2.078ZM34.109,0a2.507,2.507,0,0,1-.227-.758A2.732,2.732,0,0,1,31.75.156a3,3,0,0,1-2.059-.719,2.312,2.312,0,0,1-.816-1.812,2.389,2.389,0,0,1,1-2.062,4.915,4.915,0,0,1,2.879-.727h1.039v-.484a1.393,1.393,0,0,0-.3-.937,1.183,1.183,0,0,0-.949-.352,1.345,1.345,0,0,0-.895.273.929.929,0,0,0-.324.75H29.063a2.268,2.268,0,0,1,.453-1.359,3,3,0,0,1,1.281-.98,4.669,4.669,0,0,1,1.859-.355,3.689,3.689,0,0,1,2.48.785,2.747,2.747,0,0,1,.918,2.207v3.664a4.041,4.041,0,0,0,.336,1.82V0ZM32.242-1.57a1.945,1.945,0,0,0,.922-.223,1.462,1.462,0,0,0,.625-.6V-3.844h-.844q-1.7,0-1.8,1.172l-.008.133a.9.9,0,0,0,.3.7A1.153,1.153,0,0,0,32.242-1.57ZM40.172,0H37.906V-12h2.266Zm5.492-4.289a5.094,5.094,0,0,1,.887-3.148,2.877,2.877,0,0,1,2.426-1.172,2.589,2.589,0,0,1,2.039.922V-12h2.266V0H51.242l-.109-.9A2.657,2.657,0,0,1,48.961.156,2.869,2.869,0,0,1,46.566-1.02,5.258,5.258,0,0,1,45.664-4.289Zm2.258.168A3.337,3.337,0,0,0,48.336-2.3a1.349,1.349,0,0,0,1.2.634,1.511,1.511,0,0,0,1.477-.884V-5.889a1.489,1.489,0,0,0-1.461-.884Q47.922-6.773,47.922-4.121Zm11,4.277A4.15,4.15,0,0,1,55.895-.984a4.054,4.054,0,0,1-1.168-3.039v-.219a5.106,5.106,0,0,1,.492-2.277,3.612,3.612,0,0,1,1.395-1.547,3.914,3.914,0,0,1,2.059-.543A3.508,3.508,0,0,1,61.4-7.516a4.444,4.444,0,0,1,1,3.1v.922H57.016a2.1,2.1,0,0,0,.66,1.328,2,2,0,0,0,1.395.5,2.437,2.437,0,0,0,2.039-.945l1.109,1.242A3.389,3.389,0,0,1,60.844-.246,4.511,4.511,0,0,1,58.922.156Zm-.258-6.945a1.411,1.411,0,0,0-1.09.455,2.357,2.357,0,0,0-.535,1.3H60.18v-.181a1.681,1.681,0,0,0-.406-1.165A1.456,1.456,0,0,0,58.664-6.789Zm12.07,3.4-.812.813V0H67.664V-12h2.258v6.648l.438-.562,2.164-2.539h2.711L72.18-4.93,75.5,0H72.906Zm4.992-.9a4.954,4.954,0,0,1,.926-3.133,3,3,0,0,1,2.5-1.187,2.631,2.631,0,0,1,2.164.953l.094-.8h2.047V-.281a3.613,3.613,0,0,1-.5,1.93A3.236,3.236,0,0,1,81.531,2.9a4.985,4.985,0,0,1-2.141.43,4.635,4.635,0,0,1-1.812-.371A3.217,3.217,0,0,1,76.242,2l1-1.375a2.645,2.645,0,0,0,2.047.945,1.936,1.936,0,0,0,1.4-.48,1.8,1.8,0,0,0,.5-1.363V-.727a2.612,2.612,0,0,1-2.055.883,2.992,2.992,0,0,1-2.465-1.191,4.953,4.953,0,0,1-.941-3.16Zm2.258.168a3.085,3.085,0,0,0,.461,1.8,1.466,1.466,0,0,0,1.266.653,1.568,1.568,0,0,0,1.477-.775V-6a1.564,1.564,0,0,0-1.461-.775,1.476,1.476,0,0,0-1.277.665A3.477,3.477,0,0,0,77.984-4.121ZM93.922-6.336a6.134,6.134,0,0,0-.812-.062,1.654,1.654,0,0,0-1.68.867V0H89.172V-8.453H91.3l.063,1.008A2.092,2.092,0,0,1,93.25-8.609a2.366,2.366,0,0,1,.7.1ZM98.75.156A4.15,4.15,0,0,1,95.723-.984a4.054,4.054,0,0,1-1.168-3.039v-.219a5.106,5.106,0,0,1,.492-2.277,3.612,3.612,0,0,1,1.395-1.547A3.914,3.914,0,0,1,98.5-8.609a3.508,3.508,0,0,1,2.73,1.094,4.444,4.444,0,0,1,1,3.1v.922H96.844a2.1,2.1,0,0,0,.66,1.328,2,2,0,0,0,1.395.5,2.437,2.437,0,0,0,2.039-.945l1.109,1.242a3.389,3.389,0,0,1-1.375,1.121A4.511,4.511,0,0,1,98.75.156Zm-.258-6.945a1.411,1.411,0,0,0-1.09.455,2.357,2.357,0,0,0-.535,1.3h3.141v-.181A1.681,1.681,0,0,0,99.6-6.377,1.456,1.456,0,0,0,98.492-6.789Zm8.531,5.125a1.481,1.481,0,0,0,1.016-.344,1.2,1.2,0,0,0,.406-.914h2.117a2.9,2.9,0,0,1-.469,1.574,3.093,3.093,0,0,1-1.262,1.109,3.949,3.949,0,0,1-1.77.395A3.67,3.67,0,0,1,104.2-1a4.56,4.56,0,0,1-1.047-3.184v-.148A4.508,4.508,0,0,1,104.2-7.445a3.627,3.627,0,0,1,2.852-1.164,3.555,3.555,0,0,1,2.543.9,3.2,3.2,0,0,1,.973,2.4h-2.117a1.551,1.551,0,0,0-.406-1.072,1.354,1.354,0,0,0-1.031-.412,1.36,1.36,0,0,0-1.191.575,3.333,3.333,0,0,0-.4,1.866v.235a3.375,3.375,0,0,0,.4,1.878A1.377,1.377,0,0,0,107.023-1.664ZM111.5-4.3a5.013,5.013,0,0,1,.484-2.242,3.546,3.546,0,0,1,1.395-1.523,4.069,4.069,0,0,1,2.113-.539,3.849,3.849,0,0,1,2.793,1.047,4.2,4.2,0,0,1,1.207,2.844l.016.578a4.418,4.418,0,0,1-1.086,3.121A3.775,3.775,0,0,1,115.508.156a3.793,3.793,0,0,1-2.918-1.172A4.5,4.5,0,0,1,111.5-4.2Zm2.258.16a3.16,3.16,0,0,0,.453,1.843,1.5,1.5,0,0,0,1.3.638,1.5,1.5,0,0,0,1.281-.63,3.457,3.457,0,0,0,.461-2.015,3.128,3.128,0,0,0-.461-1.831,1.5,1.5,0,0,0-1.3-.649,1.474,1.474,0,0,0-1.281.646A3.516,3.516,0,0,0,113.758-4.144ZM123.281,0h-2.266V-12h2.266Zm5.75.156A4.15,4.15,0,0,1,126-.984a4.054,4.054,0,0,1-1.168-3.039v-.219a5.106,5.106,0,0,1,.492-2.277,3.612,3.612,0,0,1,1.395-1.547,3.914,3.914,0,0,1,2.059-.543,3.508,3.508,0,0,1,2.73,1.094,4.444,4.444,0,0,1,1,3.1v.922h-5.383a2.1,2.1,0,0,0,.66,1.328,2,2,0,0,0,1.395.5,2.437,2.437,0,0,0,2.039-.945l1.109,1.242a3.389,3.389,0,0,1-1.375,1.121A4.511,4.511,0,0,1,129.031.156Zm-.258-6.945a1.411,1.411,0,0,0-1.09.455,2.357,2.357,0,0,0-.535,1.3h3.141v-.181a1.681,1.681,0,0,0-.406-1.165A1.456,1.456,0,0,0,128.773-6.789ZM137.3-1.664a1.481,1.481,0,0,0,1.016-.344,1.2,1.2,0,0,0,.406-.914h2.117a2.9,2.9,0,0,1-.469,1.574,3.093,3.093,0,0,1-1.262,1.109,3.949,3.949,0,0,1-1.77.395A3.67,3.67,0,0,1,134.484-1a4.56,4.56,0,0,1-1.047-3.184v-.148a4.508,4.508,0,0,1,1.039-3.117,3.627,3.627,0,0,1,2.852-1.164,3.555,3.555,0,0,1,2.543.9,3.2,3.2,0,0,1,.973,2.4h-2.117a1.551,1.551,0,0,0-.406-1.072,1.355,1.355,0,0,0-1.031-.412,1.36,1.36,0,0,0-1.191.575,3.333,3.333,0,0,0-.4,1.866v.235a3.375,3.375,0,0,0,.4,1.878A1.377,1.377,0,0,0,137.3-1.664Zm7.531-8.867v2.078h1.445V-6.8h-1.445v4.219a1.007,1.007,0,0,0,.18.672.9.9,0,0,0,.688.2,3.6,3.6,0,0,0,.664-.055V-.047a4.648,4.648,0,0,1-1.367.2,2.156,2.156,0,0,1-2.422-2.4V-6.8h-1.234V-8.453h1.234v-2.078ZM152.438,0a2.507,2.507,0,0,1-.227-.758,2.732,2.732,0,0,1-2.133.914,3,3,0,0,1-2.059-.719,2.312,2.312,0,0,1-.816-1.812,2.389,2.389,0,0,1,1-2.062,4.915,4.915,0,0,1,2.879-.727h1.039v-.484a1.393,1.393,0,0,0-.3-.937,1.183,1.183,0,0,0-.949-.352,1.345,1.345,0,0,0-.895.273.929.929,0,0,0-.324.75h-2.258a2.268,2.268,0,0,1,.453-1.359,3,3,0,0,1,1.281-.98,4.669,4.669,0,0,1,1.859-.355,3.689,3.689,0,0,1,2.48.785,2.747,2.747,0,0,1,.918,2.207v3.664a4.041,4.041,0,0,0,.336,1.82V0ZM150.57-1.57a1.945,1.945,0,0,0,.922-.223,1.462,1.462,0,0,0,.625-.6V-3.844h-.844q-1.7,0-1.8,1.172l-.008.133a.9.9,0,0,0,.3.7A1.153,1.153,0,0,0,150.57-1.57Zm5.2-2.719a5.094,5.094,0,0,1,.887-3.148,2.877,2.877,0,0,1,2.426-1.172,2.589,2.589,0,0,1,2.039.922V-12h2.266V0h-2.039l-.109-.9A2.657,2.657,0,0,1,159.063.156a2.869,2.869,0,0,1-2.395-1.176A5.258,5.258,0,0,1,155.766-4.289Zm2.258.168a3.337,3.337,0,0,0,.414,1.823,1.349,1.349,0,0,0,1.2.634,1.511,1.511,0,0,0,1.477-.884V-5.889a1.489,1.489,0,0,0-1.461-.884Q158.023-6.773,158.023-4.121Zm6.758-.184a5.013,5.013,0,0,1,.484-2.242A3.546,3.546,0,0,1,166.66-8.07a4.069,4.069,0,0,1,2.113-.539,3.849,3.849,0,0,1,2.793,1.047,4.2,4.2,0,0,1,1.207,2.844l.016.578A4.418,4.418,0,0,1,171.7-1.02,3.775,3.775,0,0,1,168.789.156a3.793,3.793,0,0,1-2.918-1.172,4.5,4.5,0,0,1-1.09-3.187Zm2.258.16a3.16,3.16,0,0,0,.453,1.843,1.5,1.5,0,0,0,1.3.638,1.5,1.5,0,0,0,1.281-.63,3.457,3.457,0,0,0,.461-2.015,3.128,3.128,0,0,0-.461-1.831,1.5,1.5,0,0,0-1.3-.649,1.474,1.474,0,0,0-1.281.646A3.516,3.516,0,0,0,167.039-4.144Zm11.719,1.808a.727.727,0,0,0-.41-.652,4.659,4.659,0,0,0-1.316-.426q-3.016-.633-3.016-2.562a2.323,2.323,0,0,1,.934-1.879,3.766,3.766,0,0,1,2.441-.754,4.053,4.053,0,0,1,2.574.758,2.388,2.388,0,0,1,.965,1.969h-2.258a1.092,1.092,0,0,0-.312-.8A1.322,1.322,0,0,0,177.383-7a1.351,1.351,0,0,0-.883.258.814.814,0,0,0-.312.656.7.7,0,0,0,.355.605,3.657,3.657,0,0,0,1.2.4,9.8,9.8,0,0,1,1.422.379,2.336,2.336,0,0,1,1.789,2.273,2.205,2.205,0,0,1-.992,1.871A4.28,4.28,0,0,1,177.4.156a4.47,4.47,0,0,1-1.887-.379,3.166,3.166,0,0,1-1.293-1.039,2.414,2.414,0,0,1-.469-1.426h2.141a1.179,1.179,0,0,0,.445.922,1.766,1.766,0,0,0,1.109.32,1.635,1.635,0,0,0,.98-.246A.766.766,0,0,0,178.758-2.336ZM187.1.977h-1.68l4.188-12.352h1.68ZM201.742,0h-2.258V-8.7l-2.7.836V-9.7l4.711-1.687h.242Zm11.352-4.7a5.762,5.762,0,0,1-.977,3.609,3.409,3.409,0,0,1-2.859,1.25,3.433,3.433,0,0,1-2.844-1.227,5.594,5.594,0,0,1-1.008-3.516V-6.68a5.687,5.687,0,0,1,.988-3.617,3.434,3.434,0,0,1,2.848-1.234,3.437,3.437,0,0,1,2.844,1.223A5.576,5.576,0,0,1,213.094-6.8Zm-2.258-2.3a4.165,4.165,0,0,0-.387-2.061,1.307,1.307,0,0,0-1.207-.645,1.284,1.284,0,0,0-1.176.614,3.9,3.9,0,0,0-.4,1.92v2.768a4.372,4.372,0,0,0,.379,2.068,1.29,1.29,0,0,0,1.215.676,1.268,1.268,0,0,0,1.2-.649,4.268,4.268,0,0,0,.383-1.986Zm11.438,2.3a5.762,5.762,0,0,1-.977,3.609,3.409,3.409,0,0,1-2.859,1.25,3.433,3.433,0,0,1-2.844-1.227,5.594,5.594,0,0,1-1.008-3.516V-6.68a5.687,5.687,0,0,1,.988-3.617,3.434,3.434,0,0,1,2.848-1.234,3.437,3.437,0,0,1,2.844,1.223A5.576,5.576,0,0,1,222.273-6.8Zm-2.258-2.3a4.165,4.165,0,0,0-.387-2.061,1.307,1.307,0,0,0-1.207-.645,1.284,1.284,0,0,0-1.176.614,3.9,3.9,0,0,0-.4,1.92v2.768a4.372,4.372,0,0,0,.379,2.068,1.29,1.29,0,0,0,1.215.676,1.268,1.268,0,0,0,1.2-.649,4.268,4.268,0,0,0,.383-1.986Zm11.438,2.3a5.762,5.762,0,0,1-.977,3.609,3.409,3.409,0,0,1-2.859,1.25,3.433,3.433,0,0,1-2.844-1.227,5.594,5.594,0,0,1-1.008-3.516V-6.68a5.687,5.687,0,0,1,.988-3.617,3.434,3.434,0,0,1,2.848-1.234,3.437,3.437,0,0,1,2.844,1.223A5.576,5.576,0,0,1,231.453-6.8Zm-2.258-2.3a4.165,4.165,0,0,0-.387-2.061,1.307,1.307,0,0,0-1.207-.645,1.284,1.284,0,0,0-1.176.614,3.9,3.9,0,0,0-.4,1.92v2.768a4.372,4.372,0,0,0,.379,2.068,1.29,1.29,0,0,0,1.215.676,1.268,1.268,0,0,0,1.2-.649A4.268,4.268,0,0,0,229.2-4.3Zm7.766,2.56a11.377,11.377,0,0,1-.508,3.4,9.225,9.225,0,0,1-1.461,2.883,5.264,5.264,0,0,1-2.039,1.719l-.437-1.2a5.494,5.494,0,0,0,1.75-2.578,11.939,11.939,0,0,0,.664-4.008v-.414a12.208,12.208,0,0,0-.637-4.117,5.727,5.727,0,0,0-1.777-2.672l.438-1.2a5.265,5.265,0,0,1,2,1.672,9.106,9.106,0,0,1,1.461,2.82,11.3,11.3,0,0,1,.543,3.336ZM243.406.977h-1.68l4.188-12.352h1.68ZM260.9-9.477h-3.484V0H255.07V-9.477h-3.437v-1.9H260.9ZM260.109-4.3a5.013,5.013,0,0,1,.484-2.242,3.546,3.546,0,0,1,1.395-1.523,4.069,4.069,0,0,1,2.113-.539,3.849,3.849,0,0,1,2.793,1.047A4.2,4.2,0,0,1,268.1-4.719l.016.578a4.418,4.418,0,0,1-1.086,3.121A3.775,3.775,0,0,1,264.117.156,3.793,3.793,0,0,1,261.2-1.016a4.5,4.5,0,0,1-1.09-3.187Zm2.258.16A3.16,3.16,0,0,0,262.82-2.3a1.5,1.5,0,0,0,1.3.638,1.5,1.5,0,0,0,1.281-.63,3.458,3.458,0,0,0,.461-2.015A3.128,3.128,0,0,0,265.4-6.14a1.5,1.5,0,0,0-1.3-.649,1.474,1.474,0,0,0-1.281.646A3.516,3.516,0,0,0,262.367-4.144Zm9.844-6.387v2.078h1.445V-6.8h-1.445v4.219a1.007,1.007,0,0,0,.18.672.9.9,0,0,0,.688.2,3.6,3.6,0,0,0,.664-.055V-.047a4.648,4.648,0,0,1-1.367.2,2.156,2.156,0,0,1-2.422-2.4V-6.8h-1.234V-8.453h1.234v-2.078ZM279.813,0a2.508,2.508,0,0,1-.227-.758,2.732,2.732,0,0,1-2.133.914,3,3,0,0,1-2.059-.719,2.312,2.312,0,0,1-.816-1.812,2.389,2.389,0,0,1,1-2.062,4.915,4.915,0,0,1,2.879-.727h1.039v-.484a1.393,1.393,0,0,0-.3-.937,1.183,1.183,0,0,0-.949-.352,1.345,1.345,0,0,0-.895.273.929.929,0,0,0-.324.75h-2.258a2.268,2.268,0,0,1,.453-1.359,3,3,0,0,1,1.281-.98,4.669,4.669,0,0,1,1.859-.355,3.689,3.689,0,0,1,2.48.785,2.747,2.747,0,0,1,.918,2.207v3.664a4.041,4.041,0,0,0,.336,1.82V0Zm-1.867-1.57a1.945,1.945,0,0,0,.922-.223,1.462,1.462,0,0,0,.625-.6V-3.844h-.844q-1.7,0-1.8,1.172l-.008.133a.9.9,0,0,0,.3.7A1.153,1.153,0,0,0,277.945-1.57ZM285.875,0h-2.266V-12h2.266Zm5.492-4.289a5.094,5.094,0,0,1,.887-3.148,2.877,2.877,0,0,1,2.426-1.172,2.589,2.589,0,0,1,2.039.922V-12h2.266V0h-2.039l-.109-.9A2.657,2.657,0,0,1,294.664.156,2.869,2.869,0,0,1,292.27-1.02,5.258,5.258,0,0,1,291.367-4.289Zm2.258.168a3.337,3.337,0,0,0,.414,1.823,1.349,1.349,0,0,0,1.2.634,1.511,1.511,0,0,0,1.477-.884V-5.889a1.489,1.489,0,0,0-1.461-.884Q293.625-6.773,293.625-4.121Zm11,4.277A4.15,4.15,0,0,1,301.6-.984a4.054,4.054,0,0,1-1.168-3.039v-.219a5.106,5.106,0,0,1,.492-2.277,3.612,3.612,0,0,1,1.395-1.547,3.914,3.914,0,0,1,2.059-.543,3.508,3.508,0,0,1,2.73,1.094,4.444,4.444,0,0,1,1,3.1v.922h-5.383a2.1,2.1,0,0,0,.66,1.328,2,2,0,0,0,1.395.5,2.437,2.437,0,0,0,2.039-.945l1.109,1.242a3.389,3.389,0,0,1-1.375,1.121A4.511,4.511,0,0,1,304.625.156Zm-.258-6.945a1.411,1.411,0,0,0-1.09.455,2.357,2.357,0,0,0-.535,1.3h3.141v-.181a1.681,1.681,0,0,0-.406-1.165A1.456,1.456,0,0,0,304.367-6.789Zm11.2-.742a2.818,2.818,0,0,1,2.258-1.078q2.75,0,2.789,3.2V0h-2.258V-5.352a1.57,1.57,0,0,0-.312-1.074,1.34,1.34,0,0,0-1.039-.348,1.537,1.537,0,0,0-1.437.766V0h-2.258V-12h2.258ZM327.383-.859A2.831,2.831,0,0,1,325.07.156,2.67,2.67,0,0,1,323-.625a3.335,3.335,0,0,1-.73-2.289V-8.453h2.258v5.467q0,1.322,1.2,1.322a1.63,1.63,0,0,0,1.578-.8V-8.453h2.266V0h-2.125ZM335.164.156a4.15,4.15,0,0,1-3.027-1.141,4.054,4.054,0,0,1-1.168-3.039v-.219a5.106,5.106,0,0,1,.492-2.277,3.612,3.612,0,0,1,1.395-1.547,3.914,3.914,0,0,1,2.059-.543,3.508,3.508,0,0,1,2.73,1.094,4.444,4.444,0,0,1,1,3.1v.922h-5.383a2.1,2.1,0,0,0,.66,1.328,2,2,0,0,0,1.395.5,2.437,2.437,0,0,0,2.039-.945l1.109,1.242a3.389,3.389,0,0,1-1.375,1.121A4.511,4.511,0,0,1,335.164.156Zm-.258-6.945a1.411,1.411,0,0,0-1.09.455,2.357,2.357,0,0,0-.535,1.3h3.141v-.181a1.681,1.681,0,0,0-.406-1.165A1.456,1.456,0,0,0,334.906-6.789Zm8.078,4.031,1.57-5.7h2.359L344.063,0h-2.156l-2.852-8.453h2.359ZM347.438-4.3a5.013,5.013,0,0,1,.484-2.242,3.546,3.546,0,0,1,1.395-1.523,4.069,4.069,0,0,1,2.113-.539,3.849,3.849,0,0,1,2.793,1.047,4.2,4.2,0,0,1,1.207,2.844l.016.578a4.418,4.418,0,0,1-1.086,3.121A3.775,3.775,0,0,1,351.445.156a3.793,3.793,0,0,1-2.918-1.172,4.5,4.5,0,0,1-1.09-3.187Zm2.258.16a3.16,3.16,0,0,0,.453,1.843,1.5,1.5,0,0,0,1.3.638,1.5,1.5,0,0,0,1.281-.63,3.458,3.458,0,0,0,.461-2.015,3.128,3.128,0,0,0-.461-1.831,1.5,1.5,0,0,0-1.3-.649,1.474,1.474,0,0,0-1.281.646A3.516,3.516,0,0,0,349.7-4.144Zm11.719,1.808a.727.727,0,0,0-.41-.652,4.659,4.659,0,0,0-1.316-.426q-3.016-.633-3.016-2.562a2.323,2.323,0,0,1,.934-1.879,3.766,3.766,0,0,1,2.441-.754,4.053,4.053,0,0,1,2.574.758,2.388,2.388,0,0,1,.965,1.969h-2.258a1.092,1.092,0,0,0-.312-.8A1.322,1.322,0,0,0,360.039-7a1.351,1.351,0,0,0-.883.258.814.814,0,0,0-.312.656.7.7,0,0,0,.355.605,3.657,3.657,0,0,0,1.2.4,9.8,9.8,0,0,1,1.422.379,2.336,2.336,0,0,1,1.789,2.273,2.2,2.2,0,0,1-.992,1.871,4.28,4.28,0,0,1-2.562.715,4.47,4.47,0,0,1-1.887-.379,3.166,3.166,0,0,1-1.293-1.039,2.414,2.414,0,0,1-.469-1.426h2.141a1.179,1.179,0,0,0,.445.922,1.766,1.766,0,0,0,1.109.32,1.635,1.635,0,0,0,.98-.246A.766.766,0,0,0,361.414-2.336Zm15.242-1.812a5.07,5.07,0,0,1-.887,3.129A2.843,2.843,0,0,1,373.375.156a2.633,2.633,0,0,1-2.07-.891V3.25h-2.258v-11.7h2.094l.078.828a2.654,2.654,0,0,1,2.141-.984,2.862,2.862,0,0,1,2.43,1.156,5.207,5.207,0,0,1,.867,3.188ZM374.4-4.312a3.327,3.327,0,0,0-.418-1.82,1.361,1.361,0,0,0-1.215-.641,1.478,1.478,0,0,0-1.461.813V-2.5a1.5,1.5,0,0,0,1.477.836Q374.4-1.664,374.4-4.312ZM381.945.156a4.15,4.15,0,0,1-3.027-1.141,4.054,4.054,0,0,1-1.168-3.039v-.219a5.106,5.106,0,0,1,.492-2.277,3.612,3.612,0,0,1,1.395-1.547,3.914,3.914,0,0,1,2.059-.543,3.508,3.508,0,0,1,2.73,1.094,4.444,4.444,0,0,1,1,3.1v.922h-5.383a2.1,2.1,0,0,0,.66,1.328,2,2,0,0,0,1.395.5,2.437,2.437,0,0,0,2.039-.945l1.109,1.242a3.389,3.389,0,0,1-1.375,1.121A4.511,4.511,0,0,1,381.945.156Zm-.258-6.945a1.411,1.411,0,0,0-1.09.455,2.357,2.357,0,0,0-.535,1.3H383.2v-.181a1.681,1.681,0,0,0-.406-1.165A1.456,1.456,0,0,0,381.688-6.789Zm9.594,4.453a.727.727,0,0,0-.41-.652,4.659,4.659,0,0,0-1.316-.426q-3.016-.633-3.016-2.562a2.323,2.323,0,0,1,.934-1.879,3.766,3.766,0,0,1,2.441-.754,4.053,4.053,0,0,1,2.574.758,2.388,2.388,0,0,1,.965,1.969H391.2a1.092,1.092,0,0,0-.312-.8A1.322,1.322,0,0,0,389.906-7a1.351,1.351,0,0,0-.883.258.814.814,0,0,0-.312.656.7.7,0,0,0,.355.605,3.657,3.657,0,0,0,1.2.4,9.8,9.8,0,0,1,1.422.379,2.336,2.336,0,0,1,1.789,2.273,2.2,2.2,0,0,1-.992,1.871,4.28,4.28,0,0,1-2.562.715,4.47,4.47,0,0,1-1.887-.379,3.166,3.166,0,0,1-1.293-1.039,2.414,2.414,0,0,1-.469-1.426h2.141a1.179,1.179,0,0,0,.445.922,1.766,1.766,0,0,0,1.109.32,1.635,1.635,0,0,0,.98-.246A.766.766,0,0,0,391.281-2.336ZM399.828,0a2.508,2.508,0,0,1-.227-.758,2.732,2.732,0,0,1-2.133.914,3,3,0,0,1-2.059-.719,2.312,2.312,0,0,1-.816-1.812,2.389,2.389,0,0,1,1-2.062,4.915,4.915,0,0,1,2.879-.727h1.039v-.484a1.393,1.393,0,0,0-.3-.937,1.183,1.183,0,0,0-.949-.352,1.345,1.345,0,0,0-.895.273.929.929,0,0,0-.324.75h-2.258a2.268,2.268,0,0,1,.453-1.359,3,3,0,0,1,1.281-.98,4.669,4.669,0,0,1,1.859-.355,3.689,3.689,0,0,1,2.48.785,2.747,2.747,0,0,1,.918,2.207v3.664a4.041,4.041,0,0,0,.336,1.82V0Zm-1.867-1.57a1.945,1.945,0,0,0,.922-.223,1.462,1.462,0,0,0,.625-.6V-3.844h-.844q-1.7,0-1.8,1.172l-.008.133a.9.9,0,0,0,.3.7A1.153,1.153,0,0,0,397.961-1.57Zm5.2-2.719a5.094,5.094,0,0,1,.887-3.148,2.877,2.877,0,0,1,2.426-1.172,2.589,2.589,0,0,1,2.039.922V-12h2.266V0h-2.039l-.109-.9A2.657,2.657,0,0,1,406.453.156a2.869,2.869,0,0,1-2.395-1.176A5.258,5.258,0,0,1,403.156-4.289Zm2.258.168a3.337,3.337,0,0,0,.414,1.823,1.349,1.349,0,0,0,1.2.634,1.511,1.511,0,0,0,1.477-.884V-5.889a1.489,1.489,0,0,0-1.461-.884Q405.414-6.773,405.414-4.121Zm6.758-.184a5.013,5.013,0,0,1,.484-2.242,3.546,3.546,0,0,1,1.395-1.523,4.069,4.069,0,0,1,2.113-.539,3.849,3.849,0,0,1,2.793,1.047,4.2,4.2,0,0,1,1.207,2.844l.016.578a4.418,4.418,0,0,1-1.086,3.121A3.775,3.775,0,0,1,416.18.156a3.793,3.793,0,0,1-2.918-1.172,4.5,4.5,0,0,1-1.09-3.187Zm2.258.16a3.16,3.16,0,0,0,.453,1.843,1.5,1.5,0,0,0,1.3.638,1.5,1.5,0,0,0,1.281-.63,3.458,3.458,0,0,0,.461-2.015,3.128,3.128,0,0,0-.461-1.831,1.5,1.5,0,0,0-1.3-.649,1.474,1.474,0,0,0-1.281.646A3.516,3.516,0,0,0,414.43-4.144Zm11.719,1.808a.727.727,0,0,0-.41-.652,4.659,4.659,0,0,0-1.316-.426q-3.016-.633-3.016-2.562a2.323,2.323,0,0,1,.934-1.879,3.766,3.766,0,0,1,2.441-.754,4.053,4.053,0,0,1,2.574.758,2.388,2.388,0,0,1,.965,1.969h-2.258a1.092,1.092,0,0,0-.312-.8A1.322,1.322,0,0,0,424.773-7a1.351,1.351,0,0,0-.883.258.814.814,0,0,0-.312.656.7.7,0,0,0,.355.605,3.657,3.657,0,0,0,1.2.4,9.8,9.8,0,0,1,1.422.379,2.336,2.336,0,0,1,1.789,2.273,2.2,2.2,0,0,1-.992,1.871,4.28,4.28,0,0,1-2.562.715A4.47,4.47,0,0,1,422.9-.223a3.166,3.166,0,0,1-1.293-1.039,2.414,2.414,0,0,1-.469-1.426h2.141a1.179,1.179,0,0,0,.445.922,1.766,1.766,0,0,0,1.109.32,1.635,1.635,0,0,0,.98-.246A.766.766,0,0,0,426.148-2.336Zm7.734-2.289a11.989,11.989,0,0,1,.477-3.406,8.989,8.989,0,0,1,1.406-2.863,5.251,5.251,0,0,1,2.016-1.73l.438,1.219A5.438,5.438,0,0,0,436.438-8.8a12.082,12.082,0,0,0-.641,4.125v.242a12.313,12.313,0,0,0,.633,4.141,5.544,5.544,0,0,0,1.789,2.648l-.437,1.2a5.253,5.253,0,0,1-1.98-1.684,8.838,8.838,0,0,1-1.4-2.785,11.919,11.919,0,0,1-.516-3.3Zm13.125.477a5.07,5.07,0,0,1-.887,3.129A2.843,2.843,0,0,1,443.727.156a2.633,2.633,0,0,1-2.07-.891V3.25H439.4v-11.7h2.094l.078.828a2.654,2.654,0,0,1,2.141-.984,2.862,2.862,0,0,1,2.43,1.156,5.207,5.207,0,0,1,.867,3.188Zm-2.258-.164a3.327,3.327,0,0,0-.418-1.82,1.361,1.361,0,0,0-1.215-.641,1.478,1.478,0,0,0-1.461.813V-2.5a1.5,1.5,0,0,0,1.477.836Q444.75-1.664,444.75-4.312Zm6.758-1.617,1.422-2.523h2.414l-2.406,4.141L455.445,0h-2.422l-1.508-2.656L450.016,0h-2.43l2.508-4.312-2.4-4.141h2.422ZM461.328,0a2.508,2.508,0,0,1-.227-.758,2.732,2.732,0,0,1-2.133.914,3,3,0,0,1-2.059-.719,2.312,2.312,0,0,1-.816-1.812,2.389,2.389,0,0,1,1-2.062,4.915,4.915,0,0,1,2.879-.727h1.039v-.484a1.393,1.393,0,0,0-.3-.937,1.183,1.183,0,0,0-.949-.352,1.345,1.345,0,0,0-.895.273.929.929,0,0,0-.324.75h-2.258a2.268,2.268,0,0,1,.453-1.359,3,3,0,0,1,1.281-.98,4.669,4.669,0,0,1,1.859-.355,3.689,3.689,0,0,1,2.48.785,2.747,2.747,0,0,1,.918,2.207v3.664a4.041,4.041,0,0,0,.336,1.82V0Zm-1.867-1.57a1.945,1.945,0,0,0,.922-.223,1.462,1.462,0,0,0,.625-.6V-3.844h-.844q-1.7,0-1.8,1.172l-.008.133a.9.9,0,0,0,.3.7A1.153,1.153,0,0,0,459.461-1.57ZM468.9-4.445a11.377,11.377,0,0,1-.508,3.4,9.225,9.225,0,0,1-1.461,2.883,5.263,5.263,0,0,1-2.039,1.719l-.437-1.2A5.494,5.494,0,0,0,466.2-.219a11.938,11.938,0,0,0,.664-4.008v-.414a12.209,12.209,0,0,0-.637-4.117,5.727,5.727,0,0,0-1.777-2.672l.438-1.2a5.265,5.265,0,0,1,2,1.672,9.106,9.106,0,0,1,1.461,2.82A11.3,11.3,0,0,1,468.9-4.8Z" transform="translate(675 8446)"/>
  </g>
</svg>
