<svg xmlns="http://www.w3.org/2000/svg" xmlns:xlink="http://www.w3.org/1999/xlink" width="125.712" height="125.712" viewBox="0 0 125.712 125.712">
  <defs>
    <clipPath id="clip-path">
      <rect id="Rectángulo_340857" data-name="Rectángulo 340857" width="119" height="118.993" fill="none"/>
    </clipPath>
  </defs>
  <g id="Grupo_976673" data-name="Grupo 976673" transform="translate(-202.288 -1829)">
    <path id="Trazado_700038" data-name="Trazado 700038" d="M137.731,62.856A62.856,62.856,0,1,1,74.875,0a62.856,62.856,0,0,1,62.856,62.856" transform="translate(190.269 1829)" fill="#ffdeb8"/>
    <g id="Grupo_976662" data-name="Grupo 976662" transform="translate(205.644 1829)">
      <g id="Grupo_976661" data-name="Grupo 976661" transform="translate(0 0)" clip-path="url(#clip-path)">
        <path id="Trazado_706525" data-name="Trazado 706525" d="M92.871,76.88a11.459,11.459,0,0,1,.384,11.638,11.653,11.653,0,0,1-18.484,2.724q-.338-.338-.642-.7L64.25,79.194,79.169,64.275l11.339,9.891a12.357,12.357,0,0,1,2.363,2.714" transform="translate(22.015 22.023)" fill="#8a3d02"/>
        <path id="Trazado_706526" data-name="Trazado 706526" d="M80.73,65.834,65.811,80.754l-6.118-7.033.042-.038L73.7,59.72l.007-.007Z" transform="translate(20.453 20.46)" fill="#45444b"/>
        <path id="Trazado_706527" data-name="Trazado 706527" d="M62.732,23.492a6.971,6.971,0,1,1-9.858,9.86L33.154,13.632a6.971,6.971,0,0,1,9.86-9.858Z" transform="translate(10.661 0.593)" fill="#8a3d02"/>
        <path id="Trazado_706528" data-name="Trazado 706528" d="M61.96,32.379l-8.174,8.174c-.016.013-.03.028-.044.042L40.594,53.741c-.013.013-.028.028-.042.044L32.379,61.96l-1.643-1.643L11.021,40.593,9.378,38.949,38.958,9.371,40.6,11.014,60.322,30.735Z" transform="translate(3.213 3.211)" fill="#ffc403"/>
        <path id="Trazado_706529" data-name="Trazado 706529" d="M51.061,41.2,52.7,39.553a4.648,4.648,0,1,0-6.531-6.617L32.941,46.169A4.648,4.648,0,0,0,39.558,52.7L41.2,51.056l28.12,32.3.042-.038L83.326,69.354l.007-.007Z" transform="translate(10.828 10.826)" fill="#8a3d02"/>
        <path id="Trazado_706530" data-name="Trazado 706530" d="M62.157,87.532v2.324H1.738V87.532a9.3,9.3,0,0,1,9.3-9.3H52.866a9.3,9.3,0,0,1,9.291,9.3" transform="translate(0.596 26.807)" fill="#8a3d02"/>
        <path id="Trazado_706531" data-name="Trazado 706531" d="M50.519,69.582A5.81,5.81,0,1,1,50.535,81.2H11.012A5.81,5.81,0,1,1,11,69.582H50.519Z" transform="translate(1.78 23.842)" fill="#8a3d02"/>
        <path id="Trazado_706532" data-name="Trazado 706532" d="M33.36,52.868a6.971,6.971,0,1,1-9.86,9.858L3.781,43.007a6.971,6.971,0,0,1,9.858-9.86Z" transform="translate(0.596 10.658)" fill="#8a3d02"/>
        <path id="Trazado_706533" data-name="Trazado 706533" d="M18.12,30.352a2.324,2.324,0,1,0,3.287,0h0a2.32,2.32,0,0,0-3.283,0l0,0" transform="translate(5.975 10.166)" fill="#040405"/>
        <path id="Trazado_706534" data-name="Trazado 706534" d="M58.852,80.8A8.137,8.137,0,0,0,52.3,67.851H12.789A8.128,8.128,0,0,0,6.238,80.8,11.629,11.629,0,0,0,.007,91.1V93.42a2.324,2.324,0,0,0,2.324,2.324H62.75a2.324,2.324,0,0,0,2.324-2.324V91.1A11.628,11.628,0,0,0,58.852,80.8M10.324,73.52a3.465,3.465,0,0,1,2.465-1.02H52.3a3.491,3.491,0,0,1,.363,6.972,3.265,3.265,0,0,1-.363,0H12.789a3.491,3.491,0,0,1-2.465-5.952ZM4.655,91.1a6.981,6.981,0,0,1,6.971-6.982H53.459A6.981,6.981,0,0,1,60.426,91.1Z" transform="translate(0.002 23.248)" fill="#040405"/>
        <path id="Trazado_706535" data-name="Trazado 706535" d="M116.838,97.639a14.638,14.638,0,0,0-2.8-3.214L103.18,84.953a2.294,2.294,0,0,0-.925-.806L95.688,78.42,65.291,51.9a6.959,6.959,0,0,0-2.041-11.1L66.062,38a9.3,9.3,0,0,0,8.98-15.552h0L55.318,2.724A9.293,9.293,0,0,0,39.769,11.7L11.708,39.76A9.3,9.3,0,0,0,2.723,55.313L22.452,75.027A9.292,9.292,0,0,0,38,66.057l2.806-2.806a6.972,6.972,0,0,0,11.1,2.038L84.287,102.48a2.344,2.344,0,0,0,.316.393,1.419,1.419,0,0,0,.134.117l9.638,11.086c.24.283.5.561.763.827a13.828,13.828,0,0,0,9.824,4.086,14.241,14.241,0,0,0,1.956-.134,14.065,14.065,0,0,0,10.376-7.183,13.752,13.752,0,0,0-.455-14.033M83.323,94.294,94.27,83.347l3.511,3.063-11.4,11.4Zm-28.115-32.3L62,55.2,90.759,80.289,80.265,90.783ZM45.458,6A4.647,4.647,0,0,1,52.03,6L52.037,6,71.751,25.729a4.65,4.65,0,0,1-6.572,6.579L45.459,12.583a4.652,4.652,0,0,1,0-6.574ZM32.313,71.735a4.655,4.655,0,0,1-6.579,0L6.02,52.022a4.649,4.649,0,1,1,6.571-6.579L32.312,65.169a4.651,4.651,0,0,1,0,6.571ZM15.878,42.158,42.171,15.869,61.892,35.59l-6.51,6.51-.064.062L42.178,55.3l-.081.083-6.5,6.5ZM47.1,62.566a2.323,2.323,0,0,1-1.672-3.938l13.2-13.2A2.324,2.324,0,0,1,62.574,47.1a2.3,2.3,0,0,1-.682,1.643l-1.621,1.623-.034.034L50.4,60.232l-.013.013-1.637,1.637a2.309,2.309,0,0,1-1.65.683m66.14,46.835a9.458,9.458,0,0,1-6.956,4.856,9.233,9.233,0,0,1-7.857-2.634c-.179-.179-.35-.365-.509-.553l-.023-.027-8.459-9.715,11.85-11.85,9.7,8.459.023.019a10.034,10.034,0,0,1,1.92,2.2,9.176,9.176,0,0,1,.307,9.241" transform="translate(0 0)" fill="#040405"/>
        <path id="Trazado_706536" data-name="Trazado 706536" d="M36.16,18.113a2.324,2.324,0,0,0-3.287,0l-9.86,9.86A2.324,2.324,0,0,0,26.3,31.26l9.86-9.86a2.324,2.324,0,0,0,0-3.287" transform="translate(7.653 5.973)" fill="#040405"/>
      </g>
    </g>
  </g>
</svg>
