<svg xmlns="http://www.w3.org/2000/svg" xmlns:xlink="http://www.w3.org/1999/xlink" width="67.001" height="69.999" viewBox="0 0 67.001 69.999">
  <defs>
    <clipPath id="clip-path">
      <rect id="Rectángulo_340858" data-name="Rectángulo 340858" width="67.001" height="69.999" transform="translate(0 0)" fill="none"/>
    </clipPath>
  </defs>
  <g id="Grupo_976666" data-name="Grupo 976666" transform="translate(0 0)">
    <g id="Grupo_976665" data-name="Grupo 976665" clip-path="url(#clip-path)">
      <path id="Trazado_706537" data-name="Trazado 706537" d="M59.335,57.822A33.5,33.5,0,1,0,9.41,59.775Z" fill="#03a4a4"/>
      <path id="Trazado_706538" data-name="Trazado 706538" d="M59.181,14.173c-.544-1.09-1.832-2.143-4.746-2.3H49.8a2.343,2.343,0,0,1-2.34-2.34V7.614h-16.8a2.8,2.8,0,0,1,.11.772V18.75a2.805,2.805,0,0,1-2.8,2.8H22.146c.056.083.118.165.182.247-.331.8-1.981,5.3,2.025,7.622l-.117,25.006a11.171,11.171,0,0,0-2.79,4.418c-.746,2.228-.982,5.572,1.6,9.487A33.528,33.528,0,0,0,59.338,57.82V15.8a9.083,9.083,0,0,0-.15-1.629Z" fill="#f0e5e0"/>
      <path id="Trazado_706539" data-name="Trazado 706539" d="M24.441,54.52,24.559,29.3c-4.41-2.458-1.991-7.536-1.991-7.536-.061-.072-.116-.144-.168-.214H9.4V59.777a33.5,33.5,0,0,0,13.949,8.661c-5.549-8.122,1.087-13.918,1.087-13.918" fill="#ebdad4"/>
      <path id="Trazado_706540" data-name="Trazado 706540" d="M44.4.042C44.109.015,43.821,0,43.532,0h-21.4l.011.007A3.4,3.4,0,0,0,20.7,2.277a3.84,3.84,0,0,0,1.543,3.115c-.04.052-.086.118-.134.193h5.869A2.805,2.805,0,0,1,30.731,7.9H47.465V6.042c0-4.059-1.922-5.5-3.069-6Z" fill="#b20d0d"/>
      <path id="Trazado_706541" data-name="Trazado 706541" d="M9.406,2.554V5.585H22.361a2.669,2.669,0,0,1,.167-.214c-3.673-3.255,0-5.371,0-5.371H11.965A2.553,2.553,0,0,0,9.406,2.549v0" fill="#8d0a0a"/>
      <path id="Trazado_706542" data-name="Trazado 706542" d="M27.973,5.371h-5.75l.023.022a2.889,2.889,0,0,0-.623,1.95,2.445,2.445,0,0,0,1.139,1.725c1.664,1.177.537,6.862-.06,9.047a2.711,2.711,0,0,0-1.035,1.68,2.6,2.6,0,0,0,.638,1.973h5.668a3.017,3.017,0,0,0,3.017-3.017V8.389a3.017,3.017,0,0,0-3.016-3.018Z" fill="#8d0a0a"/>
      <path id="Trazado_706543" data-name="Trazado 706543" d="M7.672,5.371A3.017,3.017,0,0,0,4.655,8.388h0V18.751a3.017,3.017,0,0,0,3.017,3.017h14.9a2.262,2.262,0,0,1,.314-3.53s2.167-7.8,0-9.337a2.283,2.283,0,0,1-.354-3.53Z" fill="#b20d0d"/>
      <path id="Trazado_706544" data-name="Trazado 706544" d="M26.51,12.494H24.567V10.627h2.2a1,1,0,0,0,0-2h-3.2a1,1,0,0,0-1,1v7.886a1,1,0,0,0,2,0V14.495H26.51a1,1,0,0,0,0-2Z" fill="#f7efed"/>
      <path id="Trazado_706545" data-name="Trazado 706545" d="M17.669,8.714H15.486a1,1,0,0,0-1,1V17.3a1.035,1.035,0,0,0,.94,1.122c.025,0,.051,0,.076,0,.066,0,1.623-.006,2.245-.017,2.336-.041,4.032-2.075,4.032-4.838,0-2.9-1.649-4.852-4.11-4.852m.046,7.692c-.28,0-.769.009-1.217.012-.009-2.823,0-2.281-.01-5.7h1.181c.353,0,2.113.138,2.113,2.854,0,1.391-.638,2.809-2.066,2.834Z" fill="#f7efed"/>
      <path id="Trazado_706546" data-name="Trazado 706546" d="M11.092,8.6H8.88a1,1,0,0,0-1,1v7.944a1,1,0,0,0,2,0V15.086h1.211a3.242,3.242,0,1,0,0-6.484Zm0,4.484h-1.2c-.006-1.251,0-.867-.007-2.487h1.209a1.242,1.242,0,1,1,.07,2.483c-.023,0-.047,0-.07,0Z" fill="#f7efed"/>
      <path id="Trazado_706547" data-name="Trazado 706547" d="M49.88,2.629A8.979,8.979,0,0,0,43.534,0s3.717.41,3.717,6.043V9.531a2.556,2.556,0,0,0,2.555,2.555h4.632c1.752.1,4.9.69,4.9,3.718a8.976,8.976,0,0,0-2.63-6.346Z" fill="#f7efed"/>
      <path id="Trazado_706548" data-name="Trazado 706548" d="M49.414,36.963a2.16,2.16,0,0,1-1.15,1.621,2.748,2.748,0,0,1-2.133-.328c-.326-.276-6.752-5.716-8.647-8.223a2.267,2.267,0,0,1-.577-1.978,2.635,2.635,0,0,1,1.477-1.437l.025-.009.161-.114A16,16,0,0,0,24.306,29.5a2.8,2.8,0,0,0,.43,2.228,2.456,2.456,0,0,0,2.13.709,6.065,6.065,0,0,0,1.293,4.549,4.85,4.85,0,0,0,4.18,1.188l5.635,8.838a3.919,3.919,0,0,0,.413,3.185,4.075,4.075,0,0,0,3.391,1.4,2.733,2.733,0,0,0,.4,2.043,2.623,2.623,0,0,0,2.085.9,16.009,16.009,0,0,0,5.238-17.848,1.488,1.488,0,0,0-.092.268" fill="#3cb3cc"/>
      <path id="Trazado_706549" data-name="Trazado 706549" d="M38.312,26.427a2.246,2.246,0,0,0-.993,3.73c1.971,2.608,8.691,8.266,8.691,8.266s2.8,1.744,3.6-1.409a16.085,16.085,0,0,0-11.3-10.587Z" fill="#86d0f6"/>
      <path id="Trazado_706550" data-name="Trazado 706550" d="M44.512,54.352c-3.3,0-2.482-2.953-2.482-2.953-5.277,0-3.832-4.415-3.832-4.415L32.444,37.96c-6.3.729-5.346-5.743-5.346-5.743C23.654,32.57,24.56,29.3,24.56,29.3a16.014,16.014,0,0,0,19.587,25.34c.124-.1.245-.192.366-.291Z" fill="#29acba"/>
      <path id="Trazado_706551" data-name="Trazado 706551" d="M26.865,32.441a6.065,6.065,0,0,0,1.293,4.549,4.85,4.85,0,0,0,4.18,1.188l5.636,8.838a3.919,3.919,0,0,0,.412,3.185,4.076,4.076,0,0,0,3.388,1.4,12.157,12.157,0,1,0-14.76-19.322l-.209.164Z" fill="#139fad"/>
      <path id="Trazado_706552" data-name="Trazado 706552" d="M38.2,46.984,32.444,37.96c-6.3.729-5.346-5.743-5.346-5.743A12.156,12.156,0,1,0,41.654,51.691c.127-.1.254-.192.376-.292-5.278,0-3.831-4.415-3.831-4.415" fill="#1c81b0"/>
      <path id="Trazado_706553" data-name="Trazado 706553" d="M34.373,48.007a1.929,1.929,0,0,1-1.929-1.929V35.753a1.928,1.928,0,1,1,3.857,0V46.082a1.928,1.928,0,0,1-1.928,1.925" fill="#ebdad4"/>
      <path id="Trazado_706554" data-name="Trazado 706554" d="M34.375,50.01a1.922,1.922,0,0,1-1.365-.565l-5.054-5.054a1.929,1.929,0,1,1,2.718-2.739l.01.011,5.054,5.054a1.929,1.929,0,0,1-1.363,3.293" fill="#f0e5e0"/>
      <path id="Trazado_706555" data-name="Trazado 706555" d="M34.373,50.01a1.93,1.93,0,0,1-1.365-3.293l5.055-5.054a1.929,1.929,0,0,1,2.728,2.728l-5.055,5.054a1.921,1.921,0,0,1-1.363.565" fill="#e1f1fb"/>
      <path id="Trazado_706556" data-name="Trazado 706556" d="M1.913,47.68A7.27,7.27,0,0,0,6.2,41.069V33.18a7.272,7.272,0,0,0-4.656-6.763,33.643,33.643,0,0,0,.363,21.256Z" fill="#3cb3cc"/>
      <path id="Trazado_706557" data-name="Trazado 706557" d="M65.672,27.156a7.251,7.251,0,0,0-3.239,6.026v7.882a7.242,7.242,0,0,0,2.925,5.8,33.66,33.66,0,0,0,.314-19.713Z" fill="#3cb3cc"/>
    </g>
  </g>
</svg>
