<svg xmlns="http://www.w3.org/2000/svg" xmlns:xlink="http://www.w3.org/1999/xlink" width="141.667" height="141.667" viewBox="0 0 141.667 141.667">
  <defs>
    <clipPath id="clip-path">
      <rect id="Rectángulo_340861" data-name="Rectángulo 340861" width="105.592" height="119.128" fill="none"/>
    </clipPath>
  </defs>
  <g id="Grupo_976674" data-name="Grupo 976674" transform="translate(-202.288 -1829)">
    <path id="Trazado_700038" data-name="Trazado 700038" d="M153.686,70.833A70.833,70.833,0,1,1,82.852,0a70.833,70.833,0,0,1,70.833,70.833" transform="translate(190.269 1829)" fill="#ffdeb8"/>
    <g id="Grupo_976676" data-name="Grupo 976676" transform="translate(213.233 1840.269)">
      <g id="Grupo_976675" data-name="Grupo 976675" transform="translate(0 0)" clip-path="url(#clip-path)">
        <path id="Trazado_706558" data-name="Trazado 706558" d="M13.806,1.531,86.8,1.913a2.275,2.275,0,0,1,2.259,2.271V99.74a2.275,2.275,0,0,1-2.271,2.271H13.8a2.275,2.275,0,0,1-2.271-2.271V3.8A2.27,2.27,0,0,1,13.8,1.531h.007" transform="translate(2.487 0.33)" fill="#03a4a4" fill-rule="evenodd"/>
        <path id="Trazado_706559" data-name="Trazado 706559" d="M13.807,1.531l4.364.023V102.011H13.795a2.275,2.275,0,0,1-2.271-2.271V3.8a2.27,2.27,0,0,1,2.271-2.271h.012" transform="translate(2.486 0.33)" fill="#06d1d1" fill-rule="evenodd"/>
        <path id="Trazado_706560" data-name="Trazado 706560" d="M3.811,11.531l73,.382a2.275,2.275,0,0,1,2.259,2.271V109.74a2.275,2.275,0,0,1-2.271,2.271H3.8a2.275,2.275,0,0,1-2.271-2.271V13.8A2.27,2.27,0,0,1,3.8,11.531h.012" transform="translate(0.33 2.487)" fill="#abffff" fill-rule="evenodd"/>
        <path id="Trazado_706561" data-name="Trazado 706561" d="M3.811,11.531l4.364.023V112.012H3.8a2.275,2.275,0,0,1-2.271-2.271V13.8A2.27,2.27,0,0,1,3.8,11.531h.012" transform="translate(0.33 2.487)" fill="#06d1d1" fill-rule="evenodd"/>
        <path id="Trazado_706562" data-name="Trazado 706562" d="M44.723,11.523H59.382V28.191a.681.681,0,0,1-1.063.565l-5.585-3.769a.668.668,0,0,0-.745-.011l-6.221,3.932a.681.681,0,0,1-1.046-.576Z" transform="translate(9.648 2.486)" fill="#ffc403" fill-rule="evenodd"/>
        <path id="Trazado_706563" data-name="Trazado 706563" d="M54.913,11.86V27.936l1.21.815a.681.681,0,0,0,1.063-.565V11.524H54.914Z" transform="translate(11.846 2.486)" fill="#ffb323" fill-rule="evenodd"/>
        <path id="Trazado_706564" data-name="Trazado 706564" d="M57.575,95.6l-1.482-6.583a1.877,1.877,0,0,0-1.883-1.41h-21.2a1.877,1.877,0,0,0-1.883,1.41L29.649,95.6Z" transform="translate(6.396 18.899)" fill="#6e6370" fill-rule="evenodd"/>
        <path id="Trazado_706565" data-name="Trazado 706565" d="M53.62,95.6l-1.483-6.583a1.877,1.877,0,0,0-1.883-1.41H47.983a1.877,1.877,0,0,1,1.883,1.41L51.349,95.6Z" transform="translate(10.351 18.899)" fill="#544c56" fill-rule="evenodd"/>
        <path id="Trazado_706566" data-name="Trazado 706566" d="M57.7,63.4l-5.432,5.432,32.258,33.843a2.8,2.8,0,0,0,1.922.906,2.357,2.357,0,0,0,1.876-.694l3.431-3.431a2.357,2.357,0,0,0,.694-1.876,2.8,2.8,0,0,0-.906-1.923Z" transform="translate(11.276 13.677)" fill="#8a3d02" fill-rule="evenodd"/>
        <path id="Trazado_706567" data-name="Trazado 706567" d="M57.021,63.4l-1.606,1.606L89.26,97.266a2.8,2.8,0,0,1,.906,1.923,2.357,2.357,0,0,1-.694,1.876l1.606-1.606a2.356,2.356,0,0,0,.694-1.875,2.8,2.8,0,0,0-.906-1.923Z" transform="translate(11.955 13.677)" fill="#f5b0a9" fill-rule="evenodd"/>
        <path id="Trazado_706568" data-name="Trazado 706568" d="M62.381,68.018c1.962-1.667,4.34-3.473,7.659-5.939L58.457,50.5C50.89,60.667,49.537,62.02,39.37,69.583L50.953,81.166c2.465-3.314,4.272-5.693,5.939-7.659a45.191,45.191,0,0,1,5.489-5.489" transform="translate(8.493 10.893)" fill="#8a3d02" fill-rule="evenodd"/>
        <path id="Trazado_706569" data-name="Trazado 706569" d="M60.064,52.1,58.458,50.5c-7.567,10.171-8.92,11.524-19.087,19.087l1.606,1.606C51.138,63.626,52.492,62.272,60.064,52.1" transform="translate(8.493 10.893)" fill="#9c5f36" fill-rule="evenodd"/>
        <path id="Trazado_706570" data-name="Trazado 706570" d="M56.095,46.485,53.35,49.23a1.944,1.944,0,0,0,0,2.745l13.3,13.3a1.944,1.944,0,0,0,2.745,0l2.745-2.745a1.944,1.944,0,0,0,0-2.745l-13.3-13.3A1.944,1.944,0,0,0,56.095,46.485Z" transform="translate(11.387 9.905)" fill="#8a3d02" fill-rule="evenodd"/>
        <path id="Trazado_706571" data-name="Trazado 706571" d="M55.792,46.484,54.186,48.09a1.944,1.944,0,0,1,2.745,0l13.3,13.3a1.944,1.944,0,0,1,0,2.745l1.606-1.606a1.944,1.944,0,0,0,0-2.745l-13.3-13.3a1.945,1.945,0,0,0-2.744,0" transform="translate(11.689 9.906)" fill="#f5b0a9" fill-rule="evenodd"/>
        <path id="Trazado_706572" data-name="Trazado 706572" d="M38.1,64.483l-2.745,2.745a1.944,1.944,0,0,0,0,2.745l13.3,13.3a1.944,1.944,0,0,0,2.745,0l2.745-2.745a1.944,1.944,0,0,0,0-2.745l-13.3-13.3a1.944,1.944,0,0,0-2.745,0" transform="translate(7.504 13.788)" fill="#8a3d02" fill-rule="evenodd"/>
        <path id="Trazado_706573" data-name="Trazado 706573" d="M51.4,82.973l1.606-1.606a1.944,1.944,0,0,1-2.745,0l-13.3-13.3a1.944,1.944,0,0,1,0-2.745l-1.606,1.606a1.944,1.944,0,0,0,0,2.745l13.3,13.3a1.944,1.944,0,0,0,2.745,0" transform="translate(7.504 14.091)" fill="#f5b0a9" fill-rule="evenodd"/>
        <path id="Trazado_706574" data-name="Trazado 706574" d="M101.863,111.361a1.013,1.013,0,0,0-.329-.68L70.9,81.5c-1.024.949-1.986,1.912-2.94,2.938l29.19,30.63a.947.947,0,0,0,.681.331.5.5,0,0,0,.45-.152l3.436-3.432a.509.509,0,0,0,.153-.455ZM77.525,99.885v12.752H65.457l-1.155-5.13a3.722,3.722,0,0,0-3.7-2.862h-21.2a3.725,3.725,0,0,0-3.7,2.862l-1.154,5.13H3.721V15.888l48.786.254V32.068a1.863,1.863,0,0,0,2.855,1.58l6.618-4.181,6,4.048a1.862,1.862,0,0,0,2.9-1.552V16.237l6.635.035V61.066L71.536,55.08a3.805,3.805,0,0,0-5.377,0l-2.746,2.745a3.8,3.8,0,0,0-.084,5.284A55.743,55.743,0,0,1,49.566,76.874a3.8,3.8,0,0,0-5.284.084L41.538,79.7a3.807,3.807,0,0,0,0,5.377l13.3,13.3a3.807,3.807,0,0,0,5.378,0l2.745-2.745a3.8,3.8,0,0,0,.086-5.281c.851-1.12,1.661-2.141,2.45-3.09ZM61.641,112.638l-.965-4.259a.242.242,0,0,0-.078-.012H39.409a.219.219,0,0,0-.079.012l-.959,4.255Zm-5.41-83.947,4.786-3.025a1.866,1.866,0,0,1,2.036.03l4.114,2.773V16.219l-10.942-.058ZM73.71,79.05c.956-.791,1.98-1.6,3.1-2.459a3.855,3.855,0,0,0,.712.524v5.57Zm-4.8-21.338a.078.078,0,0,0-.057-.021.081.081,0,0,0-.055.021l-2.744,2.745a.085.085,0,0,0,0,.112l13.3,13.3a.085.085,0,0,0,.112,0l2.743-2.75a.082.082,0,0,0,0-.112ZM47.022,79.595a.088.088,0,0,0-.112,0l-2.745,2.744a.088.088,0,0,0,0,.112l13.306,13.3a.085.085,0,0,0,.112,0L60.329,93a.088.088,0,0,0,0-.114Zm27.127-5.653A66.048,66.048,0,0,0,60.4,87.7l-8.167-8.168A57.959,57.959,0,0,0,65.985,65.771ZM15.876,12.229V3.719h73.8V94.261L81.247,86.23V77.138A3.72,3.72,0,0,0,82.1,76.5l2.745-2.743a3.807,3.807,0,0,0,0-5.377L81.251,64.79V14.423A1.858,1.858,0,0,0,79.4,12.561Zm88.466,102.224-3.436,3.43a4.164,4.164,0,0,1-3.019,1.245c-.088,0-.186,0-.275-.007a4.659,4.659,0,0,1-3.161-1.482l-13.2-13.85V114.5a1.864,1.864,0,0,1-1.861,1.861H1.86A1.862,1.862,0,0,1,0,114.5V14.016a1.862,1.862,0,0,1,1.86-1.859h.01l10.284.053V1.861A1.861,1.861,0,0,1,14.015,0H91.543A1.86,1.86,0,0,1,93.4,1.86h0V97.808l10.686,10.182a4.683,4.683,0,0,1,1.493,3.168,4.233,4.233,0,0,1-1.239,3.295Zm-86.66-81h18.8a1.862,1.862,0,0,0,0-3.724h-18.8a1.862,1.862,0,0,0,0,3.724m18.8,63.889h-18.8a1.861,1.861,0,0,0-.006,3.723H36.483a1.861,1.861,0,0,0,0-3.723m0-13.52h-18.8a1.862,1.862,0,0,0,0,3.724h18.8a1.862,1.862,0,0,0,0-3.724m0-13.523h-18.8a1.861,1.861,0,1,0,0,3.723h18.8a1.861,1.861,0,1,0,0-3.723M54.1,58.636a1.862,1.862,0,0,0-1.86-1.861H17.683a1.862,1.862,0,0,0,0,3.724H52.237a1.861,1.861,0,0,0,1.862-1.86v0ZM15.815,45.112a1.861,1.861,0,0,0,1.861,1.861h45.89a1.862,1.862,0,0,0,0-3.724H17.683A1.861,1.861,0,0,0,15.815,45.1v.007" transform="translate(0 0)" fill="#040405" fill-rule="evenodd"/>
      </g>
    </g>
  </g>
</svg>
