<svg id="Grupo_1017331" data-name="Grupo 1017331" xmlns="http://www.w3.org/2000/svg" xmlns:xlink="http://www.w3.org/1999/xlink" width="209.905" height="211" viewBox="0 0 209.905 211">
  <defs>
    <clipPath id="clip-path">
      <rect id="Rectángulo_341319" data-name="Rectángulo 341319" width="209.905" height="211" fill="none"/>
    </clipPath>
    <clipPath id="clip-path-2">
      <rect id="Rectángulo_341318" data-name="Rectángulo 341318" width="209.904" height="211" fill="none"/>
    </clipPath>
    <clipPath id="clip-path-3">
      <rect id="Rectángulo_341287" data-name="Rectángulo 341287" width="139.275" height="129.927" fill="none"/>
    </clipPath>
    <clipPath id="clip-path-4">
      <rect id="Rectángulo_341288" data-name="Rectángulo 341288" width="131.009" height="192.091" fill="none"/>
    </clipPath>
    <clipPath id="clip-path-6">
      <rect id="Rectángulo_341290" data-name="Rectángulo 341290" width="131.475" height="43.611" fill="none"/>
    </clipPath>
    <clipPath id="clip-path-7">
      <rect id="Rectángulo_341291" data-name="Rectángulo 341291" width="21.146" height="21.145" fill="none"/>
    </clipPath>
    <clipPath id="clip-path-8">
      <rect id="Rectángulo_341292" data-name="Rectángulo 341292" width="14.951" height="14.328" fill="none"/>
    </clipPath>
    <clipPath id="clip-path-13">
      <rect id="Rectángulo_341301" data-name="Rectángulo 341301" width="9.134" height="3.699" fill="none"/>
    </clipPath>
    <clipPath id="clip-path-14">
      <rect id="Rectángulo_341302" data-name="Rectángulo 341302" width="9.681" height="3.905" fill="none"/>
    </clipPath>
    <clipPath id="clip-path-15">
      <rect id="Rectángulo_341305" data-name="Rectángulo 341305" width="10.052" height="1.824" fill="none"/>
    </clipPath>
    <clipPath id="clip-path-16">
      <rect id="Rectángulo_341307" data-name="Rectángulo 341307" width="10.015" height="0.894" fill="none"/>
    </clipPath>
    <clipPath id="clip-path-17">
      <rect id="Rectángulo_341308" data-name="Rectángulo 341308" width="10.319" height="14.032" fill="none"/>
    </clipPath>
    <clipPath id="clip-path-18">
      <rect id="Rectángulo_341310" data-name="Rectángulo 341310" width="12.8" height="8.612" fill="none"/>
    </clipPath>
    <clipPath id="clip-path-20">
      <rect id="Rectángulo_341311" data-name="Rectángulo 341311" width="14.909" height="1.712" fill="none"/>
    </clipPath>
    <clipPath id="clip-path-21">
      <rect id="Rectángulo_341312" data-name="Rectángulo 341312" width="13.005" height="2.254" fill="none"/>
    </clipPath>
    <clipPath id="clip-path-22">
      <rect id="Rectángulo_341313" data-name="Rectángulo 341313" width="12.088" height="72.896" fill="none"/>
    </clipPath>
    <clipPath id="clip-path-23">
      <rect id="Rectángulo_341314" data-name="Rectángulo 341314" width="1.742" height="54.025" fill="none"/>
    </clipPath>
    <clipPath id="clip-path-24">
      <rect id="Rectángulo_341315" data-name="Rectángulo 341315" width="2.421" height="7.437" fill="none"/>
    </clipPath>
    <clipPath id="clip-path-25">
      <rect id="Rectángulo_341317" data-name="Rectángulo 341317" width="101.923" height="27.951" fill="none"/>
    </clipPath>
  </defs>
  <g id="Grupo_1017330" data-name="Grupo 1017330" clip-path="url(#clip-path)">
    <g id="Grupo_1017329" data-name="Grupo 1017329">
      <g id="Grupo_1017328" data-name="Grupo 1017328" clip-path="url(#clip-path-2)">
        <path id="Trazado_714970" data-name="Trazado 714970" d="M136.35.188H10.02A9.832,9.832,0,0,0,.187,10.019V200.533a9.83,9.83,0,0,0,9.833,9.831H136.35a9.832,9.832,0,0,0,9.833-9.831V10.019A9.833,9.833,0,0,0,136.35.188" transform="translate(0.223 0.224)" fill="#302f2f"/>
        <path id="Trazado_714971" data-name="Trazado 714971" d="M136.573,211H10.243A10.254,10.254,0,0,1,0,200.759V10.245A10.256,10.256,0,0,1,10.243,0h126.33a10.258,10.258,0,0,1,10.245,10.245V200.759A10.255,10.255,0,0,1,136.573,211M10.243.824A9.43,9.43,0,0,0,.824,10.245V200.759a9.43,9.43,0,0,0,9.419,9.419h126.33a9.43,9.43,0,0,0,9.421-9.419V10.245A9.431,9.431,0,0,0,136.573.824Z"/>
        <path id="Trazado_714972" data-name="Trazado 714972" d="M131.5,1.742H10.982A9.379,9.379,0,0,0,1.6,11.122V192.867a9.377,9.377,0,0,0,9.378,9.378H131.5a9.379,9.379,0,0,0,9.38-9.378V11.122a9.381,9.381,0,0,0-9.38-9.38" transform="translate(1.91 2.075)" fill="#ebe6e6"/>
        <g id="Grupo_1017249" data-name="Grupo 1017249" transform="translate(3.771 3.816)" style="mix-blend-mode: multiply;isolation: isolate">
          <g id="Grupo_1017248" data-name="Grupo 1017248">
            <g id="Grupo_1017247" data-name="Grupo 1017247" clip-path="url(#clip-path-3)">
              <path id="Trazado_714973" data-name="Trazado 714973" d="M141,131.669V11.121a9.381,9.381,0,0,0-9.38-9.38H11.1a9.379,9.379,0,0,0-9.378,9.38V131.669Z" transform="translate(-1.722 -1.742)" fill="#373839"/>
            </g>
          </g>
        </g>
        <g id="Grupo_1017252" data-name="Grupo 1017252" transform="translate(3.771 3.816)" opacity="0.6" style="mix-blend-mode: screen;isolation: isolate">
          <g id="Grupo_1017251" data-name="Grupo 1017251">
            <g id="Grupo_1017250" data-name="Grupo 1017250" clip-path="url(#clip-path-4)">
              <path id="Trazado_714974" data-name="Trazado 714974" d="M13.294,4.458,132.731,1.813a9.377,9.377,0,0,0-1.115-.072H11.1a9.38,9.38,0,0,0-9.378,9.38V192.866a9.383,9.383,0,0,0,.05.966L3.916,13.838a9.379,9.379,0,0,1,9.378-9.38" transform="translate(-1.722 -1.742)" fill="#fff"/>
            </g>
          </g>
        </g>
        <g id="Grupo_1017255" data-name="Grupo 1017255" transform="translate(12.082 12.228)" opacity="0.5" style="mix-blend-mode: multiply;isolation: isolate">
          <g id="Grupo_1017254" data-name="Grupo 1017254">
            <g id="Grupo_1017253" data-name="Grupo 1017253" clip-path="url(#clip-path-4)">
              <path id="Trazado_714975" data-name="Trazado 714975" d="M124.951,194.956,5.514,197.6a9.349,9.349,0,0,0,1.115.072H127.144a9.381,9.381,0,0,0,9.38-9.38V6.547a9.383,9.383,0,0,0-.05-.966l-2.145,179.995a9.377,9.377,0,0,1-9.378,9.38" transform="translate(-5.514 -5.581)" fill="#404644"/>
            </g>
          </g>
        </g>
        <path id="Trazado_714976" data-name="Trazado 714976" d="M131.786,119.581V22.431c0-8.508-3.841-15.405-8.578-15.405H13.02c-4.735,0-8.576,6.9-8.576,15.405v97.15Z" transform="translate(5.293 8.368)" fill="#373839"/>
        <path id="Trazado_714977" data-name="Trazado 714977" d="M132.422,120.69H4.256V22.822C4.256,13.931,8.29,6.7,13.244,6.7H123.432c4.958,0,8.99,7.233,8.99,16.124ZM5.08,119.253H131.6V22.822c0-8.1-3.661-14.686-8.166-14.686H13.244c-4.5,0-8.164,6.588-8.164,14.686Z" transform="translate(5.069 7.977)" fill="#141514"/>
        <path id="Trazado_714978" data-name="Trazado 714978" d="M126.35,111.422V22.6c0-7.778-3.628-14.086-8.1-14.086H14.154c-4.474,0-8.1,6.308-8.1,14.086v88.824Z" transform="translate(7.208 10.138)" fill="#a2a297"/>
        <path id="Trazado_714979" data-name="Trazado 714979" d="M122.435,110.08V23.385c0-7.592-3.475-13.746-7.761-13.746H14.967c-4.283,0-7.758,6.155-7.758,13.746V110.08Z" transform="translate(8.586 11.48)" fill="#cfd9b8"/>
        <g id="Grupo_1017258" data-name="Grupo 1017258" transform="translate(7.293 135.265)" opacity="0.4">
          <g id="Grupo_1017257" data-name="Grupo 1017257">
            <g id="Grupo_1017256" data-name="Grupo 1017256" clip-path="url(#clip-path-6)">
              <path id="Trazado_714980" data-name="Trazado 714980" d="M134.76,61.736H3.413s-5.166,43.612,65.674,43.612c69.736,0,65.674-43.612,65.674-43.612" transform="translate(-3.329 -61.736)" fill="#fff"/>
            </g>
          </g>
        </g>
        <path id="Trazado_714981" data-name="Trazado 714981" d="M63.406,90.289a8.35,8.35,0,1,1-8.35-8.35,8.349,8.349,0,0,1,8.35,8.35" transform="translate(55.628 97.591)" fill="#5f5e5e"/>
        <path id="Trazado_714982" data-name="Trazado 714982" d="M55.28,99.275a8.762,8.762,0,1,1,8.762-8.762,8.772,8.772,0,0,1-8.762,8.762m0-16.7a7.939,7.939,0,1,0,7.94,7.938,7.948,7.948,0,0,0-7.94-7.938" transform="translate(55.404 97.367)" fill="#313130"/>
        <path id="Trazado_714983" data-name="Trazado 714983" d="M59.423,88.886a5.77,5.77,0,1,1-5.769-5.769,5.769,5.769,0,0,1,5.769,5.769" transform="translate(57.03 98.994)" fill="#393938"/>
        <path id="Trazado_714984" data-name="Trazado 714984" d="M53.877,95.293a6.182,6.182,0,1,1,6.181-6.181,6.188,6.188,0,0,1-6.181,6.181m0-11.54a5.358,5.358,0,1,0,5.359,5.359,5.366,5.366,0,0,0-5.359-5.359" transform="translate(56.807 98.77)" fill="#313130"/>
        <path id="Trazado_714985" data-name="Trazado 714985" d="M56.091,87.713A3.611,3.611,0,1,1,52.48,84.1a3.611,3.611,0,0,1,3.611,3.611" transform="translate(58.204 100.167)" fill="#1d1d1b"/>
        <g id="Grupo_1017261" data-name="Grupo 1017261" transform="translate(59.723 146.595)" style="mix-blend-mode: multiply;isolation: isolate">
          <g id="Grupo_1017260" data-name="Grupo 1017260">
            <g id="Grupo_1017259" data-name="Grupo 1017259" clip-path="url(#clip-path-7)">
              <path id="Trazado_714986" data-name="Trazado 714986" d="M48.4,77.479A10.573,10.573,0,1,1,37.83,66.907,10.573,10.573,0,0,1,48.4,77.479" transform="translate(-27.258 -66.907)" fill="#333836"/>
            </g>
          </g>
        </g>
        <path id="Trazado_714987" data-name="Trazado 714987" d="M47.148,76.653A9.747,9.747,0,1,1,37.4,66.907a9.746,9.746,0,0,1,9.748,9.746" transform="translate(32.937 79.688)" fill="#1b3f92"/>
        <path id="Trazado_714988" data-name="Trazado 714988" d="M45.126,75.742A8.438,8.438,0,1,1,36.689,67.3a8.437,8.437,0,0,1,8.438,8.438" transform="translate(33.648 80.161)" fill="#319ae0"/>
        <g id="Grupo_1017264" data-name="Grupo 1017264" transform="translate(61.995 147.591)" style="mix-blend-mode: screen;isolation: isolate">
          <g id="Grupo_1017263" data-name="Grupo 1017263">
            <g id="Grupo_1017262" data-name="Grupo 1017262" clip-path="url(#clip-path-8)">
              <path id="Trazado_714989" data-name="Trazado 714989" d="M37.212,67.891a8.407,8.407,0,0,1,6.034,2.546A8.435,8.435,0,1,0,30.7,81.69a8.436,8.436,0,0,1,6.514-13.8" transform="translate(-28.295 -67.362)" fill="#fff"/>
            </g>
          </g>
        </g>
        <path id="Trazado_714990" data-name="Trazado 714990" d="M35.63,69.174v.99a3.586,3.586,0,1,1-1.961,0v-1a4.594,4.594,0,1,0,1.961.015" transform="translate(35.8 82.37)" fill="#fff"/>
        <path id="Trazado_714991" data-name="Trazado 714991" d="M32.888,74.789a.481.481,0,1,1-.962,0V68.731a.481.481,0,0,1,.962,0Z" transform="translate(38.025 81.289)" fill="#fff"/>
        <g id="Grupo_1017267" data-name="Grupo 1017267" transform="translate(86.52 146.595)" style="mix-blend-mode: multiply;isolation: isolate">
          <g id="Grupo_1017266" data-name="Grupo 1017266">
            <g id="Grupo_1017265" data-name="Grupo 1017265" clip-path="url(#clip-path-7)">
              <path id="Trazado_714992" data-name="Trazado 714992" d="M60.634,77.479A10.573,10.573,0,1,1,50.06,66.907,10.573,10.573,0,0,1,60.634,77.479" transform="translate(-39.488 -66.907)" fill="#333836"/>
            </g>
          </g>
        </g>
        <path id="Trazado_714993" data-name="Trazado 714993" d="M59.359,76.653a9.747,9.747,0,1,1-9.748-9.746,9.746,9.746,0,0,1,9.748,9.746" transform="translate(47.48 79.688)" fill="#f0a84f"/>
        <path id="Trazado_714994" data-name="Trazado 714994" d="M57.338,75.742A8.438,8.438,0,1,1,48.9,67.3a8.437,8.437,0,0,1,8.438,8.438" transform="translate(48.192 80.161)" fill="#fff150"/>
        <g id="Grupo_1017270" data-name="Grupo 1017270" transform="translate(88.75 147.591)" style="mix-blend-mode: screen;isolation: isolate">
          <g id="Grupo_1017269" data-name="Grupo 1017269">
            <g id="Grupo_1017268" data-name="Grupo 1017268" clip-path="url(#clip-path-8)">
              <path id="Trazado_714995" data-name="Trazado 714995" d="M49.423,67.891a8.407,8.407,0,0,1,6.034,2.546A8.435,8.435,0,1,0,42.91,81.69a8.436,8.436,0,0,1,6.514-13.8" transform="translate(-40.506 -67.362)" fill="#fff"/>
            </g>
          </g>
        </g>
        <g id="Grupo_1017273" data-name="Grupo 1017273" transform="translate(110.864 146.595)" style="mix-blend-mode: multiply;isolation: isolate">
          <g id="Grupo_1017272" data-name="Grupo 1017272">
            <g id="Grupo_1017271" data-name="Grupo 1017271" clip-path="url(#clip-path-7)">
              <path id="Trazado_714996" data-name="Trazado 714996" d="M71.745,77.479A10.573,10.573,0,1,1,61.171,66.907,10.573,10.573,0,0,1,71.745,77.479" transform="translate(-50.6 -66.907)" fill="#333836"/>
            </g>
          </g>
        </g>
        <path id="Trazado_714997" data-name="Trazado 714997" d="M70.47,76.653a9.747,9.747,0,1,1-9.748-9.746,9.746,9.746,0,0,1,9.748,9.746" transform="translate(60.714 79.688)" fill="#f0a84f"/>
        <path id="Trazado_714998" data-name="Trazado 714998" d="M68.449,75.742A8.438,8.438,0,1,1,60.012,67.3a8.437,8.437,0,0,1,8.438,8.438" transform="translate(61.426 80.161)" fill="#fff150"/>
        <g id="Grupo_1017276" data-name="Grupo 1017276" transform="translate(113.095 147.591)" style="mix-blend-mode: screen;isolation: isolate">
          <g id="Grupo_1017275" data-name="Grupo 1017275">
            <g id="Grupo_1017274" data-name="Grupo 1017274" clip-path="url(#clip-path-8)">
              <path id="Trazado_714999" data-name="Trazado 714999" d="M60.534,67.891a8.407,8.407,0,0,1,6.034,2.546A8.435,8.435,0,1,0,54.021,81.69a8.436,8.436,0,0,1,6.514-13.8" transform="translate(-51.618 -67.362)" fill="#fff"/>
            </g>
          </g>
        </g>
        <g id="Grupo_1017291" data-name="Grupo 1017291" transform="translate(110.584 76.314)" style="mix-blend-mode: multiply;isolation: isolate">
          <g id="Grupo_1017290" data-name="Grupo 1017290">
            <g id="Grupo_1017289" data-name="Grupo 1017289" clip-path="url(#clip-path-13)">
              <path id="Trazado_715012" data-name="Trazado 715012" d="M59.6,34.83c-2.614.182-5.14.316-7.55.41a1.644,1.644,0,1,0,.125,3.287c2.316-.088,4.737-.217,7.237-.383q.1-1.656.188-3.313" transform="translate(-50.471 -34.83)" fill="#616160"/>
            </g>
          </g>
        </g>
        <g id="Grupo_1017294" data-name="Grupo 1017294" transform="translate(132.103 185.051)" style="mix-blend-mode: multiply;isolation: isolate">
          <g id="Grupo_1017293" data-name="Grupo 1017293">
            <g id="Grupo_1017292" data-name="Grupo 1017292" clip-path="url(#clip-path-14)">
              <path id="Trazado_715013" data-name="Trazado 715013" d="M69.846,84.459c-2.559.145-5.237.357-8.063.62a1.646,1.646,0,0,0,.307,3.278c2.767-.259,5.386-.467,7.883-.609Z" transform="translate(-60.293 -84.458)" fill="#686867"/>
            </g>
          </g>
        </g>
        <rect id="Rectángulo_341303" data-name="Rectángulo 341303" width="10.003" height="3.882" transform="matrix(0.999, -0.038, 0.038, 0.999, 125.862, 185.671)" fill="#434342"/>
        <path id="Trazado_715014" data-name="Trazado 715014" d="M68.067,84.371l.182,4.7-10.819.416-.18-4.7Zm-.673,3.911-.118-3.056-9.174.353.118,3.056Z" transform="translate(68.186 100.488)" fill="#313130"/>
        <g id="Grupo_1017297" data-name="Grupo 1017297" transform="translate(125.862 185.286)" style="mix-blend-mode: multiply;isolation: isolate">
          <g id="Grupo_1017296" data-name="Grupo 1017296">
            <g id="Grupo_1017295" data-name="Grupo 1017295" clip-path="url(#clip-path-15)">
              <rect id="Rectángulo_341304" data-name="Rectángulo 341304" width="10.003" height="1.439" transform="translate(0.001 0.383) rotate(-2.179)" fill="#686867"/>
            </g>
          </g>
        </g>
        <g id="Grupo_1017300" data-name="Grupo 1017300" transform="translate(125.953 187.65)" style="mix-blend-mode: screen;isolation: isolate">
          <g id="Grupo_1017299" data-name="Grupo 1017299">
            <g id="Grupo_1017298" data-name="Grupo 1017298" clip-path="url(#clip-path-16)">
              <rect id="Rectángulo_341306" data-name="Rectángulo 341306" width="10.003" height="0.509" transform="matrix(0.999, -0.039, 0.039, 0.999, 0, 0.387)" fill="#434342"/>
            </g>
          </g>
        </g>
        <path id="Trazado_715015" data-name="Trazado 715015" d="M46.6,85.561l.079,2.051.037.957.011.294.1,2.605.011.294.037.957.079,2.051a4.575,4.575,0,0,0,3.979,2.244l11.2-.432s1.941-.046,2.09-1.742c.1-1.069,2.877-2.248,4.928-2.978,1.209-.429,2.163-.7,2.163-.7l-.149-3.872s-.971-.2-2.211-.535c-2.1-.57-4.965-1.532-5.14-2.59-.28-1.681-2.22-1.578-2.22-1.578l-11.2.432A4.579,4.579,0,0,0,46.6,85.561" transform="translate(55.496 98.36)" fill="#434342"/>
        <path id="Trazado_715016" data-name="Trazado 715016" d="M71.78,87.5l.162,4.2-.311.088c-.009,0-.957.276-2.138.695-4.347,1.547-4.641,2.461-4.656,2.627a2.438,2.438,0,0,1-2.491,2.117l-11.2.432a4.956,4.956,0,0,1-4.358-2.463l-.048-.175-.32-9.389a4.96,4.96,0,0,1,4.143-2.791L61.782,82.4a2.44,2.44,0,0,1,2.64,1.922c.026.164.39,1.052,4.842,2.261,1.212.326,2.176.526,2.187.528l.316.064Zm-.686,3.585-.125-3.232c-.386-.085-1.091-.248-1.919-.473-5.186-1.407-5.377-2.546-5.44-2.918-.217-1.3-1.727-1.238-1.79-1.234l-11.209.432a4.16,4.16,0,0,0-3.4,2.217l.348,9.005a4.129,4.129,0,0,0,3.567,1.95L62.321,96.4c.068,0,1.582-.064,1.7-1.369.035-.377.136-1.525,5.2-3.328.808-.287,1.5-.5,1.878-.618" transform="translate(55.291 98.136)" fill="#313130"/>
        <g id="Grupo_1017303" data-name="Grupo 1017303" transform="translate(116.489 180.946)" style="mix-blend-mode: multiply;isolation: isolate">
          <g id="Grupo_1017302" data-name="Grupo 1017302">
            <g id="Grupo_1017301" data-name="Grupo 1017301" clip-path="url(#clip-path-17)">
              <path id="Trazado_715017" data-name="Trazado 715017" d="M55.86,89.3c.147,3.131-.517,5.478-2.465,7.318l.907-.035s1.941-.046,2.09-1.744c.1-1.069,2.877-2.248,4.93-2.978,1.207-.429,2.16-.7,2.16-.7l-.149-3.874s-.971-.2-2.209-.532c-2.1-.57-4.967-1.532-5.142-2.59-.28-1.681-2.22-1.578-2.22-1.578l-.6.022A12.2,12.2,0,0,1,55.86,89.3" transform="translate(-53.165 -82.585)" fill="#686867"/>
            </g>
          </g>
        </g>
        <g id="Grupo_1017309" data-name="Grupo 1017309" transform="translate(103.516 185.798)" opacity="0.8" style="mix-blend-mode: screen;isolation: isolate">
          <g id="Grupo_1017308" data-name="Grupo 1017308">
            <g id="Grupo_1017307" data-name="Grupo 1017307" clip-path="url(#clip-path-18)">
              <g id="Grupo_1017306" data-name="Grupo 1017306" style="mix-blend-mode: screen;isolation: isolate">
                <g id="Grupo_1017305" data-name="Grupo 1017305">
                  <g id="Grupo_1017304" data-name="Grupo 1017304" clip-path="url(#clip-path-18)">
                    <path id="Trazado_715018" data-name="Trazado 715018" d="M48.033,90.99l-.787-6.19.042,1.133.031.762.009.232L47.406,89l.009.234.031.76.064,1.632a3.64,3.64,0,0,0,3.164,1.786l8.913-.344a2.306,2.306,0,0,0,.46-.074L51.2,92.775a3.642,3.642,0,0,1-3.166-1.786" transform="translate(-47.245 -84.799)" fill="#434342"/>
                  </g>
                </g>
              </g>
            </g>
          </g>
        </g>
        <path id="Trazado_715019" data-name="Trazado 715019" d="M132.672,83.427c-2.861-8.58-5.8-17.406-5.968-31.084h-2.351c.188,14.476,3.337,23.946,6.179,32.471,3.843,11.531,7.162,21.492,3.208,41.106-1.041,5.155-3.365,11.948-6.77,15.547-5.186,5.482-12.916,3.519-18.488.909-3.977-1.862-7.3-4.976-10.815-8.273a55.449,55.449,0,0,0-9.332-7.563c-7.809-4.6-15.8-4.662-26.972-3.21-.649.085-1.124.9-1.065,1.792s.635,1.569,1.286,1.486c10.791-1.4,18.479-1.367,25.832,2.964a52.769,52.769,0,0,1,8.931,7.263c3.492,3.271,7.1,6.656,11.38,8.661,8.891,4.165,15.843,3.692,20.67-1.409,3.869-4.088,6.47-11.606,7.614-17.276a83.394,83.394,0,0,0,1.838-18.9c-.27-9.765-2.68-16.994-5.177-24.489" transform="translate(71.81 62.342)" fill="#a5a5a5"/>
        <path id="Trazado_715020" data-name="Trazado 715020" d="M101.351,21.05l-2.279-.094-8.127-.34-2.281-.1-1.3,9.463,5.99.25,2.932.123,5.988.25Z" transform="translate(104.052 24.439)" fill="#616160"/>
        <path id="Trazado_715021" data-name="Trazado 715021" d="M102.487,30.861l-14.91-.622a.793.793,0,0,1-.289-.064c-.074-.035-.114-.081-.107-.127l1.3-9.461c.013-.088.191-.151.405-.142l12.686.53c.215.009.39.085.4.173l.925,9.555c0,.046-.039.09-.114.118a.757.757,0,0,1-.294.039m-14.478-.936,14.064.587-.892-9.222-11.917-.5Z" transform="translate(103.833 24.349)" fill="#1d1d1b"/>
        <g id="Grupo_1017312" data-name="Grupo 1017312" transform="translate(191.415 53.332)" style="mix-blend-mode: multiply;isolation: isolate">
          <g id="Grupo_1017311" data-name="Grupo 1017311">
            <g id="Grupo_1017310" data-name="Grupo 1017310" clip-path="url(#clip-path-20)">
              <path id="Trazado_715022" data-name="Trazado 715022" d="M87.513,24.341l-.149,1.089,14.908.622-.105-1.1Z" transform="translate(-87.363 -24.341)" fill="#616160"/>
            </g>
          </g>
        </g>
        <path id="Trazado_715023" data-name="Trazado 715023" d="M95.6,87.425,100.8,25.682l-13-.543,2.73,62.074Z" transform="translate(104.563 29.941)" fill="#616160"/>
        <path id="Trazado_715024" data-name="Trazado 715024" d="M95.819,87.681l-5.081-.21c-.219-.011-.4-.09-.4-.18l-2.73-62.074c0-.044.039-.085.116-.116a.78.78,0,0,1,.289-.037l13.006.543a.793.793,0,0,1,.287.061c.074.035.114.081.112.125L96.224,87.536c-.007.09-.186.156-.405.145m-4.682-.526,4.3.18L100.6,25.92l-12.178-.508Z" transform="translate(104.344 29.85)" fill="#1d1d1b"/>
        <g id="Grupo_1017315" data-name="Grupo 1017315" transform="translate(192.355 55.079)" style="mix-blend-mode: multiply;isolation: isolate">
          <g id="Grupo_1017314" data-name="Grupo 1017314">
            <g id="Grupo_1017313" data-name="Grupo 1017313" clip-path="url(#clip-path-21)">
              <path id="Trazado_715025" data-name="Trazado 715025" d="M100.654,27.393l.145-1.711-13.006-.543.077,1.722Z" transform="translate(-87.793 -25.139)" fill="#616160"/>
            </g>
          </g>
        </g>
        <path id="Trazado_715026" data-name="Trazado 715026" d="M97.422,52.446l-9.31-.388.022-1.071,9.31.388Z" transform="translate(104.944 60.727)" fill="#616160"/>
        <path id="Trazado_715027" data-name="Trazado 715027" d="M97.636,52.7l-9.31-.39c-.221-.009-.4-.09-.4-.182l.022-1.069c0-.092.184-.158.405-.149l9.31.388c.221.009.4.092.4.182l-.022,1.071c0,.092-.182.158-.405.149m-8.9-.7,8.5.355.013-.741-8.5-.353Z" transform="translate(104.724 60.637)" fill="#1d1d1b"/>
        <path id="Trazado_715028" data-name="Trazado 715028" d="M97.408,53.16l-9.31-.388L88.12,51.7l9.31.388Z" transform="translate(104.927 61.577)" fill="#616160"/>
        <path id="Trazado_715029" data-name="Trazado 715029" d="M97.622,53.417l-9.31-.39c-.221-.009-.4-.09-.4-.182l.022-1.069c0-.092.184-.158.405-.149l9.31.388c.221.009.4.092.4.182l-.022,1.071c0,.092-.182.158-.405.149m-8.9-.7,8.506.355.013-.741-8.5-.355Z" transform="translate(104.708 61.487)" fill="#1d1d1b"/>
        <path id="Trazado_715030" data-name="Trazado 715030" d="M97.391,53.987l-9.31-.388.022-1.071,9.31.39Z" transform="translate(104.907 62.561)" fill="#616160"/>
        <path id="Trazado_715031" data-name="Trazado 715031" d="M97.606,54.242l-9.31-.39c-.221-.009-.4-.09-.4-.182L87.92,52.6c0-.092.184-.158.405-.149l9.31.388c.221.009.4.092.4.182l-.022,1.071c0,.092-.182.158-.405.149m-8.9-.7,8.506.355.013-.738-8.5-.355Z" transform="translate(104.689 62.471)" fill="#1d1d1b"/>
        <path id="Trazado_715032" data-name="Trazado 715032" d="M97.377,54.7l-9.31-.388.022-1.071,9.31.39Z" transform="translate(104.89 63.412)" fill="#616160"/>
        <path id="Trazado_715033" data-name="Trazado 715033" d="M97.592,54.956l-9.31-.39c-.221-.009-.4-.09-.4-.182l.022-1.069c0-.092.184-.158.405-.149l9.31.388c.221.009.4.092.4.182L98,54.808c0,.092-.182.158-.405.149m-8.9-.7,8.506.355.013-.738-8.5-.355Z" transform="translate(104.672 63.322)" fill="#1d1d1b"/>
        <path id="Trazado_715034" data-name="Trazado 715034" d="M107.153,27.084,85.907,26.2l.033-1.626,21.246.887Z" transform="translate(102.317 29.265)" fill="#616160"/>
        <path id="Trazado_715035" data-name="Trazado 715035" d="M107.37,27.34l-21.249-.887c-.221-.009-.4-.09-.4-.182l.033-1.626c0-.092.184-.158.405-.149l21.246.887c.223.009.4.09.4.182l-.031,1.626c0,.092-.184.158-.405.149m-20.839-1.2,20.442.852L107,25.7l-20.442-.852Z" transform="translate(102.098 29.175)" fill="#1d1d1b"/>
        <g id="Grupo_1017318" data-name="Grupo 1017318" transform="translate(197.415 45.216)" style="mix-blend-mode: multiply;isolation: isolate">
          <g id="Grupo_1017317" data-name="Grupo 1017317">
            <g id="Grupo_1017316" data-name="Grupo 1017316" clip-path="url(#clip-path-22)">
              <path id="Trazado_715036" data-name="Trazado 715036" d="M98.967,30.01l-.879-9.1-6.54-.274L90.1,93.331l4.853.2.02-1.071-2.086-.085.042-.493,2.055.085.022-1.071-1.987-.083.061-.738,1.939.081.022-1.069-1.871-.079.042-.493,1.84.077.02-1.069L93.3,87.45,98,31.6l4.156.175.033-1.628Z" transform="translate(-90.102 -20.637)" fill="#616160"/>
            </g>
          </g>
        </g>
        <g id="Grupo_1017321" data-name="Grupo 1017321" transform="translate(194.068 57.446)" opacity="0.6" style="mix-blend-mode: screen;isolation: isolate">
          <g id="Grupo_1017320" data-name="Grupo 1017320">
            <g id="Grupo_1017319" data-name="Grupo 1017319" clip-path="url(#clip-path-23)">
              <path id="Trazado_715037" data-name="Trazado 715037" d="M88.574,26.219l1.742,54.026-.335-53.967Z" transform="translate(-88.574 -26.219)" fill="#fff"/>
            </g>
          </g>
        </g>
        <g id="Grupo_1017324" data-name="Grupo 1017324" transform="translate(193.288 45.687)" opacity="0.6" style="mix-blend-mode: screen;isolation: isolate">
          <g id="Grupo_1017323" data-name="Grupo 1017323">
            <g id="Grupo_1017322" data-name="Grupo 1017322" clip-path="url(#clip-path-24)">
              <path id="Trazado_715038" data-name="Trazado 715038" d="M89.232,20.852l-1.014,7.373,1.516.064.9-7.377Z" transform="translate(-88.218 -20.852)" fill="#fff"/>
            </g>
          </g>
        </g>
        <g id="Grupo_1017327" data-name="Grupo 1017327" transform="translate(24.015 39.854)" style="mix-blend-mode: multiply;isolation: isolate">
          <g id="Grupo_1017326" data-name="Grupo 1017326">
            <g id="Grupo_1017325" data-name="Grupo 1017325" clip-path="url(#clip-path-25)">
              <path id="Trazado_715039" data-name="Trazado 715039" d="M34.871,29.423,32.989,31.3l-1.117-1.115V18.426l3,3Z" transform="translate(13.945 -17.908)" fill="#616160"/>
              <path id="Trazado_715040" data-name="Trazado 715040" d="M34.871,34.689l-3,3V25.973l1.117-1.157,1.882,1.876Z" transform="translate(13.945 -10.298)" fill="#616160"/>
              <path id="Trazado_715041" data-name="Trazado 715041" d="M47.764,18.19l-2.96,3H35.087l-2.96-3Z" transform="translate(14.248 -18.19)" fill="#616160"/>
              <path id="Trazado_715042" data-name="Trazado 715042" d="M47.764,32.579H32.127l2.96-3H44.8Z" transform="translate(14.248 -4.627)" fill="#616160"/>
              <path id="Trazado_715043" data-name="Trazado 715043" d="M41.15,30.184l-1.1,1.115-1.9-1.876v-8l3-3Z" transform="translate(21.422 -17.908)" fill="#616160"/>
              <path id="Trazado_715044" data-name="Trazado 715044" d="M41.15,37.69l-3-3v-8l1.9-1.876,1.1,1.157Z" transform="translate(21.422 -10.298)" fill="#616160"/>
              <path id="Trazado_715045" data-name="Trazado 715045" d="M44.247,29.423,42.367,31.3,41.25,30.183V18.426l3,3Z" transform="translate(25.114 -17.908)" fill="#616160"/>
              <path id="Trazado_715046" data-name="Trazado 715046" d="M44.247,34.689l-3,3V25.973l1.117-1.157,1.88,1.876Z" transform="translate(25.114 -10.298)" fill="#616160"/>
              <path id="Trazado_715047" data-name="Trazado 715047" d="M57.142,18.19l-2.96,3H44.465l-2.96-3Z" transform="translate(25.417 -18.19)" fill="#616160"/>
              <path id="Trazado_715048" data-name="Trazado 715048" d="M57.142,32.579H41.5l2.96-3h9.717Z" transform="translate(25.417 -4.627)" fill="#616160"/>
              <path id="Trazado_715049" data-name="Trazado 715049" d="M50.525,30.184,49.432,31.3l-1.9-1.876v-8l3-3Z" transform="translate(32.592 -17.908)" fill="#616160"/>
              <path id="Trazado_715050" data-name="Trazado 715050" d="M50.525,37.69l-3-3v-8l1.9-1.876,1.093,1.157Z" transform="translate(32.592 -10.298)" fill="#616160"/>
              <path id="Trazado_715051" data-name="Trazado 715051" d="M23.188,29.423,21.308,31.3l-1.12-1.115V18.426l3,3Z" transform="translate(0.03 -17.908)" fill="#616160"/>
              <path id="Trazado_715052" data-name="Trazado 715052" d="M23.188,34.689l-3,3V25.973l1.12-1.157,1.88,1.876Z" transform="translate(0.03 -10.298)" fill="#616160"/>
              <path id="Trazado_715053" data-name="Trazado 715053" d="M36.081,18.19l-2.96,3H23.4l-2.96-3Z" transform="translate(0.334 -18.19)" fill="#616160"/>
              <path id="Trazado_715054" data-name="Trazado 715054" d="M36.081,32.579H20.444l2.96-3h9.717Z" transform="translate(0.334 -4.627)" fill="#616160"/>
              <path id="Trazado_715055" data-name="Trazado 715055" d="M29.467,30.184l-1.1,1.115-1.9-1.876v-8l3-3Z" transform="translate(7.507 -17.908)" fill="#616160"/>
              <path id="Trazado_715056" data-name="Trazado 715056" d="M29.467,37.69l-3-3v-8l1.9-1.876,1.1,1.157Z" transform="translate(7.507 -10.298)" fill="#616160"/>
              <path id="Trazado_715057" data-name="Trazado 715057" d="M13.96,29.423,12.078,31.3l-1.117-1.115V18.426l3,3Z" transform="translate(-10.961 -17.908)" fill="#616160"/>
              <path id="Trazado_715058" data-name="Trazado 715058" d="M13.96,34.689l-3,3V25.973l1.117-1.157,1.882,1.876Z" transform="translate(-10.961 -10.298)" fill="#616160"/>
              <path id="Trazado_715059" data-name="Trazado 715059" d="M26.851,18.19l-2.96,3H14.174l-2.958-3Z" transform="translate(-10.657 -18.19)" fill="#616160"/>
              <path id="Trazado_715060" data-name="Trazado 715060" d="M26.851,32.579H11.216l2.958-3h9.717Z" transform="translate(-10.657 -4.627)" fill="#616160"/>
              <path id="Trazado_715061" data-name="Trazado 715061" d="M20.239,30.184l-1.1,1.115-1.9-1.876v-8l3-3Z" transform="translate(-3.483 -17.908)" fill="#616160"/>
              <path id="Trazado_715062" data-name="Trazado 715062" d="M20.239,37.69l-3-3v-8l1.9-1.876,1.1,1.157Z" transform="translate(-3.483 -10.298)" fill="#616160"/>
              <rect id="Rectángulo_341316" data-name="Rectángulo 341316" width="2.546" height="2.546" transform="translate(39.864 25.405)" fill="#616160"/>
              <path id="Trazado_715063" data-name="Trazado 715063" d="M61.967,33.412l1.93.267A7.96,7.96,0,0,1,61.23,37.5,6.454,6.454,0,0,1,57.3,38.791a5.57,5.57,0,0,1-4.211-1.619,6.438,6.438,0,0,1-1.558-4.647A9.26,9.26,0,0,1,53.9,26.009a6.832,6.832,0,0,1,5.243-2.294A5.526,5.526,0,0,1,62.9,24.957,4.943,4.943,0,0,1,64.563,28.3l-1.821.167a3.927,3.927,0,0,0-1.19-2.36,3.4,3.4,0,0,0-2.322-.782A5.049,5.049,0,0,0,54.9,27.7a8.27,8.27,0,0,0-1.433,4.862A4.843,4.843,0,0,0,54.576,36a3.746,3.746,0,0,0,2.875,1.188,4.247,4.247,0,0,0,2.734-.986,5.594,5.594,0,0,0,1.781-2.785" transform="translate(37.362 -11.609)" fill="#616160"/>
              <path id="Trazado_715064" data-name="Trazado 715064" d="M53.819,23.584a1.309,1.309,0,1,1-1.308-1.306,1.309,1.309,0,0,1,1.308,1.306" transform="translate(36.966 -13.321)" fill="#616160"/>
            </g>
          </g>
        </g>
        <path id="Trazado_715065" data-name="Trazado 715065" d="M36.99,49.668l-1.5,1.494-.892-.89V40.906L36.99,43.3Z" transform="translate(41.212 48.72)" fill="#616160"/>
        <path id="Trazado_715066" data-name="Trazado 715066" d="M36.99,53.861,34.6,56.252V46.92L35.494,46l1.5,1.494Z" transform="translate(41.212 54.782)" fill="#616160"/>
        <path id="Trazado_715067" data-name="Trazado 715067" d="M47.261,40.717,44.9,43.105H37.163l-2.358-2.388Z" transform="translate(41.454 48.495)" fill="#616160"/>
        <path id="Trazado_715068" data-name="Trazado 715068" d="M47.261,52.178H34.805l2.358-2.388H44.9Z" transform="translate(41.454 59.301)" fill="#616160"/>
        <path id="Trazado_715069" data-name="Trazado 715069" d="M41.991,50.272l-.872.892-1.516-1.5V43.3l2.388-2.393Z" transform="translate(47.168 48.72)" fill="#616160"/>
        <path id="Trazado_715070" data-name="Trazado 715070" d="M41.991,56.252,39.6,53.861V47.49L41.119,46l.872.922Z" transform="translate(47.168 54.782)" fill="#616160"/>
        <path id="Trazado_715071" data-name="Trazado 715071" d="M44.46,49.668l-1.5,1.494-.892-.89V40.906L44.46,43.3Z" transform="translate(50.109 48.72)" fill="#616160"/>
        <path id="Trazado_715072" data-name="Trazado 715072" d="M44.46,53.861l-2.388,2.39V46.92L42.964,46l1.5,1.494Z" transform="translate(50.109 54.782)" fill="#616160"/>
        <path id="Trazado_715073" data-name="Trazado 715073" d="M54.731,40.717l-2.358,2.388H44.633l-2.358-2.388Z" transform="translate(50.351 48.495)" fill="#616160"/>
        <path id="Trazado_715074" data-name="Trazado 715074" d="M54.731,52.178H42.275l2.358-2.388h7.741Z" transform="translate(50.351 59.301)" fill="#616160"/>
        <path id="Trazado_715075" data-name="Trazado 715075" d="M49.462,50.272l-.87.892-1.518-1.5V43.3l2.388-2.393Z" transform="translate(56.065 48.72)" fill="#616160"/>
        <path id="Trazado_715076" data-name="Trazado 715076" d="M49.462,56.252l-2.388-2.39V47.49L48.592,46l.87.922Z" transform="translate(56.065 54.782)" fill="#616160"/>
      </g>
    </g>
    <text id="_" data-name="%" transform="translate(108.411 110.429)" font-size="19" font-family="MyriadPro-Regular, Myriad Pro"><tspan x="0" y="0">%</tspan></text>
  </g>
</svg>
