<svg xmlns="http://www.w3.org/2000/svg" width="672" height="394" viewBox="0 0 672 394">
  <g id="Grupo_1018048" data-name="Grupo 1018048" transform="translate(-460 -2586)">
    <path id="Trazado_718281" data-name="Trazado 718281" d="M9.789,7.742H6.375V17H3.633V7.742H.281V5.625H9.789ZM14.273,17a2.973,2.973,0,0,1-.25-.758,2.448,2.448,0,0,1-2.031.914,3,3,0,0,1-2.031-.723,2.3,2.3,0,0,1-.836-1.816,2.364,2.364,0,0,1,1.016-2.078,5.174,5.174,0,0,1,2.953-.7h.813v-.448q0-1.17-1.008-1.17a.824.824,0,0,0-.937.926H9.328a2.36,2.36,0,0,1,1.043-1.99,4.383,4.383,0,0,1,2.66-.765,3.843,3.843,0,0,1,2.555.789,2.743,2.743,0,0,1,.961,2.164v3.742a3.832,3.832,0,0,0,.359,1.781V17Zm-1.648-1.719a1.469,1.469,0,0,0,.816-.211,1.322,1.322,0,0,0,.465-.477V13.242h-.766q-1.375,0-1.375,1.234a.754.754,0,0,0,.242.582A.876.876,0,0,0,12.625,15.281Zm13.227-2.437a5.152,5.152,0,0,1-.859,3.2,2.878,2.878,0,0,1-2.422,1.117,2.5,2.5,0,0,1-2.078-1.023L20.383,17H18.023V5h2.633V9.227a2.41,2.41,0,0,1,1.9-.836,2.879,2.879,0,0,1,2.438,1.133,5.179,5.179,0,0,1,.859,3.188Zm-2.641-.168a3.437,3.437,0,0,0-.324-1.735,1.093,1.093,0,0,0-1-.519,1.261,1.261,0,0,0-1.234.679v3.354a1.268,1.268,0,0,0,1.25.671,1.118,1.118,0,0,0,1.18-.9A6.5,6.5,0,0,0,23.211,12.676ZM29.789,17H27.148V5h2.641Zm6.383,0a2.973,2.973,0,0,1-.25-.758,2.448,2.448,0,0,1-2.031.914,3,3,0,0,1-2.031-.723,2.3,2.3,0,0,1-.836-1.816,2.364,2.364,0,0,1,1.016-2.078,5.174,5.174,0,0,1,2.953-.7H35.8v-.448q0-1.17-1.008-1.17a.824.824,0,0,0-.937.926H31.227a2.36,2.36,0,0,1,1.043-1.99,4.383,4.383,0,0,1,2.66-.765,3.843,3.843,0,0,1,2.555.789,2.743,2.743,0,0,1,.961,2.164v3.742a3.832,3.832,0,0,0,.359,1.781V17Zm-1.648-1.719a1.469,1.469,0,0,0,.816-.211,1.322,1.322,0,0,0,.465-.477V13.242h-.766q-1.375,0-1.375,1.234a.754.754,0,0,0,.242.582A.876.876,0,0,0,34.523,15.281ZM49.68,17H47.039V8.594l-2.594.758v-2l4.992-1.727h.242Zm5.1-2.555a1.5,1.5,0,0,1,1.039.371,1.3,1.3,0,0,1,0,1.9,1.639,1.639,0,0,1-2.082,0,1.294,1.294,0,0,1,0-1.891A1.486,1.486,0,0,1,54.781,14.445Zm19.508-1.07a4.535,4.535,0,0,1-1.6,2.8,4.476,4.476,0,0,1-3.043.984,3.544,3.544,0,0,1-1.844-.52,3.283,3.283,0,0,1-1.227-1.43,5.34,5.34,0,0,1-.484-2.066,6.623,6.623,0,0,1,.055-1.25l.133-.937a7.076,7.076,0,0,1,1.8-4.043A4.544,4.544,0,0,1,71.57,5.469,3.4,3.4,0,0,1,74.109,6.5,4.117,4.117,0,0,1,75.1,9.289H73.641q-.1-2.391-1.875-2.578L71.508,6.7a3.019,3.019,0,0,0-2.465,1.1A5.942,5.942,0,0,0,67.766,10.9l-.172,1.18-.047.688a3.867,3.867,0,0,0,.512,2.285,1.929,1.929,0,0,0,1.66.879,2.924,2.924,0,0,0,1.965-.57A3.8,3.8,0,0,0,72.867,13.4Zm5.984-4.984a3.047,3.047,0,0,1,1.82.578,3.285,3.285,0,0,1,1.121,1.551,4.8,4.8,0,0,1,.246,2.16l-.016.172a5.685,5.685,0,0,1-.734,2.23A4.309,4.309,0,0,1,81.2,16.633a3.7,3.7,0,0,1-2.039.523,3.052,3.052,0,0,1-1.816-.578,3.21,3.21,0,0,1-1.113-1.531,4.931,4.931,0,0,1-.25-2.133,5.76,5.76,0,0,1,.711-2.359,4.409,4.409,0,0,1,1.527-1.621A3.652,3.652,0,0,1,80.273,8.391ZM77.4,12.922a4.8,4.8,0,0,0,0,1.023,2.507,2.507,0,0,0,.551,1.469,1.653,1.653,0,0,0,1.262.57,2.253,2.253,0,0,0,1.3-.348,2.919,2.919,0,0,0,1-1.121,4.721,4.721,0,0,0,.523-1.664,7.5,7.5,0,0,0,.023-1.211,2.6,2.6,0,0,0-.57-1.492,1.69,1.69,0,0,0-1.266-.578,2.3,2.3,0,0,0-1.859.859,4.245,4.245,0,0,0-.945,2.313Zm9.914-4.383-.2,1.07A3.333,3.333,0,0,1,89.7,8.391a2.1,2.1,0,0,1,1.766.828,3.217,3.217,0,0,1,.422,2.242L90.969,17H89.555l.93-5.557a2.962,2.962,0,0,0,.008-.71A1.168,1.168,0,0,0,89.2,9.617a2.661,2.661,0,0,0-2.234,1.358L85.922,17H84.508l1.469-8.453Zm6.242,4.219a6.578,6.578,0,0,1,.711-2.328,4.03,4.03,0,0,1,1.367-1.555,3.127,3.127,0,0,1,1.789-.492,2.64,2.64,0,0,1,2.172,1.031L100.406,5h1.414L99.742,17H98.453l.148-.906a3.116,3.116,0,0,1-2.469,1.063,2.335,2.335,0,0,1-1.867-.918,4,4,0,0,1-.75-2.379A7.6,7.6,0,0,1,93.555,12.758Zm1.359.808a2.929,2.929,0,0,0,.4,1.732,1.437,1.437,0,0,0,1.234.632,2.554,2.554,0,0,0,2.18-1.233l.672-3.9a1.754,1.754,0,0,0-1.7-1.186,2.143,2.143,0,0,0-1.473.5,3.256,3.256,0,0,0-.969,1.475A6.082,6.082,0,0,0,94.914,13.565ZM103.508,17H102.1l1.469-8.453h1.406Zm1.164-11.539a.774.774,0,0,1,.6.215.8.8,0,0,1,.238.605.834.834,0,0,1-.836.852.779.779,0,0,1-.6-.211.764.764,0,0,1-.227-.594.886.886,0,0,1,.234-.609A.826.826,0,0,1,104.672,5.461Zm4.719,10.523a2.145,2.145,0,0,0,1.367-.441,2.1,2.1,0,0,0,.8-1.2l1.336-.008a3.014,3.014,0,0,1-.637,1.453,3.68,3.68,0,0,1-2.926,1.367,3.017,3.017,0,0,1-1.785-.551,3.084,3.084,0,0,1-1.074-1.492,4.972,4.972,0,0,1-.234-2.152l.039-.391a5.605,5.605,0,0,1,.711-2.18,4.11,4.11,0,0,1,1.469-1.5,3.648,3.648,0,0,1,2-.5,2.857,2.857,0,0,1,2.125.891,3.08,3.08,0,0,1,.8,2.18l-1.32-.008a2.029,2.029,0,0,0-.461-1.34,1.607,1.607,0,0,0-1.2-.543,2.254,2.254,0,0,0-1.832.82,4.3,4.3,0,0,0-.91,2.359l-.023.2a6.776,6.776,0,0,0-.016,1.031,2.355,2.355,0,0,0,.516,1.445A1.656,1.656,0,0,0,109.391,15.984ZM115.555,17h-1.406l1.469-8.453h1.406Zm1.164-11.539a.774.774,0,0,1,.6.215.8.8,0,0,1,.238.605.834.834,0,0,1-.836.852.779.779,0,0,1-.6-.211.764.764,0,0,1-.227-.594.886.886,0,0,1,.234-.609A.826.826,0,0,1,116.719,5.461Zm5.844,2.93a3.047,3.047,0,0,1,1.82.578A3.285,3.285,0,0,1,125.5,10.52a4.8,4.8,0,0,1,.246,2.16l-.016.172a5.685,5.685,0,0,1-.734,2.23,4.309,4.309,0,0,1-1.516,1.551,3.7,3.7,0,0,1-2.039.523,3.052,3.052,0,0,1-1.816-.578,3.21,3.21,0,0,1-1.113-1.531,4.931,4.931,0,0,1-.25-2.133,5.76,5.76,0,0,1,.711-2.359A4.409,4.409,0,0,1,120.5,8.934,3.652,3.652,0,0,1,122.563,8.391Zm-2.875,4.531a4.8,4.8,0,0,0,0,1.023,2.507,2.507,0,0,0,.551,1.469,1.653,1.653,0,0,0,1.262.57,2.253,2.253,0,0,0,1.3-.348,2.919,2.919,0,0,0,1-1.121,4.721,4.721,0,0,0,.523-1.664,7.5,7.5,0,0,0,.023-1.211,2.6,2.6,0,0,0-.57-1.492,1.69,1.69,0,0,0-1.266-.578,2.3,2.3,0,0,0-1.859.859,4.245,4.245,0,0,0-.945,2.313ZM129.6,8.539l-.2,1.07a3.333,3.333,0,0,1,2.594-1.219,2.1,2.1,0,0,1,1.766.828,3.217,3.217,0,0,1,.422,2.242L133.258,17h-1.414l.93-5.557a2.962,2.962,0,0,0,.008-.71,1.168,1.168,0,0,0-1.289-1.116,2.661,2.661,0,0,0-2.234,1.358L128.211,17H126.8l1.469-8.453Zm9.492,8.617a3.048,3.048,0,0,1-2.469-1.164,4.006,4.006,0,0,1-.75-2.9l.039-.336a5.624,5.624,0,0,1,.746-2.3,4.339,4.339,0,0,1,1.5-1.566,3.491,3.491,0,0,1,1.906-.5,2.688,2.688,0,0,1,2.047.867,3.566,3.566,0,0,1,.813,2.266,6.621,6.621,0,0,1-.031,1.016l-.086.648h-5.523a2.855,2.855,0,0,0,.379,1.953,1.8,1.8,0,0,0,1.551.836,3.007,3.007,0,0,0,2.313-1.125l.813.688a3.718,3.718,0,0,1-1.371,1.2A3.886,3.886,0,0,1,139.094,17.156Zm.9-7.586a2.066,2.066,0,0,0-1.527.594A4.22,4.22,0,0,0,137.43,12l4.109.008.031-.125a2.313,2.313,0,0,0-.316-1.637A1.488,1.488,0,0,0,139.992,9.57Zm8.977,5.141q.117-.875-.961-1.234l-1.469-.43q-1.859-.641-1.8-2.125a2.341,2.341,0,0,1,1.02-1.832,3.631,3.631,0,0,1,2.27-.7,3.027,3.027,0,0,1,2.082.746,2.363,2.363,0,0,1,.77,1.9l-1.406-.008a1.319,1.319,0,0,0-.4-1.031,1.576,1.576,0,0,0-1.1-.414,2.059,2.059,0,0,0-1.266.359,1.316,1.316,0,0,0-.57.922q-.1.734.9,1.07l.711.2a4.577,4.577,0,0,1,2.063.977,1.865,1.865,0,0,1,.563,1.492,2.37,2.37,0,0,1-.516,1.375,2.948,2.948,0,0,1-1.25.895,4.18,4.18,0,0,1-1.664.285,3.3,3.3,0,0,1-2.219-.785,2.427,2.427,0,0,1-.844-1.98l1.414.008a1.5,1.5,0,0,0,.453,1.141,1.732,1.732,0,0,0,1.242.43,2.436,2.436,0,0,0,1.336-.324A1.247,1.247,0,0,0,148.969,14.711Zm7.172-1.953a6.578,6.578,0,0,1,.711-2.328,4.03,4.03,0,0,1,1.367-1.555,3.127,3.127,0,0,1,1.789-.492,2.64,2.64,0,0,1,2.172,1.031L162.992,5h1.414l-2.078,12h-1.289l.148-.906a3.116,3.116,0,0,1-2.469,1.063,2.335,2.335,0,0,1-1.867-.918,4,4,0,0,1-.75-2.379A7.6,7.6,0,0,1,156.141,12.758Zm1.359.808a2.929,2.929,0,0,0,.4,1.732,1.437,1.437,0,0,0,1.234.632,2.554,2.554,0,0,0,2.18-1.233l.672-3.9a1.754,1.754,0,0,0-1.7-1.186,2.143,2.143,0,0,0-1.473.5,3.256,3.256,0,0,0-.969,1.475A6.082,6.082,0,0,0,157.5,13.565Zm10.719,3.591a3.048,3.048,0,0,1-2.469-1.164,4.006,4.006,0,0,1-.75-2.9l.039-.336a5.624,5.624,0,0,1,.746-2.3,4.339,4.339,0,0,1,1.5-1.566,3.491,3.491,0,0,1,1.906-.5,2.688,2.688,0,0,1,2.047.867,3.566,3.566,0,0,1,.813,2.266,6.621,6.621,0,0,1-.031,1.016l-.086.648h-5.523a2.855,2.855,0,0,0,.379,1.953,1.8,1.8,0,0,0,1.551.836,3.007,3.007,0,0,0,2.313-1.125l.813.688a3.718,3.718,0,0,1-1.371,1.2A3.886,3.886,0,0,1,168.219,17.156Zm.9-7.586a2.066,2.066,0,0,0-1.527.594A4.22,4.22,0,0,0,166.555,12l4.109.008.031-.125a2.313,2.313,0,0,0-.316-1.637A1.488,1.488,0,0,0,169.117,9.57Zm11.4-3.07-.359,2.047H181.7l-.2,1.117h-1.531l-.883,5.258a1.833,1.833,0,0,0-.008.375.6.6,0,0,0,.664.609,4.05,4.05,0,0,0,.688-.078l-.109,1.18a3.847,3.847,0,0,1-1.031.141,1.476,1.476,0,0,1-1.266-.621A2.4,2.4,0,0,1,177.7,14.9l.859-5.234h-1.492l.2-1.117h1.492l.359-2.047Zm5.07,10.656a3.048,3.048,0,0,1-2.469-1.164,4.006,4.006,0,0,1-.75-2.9l.039-.336a5.624,5.624,0,0,1,.746-2.3,4.339,4.339,0,0,1,1.5-1.566,3.491,3.491,0,0,1,1.906-.5,2.688,2.688,0,0,1,2.047.867,3.566,3.566,0,0,1,.813,2.266,6.621,6.621,0,0,1-.031,1.016l-.086.648h-5.523a2.855,2.855,0,0,0,.379,1.953,1.8,1.8,0,0,0,1.551.836,3.007,3.007,0,0,0,2.313-1.125l.813.688a3.718,3.718,0,0,1-1.371,1.2A3.886,3.886,0,0,1,185.586,17.156Zm.9-7.586a2.066,2.066,0,0,0-1.527.594A4.22,4.22,0,0,0,183.922,12l4.109.008.031-.125a2.313,2.313,0,0,0-.316-1.637A1.488,1.488,0,0,0,186.484,9.57Zm6.531-1.031-.18.945a3.305,3.305,0,0,1,2.57-1.094,2.608,2.608,0,0,1,1.363.367,1.8,1.8,0,0,1,.77.992,3.49,3.49,0,0,1,2.8-1.359,2.235,2.235,0,0,1,1.867.852,3.042,3.042,0,0,1,.445,2.2L201.727,17H200.32l.922-5.57a2.943,2.943,0,0,0,0-.742q-.148-1.062-1.391-1.086a2.136,2.136,0,0,0-1.4.48,2.222,2.222,0,0,0-.809,1.3L196.68,17h-1.422l.938-5.562a1.786,1.786,0,0,0-.262-1.336,1.377,1.377,0,0,0-1.129-.484,2.315,2.315,0,0,0-2.1,1.2L191.633,17h-1.414l1.469-8.453Zm18.547,4.273a6.707,6.707,0,0,1-.7,2.32,3.949,3.949,0,0,1-1.336,1.543,3.058,3.058,0,0,1-1.766.488,2.815,2.815,0,0,1-2.25-.992l-.758,4.078h-1.414l2.031-11.7,1.281-.008-.156.945a3.207,3.207,0,0,1,2.508-1.094,2.358,2.358,0,0,1,1.9.9,3.954,3.954,0,0,1,.719,2.391,8.414,8.414,0,0,1-.039.969Zm-1.391-.16.039-.655a2.969,2.969,0,0,0-.434-1.744,1.525,1.525,0,0,0-1.254-.636,2.508,2.508,0,0,0-2.117,1.163l-.711,4.05a1.769,1.769,0,0,0,1.711,1.155,2.224,2.224,0,0,0,1.793-.823A4.777,4.777,0,0,0,210.172,12.652Zm6.18,4.5a3.048,3.048,0,0,1-2.469-1.164,4.006,4.006,0,0,1-.75-2.9l.039-.336a5.624,5.624,0,0,1,.746-2.3,4.339,4.339,0,0,1,1.5-1.566,3.491,3.491,0,0,1,1.906-.5,2.688,2.688,0,0,1,2.047.867,3.566,3.566,0,0,1,.813,2.266,6.621,6.621,0,0,1-.031,1.016l-.086.648h-5.523a2.855,2.855,0,0,0,.379,1.953,1.8,1.8,0,0,0,1.551.836,3.007,3.007,0,0,0,2.313-1.125l.813.688a3.718,3.718,0,0,1-1.371,1.2A3.886,3.886,0,0,1,216.352,17.156Zm.9-7.586a2.066,2.066,0,0,0-1.527.594A4.22,4.22,0,0,0,214.688,12l4.109.008.031-.125a2.313,2.313,0,0,0-.316-1.637A1.488,1.488,0,0,0,217.25,9.57Zm9,.266-.664-.07a2.42,2.42,0,0,0-2.141,1.227L222.406,17h-1.414l1.469-8.453,1.367-.008-.211.984a2.527,2.527,0,0,1,2.117-1.148,2.594,2.594,0,0,1,.672.117ZM231.18,17a1.894,1.894,0,0,1-.055-.445l.023-.445a3.465,3.465,0,0,1-2.469,1.047,2.526,2.526,0,0,1-1.816-.707,2.14,2.14,0,0,1-.637-1.73,2.6,2.6,0,0,1,1.176-2.1,5.005,5.005,0,0,1,2.887-.754l1.477.008.094-.672a1.545,1.545,0,0,0-.293-1.2,1.414,1.414,0,0,0-1.113-.457,2.181,2.181,0,0,0-1.285.355,1.513,1.513,0,0,0-.684.98l-1.422.008a2.266,2.266,0,0,1,.578-1.316,3.363,3.363,0,0,1,1.3-.891,4.215,4.215,0,0,1,1.648-.3,2.8,2.8,0,0,1,2.055.8,2.484,2.484,0,0,1,.617,2.043l-.687,4.188-.039.6a2.949,2.949,0,0,0,.094.852l-.016.133Zm-2.219-1.094a2.466,2.466,0,0,0,1.285-.324,3.254,3.254,0,0,0,1.043-.941l.3-1.742-1.07-.008a4.054,4.054,0,0,0-2.047.422,1.554,1.554,0,0,0-.8,1.2,1.21,1.21,0,0,0,.277.988A1.321,1.321,0,0,0,228.961,15.906Zm9.3-9.406-.359,2.047h1.539l-.2,1.117h-1.531l-.883,5.258a1.833,1.833,0,0,0-.008.375.6.6,0,0,0,.664.609,4.05,4.05,0,0,0,.688-.078l-.109,1.18a3.847,3.847,0,0,1-1.031.141,1.476,1.476,0,0,1-1.266-.621,2.4,2.4,0,0,1-.328-1.629l.859-5.234h-1.492l.2-1.117H236.5l.359-2.047Zm6.781,9.664a3.265,3.265,0,0,1-2.523.992,2.107,2.107,0,0,1-1.793-.867,3.317,3.317,0,0,1-.434-2.281l.906-5.461h1.414l-.914,5.484a3.642,3.642,0,0,0-.016.672,1.4,1.4,0,0,0,.336.883,1.146,1.146,0,0,0,.828.344A2.536,2.536,0,0,0,245.2,14.7l1.063-6.156h1.414L246.2,17h-1.336Zm8.523-6.328-.664-.07a2.42,2.42,0,0,0-2.141,1.227L249.727,17h-1.414l1.469-8.453,1.367-.008-.211.984a2.527,2.527,0,0,1,2.117-1.148,2.594,2.594,0,0,1,.672.117ZM258.5,17a1.893,1.893,0,0,1-.055-.445l.023-.445A3.465,3.465,0,0,1,256,17.156a2.526,2.526,0,0,1-1.816-.707,2.14,2.14,0,0,1-.637-1.73,2.6,2.6,0,0,1,1.176-2.1,5.005,5.005,0,0,1,2.887-.754l1.477.008.094-.672a1.545,1.545,0,0,0-.293-1.2,1.414,1.414,0,0,0-1.113-.457,2.181,2.181,0,0,0-1.285.355,1.513,1.513,0,0,0-.684.98l-1.422.008a2.266,2.266,0,0,1,.578-1.316,3.363,3.363,0,0,1,1.3-.891,4.215,4.215,0,0,1,1.648-.3,2.8,2.8,0,0,1,2.055.8,2.484,2.484,0,0,1,.617,2.043l-.687,4.188-.039.6a2.95,2.95,0,0,0,.094.852l-.016.133Zm-2.219-1.094a2.466,2.466,0,0,0,1.285-.324,3.254,3.254,0,0,0,1.043-.941l.3-1.742-1.07-.008a4.054,4.054,0,0,0-2.047.422,1.554,1.554,0,0,0-.8,1.2,1.21,1.21,0,0,0,.277.988A1.321,1.321,0,0,0,256.281,15.906Zm17.148-3.094a6.706,6.706,0,0,1-.7,2.32,3.949,3.949,0,0,1-1.336,1.543,3.058,3.058,0,0,1-1.766.488,2.815,2.815,0,0,1-2.25-.992l-.758,4.078h-1.414l2.031-11.7,1.281-.008-.156.945a3.207,3.207,0,0,1,2.508-1.094,2.358,2.358,0,0,1,1.9.9,3.954,3.954,0,0,1,.719,2.391,8.41,8.41,0,0,1-.039.969Zm-1.391-.16.039-.655a2.969,2.969,0,0,0-.434-1.744,1.525,1.525,0,0,0-1.254-.636,2.508,2.508,0,0,0-2.117,1.163l-.711,4.05a1.769,1.769,0,0,0,1.711,1.155,2.224,2.224,0,0,0,1.793-.823A4.777,4.777,0,0,0,272.039,12.652Zm7.7,4.348a1.893,1.893,0,0,1-.055-.445l.023-.445a3.465,3.465,0,0,1-2.469,1.047,2.526,2.526,0,0,1-1.816-.707,2.14,2.14,0,0,1-.637-1.73,2.6,2.6,0,0,1,1.176-2.1,5.005,5.005,0,0,1,2.887-.754l1.477.008.094-.672a1.545,1.545,0,0,0-.293-1.2,1.414,1.414,0,0,0-1.113-.457,2.181,2.181,0,0,0-1.285.355,1.513,1.513,0,0,0-.684.98l-1.422.008a2.266,2.266,0,0,1,.578-1.316,3.363,3.363,0,0,1,1.3-.891,4.215,4.215,0,0,1,1.648-.3,2.8,2.8,0,0,1,2.055.8,2.484,2.484,0,0,1,.617,2.043l-.687,4.188-.039.6a2.95,2.95,0,0,0,.094.852l-.016.133Zm-2.219-1.094a2.466,2.466,0,0,0,1.285-.324,3.254,3.254,0,0,0,1.043-.941l.3-1.742-1.07-.008a4.054,4.054,0,0,0-2.047.422,1.554,1.554,0,0,0-.8,1.2,1.21,1.21,0,0,0,.277.988A1.321,1.321,0,0,0,277.516,15.906Zm10.828-6.07-.664-.07a2.42,2.42,0,0,0-2.141,1.227L284.5,17h-1.414l1.469-8.453,1.367-.008-.211.984a2.527,2.527,0,0,1,2.117-1.148,2.594,2.594,0,0,1,.672.117ZM293.273,17a1.893,1.893,0,0,1-.055-.445l.023-.445a3.465,3.465,0,0,1-2.469,1.047,2.526,2.526,0,0,1-1.816-.707,2.14,2.14,0,0,1-.637-1.73,2.6,2.6,0,0,1,1.176-2.1,5.005,5.005,0,0,1,2.887-.754l1.477.008.094-.672a1.545,1.545,0,0,0-.293-1.2,1.414,1.414,0,0,0-1.113-.457,2.181,2.181,0,0,0-1.285.355,1.513,1.513,0,0,0-.684.98l-1.422.008a2.266,2.266,0,0,1,.578-1.316,3.363,3.363,0,0,1,1.3-.891,4.215,4.215,0,0,1,1.648-.3,2.8,2.8,0,0,1,2.055.8,2.484,2.484,0,0,1,.617,2.043l-.687,4.188-.039.6a2.95,2.95,0,0,0,.094.852l-.016.133Zm-2.219-1.094a2.466,2.466,0,0,0,1.285-.324,3.254,3.254,0,0,0,1.043-.941l.3-1.742-1.07-.008a4.054,4.054,0,0,0-2.047.422,1.554,1.554,0,0,0-.8,1.2,1.21,1.21,0,0,0,.277.988A1.321,1.321,0,0,0,291.055,15.906ZM302.078,17h-1.406L302.75,5h1.414Zm7.008-8.609a3.047,3.047,0,0,1,1.82.578,3.285,3.285,0,0,1,1.121,1.551,4.8,4.8,0,0,1,.246,2.16l-.016.172a5.685,5.685,0,0,1-.734,2.23,4.309,4.309,0,0,1-1.516,1.551,3.7,3.7,0,0,1-2.039.523,3.052,3.052,0,0,1-1.816-.578,3.21,3.21,0,0,1-1.113-1.531,4.931,4.931,0,0,1-.25-2.133,5.76,5.76,0,0,1,.711-2.359,4.409,4.409,0,0,1,1.527-1.621A3.652,3.652,0,0,1,309.086,8.391Zm-2.875,4.531a4.8,4.8,0,0,0,0,1.023,2.507,2.507,0,0,0,.551,1.469,1.653,1.653,0,0,0,1.262.57,2.253,2.253,0,0,0,1.3-.348,2.919,2.919,0,0,0,1-1.121,4.721,4.721,0,0,0,.523-1.664,7.5,7.5,0,0,0,.023-1.211,2.6,2.6,0,0,0-.57-1.492,1.69,1.69,0,0,0-1.266-.578,2.3,2.3,0,0,0-1.859.859,4.245,4.245,0,0,0-.945,2.313Zm12.344,1.789q.117-.875-.961-1.234l-1.469-.43q-1.859-.641-1.8-2.125a2.341,2.341,0,0,1,1.02-1.832,3.631,3.631,0,0,1,2.27-.7,3.027,3.027,0,0,1,2.082.746,2.363,2.363,0,0,1,.77,1.9l-1.406-.008a1.319,1.319,0,0,0-.4-1.031,1.576,1.576,0,0,0-1.1-.414,2.059,2.059,0,0,0-1.266.359,1.316,1.316,0,0,0-.57.922q-.1.734.9,1.07l.711.2a4.577,4.577,0,0,1,2.063.977,1.865,1.865,0,0,1,.563,1.492,2.37,2.37,0,0,1-.516,1.375,2.948,2.948,0,0,1-1.25.895,4.18,4.18,0,0,1-1.664.285,3.3,3.3,0,0,1-2.219-.785,2.427,2.427,0,0,1-.844-1.98l1.414.008a1.5,1.5,0,0,0,.453,1.141,1.732,1.732,0,0,0,1.242.43,2.436,2.436,0,0,0,1.336-.324A1.247,1.247,0,0,0,318.555,14.711Zm14.422-1.9a6.706,6.706,0,0,1-.7,2.32,3.949,3.949,0,0,1-1.336,1.543,3.058,3.058,0,0,1-1.766.488,2.815,2.815,0,0,1-2.25-.992l-.758,4.078h-1.414l2.031-11.7,1.281-.008-.156.945a3.207,3.207,0,0,1,2.508-1.094,2.358,2.358,0,0,1,1.9.9,3.954,3.954,0,0,1,.719,2.391,8.41,8.41,0,0,1-.039.969Zm-1.391-.16.039-.655a2.969,2.969,0,0,0-.434-1.744,1.525,1.525,0,0,0-1.254-.636,2.508,2.508,0,0,0-2.117,1.163l-.711,4.05a1.769,1.769,0,0,0,1.711,1.155,2.224,2.224,0,0,0,1.793-.823A4.777,4.777,0,0,0,331.586,12.652ZM338.8,8.391a3.047,3.047,0,0,1,1.82.578,3.285,3.285,0,0,1,1.121,1.551,4.8,4.8,0,0,1,.246,2.16l-.016.172a5.685,5.685,0,0,1-.734,2.23,4.309,4.309,0,0,1-1.516,1.551,3.7,3.7,0,0,1-2.039.523,3.052,3.052,0,0,1-1.816-.578,3.21,3.21,0,0,1-1.113-1.531,4.931,4.931,0,0,1-.25-2.133,5.76,5.76,0,0,1,.711-2.359,4.409,4.409,0,0,1,1.527-1.621A3.652,3.652,0,0,1,338.8,8.391Zm-2.875,4.531a4.8,4.8,0,0,0,0,1.023,2.507,2.507,0,0,0,.551,1.469,1.653,1.653,0,0,0,1.262.57,2.253,2.253,0,0,0,1.3-.348,2.919,2.919,0,0,0,1-1.121,4.721,4.721,0,0,0,.523-1.664,7.5,7.5,0,0,0,.023-1.211,2.6,2.6,0,0,0-.57-1.492,1.69,1.69,0,0,0-1.266-.578,2.3,2.3,0,0,0-1.859.859,4.245,4.245,0,0,0-.945,2.313ZM344.57,17h-1.406l2.078-12h1.414Zm3.844,0h-1.406l2.078-12H350.5Zm3.844,0h-1.406l1.469-8.453h1.406Zm1.164-11.539a.774.774,0,0,1,.6.215.8.8,0,0,1,.238.605.834.834,0,0,1-.836.852.779.779,0,0,1-.6-.211.764.764,0,0,1-.227-.594.886.886,0,0,1,.234-.609A.826.826,0,0,1,353.422,5.461ZM358.3,6.5l-.359,2.047h1.539l-.2,1.117h-1.531l-.883,5.258a1.834,1.834,0,0,0-.008.375.6.6,0,0,0,.664.609,4.05,4.05,0,0,0,.688-.078l-.109,1.18a3.847,3.847,0,0,1-1.031.141,1.476,1.476,0,0,1-1.266-.621,2.4,2.4,0,0,1-.328-1.629l.859-5.234h-1.492l.2-1.117h1.492L356.9,6.5Zm5.953,1.891a3.047,3.047,0,0,1,1.82.578A3.285,3.285,0,0,1,367.2,10.52a4.8,4.8,0,0,1,.246,2.16l-.016.172a5.685,5.685,0,0,1-.734,2.23,4.309,4.309,0,0,1-1.516,1.551,3.7,3.7,0,0,1-2.039.523,3.052,3.052,0,0,1-1.816-.578,3.21,3.21,0,0,1-1.113-1.531,4.931,4.931,0,0,1-.25-2.133,5.76,5.76,0,0,1,.711-2.359A4.409,4.409,0,0,1,362.2,8.934,3.652,3.652,0,0,1,364.258,8.391Zm-2.875,4.531a4.8,4.8,0,0,0,0,1.023,2.507,2.507,0,0,0,.551,1.469,1.653,1.653,0,0,0,1.262.57,2.253,2.253,0,0,0,1.3-.348,2.919,2.919,0,0,0,1-1.121,4.721,4.721,0,0,0,.523-1.664,7.5,7.5,0,0,0,.023-1.211,2.6,2.6,0,0,0-.57-1.492A1.69,1.69,0,0,0,364.2,9.57a2.3,2.3,0,0,0-1.859.859,4.245,4.245,0,0,0-.945,2.313Zm12.344,1.789q.117-.875-.961-1.234l-1.469-.43q-1.859-.641-1.8-2.125a2.341,2.341,0,0,1,1.02-1.832,3.631,3.631,0,0,1,2.27-.7,3.027,3.027,0,0,1,2.082.746,2.363,2.363,0,0,1,.77,1.9l-1.406-.008a1.319,1.319,0,0,0-.4-1.031,1.576,1.576,0,0,0-1.1-.414,2.059,2.059,0,0,0-1.266.359,1.316,1.316,0,0,0-.57.922q-.1.734.9,1.07l.711.2a4.577,4.577,0,0,1,2.063.977,1.865,1.865,0,0,1,.563,1.492,2.37,2.37,0,0,1-.516,1.375,2.948,2.948,0,0,1-1.25.895,4.18,4.18,0,0,1-1.664.285,3.3,3.3,0,0,1-2.219-.785,2.427,2.427,0,0,1-.844-1.98l1.414.008a1.5,1.5,0,0,0,.453,1.141,1.732,1.732,0,0,0,1.242.43,2.436,2.436,0,0,0,1.336-.324A1.247,1.247,0,0,0,373.727,14.711Z" transform="translate(481.135 2594.377)" fill="#12263f"/>
    <g id="Rectángulo_341369" data-name="Rectángulo 341369" transform="translate(460 2651)" fill="#b20d0d" stroke="#707070" stroke-width="1">
      <rect width="672" height="55" stroke="none"/>
      <rect x="0.5" y="0.5" width="671" height="54" fill="none"/>
    </g>
    <rect id="Rectángulo_340094" data-name="Rectángulo 340094" width="671.5" height="40.488" transform="translate(460 2705.629)" fill="#f6f6f6"/>
    <rect id="Rectángulo_340999" data-name="Rectángulo 340999" width="671.5" height="40.49" transform="translate(460 2802)" fill="#f6f6f6"/>
    <rect id="Rectángulo_340996" data-name="Rectángulo 340996" width="670.082" height="46.488" transform="translate(460 2751.273)" fill="#f6f6f6"/>
    <rect id="Rectángulo_340997" data-name="Rectángulo 340997" width="671.5" height="40.49" transform="translate(460 2752)" fill="#f6f6f6"/>
    <rect id="Rectángulo_340998" data-name="Rectángulo 340998" width="671.5" height="40.49" transform="translate(460 2848)" fill="#f6f6f6"/>
    <rect id="Rectángulo_341000" data-name="Rectángulo 341000" width="671.5" height="40.49" transform="translate(460 2893.031)" fill="#f6f6f6"/>
    <rect id="Rectángulo_341001" data-name="Rectángulo 341001" width="671.5" height="40.49" transform="translate(460 2939.004)" fill="#f6f6f6"/>
    <path id="Trazado_718283" data-name="Trazado 718283" d="M133.123,17V4.2h4.122a6.064,6.064,0,0,1,3.05.769,5.406,5.406,0,0,1,2.114,2.171,6.554,6.554,0,0,1,.769,3.142v.589a6.592,6.592,0,0,1-.743,3.151,5.429,5.429,0,0,1-2.092,2.18,5.93,5.93,0,0,1-3.01.8Zm3.085-10.415v8.042h1.072a2.4,2.4,0,0,0,2.039-.945,4.63,4.63,0,0,0,.712-2.808V10.32a4.592,4.592,0,0,0-.712-2.795,2.442,2.442,0,0,0-2.074-.94ZM147.854,17h-2.979V7.49h2.979ZM146.746,3.676h3.129l-2.443,2.76-2.417,0ZM155.114,17a3.344,3.344,0,0,1-.281-.853,2.754,2.754,0,0,1-2.285,1.028,3.374,3.374,0,0,1-2.285-.813,2.588,2.588,0,0,1-.94-2.043,2.66,2.66,0,0,1,1.143-2.338,5.821,5.821,0,0,1,3.322-.791h.914v-.5q0-1.316-1.134-1.316a.927.927,0,0,0-1.055,1.042H149.55a2.655,2.655,0,0,1,1.173-2.239,4.931,4.931,0,0,1,2.993-.86,4.323,4.323,0,0,1,2.874.888,3.086,3.086,0,0,1,1.081,2.435v4.21a4.311,4.311,0,0,0,.4,2V17Zm-1.854-1.934a1.652,1.652,0,0,0,.918-.237,1.487,1.487,0,0,0,.523-.536V12.772h-.861q-1.547,0-1.547,1.389a.848.848,0,0,0,.272.655A.986.986,0,0,0,153.259,15.066Zm11.03-.738a.684.684,0,0,0-.4-.606,6.016,6.016,0,0,0-1.5-.475,6.853,6.853,0,0,1-1.828-.646,3.062,3.062,0,0,1-1.1-.971,2.319,2.319,0,0,1-.378-1.31,2.628,2.628,0,0,1,1.081-2.158A4.453,4.453,0,0,1,163,7.314a4.934,4.934,0,0,1,3.023.853,2.666,2.666,0,0,1,1.143,2.241h-2.971q0-1.143-1.2-1.143a1.194,1.194,0,0,0-.782.259.8.8,0,0,0-.316.646.737.737,0,0,0,.387.642,3.654,3.654,0,0,0,1.235.4,10.671,10.671,0,0,1,1.49.378,2.706,2.706,0,0,1,2.145,2.646,2.491,2.491,0,0,1-1.156,2.118,5.068,5.068,0,0,1-2.993.817,5.172,5.172,0,0,1-2.18-.439,3.645,3.645,0,0,1-1.494-1.2,2.707,2.707,0,0,1-.536-1.591h2.769a1.145,1.145,0,0,0,.439.962,1.808,1.808,0,0,0,1.081.3,1.422,1.422,0,0,0,.91-.246A.787.787,0,0,0,164.289,14.328Z" transform="translate(464.96 2670.112)" fill="#fff"/>
    <path id="Trazado_718282" data-name="Trazado 718282" d="M112.7,6.585h-3.841V17h-3.085V6.585h-3.771V4.2h10.7Zm4.983,10.591a4.889,4.889,0,0,1-3.542-1.305,4.507,4.507,0,0,1-1.354-3.4v-.246a5.84,5.84,0,0,1,.541-2.575,3.955,3.955,0,0,1,1.578-1.727,4.763,4.763,0,0,1,2.461-.611,4.117,4.117,0,0,1,3.164,1.244,4.887,4.887,0,0,1,1.16,3.467v1.151h-5.889a2.135,2.135,0,0,0,.694,1.257,2.066,2.066,0,0,0,1.389.457,2.662,2.662,0,0,0,2.2-.984l1.354,1.6a3.784,3.784,0,0,1-1.569,1.217A5.3,5.3,0,0,1,117.687,17.176ZM117.353,9.6q-1.3,0-1.547,1.723h2.988v-.229a1.467,1.467,0,0,0-.36-1.1A1.434,1.434,0,0,0,117.353,9.6Zm8.332-2.109.1,1.116A3.27,3.27,0,0,1,128.5,7.314a2.407,2.407,0,0,1,2.435,1.433,3.165,3.165,0,0,1,2.795-1.433q2.892,0,2.971,3.5V17h-2.971V11a1.813,1.813,0,0,0-.246-1.063,1.048,1.048,0,0,0-.9-.334,1.4,1.4,0,0,0-1.31.782l.009.123V17h-2.971V11.015a1.906,1.906,0,0,0-.237-1.081,1.045,1.045,0,0,0-.905-.334,1.42,1.42,0,0,0-1.3.782V17h-2.962V7.49Zm21.533,4.825a5.735,5.735,0,0,1-1,3.538,3.2,3.2,0,0,1-2.694,1.323,2.742,2.742,0,0,1-2.153-.958v4.438h-2.962V7.49h2.769l.088.879a2.742,2.742,0,0,1,2.241-1.055,3.224,3.224,0,0,1,2.733,1.3,5.805,5.805,0,0,1,.976,3.564Zm-2.962-.185q0-2.531-1.477-2.531a1.394,1.394,0,0,0-1.406.756V14.1a1.439,1.439,0,0,0,1.424.791q1.415,0,1.459-2.443Zm8.868,5.045a4.889,4.889,0,0,1-3.542-1.305,4.507,4.507,0,0,1-1.354-3.4v-.246a5.84,5.84,0,0,1,.541-2.575,3.955,3.955,0,0,1,1.578-1.727,4.763,4.763,0,0,1,2.461-.611,4.117,4.117,0,0,1,3.164,1.244,4.887,4.887,0,0,1,1.16,3.467v1.151h-5.889a2.135,2.135,0,0,0,.694,1.257,2.066,2.066,0,0,0,1.389.457,2.662,2.662,0,0,0,2.2-.984l1.354,1.6a3.784,3.784,0,0,1-1.569,1.217A5.3,5.3,0,0,1,153.124,17.176ZM152.79,9.6q-1.3,0-1.547,1.723h2.988v-.229a1.467,1.467,0,0,0-.36-1.1A1.434,1.434,0,0,0,152.79,9.6Zm11.285.571-.976-.07a1.752,1.752,0,0,0-1.793.879V17h-2.962V7.49h2.777l.1,1.222a2.294,2.294,0,0,1,2.083-1.4,2.888,2.888,0,0,1,.826.105ZM170.237,17a3.344,3.344,0,0,1-.281-.853,2.754,2.754,0,0,1-2.285,1.028,3.374,3.374,0,0,1-2.285-.813,2.588,2.588,0,0,1-.94-2.043,2.66,2.66,0,0,1,1.143-2.338,5.821,5.821,0,0,1,3.322-.791h.914v-.5q0-1.316-1.134-1.316a.927.927,0,0,0-1.055,1.042h-2.962a2.655,2.655,0,0,1,1.173-2.239,4.931,4.931,0,0,1,2.993-.86,4.323,4.323,0,0,1,2.874.888,3.086,3.086,0,0,1,1.081,2.435v4.21a4.311,4.311,0,0,0,.4,2V17Zm-1.854-1.934a1.652,1.652,0,0,0,.918-.237,1.487,1.487,0,0,0,.523-.536V12.772h-.861q-1.547,0-1.547,1.389a.848.848,0,0,0,.272.655A.986.986,0,0,0,168.382,15.066Zm9.5-9.94V7.49h1.564V9.547h-1.564V13.9a1.111,1.111,0,0,0,.193.747,1.037,1.037,0,0,0,.765.211,4.345,4.345,0,0,0,.738-.053v2.118a5.466,5.466,0,0,1-1.67.255,3.1,3.1,0,0,1-2.259-.721,2.954,2.954,0,0,1-.729-2.188V9.547h-1.213V7.49h1.213V5.126Zm8.394,10.846a3.054,3.054,0,0,1-2.54,1.2,3,3,0,0,1-2.369-.91,3.826,3.826,0,0,1-.8-2.615V7.49h2.962v6.179a1.065,1.065,0,0,0,1.187,1.222,1.548,1.548,0,0,0,1.45-.729V7.49h2.979V17h-2.777Zm10.239-5.8-.976-.07a1.752,1.752,0,0,0-1.793.879V17h-2.962V7.49h2.777l.1,1.222a2.294,2.294,0,0,1,2.083-1.4,2.888,2.888,0,0,1,.826.105ZM202.677,17a3.344,3.344,0,0,1-.281-.853,2.754,2.754,0,0,1-2.285,1.028,3.374,3.374,0,0,1-2.285-.813,2.588,2.588,0,0,1-.94-2.043,2.66,2.66,0,0,1,1.143-2.338,5.821,5.821,0,0,1,3.322-.791h.914v-.5q0-1.316-1.134-1.316a.927.927,0,0,0-1.055,1.042h-2.962a2.655,2.655,0,0,1,1.173-2.239,4.931,4.931,0,0,1,2.993-.86,4.323,4.323,0,0,1,2.874.888,3.086,3.086,0,0,1,1.081,2.435v4.21a4.311,4.311,0,0,0,.4,2V17Zm-1.854-1.934a1.652,1.652,0,0,0,.918-.237,1.487,1.487,0,0,0,.523-.536V12.772H201.4q-1.547,0-1.547,1.389a.848.848,0,0,0,.272.655A.986.986,0,0,0,200.823,15.066Z" transform="translate(814.5 2671.23)" fill="#fff"/>
    <path id="Trazado_718284" data-name="Trazado 718284" d="M144.959,15h-1.453V5.367l-2.914,1.07V5.125l4.141-1.555h.227Zm11.352-4.242H152.5V9.578h3.813ZM168.983,15H161.53V13.961l3.938-4.375a9.355,9.355,0,0,0,1.207-1.613,2.692,2.692,0,0,0,.332-1.285,2.041,2.041,0,0,0-.539-1.461,1.885,1.885,0,0,0-1.437-.57,2.232,2.232,0,0,0-1.676.613,2.343,2.343,0,0,0-.6,1.707h-1.445a3.355,3.355,0,0,1,1.012-2.539,3.751,3.751,0,0,1,2.707-.969,3.6,3.6,0,0,1,2.508.832,2.838,2.838,0,0,1,.922,2.215q0,1.68-2.141,4l-3.047,3.3h5.711Z" transform="translate(470.48 2716.006)" fill="#12263f"/>
    <path id="Trazado_718287" data-name="Trazado 718287" d="M124.995,15V3.625h3.211a5.169,5.169,0,0,1,2.625.656,4.438,4.438,0,0,1,1.762,1.867,6.077,6.077,0,0,1,.629,2.781v.727a6.1,6.1,0,0,1-.621,2.82,4.369,4.369,0,0,1-1.773,1.859,5.5,5.5,0,0,1-2.684.664Zm1.5-10.148v8.922h1.578a3.434,3.434,0,0,0,2.7-1.079,4.458,4.458,0,0,0,.965-3.073V8.957a4.529,4.529,0,0,0-.91-3.014,3.239,3.239,0,0,0-2.582-1.091Zm12.273,10.3a3.693,3.693,0,0,1-2.8-1.129,4.19,4.19,0,0,1-1.078-3.02v-.266a5.073,5.073,0,0,1,.48-2.246,3.748,3.748,0,0,1,1.344-1.547,3.378,3.378,0,0,1,1.871-.559,3.166,3.166,0,0,1,2.563,1.086,4.7,4.7,0,0,1,.914,3.109v.6h-5.727a3,3,0,0,0,.73,2.02,2.3,2.3,0,0,0,1.777.77,2.517,2.517,0,0,0,1.3-.312,3.258,3.258,0,0,0,.93-.828l.883.688A3.55,3.55,0,0,1,138.768,15.156Zm-.18-7.578a1.928,1.928,0,0,0-1.469.637A3.1,3.1,0,0,0,136.385,10h4.234V9.891a2.753,2.753,0,0,0-.594-1.707A1.815,1.815,0,0,0,138.588,7.578Zm11.063,1.031h1.086a2.387,2.387,0,0,0,1.609-.539,1.8,1.8,0,0,0,.586-1.414,1.764,1.764,0,0,0-1.992-2,2.072,2.072,0,0,0-1.5.535,1.873,1.873,0,0,0-.559,1.418H147.44a2.9,2.9,0,0,1,.988-2.246,3.6,3.6,0,0,1,2.512-.895,3.558,3.558,0,0,1,2.523.852,3.076,3.076,0,0,1,.914,2.367,2.5,2.5,0,0,1-.48,1.438,2.9,2.9,0,0,1-1.309,1.039,2.8,2.8,0,0,1,1.449.984,2.734,2.734,0,0,1,.512,1.68,3.1,3.1,0,0,1-1,2.43,3.745,3.745,0,0,1-2.6.9,3.844,3.844,0,0,1-2.605-.867,2.877,2.877,0,0,1-1-2.289h1.453a1.859,1.859,0,0,0,.586,1.438,2.229,2.229,0,0,0,1.57.539,2.187,2.187,0,0,0,1.6-.547,2.108,2.108,0,0,0,.555-1.57,1.912,1.912,0,0,0-.609-1.523,2.655,2.655,0,0,0-1.758-.547h-1.086ZM169.823,15a3.036,3.036,0,0,1-.2-.891,3.225,3.225,0,0,1-2.406,1.047,2.984,2.984,0,0,1-2.051-.707,2.287,2.287,0,0,1-.8-1.793,2.39,2.39,0,0,1,1-2.051,4.733,4.733,0,0,1,2.824-.73H169.6V9.211A1.623,1.623,0,0,0,169.143,8a1.821,1.821,0,0,0-1.336-.449,2.107,2.107,0,0,0-1.3.391,1.151,1.151,0,0,0-.523.945h-1.453a2,2,0,0,1,.449-1.223,3.066,3.066,0,0,1,1.219-.934,4.1,4.1,0,0,1,1.691-.344,3.342,3.342,0,0,1,2.289.73,2.635,2.635,0,0,1,.859,2.012v3.891a4.757,4.757,0,0,0,.3,1.852V15Zm-2.4-1.1a2.54,2.54,0,0,0,1.289-.352,2.127,2.127,0,0,0,.883-.914V10.9h-1.133q-2.656,0-2.656,1.555a1.316,1.316,0,0,0,.453,1.063A1.742,1.742,0,0,0,167.424,13.9Zm17.039-9.461L179.752,15h-1.516l4.7-10.187h-6.156V3.625h7.688Z" transform="translate(470.48 2760)" fill="#12263f"/>
    <path id="Trazado_718288" data-name="Trazado 718288" d="M127.991,12.016a1.2,1.2,0,0,0-.469-1.02,6.148,6.148,0,0,0-1.687-.75,11.963,11.963,0,0,1-1.93-.777,3.153,3.153,0,0,1-1.937-2.82A2.747,2.747,0,0,1,122.487,5a3.389,3.389,0,0,1,1.492-1.129,5.616,5.616,0,0,1,2.184-.406,5.112,5.112,0,0,1,2.172.441,3.458,3.458,0,0,1,1.48,1.246,3.261,3.261,0,0,1,.527,1.828H128a1.534,1.534,0,0,0-.492-1.215,2.023,2.023,0,0,0-1.383-.434,2.162,2.162,0,0,0-1.336.363,1.146,1.146,0,0,0-.477.957,1.1,1.1,0,0,0,.559.93,6.311,6.311,0,0,0,1.645.7,7.106,7.106,0,0,1,2.914,1.492A2.972,2.972,0,0,1,130.342,12a2.737,2.737,0,0,1-1.117,2.316,4.891,4.891,0,0,1-3.008.84,5.808,5.808,0,0,1-2.391-.48,3.783,3.783,0,0,1-1.645-1.316,3.371,3.371,0,0,1-.566-1.937h2.352q0,1.883,2.25,1.883a2.189,2.189,0,0,0,1.3-.34A1.106,1.106,0,0,0,127.991,12.016Zm7.68,3.141a4.15,4.15,0,0,1-3.027-1.141,4.054,4.054,0,0,1-1.168-3.039v-.219a5.106,5.106,0,0,1,.492-2.277,3.612,3.612,0,0,1,1.395-1.547,3.914,3.914,0,0,1,2.059-.543,3.508,3.508,0,0,1,2.73,1.094,4.444,4.444,0,0,1,1,3.1v.922h-5.383a2.1,2.1,0,0,0,.66,1.328,2,2,0,0,0,1.395.5,2.437,2.437,0,0,0,2.039-.945l1.109,1.242a3.389,3.389,0,0,1-1.375,1.121A4.511,4.511,0,0,1,135.67,15.156Zm-.258-6.945a1.411,1.411,0,0,0-1.09.455,2.357,2.357,0,0,0-.535,1.3h3.141V9.788a1.681,1.681,0,0,0-.406-1.165A1.456,1.456,0,0,0,135.413,8.211Zm7.133-1.664.07.945a2.971,2.971,0,0,1,2.43-1.1,2.255,2.255,0,0,1,2.242,1.289,2.9,2.9,0,0,1,2.539-1.289,2.521,2.521,0,0,1,2.047.8,3.681,3.681,0,0,1,.672,2.41V15H150.28V9.609A1.61,1.61,0,0,0,150,8.559a1.246,1.246,0,0,0-.992-.332A1.409,1.409,0,0,0,147.6,9.2l.008,5.8H145.35V9.617a1.59,1.59,0,0,0-.289-1.062,1.259,1.259,0,0,0-.984-.328,1.463,1.463,0,0,0-1.391.8V15h-2.258V6.547ZM159.178,15a2.507,2.507,0,0,1-.227-.758,2.732,2.732,0,0,1-2.133.914,3,3,0,0,1-2.059-.719,2.312,2.312,0,0,1-.816-1.812,2.389,2.389,0,0,1,1-2.062,4.915,4.915,0,0,1,2.879-.727h1.039V9.352a1.393,1.393,0,0,0-.3-.937,1.183,1.183,0,0,0-.949-.352,1.345,1.345,0,0,0-.895.273.929.929,0,0,0-.324.75h-2.258a2.268,2.268,0,0,1,.453-1.359,3,3,0,0,1,1.281-.98,4.669,4.669,0,0,1,1.859-.355,3.689,3.689,0,0,1,2.48.785,2.747,2.747,0,0,1,.918,2.207v3.664a4.041,4.041,0,0,0,.336,1.82V15Zm-1.867-1.57a1.945,1.945,0,0,0,.922-.223,1.462,1.462,0,0,0,.625-.6V11.156h-.844q-1.7,0-1.8,1.172l-.008.133a.9.9,0,0,0,.3.7A1.153,1.153,0,0,0,157.311,13.43Zm7.625-6.883.07.977a2.951,2.951,0,0,1,2.43-1.133,2.453,2.453,0,0,1,2,.789,3.682,3.682,0,0,1,.672,2.359V15H167.85V9.594a1.465,1.465,0,0,0-.312-1.043,1.4,1.4,0,0,0-1.039-.324,1.553,1.553,0,0,0-1.43.813V15h-2.258V6.547ZM176.717,15a2.507,2.507,0,0,1-.227-.758,2.732,2.732,0,0,1-2.133.914,3,3,0,0,1-2.059-.719,2.312,2.312,0,0,1-.816-1.812,2.389,2.389,0,0,1,1-2.062,4.915,4.915,0,0,1,2.879-.727H176.4V9.352a1.393,1.393,0,0,0-.3-.937,1.183,1.183,0,0,0-.949-.352,1.345,1.345,0,0,0-.895.273.929.929,0,0,0-.324.75H171.67a2.268,2.268,0,0,1,.453-1.359,3,3,0,0,1,1.281-.98,4.669,4.669,0,0,1,1.859-.355,3.689,3.689,0,0,1,2.48.785,2.747,2.747,0,0,1,.918,2.207v3.664a4.041,4.041,0,0,0,.336,1.82V15Zm-1.867-1.57a1.945,1.945,0,0,0,.922-.223,1.462,1.462,0,0,0,.625-.6V11.156h-.844q-1.7,0-1.8,1.172l-.008.133a.9.9,0,0,0,.3.7A1.153,1.153,0,0,0,174.85,13.43Zm10.125-.766a.727.727,0,0,0-.41-.652,4.659,4.659,0,0,0-1.316-.426q-3.016-.633-3.016-2.562a2.323,2.323,0,0,1,.934-1.879,3.766,3.766,0,0,1,2.441-.754,4.053,4.053,0,0,1,2.574.758,2.388,2.388,0,0,1,.965,1.969h-2.258a1.092,1.092,0,0,0-.312-.8A1.322,1.322,0,0,0,183.6,8a1.351,1.351,0,0,0-.883.258.814.814,0,0,0-.312.656.7.7,0,0,0,.355.605,3.657,3.657,0,0,0,1.2.4,9.8,9.8,0,0,1,1.422.379,2.336,2.336,0,0,1,1.789,2.273,2.205,2.205,0,0,1-.992,1.871,4.28,4.28,0,0,1-2.562.715,4.47,4.47,0,0,1-1.887-.379,3.166,3.166,0,0,1-1.293-1.039,2.414,2.414,0,0,1-.469-1.426h2.141a1.179,1.179,0,0,0,.445.922,1.766,1.766,0,0,0,1.109.32,1.635,1.635,0,0,0,.98-.246A.766.766,0,0,0,184.975,12.664Z" transform="translate(470.48 2810)" fill="#12263f"/>
    <path id="Trazado_718291" data-name="Trazado 718291" d="M154.749,15H147.3V13.961l3.938-4.375a9.355,9.355,0,0,0,1.207-1.613,2.692,2.692,0,0,0,.332-1.285,2.041,2.041,0,0,0-.539-1.461,1.885,1.885,0,0,0-1.437-.57,2.232,2.232,0,0,0-1.676.613,2.343,2.343,0,0,0-.6,1.707h-1.445a3.355,3.355,0,0,1,1.012-2.539,3.751,3.751,0,0,1,2.707-.969A3.6,3.6,0,0,1,153.3,4.3a2.838,2.838,0,0,1,.922,2.215q0,1.68-2.141,4l-3.047,3.3h5.711Zm5.414-5.508a3.174,3.174,0,0,1-.141-.562,2.02,2.02,0,0,1-1.594.672,2,2,0,0,1-1.437-.484,1.7,1.7,0,0,1-.508-1.289,1.547,1.547,0,0,1,.652-1.336,3.436,3.436,0,0,1,2-.469h.844V5.613q0-1.066-.969-1.066a1.463,1.463,0,0,0-.848.215.71.71,0,0,0-.309.621l-1.258-.094a1.574,1.574,0,0,1,.672-1.312,2.812,2.812,0,0,1,1.742-.508,2.316,2.316,0,0,1,1.641.559,2.083,2.083,0,0,1,.6,1.605V8.1a4.53,4.53,0,0,0,.2,1.391Zm-1.43-.969a1.639,1.639,0,0,0,.68-.156A1.987,1.987,0,0,0,159.975,8V6.9H159.1a1.755,1.755,0,0,0-1,.253.751.751,0,0,0-.348.641Q157.756,8.523,158.733,8.523Z" transform="translate(470.48 2856)" fill="#12263f"/>
    <path id="Trazado_718292" data-name="Trazado 718292" d="M149.4,8.609h1.086a2.387,2.387,0,0,0,1.609-.539,1.8,1.8,0,0,0,.586-1.414,1.764,1.764,0,0,0-1.992-2,2.072,2.072,0,0,0-1.5.535,1.873,1.873,0,0,0-.559,1.418h-1.445a2.9,2.9,0,0,1,.988-2.246,3.6,3.6,0,0,1,2.512-.895,3.558,3.558,0,0,1,2.523.852,3.076,3.076,0,0,1,.914,2.367,2.5,2.5,0,0,1-.48,1.438,2.9,2.9,0,0,1-1.309,1.039,2.8,2.8,0,0,1,1.449.984,2.734,2.734,0,0,1,.512,1.68,3.1,3.1,0,0,1-1,2.43,3.745,3.745,0,0,1-2.6.9,3.844,3.844,0,0,1-2.605-.867,2.877,2.877,0,0,1-1-2.289h1.453a1.859,1.859,0,0,0,.586,1.438,2.229,2.229,0,0,0,1.57.539,2.187,2.187,0,0,0,1.6-.547,2.108,2.108,0,0,0,.555-1.57,1.912,1.912,0,0,0-.609-1.523,2.655,2.655,0,0,0-1.758-.547H149.4Zm10.766.883a3.174,3.174,0,0,1-.141-.562,2.02,2.02,0,0,1-1.594.672,2,2,0,0,1-1.437-.484,1.7,1.7,0,0,1-.508-1.289,1.547,1.547,0,0,1,.652-1.336,3.436,3.436,0,0,1,2-.469h.844V5.613q0-1.066-.969-1.066a1.463,1.463,0,0,0-.848.215.71.71,0,0,0-.309.621l-1.258-.094a1.574,1.574,0,0,1,.672-1.312,2.812,2.812,0,0,1,1.742-.508,2.316,2.316,0,0,1,1.641.559,2.083,2.083,0,0,1,.6,1.605V8.1a4.53,4.53,0,0,0,.2,1.391Zm-1.43-.969a1.639,1.639,0,0,0,.68-.156A1.987,1.987,0,0,0,159.975,8V6.9H159.1a1.755,1.755,0,0,0-1,.253.751.751,0,0,0-.348.641Q157.756,8.523,158.733,8.523Z" transform="translate(470.48 2904.567)" fill="#12263f"/>
    <path id="Trazado_718295" data-name="Trazado 718295" d="M153.4,11.18h1.578v1.18H153.4V15h-1.453V12.359h-5.18v-.852l5.094-7.883H153.4Zm-4.992,0h3.539V5.6l-.172.313Zm11.758-1.687a3.174,3.174,0,0,1-.141-.562,2.02,2.02,0,0,1-1.594.672,2,2,0,0,1-1.437-.484,1.7,1.7,0,0,1-.508-1.289,1.547,1.547,0,0,1,.652-1.336,3.436,3.436,0,0,1,2-.469h.844V5.613q0-1.066-.969-1.066a1.463,1.463,0,0,0-.848.215.71.71,0,0,0-.309.621l-1.258-.094a1.574,1.574,0,0,1,.672-1.312,2.812,2.812,0,0,1,1.742-.508,2.316,2.316,0,0,1,1.641.559,2.083,2.083,0,0,1,.6,1.605V8.1a4.53,4.53,0,0,0,.2,1.391Zm-1.43-.969a1.639,1.639,0,0,0,.68-.156A1.987,1.987,0,0,0,159.975,8V6.9H159.1a1.755,1.755,0,0,0-1,.253.751.751,0,0,0-.348.641Q157.756,8.523,158.733,8.523Z" transform="translate(470.48 2950.004)" fill="#12263f"/>
    <path id="Trazado_718285" data-name="Trazado 718285" d="M109.534,8.609h1.086a2.387,2.387,0,0,0,1.609-.539,1.8,1.8,0,0,0,.586-1.414,1.764,1.764,0,0,0-1.992-2,2.072,2.072,0,0,0-1.5.535,1.873,1.873,0,0,0-.559,1.418h-1.445a2.9,2.9,0,0,1,.988-2.246,3.6,3.6,0,0,1,2.512-.895,3.558,3.558,0,0,1,2.523.852,3.076,3.076,0,0,1,.914,2.367,2.5,2.5,0,0,1-.48,1.438,2.9,2.9,0,0,1-1.309,1.039,2.8,2.8,0,0,1,1.449.984,2.734,2.734,0,0,1,.512,1.68,3.1,3.1,0,0,1-1,2.43,3.745,3.745,0,0,1-2.6.9,3.844,3.844,0,0,1-2.605-.867,2.877,2.877,0,0,1-1-2.289h1.453a1.859,1.859,0,0,0,.586,1.438,2.229,2.229,0,0,0,1.57.539,2.187,2.187,0,0,0,1.6-.547,2.108,2.108,0,0,0,.555-1.57,1.912,1.912,0,0,0-.609-1.523,2.655,2.655,0,0,0-1.758-.547h-1.086ZM123.87,15h-7.453V13.961l3.938-4.375a9.354,9.354,0,0,0,1.207-1.613,2.693,2.693,0,0,0,.332-1.285,2.041,2.041,0,0,0-.539-1.461,1.885,1.885,0,0,0-1.437-.57,2.232,2.232,0,0,0-1.676.613,2.343,2.343,0,0,0-.6,1.707H116.2a3.355,3.355,0,0,1,1.012-2.539,3.751,3.751,0,0,1,2.707-.969,3.6,3.6,0,0,1,2.508.832,2.838,2.838,0,0,1,.922,2.215q0,1.68-2.141,4l-3.047,3.3h5.711Zm5.5-8.773a2.755,2.755,0,0,1,.734-2,2.866,2.866,0,0,1,3.883-.008,2.813,2.813,0,0,1,.734,2.051v.578a2.76,2.76,0,0,1-.73,2,2.562,2.562,0,0,1-1.934.758,2.6,2.6,0,0,1-1.945-.758A2.8,2.8,0,0,1,129.37,6.8Zm1.273.623a1.851,1.851,0,0,0,.379,1.234,1.284,1.284,0,0,0,1.035.448,1.248,1.248,0,0,0,1.02-.452,1.907,1.907,0,0,0,.371-1.246V6.221a1.839,1.839,0,0,0-.379-1.226,1.4,1.4,0,0,0-2.035-.016,1.823,1.823,0,0,0-.391,1.194Zm14.734,4.541a4.185,4.185,0,0,1-1.332,2.785,4.365,4.365,0,0,1-2.98.98,4.008,4.008,0,0,1-3.23-1.445,5.815,5.815,0,0,1-1.215-3.867V8.75a6.481,6.481,0,0,1,.566-2.789,4.231,4.231,0,0,1,1.605-1.848,4.47,4.47,0,0,1,2.406-.645A4.11,4.11,0,0,1,144.1,4.48a4.235,4.235,0,0,1,1.273,2.8H143.87a3.268,3.268,0,0,0-.848-1.975A2.565,2.565,0,0,0,141.2,4.7a2.684,2.684,0,0,0-2.254,1.063,4.882,4.882,0,0,0-.816,3.026v1.1a5.018,5.018,0,0,0,.773,2.948,2.5,2.5,0,0,0,2.164,1.095,2.887,2.887,0,0,0,1.918-.566,3.143,3.143,0,0,0,.887-1.973Zm11,3.609a3.036,3.036,0,0,1-.2-.891,3.225,3.225,0,0,1-2.406,1.047,2.984,2.984,0,0,1-2.051-.707,2.287,2.287,0,0,1-.8-1.793,2.39,2.39,0,0,1,1-2.051,4.733,4.733,0,0,1,2.824-.73h1.406V9.211A1.623,1.623,0,0,0,155.7,8a1.821,1.821,0,0,0-1.336-.449,2.107,2.107,0,0,0-1.3.391,1.151,1.151,0,0,0-.523.945h-1.453a2,2,0,0,1,.449-1.223,3.066,3.066,0,0,1,1.219-.934,4.1,4.1,0,0,1,1.691-.344,3.342,3.342,0,0,1,2.289.73,2.635,2.635,0,0,1,.859,2.012v3.891a4.757,4.757,0,0,0,.3,1.852V15Zm-2.4-1.1a2.54,2.54,0,0,0,1.289-.352,2.127,2.127,0,0,0,.883-.914V10.9h-1.133q-2.656,0-2.656,1.555a1.316,1.316,0,0,0,.453,1.063A1.742,1.742,0,0,0,153.979,13.9Zm11.8-5.289h1.086a2.387,2.387,0,0,0,1.609-.539,1.8,1.8,0,0,0,.586-1.414,1.764,1.764,0,0,0-1.992-2,2.072,2.072,0,0,0-1.5.535,1.873,1.873,0,0,0-.559,1.418h-1.445a2.9,2.9,0,0,1,.988-2.246,3.6,3.6,0,0,1,2.512-.895,3.558,3.558,0,0,1,2.523.852,3.076,3.076,0,0,1,.914,2.367,2.5,2.5,0,0,1-.48,1.438,2.9,2.9,0,0,1-1.309,1.039,2.8,2.8,0,0,1,1.449.984,2.734,2.734,0,0,1,.512,1.68,3.1,3.1,0,0,1-1,2.43,3.745,3.745,0,0,1-2.6.9,3.844,3.844,0,0,1-2.605-.867,2.877,2.877,0,0,1-1-2.289h1.453a1.859,1.859,0,0,0,.586,1.438,2.229,2.229,0,0,0,1.57.539,2.187,2.187,0,0,0,1.6-.547,2.108,2.108,0,0,0,.555-1.57,1.912,1.912,0,0,0-.609-1.523,2.655,2.655,0,0,0-1.758-.547h-1.086Zm12.984,2.57h1.578v1.18H178.76V15h-1.453V12.359h-5.18v-.852l5.094-7.883h1.539Zm-4.992,0h3.539V5.6l-.172.313Zm11.844-4.953a2.755,2.755,0,0,1,.734-2,2.866,2.866,0,0,1,3.883-.008,2.813,2.813,0,0,1,.734,2.051v.578a2.76,2.76,0,0,1-.73,2,2.562,2.562,0,0,1-1.934.758,2.6,2.6,0,0,1-1.945-.758,2.8,2.8,0,0,1-.742-2.047Zm1.273.623a1.851,1.851,0,0,0,.379,1.234,1.284,1.284,0,0,0,1.035.448,1.248,1.248,0,0,0,1.02-.452,1.907,1.907,0,0,0,.371-1.246V6.221a1.839,1.839,0,0,0-.379-1.226,1.4,1.4,0,0,0-2.035-.016,1.823,1.823,0,0,0-.391,1.194Zm14.734,4.541a4.185,4.185,0,0,1-1.332,2.785,4.365,4.365,0,0,1-2.98.98,4.008,4.008,0,0,1-3.23-1.445,5.815,5.815,0,0,1-1.215-3.867V8.75a6.481,6.481,0,0,1,.566-2.789,4.231,4.231,0,0,1,1.605-1.848,4.47,4.47,0,0,1,2.406-.645,4.11,4.11,0,0,1,2.906,1.012,4.235,4.235,0,0,1,1.273,2.8h-1.508a3.268,3.268,0,0,0-.848-1.975A2.565,2.565,0,0,0,197.44,4.7a2.684,2.684,0,0,0-2.254,1.063,4.882,4.882,0,0,0-.816,3.026v1.1a5.018,5.018,0,0,0,.773,2.948,2.5,2.5,0,0,0,2.164,1.095,2.887,2.887,0,0,0,1.918-.566,3.143,3.143,0,0,0,.887-1.973Z" transform="translate(814.5 2716.006)" fill="#12263f"/>
    <path id="Trazado_718289" data-name="Trazado 718289" d="M117.956,5.523h-3.484V15h-2.344V5.523H108.69v-1.9h9.266Zm4.383,9.633a4.15,4.15,0,0,1-3.027-1.141,4.054,4.054,0,0,1-1.168-3.039v-.219a5.106,5.106,0,0,1,.492-2.277,3.612,3.612,0,0,1,1.395-1.547,3.914,3.914,0,0,1,2.059-.543,3.508,3.508,0,0,1,2.73,1.094,4.444,4.444,0,0,1,1,3.1v.922h-5.383a2.1,2.1,0,0,0,.66,1.328,2,2,0,0,0,1.395.5,2.437,2.437,0,0,0,2.039-.945l1.109,1.242a3.389,3.389,0,0,1-1.375,1.121A4.511,4.511,0,0,1,122.338,15.156Zm-.258-6.945a1.411,1.411,0,0,0-1.09.455,2.357,2.357,0,0,0-.535,1.3H123.6V9.788a1.681,1.681,0,0,0-.406-1.165A1.456,1.456,0,0,0,122.081,8.211Zm7.133-1.664.07.945a2.971,2.971,0,0,1,2.43-1.1,2.255,2.255,0,0,1,2.242,1.289,2.9,2.9,0,0,1,2.539-1.289,2.521,2.521,0,0,1,2.047.8,3.681,3.681,0,0,1,.672,2.41V15h-2.266V9.609a1.61,1.61,0,0,0-.281-1.051,1.246,1.246,0,0,0-.992-.332,1.409,1.409,0,0,0-1.406.969l.008,5.8h-2.258V9.617a1.59,1.59,0,0,0-.289-1.062,1.259,1.259,0,0,0-.984-.328,1.463,1.463,0,0,0-1.391.8V15H127.1V6.547Zm19.344,4.3a5.07,5.07,0,0,1-.887,3.129,2.843,2.843,0,0,1-2.395,1.176,2.633,2.633,0,0,1-2.07-.891V18.25h-2.258V6.547h2.094l.078.828a2.654,2.654,0,0,1,2.141-.984,2.862,2.862,0,0,1,2.43,1.156,5.207,5.207,0,0,1,.867,3.188Zm-2.258-.164a3.327,3.327,0,0,0-.418-1.82,1.361,1.361,0,0,0-1.215-.641,1.479,1.479,0,0,0-1.461.813V12.5a1.5,1.5,0,0,0,1.477.836Q146.3,13.336,146.3,10.688Zm7.547,4.469a4.15,4.15,0,0,1-3.027-1.141,4.054,4.054,0,0,1-1.168-3.039v-.219a5.106,5.106,0,0,1,.492-2.277,3.612,3.612,0,0,1,1.395-1.547,3.914,3.914,0,0,1,2.059-.543,3.508,3.508,0,0,1,2.73,1.094,4.444,4.444,0,0,1,1,3.1v.922H151.94a2.1,2.1,0,0,0,.66,1.328,2,2,0,0,0,1.395.5,2.437,2.437,0,0,0,2.039-.945l1.109,1.242a3.389,3.389,0,0,1-1.375,1.121A4.511,4.511,0,0,1,153.846,15.156Zm-.258-6.945a1.411,1.411,0,0,0-1.09.455,2.357,2.357,0,0,0-.535,1.3H155.1V9.788a1.681,1.681,0,0,0-.406-1.165A1.456,1.456,0,0,0,153.588,8.211Zm9.766.453a6.134,6.134,0,0,0-.812-.062,1.654,1.654,0,0,0-1.68.867V15H158.6V6.547h2.133l.063,1.008a2.092,2.092,0,0,1,1.883-1.164,2.366,2.366,0,0,1,.7.1ZM169.1,15a2.507,2.507,0,0,1-.227-.758,2.732,2.732,0,0,1-2.133.914,3,3,0,0,1-2.059-.719,2.312,2.312,0,0,1-.816-1.812,2.389,2.389,0,0,1,1-2.062,4.915,4.915,0,0,1,2.879-.727h1.039V9.352a1.393,1.393,0,0,0-.3-.937,1.183,1.183,0,0,0-.949-.352,1.345,1.345,0,0,0-.895.273.929.929,0,0,0-.324.75h-2.258a2.268,2.268,0,0,1,.453-1.359,3,3,0,0,1,1.281-.98,4.669,4.669,0,0,1,1.859-.355,3.689,3.689,0,0,1,2.48.785,2.747,2.747,0,0,1,.918,2.207v3.664a4.041,4.041,0,0,0,.336,1.82V15Zm-1.867-1.57a1.945,1.945,0,0,0,.922-.223,1.462,1.462,0,0,0,.625-.6V11.156h-.844q-1.7,0-1.8,1.172l-.008.133a.9.9,0,0,0,.3.7A1.153,1.153,0,0,0,167.237,13.43Zm8.25-8.961V6.547h1.445V8.2h-1.445v4.219a1.007,1.007,0,0,0,.18.672.9.9,0,0,0,.688.2,3.6,3.6,0,0,0,.664-.055v1.711a4.648,4.648,0,0,1-1.367.2,2.156,2.156,0,0,1-2.422-2.4V8.2h-1.234V6.547h1.234V4.469Zm7.766,9.672a2.831,2.831,0,0,1-2.312,1.016,2.67,2.67,0,0,1-2.074-.781,3.335,3.335,0,0,1-.73-2.289V6.547h2.258v5.467q0,1.322,1.2,1.322a1.63,1.63,0,0,0,1.578-.8V6.547h2.266V15h-2.125Zm8.641-5.477a6.134,6.134,0,0,0-.812-.062,1.654,1.654,0,0,0-1.68.867V15h-2.258V6.547h2.133l.063,1.008a2.092,2.092,0,0,1,1.883-1.164,2.366,2.366,0,0,1,.7.1ZM197.643,15a2.507,2.507,0,0,1-.227-.758,2.732,2.732,0,0,1-2.133.914,3,3,0,0,1-2.059-.719,2.312,2.312,0,0,1-.816-1.812,2.389,2.389,0,0,1,1-2.062,4.915,4.915,0,0,1,2.879-.727h1.039V9.352a1.393,1.393,0,0,0-.3-.937,1.183,1.183,0,0,0-.949-.352,1.345,1.345,0,0,0-.895.273.929.929,0,0,0-.324.75H192.6a2.268,2.268,0,0,1,.453-1.359,3,3,0,0,1,1.281-.98,4.669,4.669,0,0,1,1.859-.355,3.689,3.689,0,0,1,2.48.785,2.747,2.747,0,0,1,.918,2.207v3.664a4.041,4.041,0,0,0,.336,1.82V15Zm-1.867-1.57a1.945,1.945,0,0,0,.922-.223,1.462,1.462,0,0,0,.625-.6V11.156h-.844q-1.7,0-1.8,1.172l-.008.133a.9.9,0,0,0,.3.7A1.153,1.153,0,0,0,195.776,13.43Z" transform="translate(814.5 2810)" fill="#12263f"/>
    <path id="Trazado_718286" data-name="Trazado 718286" d="M109.534,8.609h1.086a2.387,2.387,0,0,0,1.609-.539,1.8,1.8,0,0,0,.586-1.414,1.764,1.764,0,0,0-1.992-2,2.072,2.072,0,0,0-1.5.535,1.873,1.873,0,0,0-.559,1.418h-1.445a2.9,2.9,0,0,1,.988-2.246,3.6,3.6,0,0,1,2.512-.895,3.558,3.558,0,0,1,2.523.852,3.076,3.076,0,0,1,.914,2.367,2.5,2.5,0,0,1-.48,1.438,2.9,2.9,0,0,1-1.309,1.039,2.8,2.8,0,0,1,1.449.984,2.734,2.734,0,0,1,.512,1.68,3.1,3.1,0,0,1-1,2.43,3.745,3.745,0,0,1-2.6.9,3.844,3.844,0,0,1-2.605-.867,2.877,2.877,0,0,1-1-2.289h1.453a1.859,1.859,0,0,0,.586,1.438,2.229,2.229,0,0,0,1.57.539,2.187,2.187,0,0,0,1.6-.547,2.108,2.108,0,0,0,.555-1.57,1.912,1.912,0,0,0-.609-1.523,2.655,2.655,0,0,0-1.758-.547h-1.086Zm14.016,1.539a6.61,6.61,0,0,1-.867,3.773,3.6,3.6,0,0,1-5.406.027,6.274,6.274,0,0,1-.906-3.605V8.414a6.463,6.463,0,0,1,.867-3.727,3.668,3.668,0,0,1,5.422-.043,6.237,6.237,0,0,1,.891,3.629ZM122.1,8.172a5.3,5.3,0,0,0-.516-2.676,1.775,1.775,0,0,0-1.633-.84,1.751,1.751,0,0,0-1.617.836,5.171,5.171,0,0,0-.523,2.57v2.313a5.381,5.381,0,0,0,.535,2.723,1.771,1.771,0,0,0,1.621.879,1.747,1.747,0,0,0,1.59-.828,5.186,5.186,0,0,0,.543-2.609Zm7.266-1.945a2.755,2.755,0,0,1,.734-2,2.866,2.866,0,0,1,3.883-.008,2.813,2.813,0,0,1,.734,2.051v.578a2.76,2.76,0,0,1-.73,2,2.562,2.562,0,0,1-1.934.758,2.6,2.6,0,0,1-1.945-.758A2.8,2.8,0,0,1,129.37,6.8Zm1.273.623a1.851,1.851,0,0,0,.379,1.234,1.284,1.284,0,0,0,1.035.448,1.248,1.248,0,0,0,1.02-.452,1.907,1.907,0,0,0,.371-1.246V6.221a1.839,1.839,0,0,0-.379-1.226,1.4,1.4,0,0,0-2.035-.016,1.823,1.823,0,0,0-.391,1.194Zm14.734,4.541a4.185,4.185,0,0,1-1.332,2.785,4.365,4.365,0,0,1-2.98.98,4.008,4.008,0,0,1-3.23-1.445,5.815,5.815,0,0,1-1.215-3.867V8.75a6.481,6.481,0,0,1,.566-2.789,4.231,4.231,0,0,1,1.605-1.848,4.47,4.47,0,0,1,2.406-.645A4.11,4.11,0,0,1,144.1,4.48a4.235,4.235,0,0,1,1.273,2.8H143.87a3.268,3.268,0,0,0-.848-1.975A2.565,2.565,0,0,0,141.2,4.7a2.684,2.684,0,0,0-2.254,1.063,4.882,4.882,0,0,0-.816,3.026v1.1a5.018,5.018,0,0,0,.773,2.948,2.5,2.5,0,0,0,2.164,1.095,2.887,2.887,0,0,0,1.918-.566,3.143,3.143,0,0,0,.887-1.973Zm11,3.609a3.036,3.036,0,0,1-.2-.891,3.225,3.225,0,0,1-2.406,1.047,2.984,2.984,0,0,1-2.051-.707,2.287,2.287,0,0,1-.8-1.793,2.39,2.39,0,0,1,1-2.051,4.733,4.733,0,0,1,2.824-.73h1.406V9.211A1.623,1.623,0,0,0,155.7,8a1.821,1.821,0,0,0-1.336-.449,2.107,2.107,0,0,0-1.3.391,1.151,1.151,0,0,0-.523.945h-1.453a2,2,0,0,1,.449-1.223,3.066,3.066,0,0,1,1.219-.934,4.1,4.1,0,0,1,1.691-.344,3.342,3.342,0,0,1,2.289.73,2.635,2.635,0,0,1,.859,2.012v3.891a4.757,4.757,0,0,0,.3,1.852V15Zm-2.4-1.1a2.54,2.54,0,0,0,1.289-.352,2.127,2.127,0,0,0,.883-.914V10.9h-1.133q-2.656,0-2.656,1.555a1.316,1.316,0,0,0,.453,1.063A1.742,1.742,0,0,0,153.979,13.9Zm11.8-5.289h1.086a2.387,2.387,0,0,0,1.609-.539,1.8,1.8,0,0,0,.586-1.414,1.764,1.764,0,0,0-1.992-2,2.072,2.072,0,0,0-1.5.535,1.873,1.873,0,0,0-.559,1.418h-1.445a2.9,2.9,0,0,1,.988-2.246,3.6,3.6,0,0,1,2.512-.895,3.558,3.558,0,0,1,2.523.852,3.076,3.076,0,0,1,.914,2.367,2.5,2.5,0,0,1-.48,1.438,2.9,2.9,0,0,1-1.309,1.039,2.8,2.8,0,0,1,1.449.984,2.734,2.734,0,0,1,.512,1.68,3.1,3.1,0,0,1-1,2.43,3.745,3.745,0,0,1-2.6.9,3.844,3.844,0,0,1-2.605-.867,2.877,2.877,0,0,1-1-2.289h1.453a1.859,1.859,0,0,0,.586,1.438,2.229,2.229,0,0,0,1.57.539,2.187,2.187,0,0,0,1.6-.547,2.108,2.108,0,0,0,.555-1.57,1.912,1.912,0,0,0-.609-1.523,2.655,2.655,0,0,0-1.758-.547h-1.086ZM180.112,15h-7.453V13.961L176.6,9.586A9.355,9.355,0,0,0,177.8,7.973a2.692,2.692,0,0,0,.332-1.285,2.041,2.041,0,0,0-.539-1.461,1.885,1.885,0,0,0-1.437-.57,2.232,2.232,0,0,0-1.676.613,2.343,2.343,0,0,0-.6,1.707H172.44a3.355,3.355,0,0,1,1.012-2.539,3.751,3.751,0,0,1,2.707-.969,3.6,3.6,0,0,1,2.508.832,2.838,2.838,0,0,1,.922,2.215q0,1.68-2.141,4l-3.047,3.3h5.711Zm5.5-8.773a2.755,2.755,0,0,1,.734-2,2.866,2.866,0,0,1,3.883-.008,2.813,2.813,0,0,1,.734,2.051v.578a2.76,2.76,0,0,1-.73,2,2.562,2.562,0,0,1-1.934.758,2.6,2.6,0,0,1-1.945-.758,2.8,2.8,0,0,1-.742-2.047Zm1.273.623a1.851,1.851,0,0,0,.379,1.234,1.284,1.284,0,0,0,1.035.448,1.248,1.248,0,0,0,1.02-.452,1.907,1.907,0,0,0,.371-1.246V6.221a1.839,1.839,0,0,0-.379-1.226,1.4,1.4,0,0,0-2.035-.016,1.823,1.823,0,0,0-.391,1.194Zm14.734,4.541a4.185,4.185,0,0,1-1.332,2.785,4.365,4.365,0,0,1-2.98.98,4.008,4.008,0,0,1-3.23-1.445,5.815,5.815,0,0,1-1.215-3.867V8.75a6.481,6.481,0,0,1,.566-2.789,4.231,4.231,0,0,1,1.605-1.848,4.47,4.47,0,0,1,2.406-.645,4.11,4.11,0,0,1,2.906,1.012,4.235,4.235,0,0,1,1.273,2.8h-1.508a3.268,3.268,0,0,0-.848-1.975A2.565,2.565,0,0,0,197.44,4.7a2.684,2.684,0,0,0-2.254,1.063,4.882,4.882,0,0,0-.816,3.026v1.1a5.018,5.018,0,0,0,.773,2.948,2.5,2.5,0,0,0,2.164,1.095,2.887,2.887,0,0,0,1.918-.566,3.143,3.143,0,0,0,.887-1.973Z" transform="translate(813.401 2760)" fill="#12263f"/>
    <path id="Trazado_718290" data-name="Trazado 718290" d="M143.09,15h-7.453V13.961l3.938-4.375a9.355,9.355,0,0,0,1.207-1.613,2.692,2.692,0,0,0,.332-1.285,2.041,2.041,0,0,0-.539-1.461,1.885,1.885,0,0,0-1.437-.57,2.232,2.232,0,0,0-1.676.613,2.343,2.343,0,0,0-.6,1.707h-1.445a3.355,3.355,0,0,1,1.012-2.539,3.751,3.751,0,0,1,2.707-.969,3.6,3.6,0,0,1,2.508.832,2.838,2.838,0,0,1,.922,2.215q0,1.68-2.141,4l-3.047,3.3h5.711Zm8.43-8.406a2.641,2.641,0,0,1-.449,1.516,3.057,3.057,0,0,1-1.215,1.039,3.26,3.26,0,0,1,1.41,1.117,2.811,2.811,0,0,1,.52,1.664,2.972,2.972,0,0,1-1,2.352,4.367,4.367,0,0,1-5.25,0,2.986,2.986,0,0,1-.988-2.348,2.9,2.9,0,0,1,.5-1.664,3.136,3.136,0,0,1,1.395-1.125,2.981,2.981,0,0,1-1.2-1.039,2.679,2.679,0,0,1-.437-1.508,2.94,2.94,0,0,1,.922-2.281,3.915,3.915,0,0,1,4.855,0A2.934,2.934,0,0,1,151.52,6.594Zm-1.18,5.3a2.1,2.1,0,0,0-.605-1.555,2.147,2.147,0,0,0-1.582-.6A2.034,2.034,0,0,0,146,11.9a2.019,2.019,0,0,0,.574,1.523,2.565,2.565,0,0,0,3.191,0A2.014,2.014,0,0,0,150.34,11.9Zm-2.172-7.242a1.865,1.865,0,0,0-1.379.527,1.937,1.937,0,0,0-.527,1.434,1.928,1.928,0,0,0,.52,1.4,2.064,2.064,0,0,0,2.773,0,1.928,1.928,0,0,0,.52-1.4,1.929,1.929,0,0,0-.539-1.414A1.839,1.839,0,0,0,148.168,4.656Zm9.406,1.57a2.755,2.755,0,0,1,.734-2,2.866,2.866,0,0,1,3.883-.008,2.813,2.813,0,0,1,.734,2.051v.578a2.76,2.76,0,0,1-.73,2,2.562,2.562,0,0,1-1.934.758,2.6,2.6,0,0,1-1.945-.758,2.8,2.8,0,0,1-.742-2.047Zm1.273.623a1.851,1.851,0,0,0,.379,1.234,1.284,1.284,0,0,0,1.035.448,1.248,1.248,0,0,0,1.02-.452,1.907,1.907,0,0,0,.371-1.246V6.221a1.839,1.839,0,0,0-.379-1.226,1.4,1.4,0,0,0-2.035-.016,1.823,1.823,0,0,0-.391,1.194Zm14.734,4.541a4.185,4.185,0,0,1-1.332,2.785,4.365,4.365,0,0,1-2.98.98,4.008,4.008,0,0,1-3.23-1.445,5.815,5.815,0,0,1-1.215-3.867V8.75a6.481,6.481,0,0,1,.566-2.789A4.231,4.231,0,0,1,167,4.113a4.47,4.47,0,0,1,2.406-.645,4.11,4.11,0,0,1,2.906,1.012,4.235,4.235,0,0,1,1.273,2.8h-1.508a3.268,3.268,0,0,0-.848-1.975A2.565,2.565,0,0,0,169.4,4.7a2.684,2.684,0,0,0-2.254,1.063,4.882,4.882,0,0,0-.816,3.026v1.1a5.018,5.018,0,0,0,.773,2.948,2.5,2.5,0,0,0,2.164,1.095,2.887,2.887,0,0,0,1.918-.566,3.143,3.143,0,0,0,.887-1.973Z" transform="translate(814.5 2859)" fill="#12263f"/>
    <path id="Trazado_718293" data-name="Trazado 718293" d="M143.006,15h-7.453V13.961l3.938-4.375A9.355,9.355,0,0,0,140.7,7.973a2.692,2.692,0,0,0,.332-1.285,2.041,2.041,0,0,0-.539-1.461,1.885,1.885,0,0,0-1.437-.57,2.232,2.232,0,0,0-1.676.613,2.343,2.343,0,0,0-.6,1.707h-1.445a3.355,3.355,0,0,1,1.012-2.539,3.751,3.751,0,0,1,2.707-.969,3.6,3.6,0,0,1,2.508.832,2.838,2.838,0,0,1,.922,2.215q0,1.68-2.141,4l-3.047,3.3h5.711Zm7.2-11.383V4.844h-.266a3.805,3.805,0,0,0-2.687,1A4.161,4.161,0,0,0,146.1,8.57a3.085,3.085,0,0,1,2.453-1.031,2.95,2.95,0,0,1,2.371,1.047,4.038,4.038,0,0,1,.887,2.7,4.025,4.025,0,0,1-.957,2.813,3.3,3.3,0,0,1-2.566,1.055,3.247,3.247,0,0,1-2.648-1.254,4.97,4.97,0,0,1-1.016-3.23v-.555a7.488,7.488,0,0,1,1.34-4.8,4.921,4.921,0,0,1,3.988-1.7Zm-1.9,5.125a2.429,2.429,0,0,0-2.234,1.563v.531a3.731,3.731,0,0,0,.633,2.266,1.9,1.9,0,0,0,1.578.859,1.838,1.838,0,0,0,1.535-.719,2.982,2.982,0,0,0,.559-1.883,2.983,2.983,0,0,0-.566-1.895A1.816,1.816,0,0,0,148.311,8.742Zm9.18-2.516a2.755,2.755,0,0,1,.734-2,2.866,2.866,0,0,1,3.883-.008,2.813,2.813,0,0,1,.734,2.051v.578a2.76,2.76,0,0,1-.73,2,2.562,2.562,0,0,1-1.934.758,2.6,2.6,0,0,1-1.945-.758,2.8,2.8,0,0,1-.742-2.047Zm1.273.623a1.851,1.851,0,0,0,.379,1.234,1.284,1.284,0,0,0,1.035.448,1.248,1.248,0,0,0,1.02-.452,1.907,1.907,0,0,0,.371-1.246V6.221a1.839,1.839,0,0,0-.379-1.226,1.4,1.4,0,0,0-2.035-.016,1.823,1.823,0,0,0-.391,1.194ZM173.5,11.391a4.185,4.185,0,0,1-1.332,2.785,4.365,4.365,0,0,1-2.98.98,4.008,4.008,0,0,1-3.23-1.445,5.815,5.815,0,0,1-1.215-3.867V8.75a6.481,6.481,0,0,1,.566-2.789,4.231,4.231,0,0,1,1.605-1.848,4.47,4.47,0,0,1,2.406-.645,4.11,4.11,0,0,1,2.906,1.012,4.235,4.235,0,0,1,1.273,2.8h-1.508a3.268,3.268,0,0,0-.848-1.975,2.565,2.565,0,0,0-1.824-.611,2.684,2.684,0,0,0-2.254,1.063,4.882,4.882,0,0,0-.816,3.026v1.1a5.018,5.018,0,0,0,.773,2.948,2.5,2.5,0,0,0,2.164,1.095,2.887,2.887,0,0,0,1.918-.566,3.143,3.143,0,0,0,.887-1.973Z" transform="translate(814.5 2904.567)" fill="#12263f"/>
    <path id="Trazado_718294" data-name="Trazado 718294" d="M127.276,12.656h-4.109L122.385,15h-2.492l4.234-11.375H126.3L130.557,15h-2.492Zm-3.477-1.9h2.844L125.213,6.5Zm9.414-4.211.07.945a2.971,2.971,0,0,1,2.43-1.1,2.255,2.255,0,0,1,2.242,1.289,2.9,2.9,0,0,1,2.539-1.289,2.521,2.521,0,0,1,2.047.8,3.681,3.681,0,0,1,.672,2.41V15h-2.266V9.609a1.61,1.61,0,0,0-.281-1.051,1.246,1.246,0,0,0-.992-.332,1.409,1.409,0,0,0-1.406.969l.008,5.8h-2.258V9.617a1.59,1.59,0,0,0-.289-1.062,1.259,1.259,0,0,0-.984-.328,1.463,1.463,0,0,0-1.391.8V15H131.1V6.547Zm19.352,4.3a5.119,5.119,0,0,1-.867,3.168,2.872,2.872,0,0,1-2.422,1.137,2.639,2.639,0,0,1-2.2-1.055l-.1.9h-2.031V3h2.258V7.3a2.571,2.571,0,0,1,2.055-.914,2.9,2.9,0,0,1,2.426,1.137,5.126,5.126,0,0,1,.879,3.2Zm-2.258-.164a3.363,3.363,0,0,0-.406-1.871,1.374,1.374,0,0,0-1.211-.59,1.489,1.489,0,0,0-1.484.883v3.336a1.509,1.509,0,0,0,1.5.891,1.394,1.394,0,0,0,1.438-1.078A5.562,5.562,0,0,0,150.307,10.688ZM156.338,15h-2.266V6.547h2.266Zm-2.4-10.641a1.112,1.112,0,0,1,.34-.836,1.465,1.465,0,0,1,1.848,0,1.105,1.105,0,0,1,.344.836,1.109,1.109,0,0,1-.348.844,1.448,1.448,0,0,1-1.836,0A1.109,1.109,0,0,1,153.94,4.359Zm8.148,10.8a4.15,4.15,0,0,1-3.027-1.141,4.054,4.054,0,0,1-1.168-3.039v-.219a5.106,5.106,0,0,1,.492-2.277,3.612,3.612,0,0,1,1.395-1.547,3.914,3.914,0,0,1,2.059-.543,3.508,3.508,0,0,1,2.73,1.094,4.444,4.444,0,0,1,1,3.1v.922h-5.383a2.1,2.1,0,0,0,.66,1.328,2,2,0,0,0,1.395.5,2.437,2.437,0,0,0,2.039-.945l1.109,1.242a3.389,3.389,0,0,1-1.375,1.121A4.511,4.511,0,0,1,162.088,15.156Zm-.258-6.945a1.411,1.411,0,0,0-1.09.455,2.357,2.357,0,0,0-.535,1.3h3.141V9.788a1.681,1.681,0,0,0-.406-1.165A1.456,1.456,0,0,0,161.831,8.211Zm7.094-1.664.07.977a2.951,2.951,0,0,1,2.43-1.133,2.453,2.453,0,0,1,2,.789,3.682,3.682,0,0,1,.672,2.359V15h-2.258V9.594a1.465,1.465,0,0,0-.312-1.043,1.4,1.4,0,0,0-1.039-.324,1.553,1.553,0,0,0-1.43.813V15H166.8V6.547Zm9.586-2.078V6.547h1.445V8.2H178.51v4.219a1.007,1.007,0,0,0,.18.672.9.9,0,0,0,.688.2,3.6,3.6,0,0,0,.664-.055v1.711a4.648,4.648,0,0,1-1.367.2,2.156,2.156,0,0,1-2.422-2.4V8.2h-1.234V6.547h1.234V4.469ZM185.1,15.156a4.15,4.15,0,0,1-3.027-1.141,4.054,4.054,0,0,1-1.168-3.039v-.219A5.106,5.106,0,0,1,181.4,8.48,3.612,3.612,0,0,1,182.8,6.934a3.914,3.914,0,0,1,2.059-.543,3.508,3.508,0,0,1,2.73,1.094,4.444,4.444,0,0,1,1,3.1v.922H183.2a2.1,2.1,0,0,0,.66,1.328,2,2,0,0,0,1.395.5,2.437,2.437,0,0,0,2.039-.945l1.109,1.242a3.389,3.389,0,0,1-1.375,1.121A4.511,4.511,0,0,1,185.1,15.156Zm-.258-6.945a1.411,1.411,0,0,0-1.09.455,2.357,2.357,0,0,0-.535,1.3h3.141V9.788a1.681,1.681,0,0,0-.406-1.165A1.456,1.456,0,0,0,184.846,8.211Z" transform="translate(814.5 2950.004)" fill="#12263f"/>
    <rect id="Rectángulo_341370" data-name="Rectángulo 341370" width="672" height="2" transform="translate(460 2649)" fill="#06d1d1"/>
    <path id="Trazado_717619" data-name="Trazado 717619" d="M708.813,3157v329" transform="translate(86.937 -506)" fill="none" stroke="#707070" stroke-width="1"/>
    <rect id="Rectángulo_341371" data-name="Rectángulo 341371" width="7" height="40" transform="translate(460 2586)" fill="#b20d0d"/>
  </g>
</svg>
