<svg xmlns="http://www.w3.org/2000/svg" width="740" height="343" viewBox="0 0 740 343">
  <g id="Grupo_1018056" data-name="Grupo 1018056" transform="translate(-681 -1448)">
    <rect id="Rectángulo_340930" data-name="Rectángulo 340930" width="740" height="290" rx="25" transform="translate(681 1501)" fill="#ffe8ce" opacity="0.31"/>
    <path id="Trazado_706613" data-name="Trazado 706613" d="M56.022,59.9,118,25.7l61.447,34.2Z" transform="translate(685.569 1541.339)" fill="none" stroke="#03a4a4" stroke-linejoin="bevel" stroke-width="1"/>
    <path id="Trazado_706614" data-name="Trazado 706614" d="M56.022,59.9,118,25.7l61.447,34.2Z" transform="translate(685.569 1541.339)" fill="none" stroke="#03a4a4" stroke-linejoin="bevel" stroke-width="1"/>
    <rect id="Rectángulo_340923" data-name="Rectángulo 340923" width="123.429" height="25.647" transform="translate(741.591 1601.239)" fill="none" stroke="#03a4a4" stroke-linejoin="bevel" stroke-width="1"/>
    <rect id="Rectángulo_340924" data-name="Rectángulo 340924" width="123.429" height="25.647" transform="translate(741.591 1601.239)" fill="none" stroke="#03a4a4" stroke-linejoin="bevel" stroke-miterlimit="10" stroke-width="1"/>
    <path id="Trazado_706615" data-name="Trazado 706615" d="M113.874,30.064l.067-9.15,10.152-5.878,8.683,6.145-.067,8.483-9.685-5.01Z" transform="translate(679.881 1542.388)" fill="none" stroke="#03a4a4" stroke-linejoin="bevel" stroke-width="1"/>
    <path id="Trazado_706616" data-name="Trazado 706616" d="M113.874,30.064l.067-9.15,10.152-5.878,8.683,6.145-.067,8.483-9.685-5.01Z" transform="translate(679.881 1542.388)" fill="none" stroke="#03a4a4" stroke-linejoin="bevel" stroke-width="1"/>
    <path id="Trazado_706617" data-name="Trazado 706617" d="M19.747,0,18.7,1.469,51.048,24.5,49.259,26.86l3.994.5,4,.5-1.561-3.712-1.561-3.712-1.989,2.621Z" transform="translate(689.239 1543.866)" fill="#ffc403"/>
    <path id="Trazado_706618" data-name="Trazado 706618" d="M44.69,62.389l-1.561-3.712L41.14,61.3,8.749,38.231,7.7,39.7,40.05,62.735l-1.789,2.356,3.994.5,4,.5Z" transform="translate(690.32 1540.107)" fill="#ffc403"/>
    <path id="Trazado_706619" data-name="Trazado 706619" d="M0,80.293l32.347,23.035-1.79,2.356,4,.5,3.994.5-1.56-3.712-1.56-3.711-1.989,2.62L1.046,78.824Z" transform="translate(691.078 1536.116)" fill="#ffc403"/>
    <path id="Trazado_706620" data-name="Trazado 706620" d="M344,234.986c-25.407,0-50.624-1.815-66.06-4.249-14.723-2.32-15.608-4.384-15.941-5.162-2.044-4.768,1.618-8.43,4.849-11.661,3.5-3.5,5.543-5.783,3.645-8.63-1.839-2.76-8.9-3.412-16.379-4.1-10.744-.991-22.922-2.114-27.71-9.536-4.84-7.5-4.591-19.887-4.373-30.815.142-7.068.276-13.744-1.268-16.524-1.864-3.355-11.421-5.6-19.855-7.589-10.527-2.478-17.024-4.164-17.9-7.443-.767-2.878.384-5.131,1.5-7.312,1.456-2.85,2.715-5.312.214-9.271-1.412-2.236-18.569-4.566-62.5-4.338-31.559.152-63.645,1.574-71.25,2.744-6.952,1.069-7.754,2.664-7.835,3.126-.195,1.123,1.881,2.644,2.917,3.2l-.857,1.588c-.441-.239-4.3-2.4-3.838-5.1.382-2.219,3.35-3.683,9.338-4.6,7.667-1.179,39.88-2.612,71.515-2.765,40.193-.193,61.741,1.548,64.034,5.178,3.049,4.828,1.359,8.136-.133,11.055-1.047,2.049-1.95,3.818-1.362,6.026.641,2.4,9.1,4.4,16.57,6.153,9.226,2.172,18.766,4.417,21.017,8.469,1.78,3.2,1.648,9.8,1.495,17.437-.2,10.14-.456,22.761,4.085,29.8,4.313,6.684,16.026,7.764,26.361,8.718,8.261.761,15.4,1.42,17.713,4.9,2.814,4.222-.737,7.772-3.87,10.906-3.1,3.1-6.029,6.03-4.467,9.677.084.2,1.21,1.986,14.564,4.091,35.986,5.672,130.931,7.991,146.229-9.538,10.8-12.379,12.521-17.3,13.657-20.56.908-2.606,1.508-4.327,5.7-7.609,5.36-4.2,15.857-2.623,26.007-1.1,7.677,1.15,14.929,2.238,17.711.273,1.056-.745,1.628-1.393,1.7-1.926.088-.634-.555-1.426-1.3-2.344-1.7-2.091-4.261-5.252-1.5-11.012,2.536-5.282,27.494-4.906,68.006-3.859,32.759.848,66.635,1.725,74.2-2.93,7.38-4.542,7.7-8.532,8.033-12.755.351-4.408.748-9.4,9.18-14.886a116.4,116.4,0,0,1,14.558-7.634c11.944-5.557,23.226-10.8,27.954-25.546a16.775,16.775,0,0,1,8.669-10.136c13.494-6.87,36,.423,36.955.738l-.565,1.712c-.226-.075-22.754-7.372-35.575-.841a15.025,15.025,0,0,0-7.768,9.077c-4.969,15.493-16.6,20.9-28.911,26.63a114.941,114.941,0,0,0-14.335,7.513c-7.688,5-8.017,9.135-8.365,13.515-.356,4.487-.726,9.126-8.886,14.148-8.019,4.935-42.166,4.051-75.19,3.2-30.081-.778-64.174-1.66-66.333,2.837-2.27,4.73-.39,7.05,1.27,9.1.967,1.192,1.881,2.318,1.686,3.728-.149,1.077-.926,2.078-2.448,3.153-3.372,2.378-10.624,1.293-19.017.036-9.319-1.4-19.88-2.978-24.628.738-3.777,2.957-4.251,4.315-5.112,6.783-1.181,3.389-2.967,8.51-14,21.152-9.362,10.727-45.772,14.382-81.808,14.382" transform="translate(687.015 1534.579)" fill="#b20d0d"/>
    <path id="Trazado_706621" data-name="Trazado 706621" d="M314.564,128.394l-3.575-4.058-1.454,4.316c-23.805-10.11-26.777-24.7-29.395-37.611-1.54-7.6-3-14.775-8.322-20.4-14.572-15.382-30.933-13.585-31.622-13.5l.217,1.79c.159-.023,16.174-1.746,30.1,12.949,4.971,5.248,6.376,12.179,7.863,19.517,2.712,13.374,5.793,28.492,30.585,38.966l-1.422,4.22,5.3-1.067,5.3-1.067Z" transform="translate(667.46 1538.258)" fill="#ffc403"/>
    <path id="Trazado_706622" data-name="Trazado 706622" d="M296.564,152.616l-3.575-4.058-1.454,4.316c-23.805-10.11-26.777-24.7-29.395-37.611-1.54-7.6-3-14.775-8.322-20.4-14.572-15.382-30.933-13.585-31.622-13.5l.217,1.79c.159-.023,16.174-1.746,30.1,12.949,4.971,5.248,6.376,12.179,7.863,19.517,2.712,13.374,5.793,28.492,30.585,38.966l-1.422,4.22,5.3-1.067,5.3-1.067Z" transform="translate(669.229 1535.876)" fill="#ffc403"/>
    <path id="Trazado_706623" data-name="Trazado 706623" d="M283.749,167.283l-3.575-4.058-1.454,4.316c-23.805-10.11-26.777-24.7-29.395-37.611-1.54-7.6-3-14.775-8.322-20.4-14.572-15.382-30.934-13.585-31.622-13.5l.217,1.79c.159-.023,16.174-1.746,30.094,12.949,4.972,5.248,6.377,12.179,7.864,19.517,2.712,13.374,5.793,28.492,30.585,38.966l-1.422,4.22,5.3-1.067,5.3-1.067Z" transform="translate(670.49 1534.434)" fill="#ffc403"/>
    <path id="Trazado_706624" data-name="Trazado 706624" d="M310.689,198.7l61.378-33.864L432.916,198.7Z" transform="translate(660.529 1527.658)" fill="none" stroke="#03a4a4" stroke-width="1"/>
    <path id="Trazado_706625" data-name="Trazado 706625" d="M310.689,198.7l61.378-33.864L432.916,198.7Z" transform="translate(660.529 1527.658)" fill="none" stroke="#03a4a4" stroke-linejoin="bevel" stroke-width="1"/>
    <rect id="Rectángulo_340925" data-name="Rectángulo 340925" width="122.227" height="25.397" transform="translate(971.217 1726.356)" fill="none" stroke="#03a4a4" stroke-width="1"/>
    <rect id="Rectángulo_340926" data-name="Rectángulo 340926" width="122.227" height="25.397" transform="translate(971.217 1726.356)" fill="none" stroke="#03a4a4" stroke-miterlimit="10" stroke-width="1"/>
    <path id="Trazado_706626" data-name="Trazado 706626" d="M367.977,169.153l.066-9.061,10.054-5.82,8.6,6.084-.067,8.4-9.59-4.961Z" transform="translate(654.896 1528.697)" fill="none" stroke="#03a4a4" stroke-width="1"/>
    <path id="Trazado_706627" data-name="Trazado 706627" d="M367.977,169.153l.066-9.061,10.054-5.82,8.6,6.084-.067,8.4-9.59-4.961Z" transform="translate(654.896 1528.697)" fill="none" stroke="#03a4a4" stroke-linejoin="bevel" stroke-width="1"/>
    <path id="Trazado_706628" data-name="Trazado 706628" d="M546.837,140.031l61.244-33.864L668.8,140.031Z" transform="translate(637.309 1533.427)" fill="none" stroke="#03a4a4" stroke-width="1"/>
    <path id="Trazado_706629" data-name="Trazado 706629" d="M546.837,140.031l61.244-33.864L668.8,140.031Z" transform="translate(637.309 1533.427)" fill="none" stroke="#03a4a4" stroke-linejoin="bevel" stroke-width="1"/>
    <rect id="Rectángulo_340927" data-name="Rectángulo 340927" width="121.959" height="25.397" transform="translate(1184.146 1673.459)" fill="none" stroke="#03a4a4" stroke-width="1"/>
    <rect id="Rectángulo_340928" data-name="Rectángulo 340928" width="121.959" height="25.397" transform="translate(1184.146 1673.459)" fill="none" stroke="#03a4a4" stroke-miterlimit="10" stroke-width="1"/>
    <path id="Trazado_706630" data-name="Trazado 706630" d="M604,110.486l.066-9.061,10.031-5.82,8.579,6.085-.066,8.4-9.569-4.961Z" transform="translate(631.688 1534.466)" fill="none" stroke="#03a4a4" stroke-width="1"/>
    <path id="Trazado_706631" data-name="Trazado 706631" d="M604,110.486l.066-9.061,10.031-5.82,8.579,6.085-.066,8.4-9.569-4.961Z" transform="translate(631.688 1534.466)" fill="none" stroke="#03a4a4" stroke-linejoin="bevel" stroke-width="1"/>
    <path id="Trazado_706632" data-name="Trazado 706632" d="M757.85,247.544c-3.293-25.525-24.125-37.46-44.069-45.77-22.005-9.169-160.926-5.048-162.327-5.006l-.054-1.8c5.734-.174,140.711-4.172,163.076,5.146,20.419,8.507,41.753,20.768,45.163,47.2Z" transform="translate(636.86 1524.794)" fill="#8d0a0a"/>
    <path id="Trazado_706633" data-name="Trazado 706633" d="M750.578,255.622c-3.181-22.032-23.306-32.336-42.573-39.509-21.26-7.915-155.466-4.359-156.82-4.322l-.052-1.557c5.54-.15,135.937-3.6,157.542,4.442,19.726,7.344,40.336,17.928,43.631,40.747Z" transform="translate(636.886 1523.279)" fill="#8d0a0a"/>
    <path id="Trazado_718285" data-name="Trazado 718285" d="M36.3,19H32.881V4.781H36.3ZM41.553,8.434l.107,1.24a3.583,3.583,0,0,1,3.018-1.436,3.015,3.015,0,0,1,2.466.986,4.7,4.7,0,0,1,.845,2.969V19h-3.3V12.33a1.783,1.783,0,0,0-.322-1.177,1.491,1.491,0,0,0-1.172-.376,1.569,1.569,0,0,0-1.436.762V19H38.467V8.434Zm12.725,8.223a1.464,1.464,0,0,0,1.074-.376,1.379,1.379,0,0,0,.371-1.05h3.086a3.653,3.653,0,0,1-1.245,2.852A4.631,4.631,0,0,1,54.356,19.2a4.689,4.689,0,0,1-3.633-1.445,5.7,5.7,0,0,1-1.328-4v-.137a6.436,6.436,0,0,1,.591-2.827A4.3,4.3,0,0,1,51.69,8.9a5.081,5.081,0,0,1,2.637-.659A4.573,4.573,0,0,1,57.6,9.381a4.053,4.053,0,0,1,1.211,3.1H55.723a1.807,1.807,0,0,0-.4-1.26,1.382,1.382,0,0,0-1.074-.439q-1.279,0-1.494,1.631a11.507,11.507,0,0,0-.068,1.426,4.52,4.52,0,0,0,.381,2.207A1.319,1.319,0,0,0,54.278,16.656Zm5.508-3.037A6.236,6.236,0,0,1,60.4,10.8a4.4,4.4,0,0,1,1.768-1.9,5.323,5.323,0,0,1,2.705-.664,4.858,4.858,0,0,1,3.74,1.47,5.64,5.64,0,0,1,1.367,4v.117a5.472,5.472,0,0,1-1.372,3.921,4.871,4.871,0,0,1-3.716,1.45,4.927,4.927,0,0,1-3.623-1.353A5.29,5.29,0,0,1,59.8,14.176Zm3.291.205a3.932,3.932,0,0,0,.459,2.148,1.529,1.529,0,0,0,1.357.684q1.758,0,1.8-2.705v-.332q0-2.842-1.816-2.842-1.65,0-1.787,2.451Zm14.746-2.412-1.084-.078a1.947,1.947,0,0,0-1.992.977V19H71.455V8.434h3.086l.107,1.357a2.548,2.548,0,0,1,2.314-1.553,3.209,3.209,0,0,1,.918.117Zm7.578,0-1.084-.078a1.947,1.947,0,0,0-1.992.977V19H79.033V8.434h3.086l.107,1.357a2.548,2.548,0,0,1,2.314-1.553,3.209,3.209,0,0,1,.918.117ZM91.514,19.2a5.432,5.432,0,0,1-3.936-1.45,5.008,5.008,0,0,1-1.5-3.774V13.7a6.489,6.489,0,0,1,.6-2.861,4.395,4.395,0,0,1,1.753-1.919,5.292,5.292,0,0,1,2.734-.679A4.574,4.574,0,0,1,94.678,9.62a5.43,5.43,0,0,1,1.289,3.853v1.279H89.424a2.372,2.372,0,0,0,.771,1.4,2.3,2.3,0,0,0,1.543.508,2.958,2.958,0,0,0,2.441-1.094l1.5,1.777a4.2,4.2,0,0,1-1.743,1.353A5.891,5.891,0,0,1,91.514,19.2Zm-.371-8.418q-1.445,0-1.719,1.914h3.32v-.254a1.63,1.63,0,0,0-.4-1.226A1.593,1.593,0,0,0,91.143,10.777Zm10.615,5.879a1.464,1.464,0,0,0,1.074-.376,1.379,1.379,0,0,0,.371-1.05h3.086a3.653,3.653,0,0,1-1.245,2.852,4.631,4.631,0,0,1-3.208,1.113A4.689,4.689,0,0,1,98.2,17.75a5.7,5.7,0,0,1-1.328-4v-.137a6.436,6.436,0,0,1,.591-2.827A4.3,4.3,0,0,1,99.17,8.9a5.081,5.081,0,0,1,2.637-.659,4.573,4.573,0,0,1,3.271,1.143,4.053,4.053,0,0,1,1.211,3.1H103.2a1.806,1.806,0,0,0-.4-1.26,1.382,1.382,0,0,0-1.074-.439q-1.279,0-1.494,1.631a11.508,11.508,0,0,0-.068,1.426,4.52,4.52,0,0,0,.381,2.207A1.319,1.319,0,0,0,101.758,16.656Zm9.756-10.85V8.434h1.738v2.285h-1.738v4.834a1.234,1.234,0,0,0,.215.83,1.152,1.152,0,0,0,.85.234,4.828,4.828,0,0,0,.82-.059v2.354a6.074,6.074,0,0,1-1.855.283,3.448,3.448,0,0,1-2.51-.8,3.282,3.282,0,0,1-.811-2.432V10.719h-1.348V8.434h1.348V5.807Zm2.324,7.813a6.236,6.236,0,0,1,.615-2.817,4.4,4.4,0,0,1,1.768-1.9,5.323,5.323,0,0,1,2.705-.664,4.858,4.858,0,0,1,3.74,1.47,5.64,5.64,0,0,1,1.367,4v.117a5.472,5.472,0,0,1-1.372,3.921,4.871,4.871,0,0,1-3.716,1.45,4.927,4.927,0,0,1-3.623-1.353,5.29,5.29,0,0,1-1.475-3.667Zm3.291.205a3.932,3.932,0,0,0,.459,2.148,1.529,1.529,0,0,0,1.357.684q1.758,0,1.8-2.705v-.332q0-2.842-1.816-2.842-1.65,0-1.787,2.451Z" transform="translate(729.624 1526)" fill="#12263f"/>
    <path id="Trazado_718286" data-name="Trazado 718286" d="M36.3,19H32.881V4.781H36.3ZM41.553,8.434l.107,1.24a3.583,3.583,0,0,1,3.018-1.436,3.015,3.015,0,0,1,2.466.986,4.7,4.7,0,0,1,.845,2.969V19h-3.3V12.33a1.783,1.783,0,0,0-.322-1.177,1.491,1.491,0,0,0-1.172-.376,1.569,1.569,0,0,0-1.436.762V19H38.467V8.434Zm12.725,8.223a1.464,1.464,0,0,0,1.074-.376,1.379,1.379,0,0,0,.371-1.05h3.086a3.653,3.653,0,0,1-1.245,2.852A4.631,4.631,0,0,1,54.356,19.2a4.689,4.689,0,0,1-3.633-1.445,5.7,5.7,0,0,1-1.328-4v-.137a6.436,6.436,0,0,1,.591-2.827A4.3,4.3,0,0,1,51.69,8.9a5.081,5.081,0,0,1,2.637-.659A4.573,4.573,0,0,1,57.6,9.381a4.053,4.053,0,0,1,1.211,3.1H55.723a1.807,1.807,0,0,0-.4-1.26,1.382,1.382,0,0,0-1.074-.439q-1.279,0-1.494,1.631a11.507,11.507,0,0,0-.068,1.426,4.52,4.52,0,0,0,.381,2.207A1.319,1.319,0,0,0,54.278,16.656Zm5.508-3.037A6.236,6.236,0,0,1,60.4,10.8a4.4,4.4,0,0,1,1.768-1.9,5.323,5.323,0,0,1,2.705-.664,4.858,4.858,0,0,1,3.74,1.47,5.64,5.64,0,0,1,1.367,4v.117a5.472,5.472,0,0,1-1.372,3.921,4.871,4.871,0,0,1-3.716,1.45,4.927,4.927,0,0,1-3.623-1.353A5.29,5.29,0,0,1,59.8,14.176Zm3.291.205a3.932,3.932,0,0,0,.459,2.148,1.529,1.529,0,0,0,1.357.684q1.758,0,1.8-2.705v-.332q0-2.842-1.816-2.842-1.65,0-1.787,2.451Zm14.746-2.412-1.084-.078a1.947,1.947,0,0,0-1.992.977V19H71.455V8.434h3.086l.107,1.357a2.548,2.548,0,0,1,2.314-1.553,3.209,3.209,0,0,1,.918.117Zm7.578,0-1.084-.078a1.947,1.947,0,0,0-1.992.977V19H79.033V8.434h3.086l.107,1.357a2.548,2.548,0,0,1,2.314-1.553,3.209,3.209,0,0,1,.918.117ZM91.514,19.2a5.432,5.432,0,0,1-3.936-1.45,5.008,5.008,0,0,1-1.5-3.774V13.7a6.489,6.489,0,0,1,.6-2.861,4.395,4.395,0,0,1,1.753-1.919,5.292,5.292,0,0,1,2.734-.679A4.574,4.574,0,0,1,94.678,9.62a5.43,5.43,0,0,1,1.289,3.853v1.279H89.424a2.372,2.372,0,0,0,.771,1.4,2.3,2.3,0,0,0,1.543.508,2.958,2.958,0,0,0,2.441-1.094l1.5,1.777a4.2,4.2,0,0,1-1.743,1.353A5.891,5.891,0,0,1,91.514,19.2Zm-.371-8.418q-1.445,0-1.719,1.914h3.32v-.254a1.63,1.63,0,0,0-.4-1.226A1.593,1.593,0,0,0,91.143,10.777Zm10.615,5.879a1.464,1.464,0,0,0,1.074-.376,1.379,1.379,0,0,0,.371-1.05h3.086a3.653,3.653,0,0,1-1.245,2.852,4.631,4.631,0,0,1-3.208,1.113A4.689,4.689,0,0,1,98.2,17.75a5.7,5.7,0,0,1-1.328-4v-.137a6.436,6.436,0,0,1,.591-2.827A4.3,4.3,0,0,1,99.17,8.9a5.081,5.081,0,0,1,2.637-.659,4.573,4.573,0,0,1,3.271,1.143,4.053,4.053,0,0,1,1.211,3.1H103.2a1.806,1.806,0,0,0-.4-1.26,1.382,1.382,0,0,0-1.074-.439q-1.279,0-1.494,1.631a11.508,11.508,0,0,0-.068,1.426,4.52,4.52,0,0,0,.381,2.207A1.319,1.319,0,0,0,101.758,16.656Zm9.756-10.85V8.434h1.738v2.285h-1.738v4.834a1.234,1.234,0,0,0,.215.83,1.152,1.152,0,0,0,.85.234,4.828,4.828,0,0,0,.82-.059v2.354a6.074,6.074,0,0,1-1.855.283,3.448,3.448,0,0,1-2.51-.8,3.282,3.282,0,0,1-.811-2.432V10.719h-1.348V8.434h1.348V5.807Zm2.324,7.813a6.236,6.236,0,0,1,.615-2.817,4.4,4.4,0,0,1,1.768-1.9,5.323,5.323,0,0,1,2.705-.664,4.858,4.858,0,0,1,3.74,1.47,5.64,5.64,0,0,1,1.367,4v.117a5.472,5.472,0,0,1-1.372,3.921,4.871,4.871,0,0,1-3.716,1.45,4.927,4.927,0,0,1-3.623-1.353,5.29,5.29,0,0,1-1.475-3.667Zm3.291.205a3.932,3.932,0,0,0,.459,2.148,1.529,1.529,0,0,0,1.357.684q1.758,0,1.8-2.705v-.332q0-2.842-1.816-2.842-1.65,0-1.787,2.451Z" transform="translate(957.813 1644.952)" fill="#12263f"/>
    <path id="Trazado_718287" data-name="Trazado 718287" d="M51.441,14.186a5.193,5.193,0,0,1-.8,2.622,4.833,4.833,0,0,1-2.056,1.763,7,7,0,0,1-3.022.625,5.584,5.584,0,0,1-4.414-1.826,7.54,7.54,0,0,1-1.611-5.156v-.7a8.607,8.607,0,0,1,.728-3.657,5.513,5.513,0,0,1,2.095-2.422,5.844,5.844,0,0,1,3.164-.854,6.129,6.129,0,0,1,4.16,1.362A5.383,5.383,0,0,1,51.47,9.693H48.052A2.547,2.547,0,0,0,47.4,7.828a2.691,2.691,0,0,0-1.875-.566,2.048,2.048,0,0,0-1.875.957,6.151,6.151,0,0,0-.625,3.057v1.006a6.806,6.806,0,0,0,.571,3.252,2.091,2.091,0,0,0,1.968.977,2.632,2.632,0,0,0,1.807-.557,2.363,2.363,0,0,0,.664-1.768Zm1.055-.566a6.236,6.236,0,0,1,.615-2.817,4.4,4.4,0,0,1,1.768-1.9,5.323,5.323,0,0,1,2.705-.664,4.858,4.858,0,0,1,3.74,1.47,5.64,5.64,0,0,1,1.367,4v.117a5.472,5.472,0,0,1-1.372,3.921A4.871,4.871,0,0,1,57.6,19.2a4.927,4.927,0,0,1-3.623-1.353,5.29,5.29,0,0,1-1.475-3.667Zm3.291.205a3.932,3.932,0,0,0,.459,2.148,1.529,1.529,0,0,0,1.357.684q1.758,0,1.8-2.705v-.332q0-2.842-1.816-2.842-1.65,0-1.787,2.451Zm14.746-2.412-1.084-.078a1.947,1.947,0,0,0-1.992.977V19H64.165V8.434h3.086l.107,1.357a2.548,2.548,0,0,1,2.314-1.553,3.209,3.209,0,0,1,.918.117Zm7.578,0-1.084-.078a1.947,1.947,0,0,0-1.992.977V19H71.743V8.434h3.086l.107,1.357a2.548,2.548,0,0,1,2.314-1.553,3.209,3.209,0,0,1,.918.117ZM84.224,19.2a5.432,5.432,0,0,1-3.936-1.45,5.008,5.008,0,0,1-1.5-3.774V13.7a6.489,6.489,0,0,1,.6-2.861,4.395,4.395,0,0,1,1.753-1.919,5.292,5.292,0,0,1,2.734-.679A4.574,4.574,0,0,1,87.388,9.62a5.43,5.43,0,0,1,1.289,3.853v1.279H82.134a2.372,2.372,0,0,0,.771,1.4,2.3,2.3,0,0,0,1.543.508,2.958,2.958,0,0,0,2.441-1.094l1.5,1.777a4.2,4.2,0,0,1-1.743,1.353A5.891,5.891,0,0,1,84.224,19.2Zm-.371-8.418q-1.445,0-1.719,1.914h3.32v-.254a1.63,1.63,0,0,0-.4-1.226A1.593,1.593,0,0,0,83.853,10.777Zm10.615,5.879a1.464,1.464,0,0,0,1.074-.376,1.379,1.379,0,0,0,.371-1.05H99a3.653,3.653,0,0,1-1.245,2.852A4.631,4.631,0,0,1,94.546,19.2a4.689,4.689,0,0,1-3.633-1.445,5.7,5.7,0,0,1-1.328-4v-.137a6.436,6.436,0,0,1,.591-2.827A4.3,4.3,0,0,1,91.88,8.9a5.081,5.081,0,0,1,2.637-.659,4.573,4.573,0,0,1,3.271,1.143A4.053,4.053,0,0,1,99,12.477H95.913a1.806,1.806,0,0,0-.4-1.26,1.382,1.382,0,0,0-1.074-.439q-1.279,0-1.494,1.631a11.508,11.508,0,0,0-.068,1.426,4.52,4.52,0,0,0,.381,2.207A1.319,1.319,0,0,0,94.468,16.656Zm9.756-10.85V8.434h1.738v2.285h-1.738v4.834a1.234,1.234,0,0,0,.215.83,1.152,1.152,0,0,0,.85.234,4.828,4.828,0,0,0,.82-.059v2.354a6.074,6.074,0,0,1-1.855.283,3.448,3.448,0,0,1-2.51-.8,3.282,3.282,0,0,1-.811-2.432V10.719H99.585V8.434h1.348V5.807Zm2.324,7.813a6.236,6.236,0,0,1,.615-2.817,4.4,4.4,0,0,1,1.768-1.9,5.323,5.323,0,0,1,2.705-.664,4.858,4.858,0,0,1,3.74,1.47,5.64,5.64,0,0,1,1.367,4v.117a5.472,5.472,0,0,1-1.372,3.921,4.871,4.871,0,0,1-3.716,1.45,4.927,4.927,0,0,1-3.623-1.353,5.29,5.29,0,0,1-1.475-3.667Zm3.291.205a3.932,3.932,0,0,0,.459,2.148,1.529,1.529,0,0,0,1.357.684q1.758,0,1.8-2.705v-.332q0-2.842-1.816-2.842-1.65,0-1.787,2.451Z" transform="translate(1098.231 1602.499)" fill="#12263f"/>
    <path id="Trazado_718288" data-name="Trazado 718288" d="M7.859,12.352h-4.5V17H1.016V5.625H8.422v1.9H3.359v2.938h4.5ZM12.016,17H9.75V8.547h2.266ZM9.617,6.359a1.112,1.112,0,0,1,.34-.836,1.277,1.277,0,0,1,.926-.328,1.28,1.28,0,0,1,.922.328,1.105,1.105,0,0,1,.344.836A1.108,1.108,0,0,1,11.8,7.2a1.283,1.283,0,0,1-.918.328A1.283,1.283,0,0,1,9.965,7.2,1.108,1.108,0,0,1,9.617,6.359Zm3.93,6.352a4.954,4.954,0,0,1,.926-3.133,3,3,0,0,1,2.5-1.187,2.631,2.631,0,0,1,2.164.953l.094-.8h2.047v8.172a3.613,3.613,0,0,1-.5,1.93,3.236,3.236,0,0,1-1.418,1.25,4.985,4.985,0,0,1-2.141.43,4.635,4.635,0,0,1-1.812-.371A3.217,3.217,0,0,1,14.063,19l1-1.375a2.645,2.645,0,0,0,2.047.945,1.936,1.936,0,0,0,1.4-.48,1.8,1.8,0,0,0,.5-1.363v-.453a2.612,2.612,0,0,1-2.055.883,2.992,2.992,0,0,1-2.465-1.191,4.953,4.953,0,0,1-.941-3.16Zm2.258.168a3.085,3.085,0,0,0,.461,1.8,1.466,1.466,0,0,0,1.266.653,1.568,1.568,0,0,0,1.477-.775V11a1.564,1.564,0,0,0-1.461-.775,1.476,1.476,0,0,0-1.277.665A3.477,3.477,0,0,0,15.8,12.879ZM28.07,16.141a2.831,2.831,0,0,1-2.312,1.016,2.67,2.67,0,0,1-2.074-.781,3.335,3.335,0,0,1-.73-2.289V8.547h2.258v5.467q0,1.322,1.2,1.322a1.63,1.63,0,0,0,1.578-.8V8.547h2.266V17H28.133Zm8.641-5.477A6.134,6.134,0,0,0,35.9,10.6a1.654,1.654,0,0,0-1.68.867V17H31.961V8.547h2.133l.063,1.008a2.092,2.092,0,0,1,1.883-1.164,2.366,2.366,0,0,1,.7.1ZM42.461,17a2.507,2.507,0,0,1-.227-.758,2.732,2.732,0,0,1-2.133.914,3,3,0,0,1-2.059-.719,2.312,2.312,0,0,1-.816-1.812,2.389,2.389,0,0,1,1-2.062,4.915,4.915,0,0,1,2.879-.727h1.039v-.484a1.393,1.393,0,0,0-.3-.937,1.183,1.183,0,0,0-.949-.352,1.345,1.345,0,0,0-.895.273.929.929,0,0,0-.324.75H37.414a2.268,2.268,0,0,1,.453-1.359,3,3,0,0,1,1.281-.98,4.669,4.669,0,0,1,1.859-.355,3.689,3.689,0,0,1,2.48.785,2.747,2.747,0,0,1,.918,2.207v3.664a4.041,4.041,0,0,0,.336,1.82V17Zm-1.867-1.57a1.945,1.945,0,0,0,.922-.223,1.462,1.462,0,0,0,.625-.6V13.156H41.3q-1.7,0-1.8,1.172l-.008.133a.9.9,0,0,0,.3.7A1.153,1.153,0,0,0,40.594,15.43ZM55.516,17H53.258V8.3l-2.7.836V7.3l4.711-1.687h.242Zm11.352-4.7a5.763,5.763,0,0,1-.977,3.609,3.9,3.9,0,0,1-5.7.023,5.594,5.594,0,0,1-1.008-3.516V10.32A5.687,5.687,0,0,1,60.168,6.7a3.91,3.91,0,0,1,5.691-.012A5.576,5.576,0,0,1,66.867,10.2Zm-2.258-2.3a4.165,4.165,0,0,0-.387-2.061,1.307,1.307,0,0,0-1.207-.645A1.284,1.284,0,0,0,61.84,7.9a3.9,3.9,0,0,0-.4,1.92v2.768a4.372,4.372,0,0,0,.379,2.068,1.29,1.29,0,0,0,1.215.676,1.268,1.268,0,0,0,1.2-.649,4.268,4.268,0,0,0,.383-1.986Zm3.992,5.9a1.137,1.137,0,0,1,.363-.875,1.412,1.412,0,0,1,1.828,0,1.137,1.137,0,0,1,.363.875,1.121,1.121,0,0,1-.359.863,1.435,1.435,0,0,1-1.836,0A1.121,1.121,0,0,1,68.6,15.891ZM86.1,6.852H82.563L80.8,17H79.344L81.1,6.852H77.563l.219-1.227H86.32Zm3.383,10.3a3.048,3.048,0,0,1-2.469-1.164,4.006,4.006,0,0,1-.75-2.9l.039-.336a5.624,5.624,0,0,1,.746-2.3,4.339,4.339,0,0,1,1.5-1.566,3.491,3.491,0,0,1,1.906-.5,2.688,2.688,0,0,1,2.047.867,3.566,3.566,0,0,1,.813,2.266,6.62,6.62,0,0,1-.031,1.016l-.086.648H87.672a2.856,2.856,0,0,0,.379,1.953,1.8,1.8,0,0,0,1.551.836,3.007,3.007,0,0,0,2.313-1.125l.813.688a3.718,3.718,0,0,1-1.371,1.2A3.886,3.886,0,0,1,89.484,17.156Zm.9-7.586a2.066,2.066,0,0,0-1.527.594A4.22,4.22,0,0,0,87.82,12l4.109.008.031-.125a2.313,2.313,0,0,0-.316-1.637A1.488,1.488,0,0,0,90.383,9.57Zm9,.266-.664-.07a2.42,2.42,0,0,0-2.141,1.227L95.539,17H94.125l1.469-8.453,1.367-.008-.211.984a2.527,2.527,0,0,1,2.117-1.148,2.594,2.594,0,0,1,.672.117Zm5.328,0-.664-.07a2.42,2.42,0,0,0-2.141,1.227L100.867,17H99.453l1.469-8.453,1.367-.008-.211.984A2.527,2.527,0,0,1,104.2,8.375a2.594,2.594,0,0,1,.672.117Zm3.727,7.32a3.048,3.048,0,0,1-2.469-1.164,4.006,4.006,0,0,1-.75-2.9l.039-.336a5.624,5.624,0,0,1,.746-2.3,4.339,4.339,0,0,1,1.5-1.566,3.491,3.491,0,0,1,1.906-.5,2.688,2.688,0,0,1,2.047.867,3.566,3.566,0,0,1,.813,2.266,6.62,6.62,0,0,1-.031,1.016l-.086.648h-5.523A2.856,2.856,0,0,0,107,15.141a1.8,1.8,0,0,0,1.551.836,3.007,3.007,0,0,0,2.313-1.125l.813.688a3.718,3.718,0,0,1-1.371,1.2A3.886,3.886,0,0,1,108.438,17.156Zm.9-7.586a2.066,2.066,0,0,0-1.527.594A4.22,4.22,0,0,0,106.773,12l4.109.008.031-.125a2.313,2.313,0,0,0-.316-1.637A1.488,1.488,0,0,0,109.336,9.57Zm6.547-1.031-.2,1.07a3.333,3.333,0,0,1,2.594-1.219,2.1,2.1,0,0,1,1.766.828,3.217,3.217,0,0,1,.422,2.242L119.539,17h-1.414l.93-5.557a2.962,2.962,0,0,0,.008-.71,1.168,1.168,0,0,0-1.289-1.116,2.661,2.661,0,0,0-2.234,1.358L114.492,17h-1.414l1.469-8.453Zm10.531-.148a3.047,3.047,0,0,1,1.82.578,3.285,3.285,0,0,1,1.121,1.551,4.8,4.8,0,0,1,.246,2.16l-.016.172a5.685,5.685,0,0,1-.734,2.23,4.309,4.309,0,0,1-1.516,1.551,3.7,3.7,0,0,1-2.039.523,3.052,3.052,0,0,1-1.816-.578,3.21,3.21,0,0,1-1.113-1.531,4.931,4.931,0,0,1-.25-2.133,5.76,5.76,0,0,1,.711-2.359,4.409,4.409,0,0,1,1.527-1.621A3.652,3.652,0,0,1,126.414,8.391Zm-2.875,4.531a4.8,4.8,0,0,0,0,1.023,2.507,2.507,0,0,0,.551,1.469,1.653,1.653,0,0,0,1.262.57,2.253,2.253,0,0,0,1.3-.348,2.919,2.919,0,0,0,1-1.121,4.721,4.721,0,0,0,.523-1.664,7.493,7.493,0,0,0,.023-1.211,2.6,2.6,0,0,0-.57-1.492,1.69,1.69,0,0,0-1.266-.578,2.3,2.3,0,0,0-1.859.859,4.245,4.245,0,0,0-.945,2.313Zm18.688-.109a6.707,6.707,0,0,1-.7,2.32,3.949,3.949,0,0,1-1.336,1.543,3.058,3.058,0,0,1-1.766.488,2.815,2.815,0,0,1-2.25-.992l-.758,4.078h-1.414l2.031-11.7,1.281-.008-.156.945a3.207,3.207,0,0,1,2.508-1.094,2.358,2.358,0,0,1,1.9.9,3.954,3.954,0,0,1,.719,2.391,8.414,8.414,0,0,1-.039.969Zm-1.391-.16.039-.655a2.969,2.969,0,0,0-.434-1.744,1.525,1.525,0,0,0-1.254-.636,2.508,2.508,0,0,0-2.117,1.163l-.711,4.05a1.769,1.769,0,0,0,1.711,1.155,2.224,2.224,0,0,0,1.793-.823A4.777,4.777,0,0,0,140.836,12.652Zm7.7,4.348a1.894,1.894,0,0,1-.055-.445l.023-.445a3.465,3.465,0,0,1-2.469,1.047,2.526,2.526,0,0,1-1.816-.707,2.14,2.14,0,0,1-.637-1.73,2.6,2.6,0,0,1,1.176-2.1,5.005,5.005,0,0,1,2.887-.754l1.477.008.094-.672a1.545,1.545,0,0,0-.293-1.2,1.414,1.414,0,0,0-1.113-.457,2.181,2.181,0,0,0-1.285.355,1.513,1.513,0,0,0-.684.98l-1.422.008a2.266,2.266,0,0,1,.578-1.316,3.363,3.363,0,0,1,1.3-.891,4.215,4.215,0,0,1,1.648-.3,2.8,2.8,0,0,1,2.055.8,2.484,2.484,0,0,1,.617,2.043l-.687,4.188-.039.6a2.949,2.949,0,0,0,.094.852l-.016.133Zm-2.219-1.094a2.466,2.466,0,0,0,1.285-.324,3.254,3.254,0,0,0,1.043-.941l.3-1.742-1.07-.008a4.054,4.054,0,0,0-2.047.422,1.554,1.554,0,0,0-.8,1.2,1.21,1.21,0,0,0,.277.988A1.321,1.321,0,0,0,146.313,15.906Zm10.828-6.07-.664-.07a2.42,2.42,0,0,0-2.141,1.227L153.3,17h-1.414l1.469-8.453,1.367-.008-.211.984a2.527,2.527,0,0,1,2.117-1.148,2.594,2.594,0,0,1,.672.117ZM162.07,17a1.894,1.894,0,0,1-.055-.445l.023-.445a3.465,3.465,0,0,1-2.469,1.047,2.526,2.526,0,0,1-1.816-.707,2.14,2.14,0,0,1-.637-1.73,2.6,2.6,0,0,1,1.176-2.1,5.005,5.005,0,0,1,2.887-.754l1.477.008.094-.672a1.545,1.545,0,0,0-.293-1.2,1.414,1.414,0,0,0-1.113-.457,2.181,2.181,0,0,0-1.285.355,1.513,1.513,0,0,0-.684.98l-1.422.008a2.266,2.266,0,0,1,.578-1.316,3.363,3.363,0,0,1,1.3-.891,4.215,4.215,0,0,1,1.648-.3,2.8,2.8,0,0,1,2.055.8,2.484,2.484,0,0,1,.617,2.043l-.687,4.188-.039.6a2.949,2.949,0,0,0,.094.852l-.016.133Zm-2.219-1.094a2.466,2.466,0,0,0,1.285-.324,3.254,3.254,0,0,0,1.043-.941l.3-1.742-1.07-.008a4.054,4.054,0,0,0-2.047.422,1.554,1.554,0,0,0-.8,1.2,1.21,1.21,0,0,0,.277.988A1.321,1.321,0,0,0,159.852,15.906ZM173,17.156a3.048,3.048,0,0,1-2.469-1.164,4.006,4.006,0,0,1-.75-2.9l.039-.336a5.624,5.624,0,0,1,.746-2.3,4.339,4.339,0,0,1,1.5-1.566,3.491,3.491,0,0,1,1.906-.5,2.688,2.688,0,0,1,2.047.867,3.566,3.566,0,0,1,.813,2.266,6.621,6.621,0,0,1-.031,1.016l-.086.648h-5.523a2.855,2.855,0,0,0,.379,1.953,1.8,1.8,0,0,0,1.551.836,3.007,3.007,0,0,0,2.313-1.125l.813.688a3.718,3.718,0,0,1-1.371,1.2A3.886,3.886,0,0,1,173,17.156Zm.9-7.586a2.066,2.066,0,0,0-1.527.594A4.22,4.22,0,0,0,171.336,12l4.109.008.031-.125a2.313,2.313,0,0,0-.316-1.637A1.488,1.488,0,0,0,173.9,9.57ZM179.172,17h-1.406l2.078-12h1.414Zm6.648-4.242a6.889,6.889,0,0,1,.746-2.4,3.9,3.9,0,0,1,1.359-1.508,3.151,3.151,0,0,1,1.754-.465A2.6,2.6,0,0,1,191.9,9.492l.281-.945h1.3L192.07,16.82a4.113,4.113,0,0,1-1.312,2.59,3.7,3.7,0,0,1-2.68.926,3.8,3.8,0,0,1-1.645-.406,3.127,3.127,0,0,1-1.238-1.07l.8-.867a2.536,2.536,0,0,0,3.73.6,2.9,2.9,0,0,0,.926-1.687l.156-.75a3.2,3.2,0,0,1-2.414,1,2.486,2.486,0,0,1-1.371-.426,2.589,2.589,0,0,1-.9-1.164,4.759,4.759,0,0,1-.352-1.7A8.731,8.731,0,0,1,185.82,12.758Zm1.367.8a2.974,2.974,0,0,0,.387,1.728,1.461,1.461,0,0,0,1.238.644,2.561,2.561,0,0,0,2.18-1.241l.664-3.878a1.776,1.776,0,0,0-1.7-1.2,2.194,2.194,0,0,0-1.887.936,4.878,4.878,0,0,0-.871,2.614ZM199.367,17a1.894,1.894,0,0,1-.055-.445l.023-.445a3.465,3.465,0,0,1-2.469,1.047,2.526,2.526,0,0,1-1.816-.707,2.14,2.14,0,0,1-.637-1.73,2.6,2.6,0,0,1,1.176-2.1,5.005,5.005,0,0,1,2.887-.754l1.477.008.094-.672a1.545,1.545,0,0,0-.293-1.2,1.414,1.414,0,0,0-1.113-.457,2.181,2.181,0,0,0-1.285.355,1.513,1.513,0,0,0-.684.98l-1.422.008a2.266,2.266,0,0,1,.578-1.316,3.363,3.363,0,0,1,1.3-.891,4.215,4.215,0,0,1,1.648-.3,2.8,2.8,0,0,1,2.055.8,2.484,2.484,0,0,1,.617,2.043l-.687,4.188-.039.6a2.949,2.949,0,0,0,.094.852L200.8,17Zm-2.219-1.094a2.466,2.466,0,0,0,1.285-.324,3.254,3.254,0,0,0,1.043-.941l.3-1.742-1.07-.008a4.054,4.054,0,0,0-2.047.422,1.554,1.554,0,0,0-.8,1.2,1.21,1.21,0,0,0,.277.988A1.321,1.321,0,0,0,197.148,15.906ZM204.25,17h-1.406l2.078-12h1.414Zm9.969-4.187a6.707,6.707,0,0,1-.7,2.32,3.949,3.949,0,0,1-1.336,1.543,3.058,3.058,0,0,1-1.766.488,2.815,2.815,0,0,1-2.25-.992l-.758,4.078H206l2.031-11.7,1.281-.008-.156.945a3.207,3.207,0,0,1,2.508-1.094,2.358,2.358,0,0,1,1.9.9,3.954,3.954,0,0,1,.719,2.391,8.414,8.414,0,0,1-.039.969Zm-1.391-.16.039-.655a2.969,2.969,0,0,0-.434-1.744,1.525,1.525,0,0,0-1.254-.636,2.508,2.508,0,0,0-2.117,1.163l-.711,4.05a1.769,1.769,0,0,0,1.711,1.155,2.224,2.224,0,0,0,1.793-.823A4.777,4.777,0,0,0,212.828,12.652Zm7.219-4.262a3.047,3.047,0,0,1,1.82.578,3.285,3.285,0,0,1,1.121,1.551,4.8,4.8,0,0,1,.246,2.16l-.016.172a5.685,5.685,0,0,1-.734,2.23,4.309,4.309,0,0,1-1.516,1.551,3.7,3.7,0,0,1-2.039.523,3.052,3.052,0,0,1-1.816-.578A3.21,3.21,0,0,1,216,15.047a4.931,4.931,0,0,1-.25-2.133,5.76,5.76,0,0,1,.711-2.359,4.409,4.409,0,0,1,1.527-1.621A3.652,3.652,0,0,1,220.047,8.391Zm-2.875,4.531a4.8,4.8,0,0,0,0,1.023,2.507,2.507,0,0,0,.551,1.469,1.653,1.653,0,0,0,1.262.57,2.253,2.253,0,0,0,1.3-.348,2.919,2.919,0,0,0,1-1.121,4.721,4.721,0,0,0,.523-1.664,7.493,7.493,0,0,0,.023-1.211,2.6,2.6,0,0,0-.57-1.492,1.69,1.69,0,0,0-1.266-.578,2.3,2.3,0,0,0-1.859.859,4.245,4.245,0,0,0-.945,2.313ZM221.25,5h1.8l-2.391,2.3-1.242,0Zm5.836,3.539-.2,1.07a3.333,3.333,0,0,1,2.594-1.219,2.1,2.1,0,0,1,1.766.828,3.217,3.217,0,0,1,.422,2.242L230.742,17h-1.414l.93-5.557a2.962,2.962,0,0,0,.008-.71,1.168,1.168,0,0,0-1.289-1.116,2.661,2.661,0,0,0-2.234,1.358L225.7,17h-1.414l1.469-8.453Z" transform="translate(701 1456)"/>
    <rect id="Rectángulo_341259" data-name="Rectángulo 341259" width="5.188" height="39.052" transform="translate(681 1448)" fill="#8d0a0a"/>
  </g>
</svg>
