<svg xmlns="http://www.w3.org/2000/svg" width="640.152" height="428.841" viewBox="0 0 640.152 428.841">
  <g id="Grupo_1018052" data-name="Grupo 1018052" transform="translate(-456 -2477.735)">
    <path id="Trazado_714958" data-name="Trazado 714958" d="M11522.667-9173.576l237.646-115.091L12020.881-9158v8.406l-260.568-130.666-237.646,116.912Z" transform="translate(-10988.534 11875.1)" fill="#8d0a0a"/>
    <path id="Trazado_714959" data-name="Trazado 714959" d="M11537.334-9180.667v194.854h443.2v-188.739" transform="translate(-10986.391 11890.89)" fill="none" stroke="#cc9c00" stroke-width="3"/>
    <path id="Unión_5" data-name="Unión 5" d="M70.863,98a51.07,51.07,0,1,1,13.585-8.483L87.3,117.484Z" transform="translate(456 2572.871)" fill="#abffff"/>
    <path id="Unión_6" data-name="Unión 6" d="M70.863,19.484a51.071,51.071,0,1,0,13.585,8.483L87.3,0Z" transform="translate(1096.152 2690.355) rotate(180)" fill="#abffff"/>
    <path id="Unión_7" data-name="Unión 7" d="M70.863,19.484a51.071,51.071,0,1,0,13.585,8.483L87.3,0Z" transform="translate(889.836 2595.221) rotate(180)" fill="#abffff"/>
    <path id="Trazado_718304" data-name="Trazado 718304" d="M-26.662-7.5a9.223,9.223,0,0,1-.849,4.05A6.272,6.272,0,0,1-29.922-.736a6.715,6.715,0,0,1-3.561.951A6.81,6.81,0,0,1-37.028-.7,6.261,6.261,0,0,1-39.44-3.33a8.958,8.958,0,0,1-.908-3.921v-.881a9.264,9.264,0,0,1,.843-4.055A6.257,6.257,0,0,1-37.087-14.9a6.762,6.762,0,0,1,3.583-.956,6.7,6.7,0,0,1,3.545.945,6.369,6.369,0,0,1,2.422,2.691,9,9,0,0,1,.875,4ZM-30.5-8.153a6.577,6.577,0,0,0-.779-3.54A2.5,2.5,0,0,0-33.5-12.9q-2.836,0-3,4.254L-36.513-7.5a6.764,6.764,0,0,0,.763,3.534,2.494,2.494,0,0,0,2.267,1.235,2.464,2.464,0,0,0,2.2-1.214A6.58,6.58,0,0,0-30.5-7.434Zm10.323-.269,1.687-3.2h3.76l-3.062,5.661L-14.577,0h-3.781l-1.826-3.437L-21.979,0h-3.8l3.223-5.962-3.051-5.661h3.8ZM-9.614,0h-3.642V-11.623h3.642Zm-1.354-16.285h3.824l-2.986,3.373-2.954-.005ZM-7.713-5.9a7.848,7.848,0,0,1,.58-3.115A4.67,4.67,0,0,1-5.468-11.1a4.389,4.389,0,0,1,2.524-.736A3.49,3.49,0,0,1-.107-10.613l.129-1.01H3.309V-.44a4.9,4.9,0,0,1-.714,2.669A4.584,4.584,0,0,1,.526,3.969a7.6,7.6,0,0,1-3.137.607,6.557,6.557,0,0,1-2.476-.483A4.47,4.47,0,0,1-6.918,2.836L-5.4.709A3.319,3.319,0,0,0-2.739,1.9,2.156,2.156,0,0,0-.333-.569V-.935A3.4,3.4,0,0,1-2.965.215,4.2,4.2,0,0,1-6.4-1.413,6.743,6.743,0,0,1-7.713-5.769Zm3.631.226a4.135,4.135,0,0,0,.537,2.261,1.7,1.7,0,0,0,1.5.833A1.923,1.923,0,0,0-.333-3.362V-8.25A1.875,1.875,0,0,0-2.02-9.045a1.706,1.706,0,0,0-1.515.865A4.715,4.715,0,0,0-4.082-5.672ZM10.989.215A5.975,5.975,0,0,1,6.66-1.38,5.509,5.509,0,0,1,5.006-5.532v-.3A7.138,7.138,0,0,1,5.667-8.98a4.834,4.834,0,0,1,1.928-2.111,5.821,5.821,0,0,1,3.008-.747,5.031,5.031,0,0,1,3.867,1.52A5.973,5.973,0,0,1,15.888-6.08v1.407H8.69a2.609,2.609,0,0,0,.849,1.536,2.525,2.525,0,0,0,1.7.559,3.254,3.254,0,0,0,2.686-1.2l1.654,1.955A4.624,4.624,0,0,1,13.659-.338,6.48,6.48,0,0,1,10.989.215Zm-.408-9.26q-1.59,0-1.891,2.105h3.652v-.279a1.793,1.793,0,0,0-.44-1.348A1.753,1.753,0,0,0,10.581-9.045Zm10.087-2.578.118,1.364a3.942,3.942,0,0,1,3.319-1.579,3.316,3.316,0,0,1,2.712,1.085,5.165,5.165,0,0,1,.929,3.266V0H24.116V-7.337a1.961,1.961,0,0,0-.354-1.294,1.64,1.64,0,0,0-1.289-.414,1.726,1.726,0,0,0-1.579.838V0h-3.62V-11.623Zm8.626,5.7a6.86,6.86,0,0,1,.677-3.1,4.84,4.84,0,0,1,1.944-2.089,5.856,5.856,0,0,1,2.976-.73A5.344,5.344,0,0,1,39-10.221a6.2,6.2,0,0,1,1.5,4.4v.129A6.019,6.019,0,0,1,39-1.38a5.359,5.359,0,0,1-4.087,1.6,5.42,5.42,0,0,1-3.985-1.488A5.819,5.819,0,0,1,29.3-5.307Zm3.62.226a4.325,4.325,0,0,0,.5,2.363,1.682,1.682,0,0,0,1.493.752q1.934,0,1.977-2.976v-.365q0-3.126-2-3.126-1.815,0-1.966,2.7Z" transform="translate(505.597 2631.121)"/>
    <path id="Trazado_718305" data-name="Trazado 718305" d="M-33.354,0H-37.1V-6.531h-5.554V0h-3.771V-15.641h3.771v6.209H-37.1v-6.209h3.749Zm9.142-1.257a3.732,3.732,0,0,1-3.1,1.472A3.661,3.661,0,0,1-30.212-.9a4.676,4.676,0,0,1-.983-3.2v-7.53h3.62v7.552a1.3,1.3,0,0,0,1.45,1.493,1.892,1.892,0,0,0,1.772-.892v-8.153h3.642V0h-3.395Zm8.905-10.366.118,1.364a4,4,0,0,1,3.319-1.579,2.942,2.942,0,0,1,2.976,1.751,3.868,3.868,0,0,1,3.416-1.751q3.534,0,3.631,4.275V0H-5.479V-7.337a2.216,2.216,0,0,0-.3-1.3,1.28,1.28,0,0,0-1.1-.408,1.715,1.715,0,0,0-1.6.956l.011.15V0H-12.1V-7.315a2.329,2.329,0,0,0-.29-1.321,1.277,1.277,0,0,0-1.106-.408,1.736,1.736,0,0,0-1.59.956V0H-18.7V-11.623ZM5.844.215a5.975,5.975,0,0,1-4.329-1.6A5.509,5.509,0,0,1-.14-5.532v-.3A7.138,7.138,0,0,1,.521-8.98a4.834,4.834,0,0,1,1.928-2.111,5.821,5.821,0,0,1,3.008-.747,5.031,5.031,0,0,1,3.867,1.52A5.973,5.973,0,0,1,10.742-6.08v1.407h-7.2a2.609,2.609,0,0,0,.849,1.536,2.525,2.525,0,0,0,1.7.559,3.254,3.254,0,0,0,2.686-1.2l1.654,1.955A4.624,4.624,0,0,1,8.513-.338,6.48,6.48,0,0,1,5.844.215Zm-.408-9.26q-1.59,0-1.891,2.105H7.2v-.279a1.793,1.793,0,0,0-.44-1.348A1.753,1.753,0,0,0,5.436-9.045ZM11.741-5.9a7.1,7.1,0,0,1,1.192-4.351,3.925,3.925,0,0,1,3.33-1.59,3.338,3.338,0,0,1,2.621,1.225V-16.5h3.631V0H19.261l-.183-1.246A3.428,3.428,0,0,1,16.242.215a3.918,3.918,0,0,1-3.287-1.59A7.325,7.325,0,0,1,11.741-5.9Zm3.62.226q0,3.094,1.8,3.094a1.782,1.782,0,0,0,1.719-1.01V-8.014a1.734,1.734,0,0,0-1.7-1.031q-1.676,0-1.815,2.707ZM31.12,0a4.087,4.087,0,0,1-.344-1.042A3.366,3.366,0,0,1,27.983.215,4.124,4.124,0,0,1,25.19-.779a3.163,3.163,0,0,1-1.149-2.5,3.251,3.251,0,0,1,1.4-2.857A7.114,7.114,0,0,1,29.5-7.1h1.117v-.615q0-1.608-1.386-1.608A1.133,1.133,0,0,0,27.94-8.05H24.32a3.245,3.245,0,0,1,1.434-2.736,6.027,6.027,0,0,1,3.658-1.051,5.284,5.284,0,0,1,3.513,1.085,3.772,3.772,0,0,1,1.321,2.976v5.146A5.269,5.269,0,0,0,34.74-.183V0ZM28.854-2.363a2.019,2.019,0,0,0,1.123-.29,1.818,1.818,0,0,0,.639-.655V-5.167H29.563q-1.891,0-1.891,1.7a1.036,1.036,0,0,0,.333.8A1.205,1.205,0,0,0,28.854-2.363ZM35.793-5.9a7.1,7.1,0,0,1,1.192-4.351,3.925,3.925,0,0,1,3.33-1.59,3.338,3.338,0,0,1,2.621,1.225V-16.5h3.631V0H43.313L43.13-1.246A3.428,3.428,0,0,1,40.294.215a3.918,3.918,0,0,1-3.287-1.59A7.325,7.325,0,0,1,35.793-5.9Zm3.62.226q0,3.094,1.8,3.094a1.782,1.782,0,0,0,1.719-1.01V-8.014a1.734,1.734,0,0,0-1.7-1.031q-1.676,0-1.815,2.707Z" transform="translate(624.924 2722.817)"/>
    <path id="Trazado_718310" data-name="Trazado 718310" d="M-23.117-5.307V0h-3.771V-15.641h6.241a7.269,7.269,0,0,1,3.174.661,4.979,4.979,0,0,1,2.138,1.88,5.134,5.134,0,0,1,.757,2.766,4.526,4.526,0,0,1-1.638,3.658,6.8,6.8,0,0,1-4.5,1.37Zm0-2.911h2.471a2.33,2.33,0,0,0,1.67-.548,2.035,2.035,0,0,0,.575-1.547,2.516,2.516,0,0,0-.591-1.751,2.092,2.092,0,0,0-1.611-.666h-2.514Zm9.786,2.3a6.86,6.86,0,0,1,.677-3.1,4.84,4.84,0,0,1,1.944-2.089,5.856,5.856,0,0,1,2.976-.73A5.344,5.344,0,0,1-3.62-10.221a6.2,6.2,0,0,1,1.5,4.4v.129A6.019,6.019,0,0,1-3.625-1.38,5.359,5.359,0,0,1-7.713.215,5.42,5.42,0,0,1-11.7-1.273,5.819,5.819,0,0,1-13.32-5.307Zm3.62.226a4.325,4.325,0,0,0,.5,2.363,1.682,1.682,0,0,0,1.493.752q1.934,0,1.977-2.976v-.365q0-3.126-2-3.126-1.815,0-1.966,2.7ZM3.3,0H-.333V-16.5H3.3Zm6.864-4.308L12-11.623h3.813L12.021,0h-3.7L4.533-11.623H8.357Zm6.112-1.611a6.86,6.86,0,0,1,.677-3.1A4.84,4.84,0,0,1,18.9-11.107a5.856,5.856,0,0,1,2.976-.73,5.344,5.344,0,0,1,4.114,1.617,6.2,6.2,0,0,1,1.5,4.4v.129A6.019,6.019,0,0,1,25.98-1.38a5.359,5.359,0,0,1-4.087,1.6,5.42,5.42,0,0,1-3.985-1.488,5.819,5.819,0,0,1-1.622-4.034Zm3.62.226a4.325,4.325,0,0,0,.5,2.363,1.682,1.682,0,0,0,1.493.752q1.934,0,1.977-2.976v-.365q0-3.126-2-3.126-1.815,0-1.966,2.7Z" transform="translate(600.339 2874.115)"/>
    <path id="Trazado_718309" data-name="Trazado 718309" d="M-48.109-5.307V0h-3.771V-15.641h6.241a7.269,7.269,0,0,1,3.174.661,4.979,4.979,0,0,1,2.138,1.88,5.134,5.134,0,0,1,.757,2.766,4.526,4.526,0,0,1-1.638,3.658,6.8,6.8,0,0,1-4.5,1.37Zm0-2.911h2.471a2.33,2.33,0,0,0,1.67-.548,2.035,2.035,0,0,0,.575-1.547,2.516,2.516,0,0,0-.591-1.751,2.092,2.092,0,0,0-1.611-.666h-2.514ZM-31.3,0a4.087,4.087,0,0,1-.344-1.042A3.366,3.366,0,0,1-34.434.215a4.124,4.124,0,0,1-2.793-.994,3.163,3.163,0,0,1-1.149-2.5,3.251,3.251,0,0,1,1.4-2.857A7.114,7.114,0,0,1-32.919-7.1H-31.8v-.615q0-1.608-1.386-1.608A1.133,1.133,0,0,0-34.477-8.05H-38.1a3.245,3.245,0,0,1,1.434-2.736,6.027,6.027,0,0,1,3.658-1.051,5.284,5.284,0,0,1,3.513,1.085,3.772,3.772,0,0,1,1.321,2.976v5.146a5.269,5.269,0,0,0,.494,2.449V0Zm-2.267-2.363a2.019,2.019,0,0,0,1.123-.29,1.818,1.818,0,0,0,.639-.655V-5.167h-1.053q-1.891,0-1.891,1.7a1.036,1.036,0,0,0,.333.8A1.205,1.205,0,0,0-33.564-2.363Zm11.612-12.149v2.89h1.912v2.514h-1.912v5.317a1.358,1.358,0,0,0,.236.913,1.268,1.268,0,0,0,.935.258,5.311,5.311,0,0,0,.9-.064V-.1a6.681,6.681,0,0,1-2.041.312A3.792,3.792,0,0,1-24.68-.666a3.61,3.61,0,0,1-.892-2.675V-9.109h-1.482v-2.514h1.482v-2.89ZM-19.4-5.919a6.86,6.86,0,0,1,.677-3.1,4.84,4.84,0,0,1,1.944-2.089,5.856,5.856,0,0,1,2.976-.73,5.344,5.344,0,0,1,4.114,1.617,6.2,6.2,0,0,1,1.5,4.4v.129A6.019,6.019,0,0,1-9.689-1.38a5.359,5.359,0,0,1-4.087,1.6,5.42,5.42,0,0,1-3.985-1.488,5.819,5.819,0,0,1-1.622-4.034Zm3.62.226a4.325,4.325,0,0,0,.5,2.363,1.682,1.682,0,0,0,1.493.752q1.934,0,1.977-2.976v-.365q0-3.126-2-3.126-1.815,0-1.966,2.7ZM-13.3-16.5H-9.48l-2.986,3.373-2.954-.005ZM-7.009-5.9a7.848,7.848,0,0,1,.58-3.115A4.67,4.67,0,0,1-4.764-11.1a4.389,4.389,0,0,1,2.524-.736A3.49,3.49,0,0,1,.6-10.613l.129-1.01H4.012V-.44A4.9,4.9,0,0,1,3.3,2.229,4.584,4.584,0,0,1,1.23,3.969a7.6,7.6,0,0,1-3.137.607,6.557,6.557,0,0,1-2.476-.483A4.47,4.47,0,0,1-6.214,2.836L-4.7.709A3.319,3.319,0,0,0-2.036,1.9,2.156,2.156,0,0,0,.371-.569V-.935A3.4,3.4,0,0,1-2.261.215,4.2,4.2,0,0,1-5.7-1.413,6.743,6.743,0,0,1-7.009-5.769Zm3.631.226a4.135,4.135,0,0,0,.537,2.261,1.7,1.7,0,0,0,1.5.833A1.923,1.923,0,0,0,.371-3.362V-8.25a1.875,1.875,0,0,0-1.687-.795,1.706,1.706,0,0,0-1.515.865A4.715,4.715,0,0,0-3.378-5.672ZM11.693.215a5.975,5.975,0,0,1-4.329-1.6A5.509,5.509,0,0,1,5.709-5.532v-.3A7.138,7.138,0,0,1,6.37-8.98,4.834,4.834,0,0,1,8.3-11.091a5.821,5.821,0,0,1,3.008-.747,5.031,5.031,0,0,1,3.867,1.52A5.973,5.973,0,0,1,16.591-6.08v1.407h-7.2a2.609,2.609,0,0,0,.849,1.536,2.525,2.525,0,0,0,1.7.559,3.254,3.254,0,0,0,2.686-1.2L16.28-1.826A4.624,4.624,0,0,1,14.362-.338,6.48,6.48,0,0,1,11.693.215Zm-.408-9.26q-1.59,0-1.891,2.105h3.652v-.279a1.793,1.793,0,0,0-.44-1.348A1.753,1.753,0,0,0,11.285-9.045Zm10.087-2.578.118,1.364a3.942,3.942,0,0,1,3.319-1.579,3.316,3.316,0,0,1,2.712,1.085,5.165,5.165,0,0,1,.929,3.266V0H24.82V-7.337a1.961,1.961,0,0,0-.354-1.294,1.64,1.64,0,0,0-1.289-.414,1.726,1.726,0,0,0-1.579.838V0h-3.62V-11.623ZM30-5.919a6.86,6.86,0,0,1,.677-3.1,4.84,4.84,0,0,1,1.944-2.089,5.856,5.856,0,0,1,2.976-.73,5.344,5.344,0,0,1,4.114,1.617,6.2,6.2,0,0,1,1.5,4.4v.129A6.019,6.019,0,0,1,39.7-1.38a5.359,5.359,0,0,1-4.087,1.6A5.42,5.42,0,0,1,31.63-1.273a5.819,5.819,0,0,1-1.622-4.034Zm3.62.226a4.325,4.325,0,0,0,.5,2.363,1.682,1.682,0,0,0,1.493.752q1.934,0,1.977-2.976v-.365q0-3.126-2-3.126-1.815,0-1.966,2.7ZM48.893-3.266a.836.836,0,0,0-.483-.741,7.353,7.353,0,0,0-1.837-.58,8.376,8.376,0,0,1-2.234-.79A3.743,3.743,0,0,1,43-6.563a2.835,2.835,0,0,1-.462-1.6A3.212,3.212,0,0,1,43.855-10.8a5.443,5.443,0,0,1,3.459-1.037,6.03,6.03,0,0,1,3.7,1.042,3.258,3.258,0,0,1,1.4,2.739H48.775q0-1.4-1.472-1.4a1.459,1.459,0,0,0-.956.317.981.981,0,0,0-.387.79.9.9,0,0,0,.473.784,4.466,4.466,0,0,0,1.509.494,13.042,13.042,0,0,1,1.821.462q2.621.9,2.621,3.233A3.044,3.044,0,0,1,50.972-.784a6.2,6.2,0,0,1-3.658,1A6.322,6.322,0,0,1,44.65-.322a4.455,4.455,0,0,1-1.826-1.461,3.308,3.308,0,0,1-.655-1.944h3.384a1.4,1.4,0,0,0,.537,1.176,2.209,2.209,0,0,0,1.321.371,1.738,1.738,0,0,0,1.112-.3A.962.962,0,0,0,48.893-3.266Z" transform="translate(770.906 2887.87)"/>
    <path id="Trazado_718306" data-name="Trazado 718306" d="M-29.648-15.641l3.491,10.882,3.48-10.882h4.963V0H-21.5V-3.652l.365-7.477L-24.911,0H-27.4L-31.2-11.14l.365,7.487V0H-34.6V-15.641ZM-9.861.215a5.975,5.975,0,0,1-4.329-1.6,5.509,5.509,0,0,1-1.654-4.152v-.3a7.138,7.138,0,0,1,.661-3.147,4.834,4.834,0,0,1,1.928-2.111,5.821,5.821,0,0,1,3.008-.747,5.031,5.031,0,0,1,3.867,1.52A5.973,5.973,0,0,1-4.963-6.08v1.407h-7.2a2.609,2.609,0,0,0,.849,1.536,2.525,2.525,0,0,0,1.7.559,3.254,3.254,0,0,0,2.686-1.2l1.654,1.955A4.624,4.624,0,0,1-7.192-.338,6.48,6.48,0,0,1-9.861.215Zm-.408-9.26q-1.59,0-1.891,2.105h3.652v-.279a1.793,1.793,0,0,0-.44-1.348A1.753,1.753,0,0,0-10.27-9.045ZM.763-2.793h5.3V0H-3.813V-2.02L1.343-8.83H-3.588v-2.793H5.94v1.955Zm11.795.215a1.61,1.61,0,0,0,1.182-.414,1.517,1.517,0,0,0,.408-1.155h3.395a4.018,4.018,0,0,1-1.37,3.137A5.1,5.1,0,0,1,12.644.215a5.158,5.158,0,0,1-4-1.59,6.264,6.264,0,0,1-1.461-4.4v-.15a7.08,7.08,0,0,1,.65-3.11,4.732,4.732,0,0,1,1.875-2.073,5.589,5.589,0,0,1,2.9-.725,5.03,5.03,0,0,1,3.6,1.257,4.458,4.458,0,0,1,1.332,3.405H14.147a1.987,1.987,0,0,0-.44-1.386,1.52,1.52,0,0,0-1.182-.483q-1.407,0-1.644,1.794a12.659,12.659,0,0,0-.075,1.568,4.972,4.972,0,0,0,.419,2.428A1.45,1.45,0,0,0,12.558-2.578ZM22.892,0H19.261V-16.5h3.631Zm8.776,0a4.087,4.087,0,0,1-.344-1.042A3.366,3.366,0,0,1,28.531.215a4.124,4.124,0,0,1-2.793-.994,3.163,3.163,0,0,1-1.149-2.5,3.251,3.251,0,0,1,1.4-2.857A7.114,7.114,0,0,1,30.046-7.1h1.117v-.615q0-1.608-1.386-1.608A1.133,1.133,0,0,0,28.488-8.05h-3.62A3.245,3.245,0,0,1,26.3-10.786a6.027,6.027,0,0,1,3.658-1.051,5.284,5.284,0,0,1,3.513,1.085,3.772,3.772,0,0,1,1.321,2.976v5.146a5.269,5.269,0,0,0,.494,2.449V0ZM29.4-2.363a2.019,2.019,0,0,0,1.123-.29,1.818,1.818,0,0,0,.639-.655V-5.167H30.11q-1.891,0-1.891,1.7a1.036,1.036,0,0,0,.333.8A1.205,1.205,0,0,0,29.4-2.363Z" transform="translate(776.83 2796.174)"/>
    <path id="Trazado_718307" data-name="Trazado 718307" d="M-16.607-1.934A6.062,6.062,0,0,1-19.153-.376a10.981,10.981,0,0,1-3.674.591,6.551,6.551,0,0,1-4.909-1.88A7.61,7.61,0,0,1-29.7-6.9l-.011-1.354a9.334,9.334,0,0,1,.816-4.034,6.062,6.062,0,0,1,2.336-2.653,6.609,6.609,0,0,1,3.518-.929A6.929,6.929,0,0,1-18.5-14.529a5.667,5.667,0,0,1,1.885,3.991h-3.631a2.965,2.965,0,0,0-.838-1.869,2.7,2.7,0,0,0-1.826-.559,2.46,2.46,0,0,0-2.191,1.2,6.424,6.424,0,0,0-.784,3.438v.945a6.289,6.289,0,0,0,.8,3.518,2.831,2.831,0,0,0,2.519,1.176,3.168,3.168,0,0,0,2.191-.655V-5.769H-23V-8.357h6.392ZM-8.035,0a4.088,4.088,0,0,1-.344-1.042A3.366,3.366,0,0,1-11.172.215a4.124,4.124,0,0,1-2.793-.994,3.163,3.163,0,0,1-1.149-2.5,3.251,3.251,0,0,1,1.4-2.857A7.114,7.114,0,0,1-9.657-7.1H-8.54v-.615q0-1.608-1.386-1.608A1.133,1.133,0,0,0-11.215-8.05h-3.62A3.245,3.245,0,0,1-13.4-10.786a6.027,6.027,0,0,1,3.658-1.051A5.284,5.284,0,0,1-6.23-10.753,3.772,3.772,0,0,1-4.909-7.777v5.146A5.269,5.269,0,0,0-4.415-.183V0ZM-10.3-2.363a2.019,2.019,0,0,0,1.123-.29,1.818,1.818,0,0,0,.639-.655V-5.167H-9.593q-1.891,0-1.891,1.7a1.036,1.036,0,0,0,.333.8A1.205,1.205,0,0,0-10.3-2.363Zm13.481-.9A.836.836,0,0,0,2.7-4.007a7.353,7.353,0,0,0-1.837-.58,8.376,8.376,0,0,1-2.234-.79A3.743,3.743,0,0,1-2.718-6.563a2.834,2.834,0,0,1-.462-1.6A3.212,3.212,0,0,1-1.858-10.8,5.443,5.443,0,0,1,1.6-11.838,6.03,6.03,0,0,1,5.3-10.8a3.258,3.258,0,0,1,1.4,2.739H3.062q0-1.4-1.472-1.4a1.459,1.459,0,0,0-.956.317.981.981,0,0,0-.387.79.9.9,0,0,0,.473.784,4.466,4.466,0,0,0,1.509.494,13.043,13.043,0,0,1,1.821.462q2.621.9,2.621,3.233A3.044,3.044,0,0,1,5.258-.784,6.2,6.2,0,0,1,1.6.215,6.322,6.322,0,0,1-1.063-.322,4.455,4.455,0,0,1-2.89-1.783a3.308,3.308,0,0,1-.655-1.944H-.161A1.4,1.4,0,0,0,.376-2.551,2.209,2.209,0,0,0,1.7-2.181a1.738,1.738,0,0,0,1.112-.3A.962.962,0,0,0,3.18-3.266ZM13.986.215a5.975,5.975,0,0,1-4.329-1.6A5.509,5.509,0,0,1,8-5.532v-.3A7.138,7.138,0,0,1,8.664-8.98a4.834,4.834,0,0,1,1.928-2.111,5.821,5.821,0,0,1,3.008-.747,5.031,5.031,0,0,1,3.867,1.52A5.973,5.973,0,0,1,18.885-6.08v1.407h-7.2a2.609,2.609,0,0,0,.849,1.536,2.525,2.525,0,0,0,1.7.559,3.254,3.254,0,0,0,2.686-1.2l1.654,1.955A4.624,4.624,0,0,1,16.656-.338,6.48,6.48,0,0,1,13.986.215Zm-.408-9.26q-1.59,0-1.891,2.105H15.34v-.279a1.793,1.793,0,0,0-.44-1.348A1.753,1.753,0,0,0,13.578-9.045ZM26.426-3.266a.836.836,0,0,0-.483-.741,7.353,7.353,0,0,0-1.837-.58,8.376,8.376,0,0,1-2.234-.79,3.743,3.743,0,0,1-1.343-1.187,2.834,2.834,0,0,1-.462-1.6A3.212,3.212,0,0,1,21.388-10.8a5.443,5.443,0,0,1,3.459-1.037,6.03,6.03,0,0,1,3.7,1.042,3.258,3.258,0,0,1,1.4,2.739H26.308q0-1.4-1.472-1.4a1.459,1.459,0,0,0-.956.317.981.981,0,0,0-.387.79.9.9,0,0,0,.473.784,4.466,4.466,0,0,0,1.509.494,13.043,13.043,0,0,1,1.821.462q2.621.9,2.621,3.233A3.044,3.044,0,0,1,28.5-.784a6.2,6.2,0,0,1-3.658,1,6.322,6.322,0,0,1-2.664-.537,4.455,4.455,0,0,1-1.826-1.461A3.308,3.308,0,0,1,19.7-3.728h3.384a1.4,1.4,0,0,0,.537,1.176,2.209,2.209,0,0,0,1.321.371,1.738,1.738,0,0,0,1.112-.3A.962.962,0,0,0,26.426-3.266Z" transform="translate(918.544 2734.279)"/>
    <path id="Trazado_718308" data-name="Trazado 718308" d="M-12.59-5.3a5.712,5.712,0,0,1-.881,2.884A5.316,5.316,0,0,1-15.732-.473a7.7,7.7,0,0,1-3.325.688,6.142,6.142,0,0,1-4.855-2.009,8.294,8.294,0,0,1-1.772-5.672v-.773a9.467,9.467,0,0,1,.8-4.023,6.064,6.064,0,0,1,2.3-2.664,6.429,6.429,0,0,1,3.48-.94,6.741,6.741,0,0,1,4.576,1.5,5.921,5.921,0,0,1,1.966,4.13h-3.76a2.8,2.8,0,0,0-.72-2.052,2.96,2.96,0,0,0-2.062-.623,2.252,2.252,0,0,0-2.062,1.053A6.766,6.766,0,0,0-21.85-8.5v1.106a7.487,7.487,0,0,0,.628,3.577,2.3,2.3,0,0,0,2.165,1.074,2.9,2.9,0,0,0,1.987-.612,2.6,2.6,0,0,0,.73-1.944ZM-4.426,0A4.087,4.087,0,0,1-4.77-1.042,3.366,3.366,0,0,1-7.562.215a4.124,4.124,0,0,1-2.793-.994,3.163,3.163,0,0,1-1.149-2.5,3.251,3.251,0,0,1,1.4-2.857A7.114,7.114,0,0,1-6.048-7.1h1.117v-.615q0-1.608-1.386-1.608A1.133,1.133,0,0,0-7.605-8.05h-3.62a3.245,3.245,0,0,1,1.434-2.736,6.027,6.027,0,0,1,3.658-1.051,5.284,5.284,0,0,1,3.513,1.085A3.772,3.772,0,0,1-1.3-7.777v5.146A5.269,5.269,0,0,0-.806-.183V0ZM-6.692-2.363a2.019,2.019,0,0,0,1.123-.29,1.818,1.818,0,0,0,.639-.655V-5.167H-5.983q-1.891,0-1.891,1.7a1.036,1.036,0,0,0,.333.8A1.205,1.205,0,0,0-6.692-2.363ZM4.522,0H.892V-16.5H4.522ZM6.295-5.919a6.86,6.86,0,0,1,.677-3.1,4.84,4.84,0,0,1,1.944-2.089,5.856,5.856,0,0,1,2.976-.73,5.344,5.344,0,0,1,4.114,1.617,6.2,6.2,0,0,1,1.5,4.4v.129A6.019,6.019,0,0,1,16-1.38a5.359,5.359,0,0,1-4.087,1.6A5.42,5.42,0,0,1,7.928-1.273,5.819,5.819,0,0,1,6.306-5.307Zm3.62.226a4.325,4.325,0,0,0,.5,2.363,1.682,1.682,0,0,0,1.493.752q1.934,0,1.977-2.976v-.365q0-3.126-2-3.126-1.815,0-1.966,2.7ZM26.136-8.347l-1.192-.086a2.142,2.142,0,0,0-2.191,1.074V0h-3.62V-11.623h3.395l.118,1.493a2.8,2.8,0,0,1,2.546-1.708,3.53,3.53,0,0,1,1.01.129Z" transform="translate(922.714 2877.555)"/>
    <path id="Trazado_718302" data-name="Trazado 718302" d="M-26.662-7.5a9.223,9.223,0,0,1-.849,4.05A6.272,6.272,0,0,1-29.922-.736a6.715,6.715,0,0,1-3.561.951A6.81,6.81,0,0,1-37.028-.7,6.261,6.261,0,0,1-39.44-3.33a8.958,8.958,0,0,1-.908-3.921v-.881a9.264,9.264,0,0,1,.843-4.055A6.257,6.257,0,0,1-37.087-14.9a6.762,6.762,0,0,1,3.583-.956,6.7,6.7,0,0,1,3.545.945,6.369,6.369,0,0,1,2.422,2.691,9,9,0,0,1,.875,4ZM-30.5-8.153a6.577,6.577,0,0,0-.779-3.54A2.5,2.5,0,0,0-33.5-12.9q-2.836,0-3,4.254L-36.513-7.5a6.764,6.764,0,0,0,.763,3.534,2.494,2.494,0,0,0,2.267,1.235,2.464,2.464,0,0,0,2.2-1.214A6.58,6.58,0,0,0-30.5-7.434Zm10.323-.269,1.687-3.2h3.76l-3.062,5.661L-14.577,0h-3.781l-1.826-3.437L-21.979,0h-3.8l3.223-5.962-3.051-5.661h3.8ZM-9.614,0h-3.642V-11.623h3.642Zm-1.354-16.285h3.824l-2.986,3.373-2.954-.005ZM-7.713-5.9a7.848,7.848,0,0,1,.58-3.115A4.67,4.67,0,0,1-5.468-11.1a4.389,4.389,0,0,1,2.524-.736A3.49,3.49,0,0,1-.107-10.613l.129-1.01H3.309V-.44a4.9,4.9,0,0,1-.714,2.669A4.584,4.584,0,0,1,.526,3.969a7.6,7.6,0,0,1-3.137.607,6.557,6.557,0,0,1-2.476-.483A4.47,4.47,0,0,1-6.918,2.836L-5.4.709A3.319,3.319,0,0,0-2.739,1.9,2.156,2.156,0,0,0-.333-.569V-.935A3.4,3.4,0,0,1-2.965.215,4.2,4.2,0,0,1-6.4-1.413,6.743,6.743,0,0,1-7.713-5.769Zm3.631.226a4.135,4.135,0,0,0,.537,2.261,1.7,1.7,0,0,0,1.5.833A1.923,1.923,0,0,0-.333-3.362V-8.25A1.875,1.875,0,0,0-2.02-9.045a1.706,1.706,0,0,0-1.515.865A4.715,4.715,0,0,0-4.082-5.672ZM10.989.215A5.975,5.975,0,0,1,6.66-1.38,5.509,5.509,0,0,1,5.006-5.532v-.3A7.138,7.138,0,0,1,5.667-8.98a4.834,4.834,0,0,1,1.928-2.111,5.821,5.821,0,0,1,3.008-.747,5.031,5.031,0,0,1,3.867,1.52A5.973,5.973,0,0,1,15.888-6.08v1.407H8.69a2.609,2.609,0,0,0,.849,1.536,2.525,2.525,0,0,0,1.7.559,3.254,3.254,0,0,0,2.686-1.2l1.654,1.955A4.624,4.624,0,0,1,13.659-.338,6.48,6.48,0,0,1,10.989.215Zm-.408-9.26q-1.59,0-1.891,2.105h3.652v-.279a1.793,1.793,0,0,0-.44-1.348A1.753,1.753,0,0,0,10.581-9.045Zm10.087-2.578.118,1.364a3.942,3.942,0,0,1,3.319-1.579,3.316,3.316,0,0,1,2.712,1.085,5.165,5.165,0,0,1,.929,3.266V0H24.116V-7.337a1.961,1.961,0,0,0-.354-1.294,1.64,1.64,0,0,0-1.289-.414,1.726,1.726,0,0,0-1.579.838V0h-3.62V-11.623Zm8.626,5.7a6.86,6.86,0,0,1,.677-3.1,4.84,4.84,0,0,1,1.944-2.089,5.856,5.856,0,0,1,2.976-.73A5.344,5.344,0,0,1,39-10.221a6.2,6.2,0,0,1,1.5,4.4v.129A6.019,6.019,0,0,1,39-1.38a5.359,5.359,0,0,1-4.087,1.6,5.42,5.42,0,0,1-3.985-1.488A5.819,5.819,0,0,1,29.3-5.307Zm3.62.226a4.325,4.325,0,0,0,.5,2.363,1.682,1.682,0,0,0,1.493.752q1.934,0,1.977-2.976v-.365q0-3.126-2-3.126-1.815,0-1.966,2.7Z" transform="translate(1043.736 2631.121)"/>
    <path id="Trazado_718303" data-name="Trazado 718303" d="M-26.662-7.5a9.223,9.223,0,0,1-.849,4.05A6.272,6.272,0,0,1-29.922-.736a6.715,6.715,0,0,1-3.561.951A6.81,6.81,0,0,1-37.028-.7,6.261,6.261,0,0,1-39.44-3.33a8.958,8.958,0,0,1-.908-3.921v-.881a9.264,9.264,0,0,1,.843-4.055A6.257,6.257,0,0,1-37.087-14.9a6.762,6.762,0,0,1,3.583-.956,6.7,6.7,0,0,1,3.545.945,6.369,6.369,0,0,1,2.422,2.691,9,9,0,0,1,.875,4ZM-30.5-8.153a6.577,6.577,0,0,0-.779-3.54A2.5,2.5,0,0,0-33.5-12.9q-2.836,0-3,4.254L-36.513-7.5a6.764,6.764,0,0,0,.763,3.534,2.494,2.494,0,0,0,2.267,1.235,2.464,2.464,0,0,0,2.2-1.214A6.58,6.58,0,0,0-30.5-7.434Zm10.323-.269,1.687-3.2h3.76l-3.062,5.661L-14.577,0h-3.781l-1.826-3.437L-21.979,0h-3.8l3.223-5.962-3.051-5.661h3.8ZM-9.614,0h-3.642V-11.623h3.642Zm-1.354-16.285h3.824l-2.986,3.373-2.954-.005ZM-7.713-5.9a7.848,7.848,0,0,1,.58-3.115A4.67,4.67,0,0,1-5.468-11.1a4.389,4.389,0,0,1,2.524-.736A3.49,3.49,0,0,1-.107-10.613l.129-1.01H3.309V-.44a4.9,4.9,0,0,1-.714,2.669A4.584,4.584,0,0,1,.526,3.969a7.6,7.6,0,0,1-3.137.607,6.557,6.557,0,0,1-2.476-.483A4.47,4.47,0,0,1-6.918,2.836L-5.4.709A3.319,3.319,0,0,0-2.739,1.9,2.156,2.156,0,0,0-.333-.569V-.935A3.4,3.4,0,0,1-2.965.215,4.2,4.2,0,0,1-6.4-1.413,6.743,6.743,0,0,1-7.713-5.769Zm3.631.226a4.135,4.135,0,0,0,.537,2.261,1.7,1.7,0,0,0,1.5.833A1.923,1.923,0,0,0-.333-3.362V-8.25A1.875,1.875,0,0,0-2.02-9.045a1.706,1.706,0,0,0-1.515.865A4.715,4.715,0,0,0-4.082-5.672ZM10.989.215A5.975,5.975,0,0,1,6.66-1.38,5.509,5.509,0,0,1,5.006-5.532v-.3A7.138,7.138,0,0,1,5.667-8.98a4.834,4.834,0,0,1,1.928-2.111,5.821,5.821,0,0,1,3.008-.747,5.031,5.031,0,0,1,3.867,1.52A5.973,5.973,0,0,1,15.888-6.08v1.407H8.69a2.609,2.609,0,0,0,.849,1.536,2.525,2.525,0,0,0,1.7.559,3.254,3.254,0,0,0,2.686-1.2l1.654,1.955A4.624,4.624,0,0,1,13.659-.338,6.48,6.48,0,0,1,10.989.215Zm-.408-9.26q-1.59,0-1.891,2.105h3.652v-.279a1.793,1.793,0,0,0-.44-1.348A1.753,1.753,0,0,0,10.581-9.045Zm10.087-2.578.118,1.364a3.942,3.942,0,0,1,3.319-1.579,3.316,3.316,0,0,1,2.712,1.085,5.165,5.165,0,0,1,.929,3.266V0H24.116V-7.337a1.961,1.961,0,0,0-.354-1.294,1.64,1.64,0,0,0-1.289-.414,1.726,1.726,0,0,0-1.579.838V0h-3.62V-11.623Zm8.626,5.7a6.86,6.86,0,0,1,.677-3.1,4.84,4.84,0,0,1,1.944-2.089,5.856,5.856,0,0,1,2.976-.73A5.344,5.344,0,0,1,39-10.221a6.2,6.2,0,0,1,1.5,4.4v.129A6.019,6.019,0,0,1,39-1.38a5.359,5.359,0,0,1-4.087,1.6,5.42,5.42,0,0,1-3.985-1.488A5.819,5.819,0,0,1,29.3-5.307Zm3.62.226a4.325,4.325,0,0,0,.5,2.363,1.682,1.682,0,0,0,1.493.752q1.934,0,1.977-2.976v-.365q0-3.126-2-3.126-1.815,0-1.966,2.7Z" transform="translate(837.421 2535.987)"/>
    <path id="Trazado_714963" data-name="Trazado 714963" d="M11472.668-9121.969h133.723v-10.7l32.857,27.509-32.857,23.688v-11.462h-133.723l17.574-12.227Z" transform="translate(-10995.845 11897.907)" fill="#ffebeb"/>
    <path id="Trazado_714964" data-name="Trazado 714964" d="M11472.668-9121.969h133.723v-10.7l32.857,27.509-32.857,23.688v-11.462h-133.723l17.574-12.227Z" transform="translate(-10543.097 11897.907)" fill="#ffebeb"/>
    <path id="Trazado_714965" data-name="Trazado 714965" d="M0,10.7H133.724V0l32.857,27.509L133.724,51.2V39.735H0L17.575,27.509Z" transform="translate(745.224 2701.523) rotate(-90)" fill="#ffebeb"/>
    <path id="Unión_8" data-name="Unión 8" d="M0,37.1l8.344,2.081C15.155,26.447,36.364.884,97.1.024c81-1.146,90.167,38.589,90.167,38.589h-8.406S164.342,3.464,97.1,7.285C37.7,10.659,21.827,27.746,16.3,41.167L24.442,43.2,7.785,57.945Z" transform="translate(670.095 2741.146)" fill="#cc9c00"/>
    <path id="Unión_9" data-name="Unión 9" d="M0,37.1l8.344,2.081C15.155,26.447,36.364.884,97.1.024c81-1.146,90.167,38.589,90.167,38.589h-8.406S164.342,3.464,97.1,7.285C37.7,10.659,21.827,27.746,16.3,41.167L24.442,43.2,7.785,57.945Z" transform="translate(876.873 2833.477) rotate(180)" fill="#cc9c00"/>
    <path id="Unión_10" data-name="Unión 10" d="M51.5,24.867a97.765,97.765,0,0,0-37.957-15.1L13,15.985,0,6.794,14.4,0l-.553,6.327a106.492,106.492,0,0,1,21.658,6.147,95.684,95.684,0,0,1,18.067,9.643c9.472,6.474,14.043,12.247,14.233,12.489L65.1,36.726l1.353-1.059L65.1,36.728C65.055,36.672,60.586,31.052,51.5,24.867Z" transform="translate(830.261 2724.226)" fill="#ababab"/>
    <path id="Unión_11" data-name="Unión 11" d="M51.5,24.867a97.765,97.765,0,0,0-37.957-15.1L13,15.985,0,6.794,14.4,0l-.553,6.327a106.492,106.492,0,0,1,21.658,6.147,95.684,95.684,0,0,1,18.067,9.643c9.472,6.474,14.043,12.247,14.233,12.489L65.1,36.726l1.353-1.059L65.1,36.728C65.055,36.672,60.586,31.052,51.5,24.867Z" transform="translate(659.169 2770.563) rotate(-79)" fill="#ababab"/>
    <path id="Unión_12" data-name="Unión 12" d="M51.5,24.867a97.765,97.765,0,0,0-37.957-15.1L13,15.985,0,6.794,14.4,0l-.553,6.327a106.492,106.492,0,0,1,21.658,6.147,95.684,95.684,0,0,1,18.067,9.643c9.472,6.474,14.043,12.247,14.233,12.489L65.1,36.726l1.353-1.059L65.1,36.728C65.055,36.672,60.586,31.052,51.5,24.867Z" transform="matrix(-0.719, 0.695, -0.695, -0.719, 683.663, 2834.07)" fill="#ababab"/>
    <path id="Unión_13" data-name="Unión 13" d="M51.5,24.867a97.765,97.765,0,0,0-37.957-15.1L13,15.985,0,6.794,14.4,0l-.553,6.327a106.492,106.492,0,0,1,21.658,6.147,95.684,95.684,0,0,1,18.067,9.643c9.472,6.474,14.043,12.247,14.233,12.489L65.1,36.726l1.353-1.059L65.1,36.728C65.055,36.672,60.586,31.052,51.5,24.867Z" transform="translate(822.261 2859.457) rotate(149)" fill="#ababab"/>
    <path id="Unión_14" data-name="Unión 14" d="M51.5,24.868a97.765,97.765,0,0,0-37.957-15.1L13,15.986,0,6.8H0L14.4,0h0l-.553,6.327a106.492,106.492,0,0,1,21.658,6.147,95.684,95.684,0,0,1,18.067,9.643c9.472,6.474,14.043,12.247,14.233,12.489L65.1,36.727l1.353-1.059L65.1,36.729C65.055,36.673,60.586,31.053,51.5,24.868Z" transform="matrix(-0.777, 0.629, -0.629, -0.777, 949.849, 2830.155)" fill="#ababab"/>
    <path id="Unión_15" data-name="Unión 15" d="M114.267,59.027A215.016,215.016,0,0,1,81.861,55.01,155.129,155.129,0,0,1,50.62,45.2,117.946,117.946,0,0,1,22.614,27.982,106.808,106.808,0,0,1,10.5,16.106,109.068,109.068,0,0,1,0,1.8L2.929,0c21.061,34.187,58.58,52.891,111.515,55.593,4.561.233,9.1.34,13.572.34,36.377,0,69.172-7.03,84.925-10.5l-1.5-6.517,15.207,4.724-11.6,10.912-1.332-5.768c-8.607,1.893-22.372,4.867-39.277,7.2a342.423,342.423,0,0,1-46.577,3.38Q120.917,59.366,114.267,59.027Z" transform="translate(651.109 2782.677)" fill="#ababab"/>
  </g>
</svg>
